<?xml version="1.0" standalone="no"?>
<!DOCTYPE svg PUBLIC "-//W3C//DTD SVG 1.1//EN" "http://www.w3.org/Graphics/SVG/1.1/DTD/svg11.dtd" >
<svg xmlns="http://www.w3.org/2000/svg" xmlns:xlink="http://www.w3.org/1999/xlink" version="1.1">
<metadata>
Created by FontForge 20150824 at Mon May 30 12:27:13 2016
 By Everything Fonts
Copyright (c) 2001, 2002, 2006 Parachute :, www.parachute.gr.  All rights reserved.
</metadata>
<defs>
<font id="PFHAUSSQUAREPROOUTLINE" horiz-adv-x="616" >
  <font-face 
    font-family="PFHAUSSQUAREPROOUTLINE"
    font-weight="400"
    font-stretch="normal"
    units-per-em="1000"
    panose-1="2 0 5 6 3 0 0 2 0 4"
    ascent="750"
    descent="-250"
    x-height="461"
    cap-height="649"
    bbox="-190 -214 1099 898"
    underline-thickness="20"
    underline-position="-153"
    unicode-range="U+0020-FB05"
  />
<missing-glyph horiz-adv-x="510" 
d="M21 25h468v650h-468v-650zM270 350l191 279v-558zM49 629l191 -279l-191 -279v558zM255 373l-187 275h375zM68 52l187 274l187 -274h-374zM-4 700h518v-700h-518v700zM395 623h-280l140 -205zM395 77l-140 204l-140 -204h280zM74 152l135 198l-135 198v-396zM436 152v396
l-135 -198z" />
    <glyph glyph-name="fj" unicode="fj" horiz-adv-x="552" 
d="M395 570v54h-197q-23 0 -43 -8t-35 -22t-24 -32.5t-9 -40.5v-496h60v364h260v-442q0 -24 -17 -39t-40 -15h-36v-57h42q22 0 42.5 8.5t35.5 23t24 33.5t9 41v502h-320v71q0 23 16.5 39t40.5 16h191zM204 545q-14 0 -23 -8.5t-9 -21.5v-46h320v-527q0 -27 -11 -51
t-29.5 -41.5t-43 -28t-52.5 -10.5h-67v107h61q13 0 22.5 8t9.5 21v417h-210v-364h-110v521q0 27 11 50.5t29.5 40.5t43 27t52.5 10h222v-104h-216z" />
    <glyph glyph-name="ffj" unicode="ffj" horiz-adv-x="777" 
d="M627 585v54h-154q-23 0 -43 -8t-35 -22t-24 -32.5t-9 -40.5v-92h-210v71q0 23 16.5 39t40.5 16h62v54h-68q-23 0 -43 -8t-35 -22t-24 -32.5t-9 -40.5v-496h60v364h210v-364h62v364h209v-442q0 -24 -17 -39t-41 -15h-34v-57h41q23 0 43 8.5t35 23t23.5 33.5t8.5 41v502
h-269v86q0 23 16 39t39 16h149zM478 560q-13 0 -21.5 -8.5t-8.5 -21.5v-61h269v-527q0 -27 -10.5 -51t-29 -41.5t-43 -28t-52.5 -10.5h-66v107h59q14 0 23.5 8t9.5 21v417h-159v-364h-112v364h-160v-364h-110v521q0 27 10.5 50.5t29 40.5t43.5 27t53 10h93v-104h-87
q-14 0 -23 -8.5t-9 -21.5v-46h160v67q0 27 11 50.5t29.5 40.5t43 27t52.5 10h179v-104h-174z" />
    <glyph glyph-name="ff" unicode="ff" horiz-adv-x="699" 
d="M708 584v54h-186q-23 0 -43 -8t-35 -22t-23.5 -32.5t-8.5 -40.5v-91h-259v71q0 23 15.5 39t40.5 16h111v54h-117q-23 0 -43 -8t-35 -22t-24 -32.5t-9 -40.5v-496h61v364h259v-364h60v364h143v55h-143v85q0 23 15.5 39t40.5 16h180zM528 559q-14 0 -22.5 -8.5t-8.5 -21.5
v-60h143v-105h-143v-364h-110v364h-209v-364h-111v521q0 27 11 50.5t29.5 40.5t43 27t52.5 10h142v-104h-136q-14 0 -22.5 -8.5t-8.5 -21.5v-46h209v66q0 27 10.5 50.5t29 40.5t43 27t52.5 10h211v-104h-205z" />
    <glyph glyph-name="fi" unicode="fi" horiz-adv-x="552" 
d="M467 25v419h-320v71q0 23 16.5 39t40.5 16h191v54h-197q-23 0 -43 -8t-35 -22t-24 -32.5t-9 -40.5v-496h60v364h260v-364h60zM382 0v364h-210v-364h-110v521q0 27 11 50.5t29.5 40.5t43 27t52.5 10h222v-104h-216q-14 0 -23 -8.5t-9 -21.5v-46h320v-469h-110z" />
    <glyph glyph-name="fl" unicode="fl" horiz-adv-x="596" 
d="M408 570v-441q0 -21 9 -40.5t24 -33.5t35 -22.5t43 -8.5h42v56h-37q-23 0 -39 15t-16 38v491h-269q-23 0 -43 -8t-35 -22t-24 -32.5t-9 -40.5v-496h60v364h144v55h-144v71q0 23 16.5 39t40.5 16h202zM206 545q-14 0 -23 -8.5t-9 -21.5v-46h144v-105h-144v-364h-110v521
q0 27 11 50.5t29.5 40.5t43 27t52.5 10h294v-516q0 -12 8.5 -20t21.5 -8h62v-106h-67q-28 0 -52.5 10.5t-43 28t-29.5 41t-11 50.5v416h-177z" />
    <glyph glyph-name="ffi" unicode="ffi" horiz-adv-x="780" 
d="M693 25v419h-270v85q0 23 16 39t39 16h161v54h-166q-23 0 -43 -8t-35 -22t-24 -32.5t-9 -40.5v-91h-210v71q0 23 16.5 39t40.5 16h62v54h-68q-23 0 -43 -8t-35 -22t-24 -32.5t-9 -40.5v-496h60v364h210v-364h62v364h209v-364h60zM608 0v364h-159v-364h-112v364h-160v-364
h-110v521q0 27 10.5 50.5t29 40.5t43.5 27t53 10h93v-104h-87q-14 0 -23 -8.5t-9 -21.5v-46h160v66q0 27 11 50.5t29.5 40.5t43 27t52.5 10h191v-104h-186q-13 0 -21.5 -8.5t-8.5 -21.5v-60h270v-469h-110z" />
    <glyph glyph-name="ffl" unicode="ffl" horiz-adv-x="827" 
d="M635 583v-454q0 -21 9 -40.5t24 -33.5t35 -22.5t43 -8.5h42v56h-36q-26 0 -41.5 15t-15.5 38v504h-219q-23 0 -43 -8t-35 -22t-24 -32.5t-9 -40.5v-90h-211v71q0 23 16.5 39t40.5 16h62v54h-68q-23 0 -43 -8t-35 -22t-24 -32.5t-9 -40.5v-496h60v364h211v-364h61v364h97
v55h-97v84q0 23 16 39t39 16h154zM481 558q-13 0 -21.5 -8.5t-8.5 -21.5v-59h97v-105h-97v-364h-111v364h-161v-364h-110v521q0 27 10.5 50.5t29 40.5t43.5 27t53 10h93v-104h-87q-14 0 -23 -8.5t-9 -21.5v-46h161v65q0 27 11 50.5t29.5 40.5t43 27t52.5 10h244v-529
q0 -12 9 -20t23 -8h61v-106h-67q-28 0 -52.5 10.5t-43 28t-29.5 41t-11 50.5v429h-129z" />
    <glyph glyph-name="ft" unicode="ft" horiz-adv-x="596" 
d="M354 583v54h-154q-23 0 -43 -8t-35 -22t-24 -32.5t-9 -40.5v-509h60v364h259v-364h61v364h92v55h-92v57h-61v-57h-259v84q0 23 16.5 39t40.5 16h148zM206 558q-14 0 -23 -8.5t-9 -21.5v-59h209v57h111v-57h92v-105h-92v-364h-111v364h-209v-364h-110v534q0 27 11 50.5
t29.5 40.5t43 27t52.5 10h179v-104h-173z" />
    <glyph glyph-name=".notdef" horiz-adv-x="510" 
d="M21 25h468v650h-468v-650zM270 350l191 279v-558zM49 629l191 -279l-191 -279v558zM255 373l-187 275h375zM68 52l187 274l187 -274h-374zM-4 700h518v-700h-518v700zM395 623h-280l140 -205zM395 77l-140 204l-140 -204h280zM74 152l135 198l-135 198v-396zM436 152v396
l-135 -198z" />
    <glyph glyph-name=".null" horiz-adv-x="0" 
 />
    <glyph glyph-name="nonmarkingreturn" horiz-adv-x="333" 
 />
    <glyph glyph-name="space" unicode=" " horiz-adv-x="270" 
 />
    <glyph glyph-name="exclam" unicode="!" horiz-adv-x="256" 
d="M68 649h112v-498h-112v498zM155 623h-62v-447h62v447zM67 107h112v-107h-112v107zM154 82h-62q1 -14 0.5 -28.5t-0.5 -28.5h62v57z" />
    <glyph glyph-name="quotedbl" unicode="&#x22;" horiz-adv-x="269" 
d="M30 648h50q19 0 34 -0.5t16 0.5l-5 -209h-95v209zM251 648l-5 -209h-93v209h98zM55 624v-161h46q0 7 0.5 30t1.5 49.5t1.5 50t0.5 31.5h-50zM177 624v-161h45q0 7 1 30t1.5 49.5t1 50t0.5 31.5h-49z" />
    <glyph glyph-name="numbersign" unicode="#" horiz-adv-x="550" 
d="M438 639q-8 -61 -12 -96.5t-6 -55.5q-3 -23 -4 -32h118l-10 -87h-119l-12 -97h118l-10 -87h-119q-1 -8 -4 -30q-2 -19 -6 -55.5t-12 -98.5h-90q7 60 11.5 96t6.5 56q3 23 4 32h-63q-1 -8 -4 -30q-2 -19 -6.5 -55.5t-12.5 -98.5h-90l23 184h-123l11 87h123q1 6 2.5 19
t3 28t3.5 28.5t3 21.5h-123l11 87h123q1 8 4 30q2 19 6.5 55t12.5 99h89q-8 -61 -12.5 -96.5t-6.5 -55.5q-3 -23 -4 -32h64q1 8 4 30q2 19 6.5 55t12.5 99h89zM370 614q-1 -8 -4 -30q-2 -19 -6.5 -55.5t-12.5 -98.5h-112q7 60 11.5 96t6.5 56q3 23 4 32h-40q-1 -8 -4 -30
q-2 -19 -6.5 -55.5t-12.5 -98.5h-123l-4 -38h122l-17 -146h-124l-4 -38h122q-8 -61 -12.5 -96.5t-6.5 -55.5q-3 -23 -4 -32h41q1 8 4 30q2 19 6.5 55t12.5 99h113q-8 -61 -12.5 -96.5t-6.5 -55.5q-3 -23 -4 -32h41q1 8 4 30q2 19 6.5 55t12.5 99h118q2 8 2.5 18t2.5 20h-119
l19 146h118l5 38h-119q8 60 12.5 96t6.5 56q3 23 4 32h-41zM343 392l-19 -146h-112l18 146h113zM251 368q-1 -6 -2.5 -19t-3 -28t-3.5 -29l-3 -21h64l12 97h-64z" />
    <glyph glyph-name="dollar" unicode="$" horiz-adv-x="550" 
d="M359 401q29 0 54.5 -10t44 -28t29.5 -41.5t11 -50.5v-79q0 -27 -11 -50.5t-29.5 -41.5t-44 -28t-54.5 -10h-27v-62h-113v62h-134v106h276q11 0 18 6.5t7 16.5v79q0 10 -7 16.5t-18 6.5h-171q-29 0 -54 10t-43.5 28t-29.5 41.5t-11 50.5v36q0 27 11 50.5t29.5 41.5
t43.5 28t54 10h29v58h113v-58h133v-106l-277 -1q-10 0 -17.5 -7t-7.5 -16v-35q0 -10 7 -16.5t18 -6.5h171zM473 271q0 22 -9 41t-24.5 33t-36 22t-43.5 8h-172q-21 0 -35.5 14.5t-14.5 34.5v35q0 20 15 34t35 14h252v56h-134v59h-62v-59h-54q-23 0 -43.5 -8t-36 -22
t-24.5 -33t-9 -41v-36q0 -22 9 -41t24.5 -33.5t36 -22.5t43.5 -8h171q21 0 36 -14t15 -34v-79q0 -20 -15 -34t-36 -14h-250v-55h133v-63h62v63h53q24 0 44.5 8t36 22t24.5 33t9 41v79z" />
    <glyph glyph-name="percent" unicode="%" horiz-adv-x="816" 
d="M513 653q40 0 57 -0.5t24.5 -0.5h12.5t21 1l-323 -840h-116zM242 461q17 0 32 -6.5t26.5 -17t18 -25t6.5 -30.5v-112q0 -33 -24.5 -56t-58.5 -23h-117q-35 0 -59.5 23t-24.5 56v112q0 16 6.5 30.5t18 25t27 17t32.5 6.5h117zM700 269q17 0 32 -6.5t26.5 -17t18 -25
t6.5 -30.5v-111q0 -33 -24 -56t-59 -23h-118q-35 0 -59 23t-24 56v111q0 16 6.5 30.5t17.5 25t26.5 17t32.5 6.5h118zM758 190q0 22 -17 38t-41 16h-118q-24 0 -41 -16t-17 -38v-111q0 -23 17 -38.5t41 -15.5h118q24 0 41 15.5t17 38.5v111zM591 627h-61l-304 -789h62z
M299 382q0 22 -16.5 37.5t-40.5 15.5h-117q-25 0 -42 -15.5t-17 -37.5v-112q0 -23 17 -38.5t42 -15.5h117q24 0 40.5 15.5t16.5 38.5v112zM689 204q16 0 22 -14l3 -5v-96q0 -11 -7 -18t-18 -7h-96q-11 0 -17.5 7t-6.5 18v97l2 4q6 14 22 14h96zM231 395q11 0 17.5 -6.5
t6.5 -17.5v-90q0 -11 -6.5 -18t-17.5 -7h-96q-11 0 -18 7t-7 18v90q0 10 7 17t18 7h96zM230 370h-94v-89h94v89zM688 179h-94v-89h94v89z" />
    <glyph glyph-name="ampersand" unicode="&#x26;" horiz-adv-x="587" 
d="M512 138l70 -72l-85 -71q-11 12 -18 18.5t-10 10.5q-4 4 -5 6q-39 -30 -88 -30h-211q-30 0 -56.5 12t-46.5 32q-35 37 -35 87v79q0 124 89 181q-12 15 -19.5 27t-12 24.5t-6.5 26.5t-3 32q-1 3 -0.5 9t0.5 8q0 27 10.5 51t29.5 41.5t43.5 28t53.5 10.5h46
q28 0 53.5 -10.5t44 -28t29.5 -41.5t11 -51v-9q0 -48 -25 -86.5t-73 -64.5q1 -2 16.5 -18.5t33.5 -36t34 -36.5t19 -21v40h111v-148zM467 64q8 -9 14.5 -15.5l10.5 -10.5q4 -5 7 -8l46 38q-20 21 -31 32.5t-16 17.5t-6.5 8t-2.5 3l-1 2v130q-15 0 -31 0.5t-30 -0.5v-79
l-170 182l26 14q43 22 65.5 55.5t22.5 75.5v9q0 22 -9 41.5t-24.5 33.5t-36 22.5t-43.5 8.5h-46q-23 0 -43.5 -8.5t-35.5 -22.5t-24 -33.5t-9 -41.5q0 -20 1 -35t5 -27.5t11.5 -24.5t19.5 -25l18 -20q-10 -6 -13 -8t-3.5 -2.5t-1 -0.5t-5.5 -3q-39 -24 -59.5 -65t-20.5 -95
v-82q0 -39 28 -69q17 -16 38.5 -26t46.5 -10h211q20 0 39 7t36 19zM198 339q57 -60 110.5 -115t114.5 -117l-9 -7.5t-5 -4.5l-2 -2q-16 -13 -37 -13h-153h-22t-24 1.5t-23 5.5t-19 12q-15 15 -15 37v98q0 34 19.5 61t51.5 39zM370 106q10 0 18 6q-4 1 -25 21
q-19 17 -58.5 57.5t-112.5 118.5q-23 -9 -37.5 -29.5t-14.5 -45.5v-99q0 -11 7 -17q11 -11 31.5 -11.5t37.5 -0.5h154zM217 406q-23 26 -39.5 52t-16.5 50v12q0 18 13.5 33.5t36.5 15.5h49q20 0 34.5 -14.5t14.5 -34.5v-10q0 -18 -7 -34.5t-19 -31t-29 -24.5t-37 -14z
M186 508q0 -10 4.5 -20.5t10.5 -20.5t13 -18.5t12 -13.5q26 11 41.5 31t15.5 44v10q0 10 -6.5 16.5t-16.5 6.5h-49q-11 0 -18 -7.5t-7 -15.5v-12z" />
    <glyph glyph-name="quotesingle" unicode="'" horiz-adv-x="174" 
d="M30 648h50q19 0 34 -0.5t16 0.5l-5 -209h-95v209zM55 624v-161h46q0 7 0.5 30t1.5 49.5t1.5 50t0.5 31.5h-50z" />
    <glyph glyph-name="parenleft" unicode="(" horiz-adv-x="306" 
d="M182 637q-8 -7 -8 -20v-588q0 -11 9.5 -20t22.5 -9h63v-108h-69q-29 0 -54.5 10.5t-44 28.5t-29.5 42t-11 51v598q0 53 39 92q42 40 101 40h68v-106h-15q-18 0 -39.5 -0.5t-32.5 -10.5zM206 -25q-23 0 -40 16t-17 38v588q0 24 16 39q15 14 37 15.5t42 1.5v56h-13
q-6 0 -14 -0.5t-17 0.5q-47 0 -82 -33q-31 -31 -31 -74v-598q0 -22 9 -41.5t24 -33.5t35.5 -22.5t44.5 -8.5h44v57h-38z" />
    <glyph glyph-name="parenright" unicode=")" horiz-adv-x="306" 
d="M128 637q-11 10 -32.5 10.5t-39.5 0.5h-15v106h68q59 0 101 -40q39 -39 39 -92v-598q0 -27 -11 -51t-29.5 -42t-44 -28.5t-54.5 -10.5h-69v108h63q13 0 22.5 9t9.5 20v588q0 13 -8 20zM67 -25v-57h43q24 0 44.5 8.5t36 22.5t24.5 33.5t9 41.5v598q0 21 -8.5 40t-23.5 34
q-35 33 -82 33q-10 -1 -17.5 -0.5t-13.5 0.5h-12v-56q20 0 41.5 -1.5t36.5 -15.5q17 -15 17 -39v-588q0 -22 -17.5 -38t-40.5 -16h-37z" />
    <glyph glyph-name="asterisk" unicode="*" horiz-adv-x="454" 
d="M410 467q-32 -9 -50 -14.5t-27 -7.5q-11 -4 -14 -4q2 -3 9 -11q6 -7 17.5 -20.5t31.5 -36.5l-90 -60q-21 25 -33 39t-18 22q-7 9 -9 11l-56 -70l-90 60q20 23 31 36t17 20q7 8 9 11q-3 0 -14 4q-9 2 -27.5 7.5t-50.5 14.5l36 95q32 -10 50.5 -15.5t27.5 -8.5q11 -4 14 -5
v84h111v-84q3 0 14 4q9 3 27.5 8t50.5 15zM340 378q-6 6 -15 17q-8 9 -20 23.5t-30 35.5q29 8 48.5 14t31.5 10q14 4 22 6q-1 4 -6.5 19t-9.5 27l-21 -6q-12 -4 -32 -9.5t-49 -13.5v91h-60v-92q-30 9 -49.5 15t-31.5 10q-14 4 -21 7l-18 -47q9 -2 23 -6q12 -4 32 -9.5
t49 -13.5q-18 -22 -30.5 -36t-20.5 -23q-9 -11 -14 -17l47 -31q4 5 13 16q8 9 19.5 23t29.5 36q19 -23 31 -37.5t20 -23.5q9 -11 14 -16z" />
    <glyph glyph-name="plus" unicode="+" horiz-adv-x="550" 
d="M512 282v-103h-176v-163h-112v163h-186l1 103h185v163h112v-163h176zM487 256h-176v164h-62v-164h-185v-52h185v-163h62v163h176v52z" />
    <glyph glyph-name="comma" unicode="," horiz-adv-x="172" 
d="M157 103l-47 -159h-95l31 159h111zM123 78h-56l-21 -108h45z" />
    <glyph glyph-name="hyphen" unicode="-" horiz-adv-x="454" 
d="M405 270v-84h-355v84h355zM74 245v-35h307v35h-307z" />
    <glyph glyph-name="period" unicode="." horiz-adv-x="171" 
d="M141 105v-104h-113v104h113zM116 79h-62v-53h62v53z" />
    <glyph glyph-name="slash" unicode="/" horiz-adv-x="445" 
d="M323 746q40 0 57 -0.5t24.5 -0.5h12.5t21 1l-323 -854h-116zM401 721h-61l-304 -803h62z" />
    <glyph glyph-name="zero" unicode="0" horiz-adv-x="550" 
d="M389 649q28 0 53.5 -10t44 -28t29.5 -41.5t11 -50.5v-389q0 -27 -11 -50.5t-29.5 -41.5t-44 -28t-53.5 -10h-229q-29 0 -54 10t-43.5 28t-29.5 41.5t-11 50.5v389q0 27 11 50.5t29.5 41.5t43.5 28t54 10h229zM502 519q0 22 -9 41t-24.5 33t-36 22.5t-43.5 8.5h-229
q-23 0 -43.5 -8.5t-36 -22.5t-24.5 -33t-9 -41v-389q0 -22 9 -41t24.5 -33.5t36 -22.5t43.5 -8h229q23 0 43.5 8t36 22.5t24.5 33.5t9 41v389zM384 567q23 0 40 -15.5t17 -38.5v-379q0 -23 -17 -38.5t-40 -15.5h-218q-24 0 -40.5 15.5t-16.5 38.5v379q0 23 16.5 38.5
t40.5 15.5h218zM416 513q0 12 -9.5 20.5t-22.5 8.5h-218q-14 0 -23 -8t-9 -21v-379q0 -12 9 -20.5t23 -8.5h218q13 0 22.5 8.5t9.5 20.5v379z" />
    <glyph glyph-name="one" unicode="1" horiz-adv-x="550" 
d="M219 648h112v-648h-111zM306 623h-61v-598h61v598z" />
    <glyph glyph-name="two" unicode="2" horiz-adv-x="550" 
d="M190 340q-14 0 -23 -8t-9 -20v-207h344v-105h-456v317q0 50 36 88q20 20 46.5 31t55.5 11h186q8 0 14 5t6 13v58q0 7 -6 12.5t-14 5.5h-193v107h212q24 0 44.5 -8.5t36.5 -23.5t25 -35t9 -42v-90q0 -23 -9 -43t-25 -34.5t-37 -23t-45 -8.5h-198zM133 312q0 23 16.5 38
t40.5 15h198q19 0 35.5 6.5t29 18t19.5 26.5t7 33v90q0 35 -26.5 59.5t-63.5 24.5h-187l1 -57h167q19 0 32 -13t13 -30v-58q0 -18 -13 -31t-32 -13h-186q-50 0 -84 -34q-14 -14 -21.5 -31.5t-7.5 -36.5v-294h406v55h-344v232z" />
    <glyph glyph-name="three" unicode="3" horiz-adv-x="550" 
d="M380 648q28 0 53.5 -10.5t44.5 -28t30 -41t11 -50.5v-389q0 -27 -11 -50.5t-30 -41t-44.5 -27.5t-53.5 -10h-349v104h343q15 0 24.5 9t9.5 20v206h-325v107h325v65q0 12 -9.5 20.5t-23.5 8.5h-343v108h348zM493 518q0 22 -9 41t-24 33t-35.5 22t-44.5 8h-323v-57h318
q24 0 41 -15.5t17 -38.5v-91h-324v-56h324v-231q0 -20 -16 -37t-43 -17h-317v-54h323q24 0 44.5 8t35.5 22.5t24 33.5t9 40v389z" />
    <glyph glyph-name="four" unicode="4" horiz-adv-x="550" 
d="M525 286v-108h-39v-178h-113v178h-348v91q68 71 120 125t91 93.5t65.5 67t43.5 45.5q40 41 47 48h94v-362h39zM499 260h-38v109.5t-0.5 85.5t-0.5 63.5v45.5v59h-58q-70 -72 -135 -140q-28 -29 -58 -59.5t-58.5 -60t-54.5 -55.5l-47 -47l1 -58h349v-178h62v178h38v57z
M134 260l265 277v-277h-265zM373 474l-180 -188h180v188z" />
    <glyph glyph-name="five" unicode="5" horiz-adv-x="550" 
d="M379 446q28 0 53 -10t44 -27.5t29.5 -41t10.5 -50.5v-190q0 -27 -10.5 -50t-29 -40t-43.5 -27t-54 -10h-206q-29 0 -54 10t-43.5 28t-29.5 41.5t-11 50.5l-1 79h110v-75q0 -12 9 -20.5t23 -8.5h198q14 0 22.5 8t8.5 20v178q0 11 -9.5 20t-22.5 9h-334v308h366v-107h-254
v-95h228zM491 317q0 21 -9 40t-24 33.5t-35.5 22.5t-43.5 8h-253v145h254v57h-316v-258h309q23 0 40 -16t17 -38v-178q0 -23 -16.5 -38t-39.5 -15h-198q-24 0 -40.5 15.5t-16.5 38.5v50h-59v-54q0 -22 9 -41t24.5 -33t36 -22t43.5 -8l206 -1q24 0 44.5 8t35.5 21.5
t23.5 32.5t8.5 40v190z" />
    <glyph glyph-name="six" unicode="6" horiz-adv-x="550" 
d="M387 447q28 0 53.5 -10.5t44 -28t29.5 -41.5t11 -51v-186q0 -27 -11 -50.5t-29.5 -41.5t-44 -28t-53.5 -10h-225q-29 0 -54 10t-43.5 28t-29.5 41.5t-11 50.5v334q0 38 15.5 72t42 59t62 39.5t76.5 14.5h169v-108h-169q-32 0 -57.5 -18t-25.5 -49v-27h250zM500 316
q0 21 -9 40.5t-24.5 34t-36 23t-43.5 8.5h-276v45q0 23 8.5 41.5t23.5 31.5t35 20t42 7h143v56h-143q-35 0 -66.5 -12.5t-54.5 -34t-36.5 -50.5t-13.5 -62v-334q0 -22 9 -41t24.5 -33.5t36 -22.5t43.5 -8h225q23 0 43.5 8t36 22.5t24.5 33.5t9 41v186zM381 365q23 0 40 -16
t17 -38v-184q0 -18 -14 -33t-43 -15h-212q-32 0 -44.5 15.5t-12.5 32.5v238h269zM413 311q0 11 -9.5 20t-22.5 9h-244v-213q0 -14 11.5 -18t20.5 -4h212q7 0 19.5 3.5t12.5 18.5v184z" />
    <glyph glyph-name="seven" unicode="7" horiz-adv-x="550" 
d="M26 648h498v-91l-291 -557h-126q52 100 92 176t69.5 133t49.5 96t34 65q32 61 37 71h-363v107zM499 623h-448v-57h380q-48 -92 -85.5 -164t-66.5 -127t-49.5 -95t-35.5 -68q-34 -65 -45 -87h69q0 1 12 23.5t31.5 60t44 84.5t50.5 97t51 97.5l45 85.5t33 62.5t14 26.5v61z
" />
    <glyph glyph-name="eight" unicode="8" horiz-adv-x="550" 
d="M472 412q29 -12 41.5 -37t12.5 -61v-184q0 -27 -11 -51t-29.5 -41.5t-44 -27.5t-54.5 -10h-225q-29 0 -54 10.5t-43.5 28t-29.5 41t-11 50.5v183q0 35 14.5 59t40.5 39q-10 16 -10 34v94q0 45 31 77t84 32h180q57 0 86.5 -32t29.5 -77v-94q0 -19 -8 -33zM500 314
q0 29 -11.5 53t-49.5 38q11 13 13.5 23.5t2.5 16.5v94q0 35 -22 59t-69 24h-180q-43 0 -66.5 -24t-23.5 -59v-94q0 -5 2.5 -16t15.5 -25q-38 -20 -50.5 -41t-12.5 -50v-183q0 -22 9 -41t24.5 -33.5t36 -22.5t44.5 -8h224q24 0 44.5 8t36 22.5t24 33.5t8.5 41v184zM201 421
q-19 0 -32 12.5t-13 30.5v58q0 18 13 30.5t32 12.5h146q19 0 32 -12.5t13 -30.5v-58q0 -18 -13 -30.5t-32 -12.5h-146zM181 464q0 -8 6 -13t14 -5h146q8 0 14 5t6 13v58q0 8 -6 13t-14 5h-146q-8 0 -14 -5t-6 -13v-58zM380 364q24 0 40.5 -15.5t16.5 -38.5v-176
q0 -23 -16.5 -38.5t-40.5 -15.5h-212q-23 0 -40 15.5t-17 38.5v175q0 23 17 39t40 16h212zM412 310q0 12 -9 20.5t-23 8.5h-212q-13 0 -22 -9t-9 -21v-175q0 -12 9 -20.5t22 -8.5h212q14 0 23 8.5t9 20.5v176z" />
    <glyph glyph-name="nine" unicode="9" horiz-adv-x="550" 
d="M162 202q-29 0 -54 10.5t-43.5 28t-29.5 41.5t-11 51v186q0 27 11 50.5t29.5 41.5t43.5 28t54 10h225q28 0 53.5 -10t44 -28t29.5 -41.5t11 -50.5v-334q0 -38 -15.5 -72t-42 -59t-62.5 -39.5t-76 -14.5h-169v108h169q32 0 57.5 18t25.5 49v27h-250zM49 333q0 -21 9 -40.5
t24.5 -34t36 -23t43.5 -8.5h276v-45q0 -23 -8.5 -41.5t-23.5 -31.5t-35 -20t-42 -7h-143v-56h143q35 0 66 12.5t54.5 34t37 50.5t13.5 62v334q0 22 -9 41t-24.5 33t-36 22.5t-43.5 8.5h-225q-23 0 -43.5 -8.5t-36 -22.5t-24.5 -33t-9 -41v-186zM168 284q-23 0 -40 16t-17 38
v184q0 18 14 33t43 15h212q32 0 44.5 -15.5t12.5 -32.5v-238h-269zM136 338q0 -11 9.5 -20t22.5 -9h244v213q0 14 -11.5 18t-20.5 4h-212q-7 0 -19.5 -3.5t-12.5 -18.5v-184z" />
    <glyph glyph-name="colon" unicode=":" horiz-adv-x="249" 
d="M177 294h-113v104h113v-104zM177 1h-113v104h113v-104zM152 373h-62v-54h62v54zM152 79h-62v-53h62v53z" />
    <glyph glyph-name="semicolon" unicode=";" horiz-adv-x="207" 
d="M173 102l-47 -159h-95l31 159h111zM169 294h-113v104h113v-104zM139 77h-56q-2 -8 -4.5 -22t-5.5 -29.5l-6 -31t-5 -26.5h45zM144 373h-62v-54h62v54z" />
    <glyph glyph-name="less" unicode="&#x3c;" horiz-adv-x="550" 
d="M488 464l17 8v-106q-101 -44 -162.5 -70.5t-95.5 -40.5q-40 -17 -56 -24q15 -7 55 -24q33 -14 94.5 -40.5t162.5 -70.5v-104l-458 197v83zM480 435q-6 -3 -26 -11.5t-49 -21.5t-64.5 -28.5t-72 -31t-71 -30.5t-62.5 -27t-45.5 -20t-20.5 -9v-51l409 -176v51q-9 3 -49 21
q-17 7 -42.5 18t-61.5 27t-84 37t-111 48q63 27 111.5 48t85 36.5t62 26.5t42.5 19q40 18 49 21v53z" />
    <glyph glyph-name="equal" unicode="=" horiz-adv-x="550" 
d="M468 340v-96h-387v96h387zM468 201v-95h-387v95h387zM105 177v-47h338v47h-338zM105 315v-47h338v47h-338z" />
    <glyph glyph-name="greater" unicode="&#x3e;" horiz-adv-x="550" 
d="M505 272v-83l-458 -197v104q101 44 162 70.5t94 40.5q39 17 55 24q-16 7 -56 24q-34 14 -95 40.5t-162 70.5v106l17 -8zM69 382q9 -3 49 -21q17 -8 42.5 -19t62 -26.5t85.5 -36.5l112 -48q-63 -27 -111.5 -48t-84.5 -37t-61.5 -27t-42.5 -18q-40 -18 -49 -21v-51l409 176
v51l-411 179v-53z" />
    <glyph glyph-name="question" unicode="?" horiz-adv-x="542" 
d="M354 648q55 0 93 -38q18 -17 27.5 -40t9.5 -49v-180q0 -26 -10 -49.5t-28 -40.5t-41.5 -27.5t-50.5 -10.5h-180v-63h-101v164h276q13 0 22.5 9.5t9.5 22.5v172q0 13 -9 22t-23 9h-291v99h296zM354 624q-94 -1 -147.5 -0.5t-81.5 0.5h-42v-50q44 -1 90 -1h175q24 1 41 -16
q16 -16 16 -39v-172q0 -23 -16.5 -39.5t-39.5 -16.5h-252v-115h54v31q0 5 -0.5 10.5t-0.5 10.5v10h203q22 0 41.5 8.5t34 22.5t23 33t8.5 40v181q0 41 -30 71q-31 31 -76 31zM176 100v-100h-103v100h103zM97 76v-52h54v52h-54z" />
    <glyph glyph-name="at" unicode="@" horiz-adv-x="774" 
d="M419 663q68 0 127 -20t102 -56t67.5 -86.5t24.5 -111.5q0 -45 -11.5 -86.5t-35.5 -73.5t-61.5 -51t-88.5 -19q-6 0 -17.5 1t-24.5 4.5t-25.5 9.5t-21.5 16q-47 -29 -114 -29h-34q-57 0 -92.5 33.5t-35.5 88.5q0 40 16.5 76t44 63t65 43t79.5 16h204q-18 -65 -29.5 -104.5
t-17.5 -62t-9 -31.5t-3 -11t0.5 -2t0.5 -4q0 -18 26 -18q24 0 40 13.5t25.5 33t13.5 42.5t4 43q0 43 -15.5 77.5t-44 59.5t-69 38.5t-90.5 13.5q-53 0 -103 -22.5t-89 -59t-63 -84t-24 -96.5q0 -50 16.5 -92t46 -73t71.5 -48t93 -17q18 0 44.5 4t55.5 12.5t60 22t58 33.5
l2 1l78 -61l-3 -2q-69 -52 -145 -77.5t-146 -25.5q-77 0 -138.5 23t-104 65t-65 101.5t-22.5 133.5q0 69 31.5 133t84 113.5t121 79.5t141.5 30zM419 638q-68 0 -132 -28t-113 -74t-78.5 -105.5t-29.5 -123.5q0 -69 20.5 -124t60 -93.5t97 -59t130.5 -20.5q58 0 122 20
t125 61q-11 10 -20 16.5t-16 12.5q-29 -18 -59.5 -31.5t-60 -21.5t-55.5 -12t-45 -4q-56 0 -102 19.5t-79 53.5t-51 81t-18 102q0 54 26 106t68.5 92t97 64.5t112.5 24.5q55 0 100.5 -15.5t77.5 -43.5t49.5 -67.5t17.5 -87.5q0 -35 -10.5 -68.5t-31.5 -62.5
q-12 -16 -34.5 -21t-36.5 -5q-17 0 -32.5 11t-15.5 31q1 5 1.5 7t0.5 3v1l48 180h-177q-32 0 -63 -12.5t-56 -35t-40 -55.5t-15 -73q0 -43 29 -68.5t75 -25.5h34q31 0 58.5 8t60.5 29q18 -20 36 -29.5t53 -9.5q45 0 76.5 17t52 45.5t29.5 65.5t9 77q0 56 -23 102t-63 78.5
t-94 50.5t-116 18zM492 414l-5 -24q-5 -21 -10 -49t-18.5 -53t-38 -42t-67.5 -17h-35q-29 0 -48.5 17t-19.5 44q1 24 10.5 46t26 39t38 27.5t45.5 11.5h122zM456 369q1 5 2 9t2 6q1 3 1 4h-91q-15 0 -31.5 -7t-30.5 -20t-23 -31t-9 -40q0 -17 11 -26t31 -9h35q30 0 48 9.5
t29 25.5t16 36.5t10 42.5z" />
    <glyph glyph-name="A" unicode="A" horiz-adv-x="582" 
d="M547 648v-648h-112v339h-283v-339h-111v519q0 27 11 50.5t29.5 41t43.5 27.5t54 10h368zM521 26v597h-342q-23 0 -43.5 -8t-36 -22.5t-24.5 -33.5t-9 -40v-493h61v339h333v-339h61zM127 512q0 23 17 38.5t41 15.5h275v-145h-333v91zM152 446h283v95h-250
q-14 0 -23.5 -8.5t-9.5 -20.5v-66z" />
    <glyph glyph-name="B" unicode="B" horiz-adv-x="586" 
d="M557 128q0 -50 -37 -87q-20 -20 -46 -30.5t-55 -10.5h-366v649h329q55 0 85.5 -32t30.5 -77v-72q0 -17 -3.5 -31t-14.5 -31q27 -12 42 -28.5t22.5 -36t10 -41t2.5 -43.5v-129zM502 59q29 29 29 69v129q0 19 -1.5 37.5t-9.5 36.5t-25 34.5t-49 32.5q17 19 22 37.5t5 32.5
v72q0 35 -23 59t-68 24h-303v-34v-69v-92v-103.5v-103.5v-92.5v-69v-34.5h340q24 0 45.5 8.5t37.5 25.5zM366 363q48 0 75.5 -29.5t27.5 -76.5v-124q0 -23 -16.5 -38.5t-40.5 -15.5h-273v284h227zM412 104q14 0 23 8.5t9 20.5v123q0 36 -20.5 59t-57.5 23h-201v-234h247z
M412 466q0 -20 -13 -33.5t-32 -13.5h-227v148h227q19 0 32 -12.5t13 -30.5v-58zM166 444h201q8 0 14 6.5t6 15.5v58q0 8 -6 13t-14 5h-201v-98z" />
    <glyph glyph-name="C" unicode="C" horiz-adv-x="556" 
d="M529 462h-111v51q0 12 -9.5 20.5t-22.5 8.5h-218q-14 0 -23.5 -8.5t-9.5 -20.5v-379q0 -12 9 -20.5t23 -8.5h219q13 0 22.5 8.5t9.5 20.5v59h111v-63q0 -52 -36 -88q-20 -20 -46.5 -31t-55.5 -11h-229q-29 0 -54 10t-43.5 28t-29.5 41.5t-11 50.5v389q0 27 11 50.5
t29.5 41.5t43.5 28t54 10h229q29 0 55.5 -11t46.5 -31q36 -36 36 -88v-57zM386 567q23 0 40 -15.5t17 -38.5v-26h61v34q0 39 -29 68q-35 35 -84 35h-229q-23 0 -43.5 -8.5t-36 -22.5t-24.5 -33t-9 -41v-389q0 -22 9 -41t24.5 -33.5t36 -22.5t43.5 -8h229q24 0 46 9t38 26
q29 29 29 68v40h-61v-34q0 -23 -17 -38.5t-40 -15.5h-219q-23 0 -40 15.5t-17 38.5v379q0 23 16.5 38.5t41.5 15.5h218z" />
    <glyph glyph-name="D" unicode="D" horiz-adv-x="591" 
d="M413 648q28 0 53 -10t43.5 -28t29.5 -41.5t11 -50.5v-388q0 -27 -11 -50.5t-29.5 -41.5t-43.5 -28t-53 -10h-369v648h369zM525 518q0 22 -9 41t-24 33t-35.5 22.5t-43.5 8.5h-343v-598h343q23 0 43.5 8t35.5 22.5t24 33.5t9 41v388zM407 566q24 0 41 -15.5t17 -38.5v-378
q0 -22 -17.5 -38t-40.5 -16h-276v486h276zM439 512q0 12 -9 20t-23 8q-92 0 -143 0.5t-75 0.5h-33v-436h251q13 0 22.5 8.5t9.5 20.5v378z" />
    <glyph glyph-name="E" unicode="E" horiz-adv-x="556" 
d="M530 105v-105h-351q-29 0 -54 10t-43.5 28t-29.5 41.5t-11 50.5v388q0 27 11 50.5t29.5 41.5t43.5 28t54 10h351v-108h-346q-14 0 -23.5 -8.5t-9.5 -19.5v-66h326v-107h-326v-205q0 -11 10 -20t25 -9h344zM505 25v55h-319q-25 0 -42.5 16t-17.5 38v231h326v56h-326v91
q0 22 17 38t41 16h321v57h-326q-23 0 -43.5 -8.5t-36 -22.5t-24.5 -33t-9 -41v-388q0 -22 9 -41t24.5 -33.5t36 -22.5t43.5 -8h326z" />
    <glyph glyph-name="F" unicode="F" horiz-adv-x="492" 
d="M202 541q-13 0 -22 -8.5t-9 -20.5v-66h235v-107h-236v-339h-111l-1 518q0 27 11 50.5t29.5 41.5t43.5 28t54 10h285v-107h-279zM146 421v91q0 23 16 38.5t40 15.5h254v57h-260q-23 0 -43.5 -8.5t-35.5 -22.5t-24 -33t-9 -41v-493h61v340h235v56h-234z" />
    <glyph glyph-name="G" unicode="G" horiz-adv-x="584" 
d="M549 462h-111v51q0 12 -9.5 20.5t-22.5 8.5h-217q-14 0 -23.5 -8.5t-9.5 -20.5v-379q0 -12 9 -20.5t23 -8.5h218q13 0 22.5 8.5t9.5 20.5v62h-150v104h261v-170q0 -27 -11 -50.5t-29.5 -41.5t-44 -28t-53.5 -10h-229q-29 0 -54 10t-43.5 28t-29.5 41.5t-11 50.5v389
q0 27 11 50.5t29.5 41.5t43.5 28t54 10h229q28 0 53.5 -10t44 -28t29.5 -41.5t11 -50.5v-57zM406 567q23 0 40 -15.5t17 -38.5v-26h61v32q0 22 -9 41t-24.5 33t-36 22.5t-43.5 8.5h-229q-23 0 -43.5 -8.5t-36 -22.5t-24.5 -33t-9 -41v-389q0 -22 9 -41t24.5 -33.5t36 -22.5
t43.5 -8h229q23 0 43.5 8t36 22.5t24.5 33.5t9 41v145h-211v-54h150v-87q0 -23 -17 -38.5t-40 -15.5h-218q-24 0 -40.5 15.5t-16.5 38.5v379q0 23 17 38.5t41 15.5h217z" />
    <glyph glyph-name="H" unicode="H" 
d="M559 648v-648h-113v116t0.5 86t0.5 60.5v39.5v37h-276v-339h-113v648h113v-202h276v35q0 21 -0.5 61t-0.5 106h113zM534 623h-62v-202h-326v202h-62v-598h62v340h326v-340h62v598z" />
    <glyph glyph-name="I" unicode="I" horiz-adv-x="276" 
d="M79 648h112v-648h-111zM166 623h-61v-598h61v598z" />
    <glyph glyph-name="J" unicode="J" horiz-adv-x="339" 
d="M178 648h112v-519q0 -27 -11 -50.5t-29.5 -41t-44 -27.5t-53.5 -10h-171v105h165q14 0 23 8t9 21v514zM265 623h-62v-489q0 -23 -16.5 -38.5t-40.5 -15.5h-140v-55h146q23 0 43.5 8t36 22.5t24.5 33.5t9 40v494z" />
    <glyph glyph-name="K" unicode="K" horiz-adv-x="604" 
d="M430 384q57 -20 91.5 -67t34.5 -105v-212h-112v212q0 16 -7 30.5t-18.5 25.5t-27 17.5t-32.5 6.5h-191v-292h-113v648h113v-251h140q3 5 20 33q14 24 44.5 74.5t86.5 143.5h127q-29 -49 -50.5 -86t-38 -64.5t-28 -46.5t-18.5 -32zM530 212q0 51 -30 93t-81 56l-27 8
q45 78 74 127t46 78q19 33 30 49h-69q-5 -8 -23 -38q-15 -26 -45.5 -76t-82.5 -137h-180v251h-62v-598h62v292h217q22 0 42 -8.5t35 -22.5t24 -33.5t9 -40.5v-187h61v187z" />
    <glyph glyph-name="L" unicode="L" horiz-adv-x="486" 
d="M471 104v-104h-415l1 648h112v-544h302zM446 79h-302v544h-62v-598h364v54z" />
    <glyph glyph-name="M" unicode="M" horiz-adv-x="768" 
d="M582 648q28 0 53.5 -10t44 -28t29.5 -41.5t11 -50.5v-518h-112l-1 513q0 11 -8 19q-9 9 -23 9q-48 -1 -73.5 -0.5t-38.5 0.5h-18v-541h-113v541h-161v-541h-113v648h523zM695 25v493q0 22 -9 41t-24.5 33t-36 22.5t-43.5 8.5h-498v-598h62v541h212v-541h62v541h155
q24 0 41 -15t17 -38v-488h62z" />
    <glyph glyph-name="N" unicode="N" horiz-adv-x="624" 
d="M564 0h-107q-3 2 -34 49q-13 20 -33.5 51.5t-50.5 78t-71 110.5t-95 150v-439h-113v648h116q2 -6 32 -54q13 -21 33 -53.5t49.5 -80t70 -112.5t94.5 -150v450h109v-648zM538 27v596h-58v-511q-58 92 -102.5 162.5t-78 123.5t-57.5 90.5l-40 62.5q-38 58 -47 72h-70v-598
h62v501q58 -92 102.5 -162t77.5 -122.5t56.5 -88.5t39.5 -60q37 -56 45 -66h70z" />
    <glyph glyph-name="O" unicode="O" 
d="M425 649q28 0 53.5 -10t44 -28t29.5 -41.5t11 -50.5v-389q0 -27 -11 -50.5t-29.5 -41.5t-44 -28t-53.5 -10h-229q-29 0 -54 10t-43.5 28t-29.5 41.5t-11 50.5v389q0 27 11 50.5t29.5 41.5t43.5 28t54 10h229zM538 519q0 22 -9 41t-24.5 33t-36 22.5t-43.5 8.5h-229
q-23 0 -43.5 -8.5t-36 -22.5t-24.5 -33t-9 -41v-389q0 -22 9 -41t24.5 -33.5t36 -22.5t43.5 -8h229q23 0 43.5 8t36 22.5t24.5 33.5t9 41v389zM420 567q23 0 40 -15.5t17 -38.5v-379q0 -23 -17 -38.5t-40 -15.5h-218q-24 0 -40.5 15.5t-16.5 38.5v379q0 23 16.5 38.5
t40.5 15.5h218zM452 513q0 12 -9.5 20.5t-22.5 8.5h-218q-14 0 -23 -8t-9 -21v-379q0 -12 9 -20.5t23 -8.5h218q13 0 22.5 8.5t9.5 20.5v379z" />
    <glyph glyph-name="P" unicode="P" horiz-adv-x="580" 
d="M405 648q28 0 53.5 -10t44.5 -27.5t30 -41t11 -50.5v-321q-72 0 -127.5 -0.5t-96 -0.5h-69h-46.5h-51v-197h-113v648h364zM518 519q0 21 -9 40t-24 33.5t-35.5 22.5t-44.5 8h-339v-598h62v197q133 0 210.5 0.5t117.5 0.5h62v296zM399 566q23 0 40 -16t17 -38v-234h-328
v288h271zM431 512q0 11 -9.5 20t-22.5 9h-245v-238h277v209z" />
    <glyph glyph-name="Q" unicode="Q" horiz-adv-x="586" 
d="M543 129q0 -36 -19 -66t-54 -47q2 -3 10 -12q7 -8 21 -23.5t39 -44.5h-149q-20 23 -31 36t-16 19q-6 7 -7 9h-161q-29 0 -54 10.5t-43.5 28t-29.5 41.5t-11 51v386q0 27 11 51t29.5 41.5t43.5 28t54 10.5h229q29 0 54 -10t44 -27.5t29.5 -41.5t10.5 -52v-388zM456 37
q29 14 45.5 38.5t16.5 53.5v388q0 22 -9 41.5t-24 33.5t-35.5 22.5t-44.5 8.5h-229q-23 0 -43.5 -8.5t-36 -23t-24.5 -33.5t-9 -41v-386q0 -22 9 -41.5t24.5 -33.5t36 -22.5t43.5 -8.5h173q17 -20 27.5 -32.5t16.5 -19.5q7 -8 10 -12h82q-6 6 -14 16q-15 17 -41 47zM400 566
q23 0 40 -16.5t17 -39.5v-376q0 -23 -16.5 -39t-40.5 -16h-20q-15 19 -25 31.5t-15 19.5q-7 8 -10 12h-79q4 -5 11 -14q6 -8 15.5 -20t23.5 -29h-119q-24 0 -40.5 16t-16.5 39v376q0 23 16.5 39.5t40.5 16.5h218zM432 510q0 13 -9.5 21.5t-22.5 8.5h-218q-14 0 -23 -8.5
t-9 -21.5v-376q0 -13 9 -21t23 -8h66q-2 2 -8 10q-5 7 -15 19t-26 33h144q18 -23 27.5 -35.5t14.5 -18.5q5 -7 7 -8h8q14 0 23 8t9 21v376z" />
    <glyph glyph-name="R" unicode="R" horiz-adv-x="600" 
d="M416 193q5 -6 23 -28q16 -19 48.5 -58t91.5 -108h-144q-60 72 -93 111t-48 58q-18 21 -21 25h-113v-193h-113v648h364q28 0 53.5 -10t44.5 -27.5t30 -41t11 -50.5v-326h-134zM285 218q57 -68 89 -106t49 -58q19 -23 24 -29h78q-13 15 -35 41q-19 23 -50 59t-78 93h162
v301q0 21 -9 40t-24 33.5t-35.5 22.5t-44.5 8h-339v-598h62v193h151zM462 274h-328v293h271q23 0 40 -16t17 -38v-239zM437 513q0 11 -9.5 20t-22.5 9h-245v-242h277v213z" />
    <glyph glyph-name="S" unicode="S" horiz-adv-x="572" 
d="M404 381q28 0 53.5 -10t44 -27.5t29.5 -41t11 -50.5v-122q0 -52 -39 -91q-20 -20 -45 -29.5t-54 -9.5h-351v104h353q10 0 17 7t7 15v124q0 9 -7 16t-17 7h-239q-29 0 -54.5 10t-44 27.5t-29.5 41t-11 50.5v117q0 27 11 50.5t29.5 41.5t44 28t54.5 10h352v-108h-354
q-11 0 -18 -6.5t-7 -16.5v-115q0 -9 7 -15.5t18 -6.5h239zM516 252q0 21 -9 40t-24 33.5t-35.5 22.5t-43.5 8h-239q-21 0 -35.5 13.5t-14.5 33.5v115q0 20 14.5 34.5t35.5 14.5h329v56h-327q-24 0 -44.5 -8t-35.5 -22t-24 -33t-9 -41v-117q0 -21 9 -40t24 -33.5t35.5 -22.5
t44.5 -8h239q20 0 34.5 -14t14.5 -34v-124q0 -19 -14.5 -33t-34.5 -14h-328v-54h54h273q47 0 81 32q30 30 30 73v122z" />
    <glyph glyph-name="T" unicode="T" horiz-adv-x="524" 
d="M14 648h496v-108h-193v-540h-113v540h-190v108zM484 623h-445v-57h190v-541h62v541h193v57z" />
    <glyph glyph-name="U" unicode="U" horiz-adv-x="576" 
d="M541 648v-648h-365q-29 0 -54 10t-43.5 27.5t-29.5 41t-11 50.5v519h113v-514q0 -12 9 -20.5t22 -8.5h246v543h113zM515 623h-62v-544h-271q-23 0 -39.5 16t-16.5 38v490h-63v-494q0 -21 9 -40t24.5 -33.5t36 -22.5t44.5 -8h338v598z" />
    <glyph glyph-name="V" unicode="V" horiz-adv-x="566" 
d="M553 648l-217 -648h-105l-221 648h118q28 -83 49.5 -146t38 -110.5t27.5 -81t19 -55.5q18 -52 21 -62q3 10 21 62q7 22 18.5 55.5t27.5 81t37.5 110.5t49.5 146h116zM318 25q2 5 11 31.5t22.5 67t30.5 91t34.5 103.5t35 104t31.5 93l23.5 70.5t11.5 36.5h-63
q-5 -14 -25 -73q-9 -25 -21.5 -62.5t-30.5 -90t-41.5 -122.5t-53.5 -160q-31 90 -55 160t-41.5 122.5l-30 90t-21.5 62.5q-20 59 -25 73h-65q3 -8 13 -37.5t24.5 -71.5t32 -93.5t35.5 -104t35 -103t31 -90.5t22.5 -66.5t10.5 -30.5h69z" />
    <glyph glyph-name="W" unicode="W" horiz-adv-x="734" 
d="M696 649v-649h-523q-29 0 -55 11t-46 31q-36 36 -36 88v519h112l1 -515q0 -12 8.5 -20.5t21.5 -8.5h130v544h113v-544h161v544h113zM671 623h-62v-543h-212v543h-62v-543h-156q-23 0 -39.5 15.5t-16.5 38.5v489h-62v-495q0 -19 7.5 -37t21.5 -32q16 -16 38 -25t46 -9h497
v598z" />
    <glyph glyph-name="X" unicode="X" horiz-adv-x="560" 
d="M553 649q-38 -61 -67.5 -107.5t-51 -81t-36.5 -58.5t-25 -39q-23 -37 -27 -42q4 -6 26 -41q9 -15 23.5 -38.5t35.5 -57.5t49.5 -79l66.5 -105h-130q-50 78 -77 121.5t-40 64.5l-18 30q-3 -5 -19 -30q-14 -21 -41 -64.5t-76 -121.5h-132q37 60 66 105t50 79t35.5 57.5
t24.5 38.5q22 35 26 41l-25 42q-9 15 -24 39t-36 58.5t-50 81t-67 107.5h131q50 -81 77 -126t41 -67q16 -26 19 -31q4 5 20 31q14 22 41.5 67t78.5 126h131zM502 25q-11 17 -35 55q-20 32 -56 90t-94 151q60 95 97 153.5t58 91.5q25 39 36 57h-72q-6 -9 -24 -38
q-16 -25 -46.5 -74t-83.5 -134q-53 85 -83.5 134t-45.5 74q-18 29 -22 38h-72q11 -18 35 -57q20 -33 56.5 -92.5t95.5 -153.5q-59 -92 -95 -150t-56 -90q-24 -38 -35 -55h72q4 8 22 36l45 72t83 131q52 -83 81.5 -131t44.5 -72q18 -28 23 -36h71z" />
    <glyph glyph-name="Y" unicode="Y" horiz-adv-x="582" 
d="M542 649v-473h-182v-176h-112v176h-70q-29 0 -54.5 10t-44 27.5t-29.5 41t-11 50.5v344h114v-339q0 -11 9 -20t22 -9h245v368h113zM516 624h-62v-368h-270q-23 0 -40 16t-17 38q0 105 0.5 166.5t0.5 94.5v53h-64v-319q0 -21 9 -40t24.5 -33.5t36 -22.5t44.5 -8h95v-176
h61v176h182v423z" />
    <glyph glyph-name="Z" unicode="Z" horiz-adv-x="548" 
d="M529 648v-103q-65 -81 -114.5 -143t-87 -108t-63 -78t-42.5 -53q-40 -49 -47 -58h354v-105h-503v34v12.5t0 2t0 2v12.5v34q66 81 116.5 143.5t88 109t64 79t43.5 53.5q40 50 48 59h-332v107h475zM504 623h-425v-57h360q-97 -120 -192 -239.5t-196 -236.5v-65h452v55h-380
q94 118 187.5 238t193.5 233v72z" />
    <glyph glyph-name="bracketleft" unicode="[" horiz-adv-x="348" 
d="M278 649h-94v-649h94v-108h-205v863h205v-106zM159 -25v699h94v56h-155v-812h155v57h-94z" />
    <glyph glyph-name="backslash" unicode="\" horiz-adv-x="445" 
d="M438 -108h-116l-323 854q16 -1 21 -1h12.5t24 0.5t57.5 0.5zM401 -82l-304 803h-61l303 -803h62z" />
    <glyph glyph-name="bracketright" unicode="]" horiz-adv-x="348" 
d="M73 755h205v-863h-205v108h94v649h-94v106zM98 -82h155v812h-155v-56h94v-699h-94v-57z" />
    <glyph glyph-name="asciicircum" unicode="^" horiz-adv-x="504" 
d="M212 592h83l197 -458h-104q-44 101 -70.5 162t-40.5 94q-17 39 -24 55q-7 -16 -24 -56q-14 -34 -40.5 -95t-70.5 -162h-106l8 17zM102 156q3 9 21 49q7 17 18 42.5t27 62t37 85.5l48 112q27 -63 48 -111.5t36.5 -84.5t26.5 -61.5t19 -42.5q18 -40 21 -49h51l-176 409h-51
l-179 -411h53z" />
    <glyph glyph-name="underscore" unicode="_" horiz-adv-x="500" 
d="M-25 -92h549v-84h-549v84zM0 -116v-36h500v36h-500z" />
    <glyph glyph-name="grave" unicode="`" horiz-adv-x="614" 
d="M309 506l-136 130l96 61l113 -142zM263 664q-8 -6 -23 -15t-26 -17q6 -6 20.5 -20t30.5 -29t29 -27.5t18 -16.5q7 5 16 10.5t17 11.5z" />
    <glyph glyph-name="a" unicode="a" horiz-adv-x="614" 
d="M561 461v-461h-370q-61 0 -103 42q-34 36 -34 84v208q0 26 10.5 49t29.5 40.5t43.5 27.5t53.5 10h370zM535 25l1 411h-345q-23 0 -43.5 -8t-35.5 -22t-24 -32.5t-9 -39.5v-209q0 -37 27 -66q17 -16 39 -25t46 -9h344zM475 383v-305h-279q-24 0 -40 16t-16 37v198
q0 23 16.5 38.5t40.5 15.5h278zM450 357h-253q-14 0 -23 -8t-9 -20v-198q0 -11 9 -19t23 -8h253v253z" />
    <glyph glyph-name="b" unicode="b" horiz-adv-x="608" 
d="M424 461q28 0 53.5 -10t44.5 -28t30 -41.5t11 -50.5v-331h-500v648h112v-187h249zM537 331q0 22 -9 41t-24 33t-35.5 22.5t-44.5 8.5h-275v187h-61v-598h449v306zM420 383q23 0 39.5 -16t16.5 -39v-249h-327v304h271zM451 328q0 12 -9 20.5t-22 8.5h-213q-27 0 -32 1
v-254h276v224z" />
    <glyph glyph-name="c" unicode="c" horiz-adv-x="607" 
d="M563 284h-111v46q0 10 -9 19t-23 9h-218q-14 0 -23 -9t-9 -19v-198q0 -10 9 -19t23 -9h218q14 0 23 9t9 19v50h111v-55q0 -50 -35 -85q-20 -20 -47 -31t-56 -11h-229q-29 0 -54 10t-43.5 27t-29.5 40t-11 49v209q0 26 11 49t29.5 40t43.5 27t54 10h229q29 0 56 -11
t47 -31q35 -35 35 -84v-51zM420 383q23 0 40 -15.5t17 -37.5v-20h61v26q0 37 -28 65q-33 35 -85 35h-229q-23 0 -43.5 -8t-36 -21.5t-24.5 -32t-9 -39.5v-209q0 -21 9 -39.5t24.5 -32t36 -21.5t43.5 -8h229q52 0 85 35q28 28 28 65v32h-61v-25q0 -22 -17 -37.5t-40 -15.5
h-218q-23 0 -40 15.5t-17 37.5v198q0 22 17 37.5t40 15.5h218z" />
    <glyph glyph-name="d" unicode="d" horiz-adv-x="608" 
d="M436 461v187h112v-648h-500v331q0 27 11 50.5t29.5 41.5t44 28t54.5 10h249zM522 25v598h-61v-187h-274q-24 0 -44.5 -8.5t-36 -22.5t-24.5 -33t-9 -41v-306h449zM461 383v-304h-327v249q0 23 16.5 39t39.5 16h271zM436 104v254q-6 -1 -33 -1h-213q-12 0 -21 -8.5
t-9 -20.5v-224h276z" />
    <glyph glyph-name="e" unicode="e" 
d="M560 202h-393v-68q0 -12 10 -20.5t24 -8.5h355v-105h-364q-28 0 -52.5 10t-43 27t-29 39.5t-10.5 48.5v210q0 26 10.5 49t29 40t43.5 27t53 10h230q30 0 55 -10t43 -28t28.5 -43t10.5 -55v-123zM201 79q-25 0 -42.5 16t-17.5 39v93h393v22v75q0 51 -30.5 81.5t-80.5 30.5
h-231q-23 0 -43 -8t-35 -21.5t-23.5 -32t-8.5 -39.5v-210q0 -21 9 -39t24 -31.5t35 -21.5t43 -8h337v54h-329zM473 275h-331v52q0 23 17 39t42 16h213q25 0 42 -16t17 -39v-52zM448 327q0 13 -10 21.5t-24 8.5h-213q-14 0 -23.5 -8.5t-9.5 -21.5v-27h280v27z" />
    <glyph glyph-name="f" unicode="f" horiz-adv-x="404" 
d="M209 542q-13 0 -22 -8.5t-9 -20.5v-52h145v-104h-145v-357h-113v519q0 27 11 50.5t29.5 41t43.5 28t54 10.5h214v-107h-208zM152 436v77q0 23 17 38.5t40 15.5h183v56h-189q-23 0 -43.5 -8t-36 -22t-24.5 -33t-9 -41v-494h62v358h146v53h-146z" />
    <glyph glyph-name="g" unicode="g" horiz-adv-x="608" 
d="M552 461v-520q0 -27 -11 -50.5t-29.5 -41t-44 -28t-53.5 -10.5h-227v106h221q13 0 22.5 8.5t9.5 20.5v54h-256q-29 0 -54 10t-43.5 28t-29.5 41.5t-11 50.5v200q0 27 11 51t29.5 41.5t43.5 28t54 10.5h368zM527 435h-343q-23 0 -43.5 -8.5t-36 -22.5t-24.5 -33t-9 -41
v-200q0 -22 9 -41t24.5 -33.5t36 -22.5t43.5 -8h281v-79q0 -23 -17 -38.5t-40 -15.5h-196v-55h202q23 0 43.5 8t36 22t24.5 33t9 41v494zM133 328q0 23 16.5 38.5t40.5 15.5h275v-303h-275q-24 0 -40.5 15.5t-16.5 38.5v195zM158 133q0 -12 9 -20.5t23 -8.5h250v253h-250
q-14 0 -23 -8.5t-9 -20.5v-195z" />
    <glyph glyph-name="h" unicode="h" horiz-adv-x="604" 
d="M423 461q28 0 53.5 -10t44 -28t29.5 -41.5t11 -50.5v-331h-114l1 328q0 12 -9 20.5t-22 8.5h-244v-357h-111v648h111v-187h250zM536 25v306q0 22 -9 41t-24.5 33t-36 22.5t-43.5 8.5h-275v187h-61v-598h61v357h269q23 0 39.5 -15.5t16.5 -38.5v-303h63z" />
    <glyph glyph-name="i" unicode="i" horiz-adv-x="247" 
d="M73 461h114v-461h-113zM161 436h-62v-411h62v411zM75 649h112v-107h-112v107zM161 623h-61v-56h61v56z" />
    <glyph glyph-name="j" unicode="j" horiz-adv-x="267" 
d="M82 -52v513h113v-518q0 -27 -11 -51t-29.5 -41.5t-44 -28t-53.5 -10.5h-69v107h63q14 0 23 8.5t9 20.5h-1zM108 -52q0 -23 -16.5 -38.5t-40.5 -15.5h-37v-57h43q23 0 43.5 8.5t36 23t24.5 33.5t9 41v493h-62v-488zM83 649h112v-107h-113zM170 624h-62v-57h62v57z" />
    <glyph glyph-name="k" unicode="k" horiz-adv-x="618" 
d="M441 283q56 -20 87.5 -66.5t31.5 -101.5v-115h-111v115q0 32 -25 55.5t-60 23.5h-192v-194h-113v648h113v-348h146q3 3 18 21q13 16 39.5 48.5t77.5 93.5h147q-58 -65 -90 -101.5t-47 -53.5q-18 -20 -22 -25zM535 115q0 48 -28.5 89.5t-76.5 58.5q-7 2 -13 3.5t-11 2.5
t-10 1q7 9 25.5 30t41 46t44.5 50t36 42h-78q-5 -6 -21 -25q-14 -17 -40.5 -49t-73.5 -89h-183v348h-63v-597h63v193h217q23 0 43 -8t35 -22.5t23.5 -33.5t8.5 -40v-89h61v89z" />
    <glyph glyph-name="l" unicode="l" horiz-adv-x="296" 
d="M271 104v-104h-69q-28 0 -53 10t-43.5 28t-29.5 41.5t-11 50.5v518h113l-1 -515q0 -13 9 -21t22 -8h63zM245 78h-37q-23 0 -39.5 16t-16.5 39v490h-62v-493q0 -22 9 -41t24 -33.5t35.5 -22.5t43.5 -8h43v53z" />
    <glyph glyph-name="m" unicode="m" horiz-adv-x="752" 
d="M574 461q28 0 53.5 -10t44.5 -27.5t30 -40.5t11 -49v-334h-113v329q0 11 -9 19.5t-23 8.5h-130v-357h-112v357h-162v-357h-112v461h522zM687 334q0 21 -9 39.5t-24 32.5t-35.5 22t-44.5 8h-497v-411h62v358h212v-358h62v358l155 -1q23 0 40 -15.5t17 -37.5v-304h62v309z
" />
    <glyph glyph-name="n" unicode="n" 
d="M429 461q28 0 53.5 -10t44 -27.5t29.5 -40.5t11 -49v-334h-112v329q0 12 -9 20t-23 8h-246v-357h-113v461h365zM542 334q0 21 -9 39.5t-24.5 32t-36 21.5t-43.5 8h-339v-410h62v357h271q24 0 40.5 -15t16.5 -38v-304h62v309z" />
    <glyph glyph-name="o" unicode="o" horiz-adv-x="624" 
d="M430 461q29 0 54.5 -10t44 -27.5t29.5 -40.5t11 -49v-207q0 -26 -11 -49.5t-29.5 -40.5t-44 -27t-54.5 -10h-228q-29 0 -54.5 10t-44 27t-29.5 40.5t-11 49.5v207q0 26 11 49t29.5 40.5t44 27.5t54.5 10h228zM543 334q0 21 -9 39.5t-24 32.5t-35.5 22t-44.5 8h-228
q-24 0 -44.5 -8t-36 -22t-24.5 -32.5t-9 -39.5v-207q0 -21 9 -39.5t24.5 -32.5t36 -22t44.5 -8h228q24 0 44.5 8t35.5 22t24 32.5t9 39.5v207zM425 383q23 0 40 -16t17 -37v-197q0 -22 -17 -37.5t-40 -15.5h-217q-23 0 -40.5 15.5t-17.5 37.5v197q0 21 17.5 37t40.5 16h217z
M457 330q0 10 -9 18.5t-23 8.5h-217q-14 0 -23 -8.5t-9 -18.5v-197q0 -11 9 -19.5t23 -8.5h217q14 0 23 8.5t9 19.5v197z" />
    <glyph glyph-name="p" unicode="p" horiz-adv-x="592" 
d="M409 461q28 0 53.5 -10t44.5 -28t30 -41.5t11 -50.5v-331h-391v-190h-112v651h364zM522 332q0 21 -9 40t-24.5 33.5t-36 22.5t-43.5 8h-339v-600h62v189h390v307zM402 383q24 0 41 -15q17 -17 17 -39v-251h-328v305h270zM435 329q0 12 -9 20q-9 9 -23 9q-90 -1 -140 -0.5
t-73 0.5h-33v-254h278v225z" />
    <glyph glyph-name="q" unicode="q" horiz-adv-x="592" 
d="M548 461v-651h-113v190h-390v331q0 27 11 50.5t29.5 41.5t43.5 28t54 10h365zM460 25v-189h62v600h-339q-23 0 -43.5 -8t-36 -22.5t-24.5 -33.5t-9 -40v-307h390zM460 383v-305h-328v251q0 22 17 39q16 15 42 15h269zM435 104v254h-33q-23 0 -73 -0.5t-140 0.5
q-13 0 -22 -9q-10 -8 -10 -20v-225h278z" />
    <glyph glyph-name="r" unicode="r" horiz-adv-x="348" 
d="M347 461v-104h-133q-13 0 -21.5 -8t-8.5 -19v-330h-113v335q0 26 11 49t29.5 40t43.5 27t53 10h139zM322 437h-114q-23 0 -43.5 -8t-35.5 -22t-24 -32t-9 -39v-310h62v304q0 22 16.5 37.5t39.5 15.5h108v54z" />
    <glyph glyph-name="s" unicode="s" horiz-adv-x="622" 
d="M439 283q28 0 53 -10t43.5 -27.5t29.5 -40.5t11 -49v-29q0 -26 -11 -49.5t-29.5 -40.5t-43.5 -27t-53 -10h-350v104h352q10 0 17 6t7 15v31q0 9 -7 15t-17 6h-240q-29 0 -54 10t-43.5 27t-29.5 40.5t-11 49.5v30q0 26 11 49t29.5 40.5t43.5 27.5t54 10h351v-104h-353
q-10 0 -17.5 -6.5t-7.5 -16.5v-29q0 -8 7 -15t18 -7h240zM551 156q0 21 -9 39.5t-24 32t-35.5 21.5t-43.5 8l-240 1q-20 0 -35 13.5t-15 33.5v29q0 20 15 34.5t35 14.5h328v53h-326q-23 0 -43.5 -8t-36 -22t-24.5 -32.5t-9 -39.5v-30q0 -21 9 -39.5t24.5 -32.5t36 -22
t43.5 -8h240q20 0 34.5 -13t14.5 -33v-31q0 -20 -14.5 -33.5t-34.5 -13.5h-327v-53h325q23 0 43.5 8t35.5 22t24 32.5t9 39.5v29z" />
    <glyph glyph-name="t" unicode="t" horiz-adv-x="288" 
d="M180 461h95v-104h-95v-357h-112v649h112v-188zM250 437h-95v187h-62v-599h62v357h95v55z" />
    <glyph glyph-name="u" unicode="u" 
d="M193 0q-29 0 -54 10t-44 27t-30 40.5t-11 49.5v334h113v-329q0 -12 9 -20t23 -8h246v357h112v-461h-364zM80 127q0 -21 9 -39.5t24.5 -32.5t36 -22t43.5 -8h339v410h-62v-357l-271 1q-24 0 -40.5 15t-16.5 38v303h-62v-308z" />
    <glyph glyph-name="v" unicode="v" horiz-adv-x="552" 
d="M535 461l-209 -461h-103l-213 461h125q50 -111 78 -173t42 -92q16 -35 19 -42q3 7 19 42q13 30 40 92t76 173h126zM496 436h-71q-4 -11 -22 -51q-8 -17 -19 -42.5t-26.5 -61t-36 -82.5t-47.5 -107q-27 60 -48.5 107t-37.5 82t-27.5 60.5t-18.5 42.5q-18 40 -23 51h-69
q6 -12 21 -45.5t35.5 -77.5t42.5 -92.5t41.5 -90t32.5 -70.5t16 -34h71z" />
    <glyph glyph-name="w" unicode="w" horiz-adv-x="768" 
d="M160 132q0 -11 9 -19.5t23 -8.5h130v357h112v-356h162v356h113v-461h-523q-29 0 -54 10t-43.5 27t-29.5 40.5t-11 49.5v334h112v-329zM73 127q0 -21 9 -39.5t24.5 -32t36 -21.5t43.5 -8h497v410h-62v-356h-212v357h-62v-358h-155q-23 0 -40 15.5t-17 37.5v304h-62v-309z
" />
    <glyph glyph-name="x" unicode="x" horiz-adv-x="584" 
d="M569 461q-77 -86 -120 -132.5t-62 -68.5q-24 -26 -27 -30q4 -4 27 -30q10 -11 24.5 -27.5t36.5 -41t51 -57t67 -74.5h-147q-48 54 -74.5 84t-39.5 44q-15 17 -18 20q-3 -3 -18 -20q-13 -14 -40 -44t-76 -84h-147q77 85 119 131.5t62 68.5q23 26 27 30q-4 4 -27 30
q-10 11 -25 28t-37 41.5t-51.5 57t-67.5 75.5h146l135 -151l3 4t16.5 18.5t41 44.5t76.5 83h145zM509 25q-14 16 -39 44q-21 24 -56 62.5t-88 98.5q54 60 89.5 99t57.5 63q26 28 39 44h-77q-5 -6 -23 -25q-15 -17 -44.5 -49t-80.5 -89q-51 57 -80.5 89.5t-43.5 49.5
q-18 19 -22 25h-79q13 -16 39 -44q22 -24 57.5 -63.5t89.5 -99.5l-185 -205h78l146 161q50 -57 79 -88t43 -48q17 -19 22 -25h78z" />
    <glyph glyph-name="y" unicode="y" horiz-adv-x="605" 
d="M558 461v-519q0 -27 -11 -50.5t-29.5 -41.5t-44 -28t-53.5 -10h-226v106h220q14 0 23 8.5t9 20.5v53h-256q-29 0 -54 10t-43.5 28t-29.5 41.5t-11 50.5v331h112v-327q0 -13 9 -21t23 -8h250v356h112zM533 436h-62v-357h-275q-24 0 -40.5 16t-16.5 39v302h-62v-306
q0 -22 9 -41t24.5 -33.5t36 -22.5t43.5 -8h281v-78q0 -23 -16.5 -38.5t-40.5 -15.5h-195v-56h201q23 0 43.5 8t36 22.5t24.5 33.5t9 41v494z" />
    <glyph glyph-name="z" unicode="z" horiz-adv-x="542" 
d="M510 461v-100q-104 -86 -165.5 -137t-93.5 -77t-42 -34t-11 -9h312v-104h-474v99l301 258h-300v104h473zM485 435h-422v-53h344q-63 -53 -111 -94t-84 -71.5t-61 -52t-42 -35.5q-40 -33 -48 -41v-63h424v53h-357q64 53 113.5 94t87 72t63.5 52.5t43 35.5q40 33 50 41v62z
" />
    <glyph glyph-name="braceleft" unicode="{" horiz-adv-x="383" 
d="M243 457q0 -38 -15.5 -73t-44.5 -61q29 -26 44.5 -60.5t15.5 -72.5v-161q0 -12 9 -20.5t22 -8.5h63v-108h-68q-29 0 -53.5 10.5t-43.5 28.5t-30 42t-11 51v77q0 29 -0.5 56t-1.5 34q-3 15 -8.5 29t-17 25t-30.5 18t-48 8h-4v106h3q55 0 81 28q18 18 23 45.5t5 57.5
q0 27 -0.5 56.5t-1.5 57.5q-1 26 9.5 49.5t29.5 42.5q20 20 45 29.5t54 9.5h68v-104h-25q-11 0 -30 -0.5t-31 -11.5q-8 -8 -8 -20v-160zM218 617q0 11 4.5 20.5t11.5 17.5q12 13 35.5 14.5t42.5 1.5v56h-12q-6 0 -14 0.5t-17 0.5q-48 0 -82 -32q-31 -31 -31 -74
q1 -28 1.5 -57t0.5 -57q1 -32 -5.5 -64.5t-29.5 -56.5q-25 -27 -77 -33v-14v-17t0.5 -17t0.5 -12q30 -4 49 -14.5t31 -24t18 -29.5t9 -30q3 -16 3.5 -44t0.5 -57q-1 -33 -2 -71q0 -22 9 -41.5t24.5 -33.5t36 -22.5t43.5 -8.5h43v57h-38q-23 0 -39.5 15.5t-16.5 38.5v161
q0 34 -14 63.5t-40 52.5l-19 17l19 17q26 23 40 53.5t14 63.5v160z" />
    <glyph glyph-name="bar" unicode="|" horiz-adv-x="246" 
d="M79 -201v953h84v-953h-84zM103 -177h35v904h-35v-904z" />
    <glyph glyph-name="braceright" unicode="}" horiz-adv-x="375" 
d="M126 617q0 12 -8 20q-6 5 -14 7.5t-16.5 3.5t-16.5 1h-13h-26v104h68q59 0 100 -39q19 -19 29.5 -42.5t9.5 -49.5q-1 -28 -2 -57.5t-1 -56.5q0 -30 5.5 -57.5t22.5 -45.5q14 -14 33.5 -21t48.5 -7h3l-1 -106h-3q-30 -1 -49 -8t-30 -18t-16.5 -25t-8.5 -29q-2 -7 -2.5 -34
t-0.5 -56q0 -35 1 -77q0 -27 -11.5 -51t-30 -42t-44 -28.5t-53.5 -10.5h-68v108h63q13 0 22 8.5t9 20.5v161q0 38 16 72.5t44 60.5q-29 26 -44.5 61t-15.5 73v160zM151 457q0 -33 14 -63.5t40 -53.5l19 -17l-19 -17q-26 -23 -40 -52.5t-14 -63.5v-161q0 -23 -16.5 -38.5
t-39.5 -15.5h-38v-57h43q24 0 44.5 8.5t35.5 22.5t24 33.5t9 41.5q-2 38 -2 71q0 29 1 57t4 44q3 14 8.5 30t17.5 29.5t31.5 24t49.5 14.5v60q-52 6 -77 33q-23 24 -29.5 56.5t-5.5 64.5q1 28 1.5 57t0.5 57q1 20 -7.5 39.5t-23.5 34.5q-34 32 -82 32q-9 0 -17 -0.5
t-14 -0.5h-12v-56q19 0 43 -1.5t35 -14.5q16 -16 16 -38v-160z" />
    <glyph glyph-name="asciitilde" unicode="~" horiz-adv-x="512" 
d="M130 425q18 16 34 22t30.5 5t26.5 -6t21 -11q26 -17 41.5 -27.5t24.5 -16.5q11 -7 16 -10q4 3 14 12q8 8 23 21t41 36l87 -57l-108 -91q-54 -46 -112 -3q-23 17 -37.5 27t-22.5 16q-10 7 -14 11l-91 -77l-78 58zM146 406q-23 -21 -38.5 -34.5t-24.5 -21.5
q-11 -10 -17 -15l37 -27l91 77l90 -66q41 -31 81 3q23 20 39 33t26 21q11 10 17 15q-5 3 -12 7.5t-13 9t-11 7.5t-6 3l-10 -9q-8 -7 -24 -20.5t-45 -39.5l-98 65q-17 11 -36.5 13t-45.5 -21z" />
    <glyph glyph-name="exclamdown" unicode="&#xa1;" horiz-adv-x="256" 
d="M180 -170h-112v498h112v-498zM93 -144h62v447h-62v-447zM181 372h-112v107h112v-107zM94 397h62q-1 14 -0.5 28.5t0.5 28.5h-62v-57z" />
    <glyph glyph-name="cent" unicode="&#xa2;" horiz-adv-x="550" 
d="M231 -121l-1 121h-70q-29 0 -54 10t-43.5 27t-29.5 40t-11 49v209q0 26 11 49t29.5 40t43.5 27t54 10h70v128h97v-128h62q29 0 56 -11t47 -31q35 -35 35 -84v-51h-111v46q0 10 -9 19t-23 9h-57v-254h57q14 0 23 9t9 19v50h111v-55q0 -50 -35 -85q-20 -20 -47 -31t-56 -11
h-62l1 -121h-97zM134 132q0 -10 9 -19t23 -9h64v254h-64q-14 0 -23 -9t-9 -19v-198zM166 79q-23 0 -40 15.5t-17 37.5v198q0 22 17 37.5t40 15.5h88q0 -81 0.5 -152.5t0.5 -151.5h-89zM303 25h86q52 0 85 35q28 28 28 65v32h-61v-25q0 -22 -17 -37.5t-40 -15.5h-81l-1 304
h82q23 0 40 -15.5t17 -37.5v-20h61v26q0 37 -28 65q-33 35 -85 35h-87v128h-48v-128h-94q-23 0 -43.5 -8t-36 -21.5t-24.5 -32t-9 -39.5v-209q0 -21 9 -39.5t24.5 -32t36 -21.5t43.5 -8h95v-122h48v122z" />
    <glyph glyph-name="sterling" unicode="&#xa3;" horiz-adv-x="550" 
d="M402 648q28 0 53 -10.5t43.5 -28.5t29 -42t10.5 -51v-51h-107v45q0 14 -10 23.5t-24 9.5h-173q-14 0 -24 -9.5t-10 -23.5v-130h145v-104h-146v-170h240v-106h-418v106h71v410q0 27 11 51t29.5 42t43.5 28.5t53 10.5h183zM108 80h-72v-54h368v54h-240v221h145v54h-144v155
q0 24 17 41t42 17h173q25 0 42 -17t17 -41v-20h57v26q0 22 -9 41.5t-24 34t-35 23t-43 8.5h-183q-23 0 -43 -8.5t-35 -23t-24 -34t-9 -41.5v-436z" />
    <glyph glyph-name="currency" unicode="&#xa4;" horiz-adv-x="408" 
d="M206 181q-27 0 -49 6l-62 -63l-88 89l52 52q-7 14 -11 30.5t-4 33.5q0 32 15 61q-14 15 -32 32.5t-29 28.5l86 86l69 -69q13 3 27 5.5t28 2.5t27 -2.5t26 -5.5l62 60l88 -87l-55 -56q7 -13 9.5 -26.5t2.5 -29.5q0 -14 -4.5 -31t-10.5 -30l60 -61l-85 -85l-67 67
q-27 -8 -55 -8zM206 204q33 0 60 12l61 -61l53 52l-56 55q21 28 21 67q0 32 -18 61l51 51l-55 54l-55 -54q-14 5 -29 8.5t-31 3.5q-17 0 -32.5 -3.5t-29.5 -8.5l-62 62l-53 -52l57 -57q-20 -29 -20 -65q0 -40 21 -68l-48 -48l54 -55l56 56q13 -5 26.5 -7.5t28.5 -2.5z
M209 391q30 0 48.5 -20t18.5 -44q0 -25 -18 -44.5t-52 -19.5q-31 0 -49.5 19.5t-18.5 44.5q0 26 18 45t53 19zM209 368q-23 0 -35.5 -12t-12.5 -29q0 -16 12.5 -28t32.5 -12q23 0 35 12t12 28q0 15 -12 28t-32 13z" />
    <glyph glyph-name="yen" unicode="&#xa5;" horiz-adv-x="550" 
d="M513 649v-367h-174v-17h174v-85h-174v-19h174v-85h-174v-76h-103v76h-174v85h174v19h-174v85h174v17h-69q-27 0 -50.5 10t-41.5 27t-28 40.5t-10 49.5v239h103v-234q0 -13 9.5 -22t23.5 -9h237v266h103zM434 624v-265h-261q-24 0 -40.5 16t-16.5 39v209h-55v-214
q0 -21 8.5 -40t23 -33t33.5 -22t41 -8h94v-66h-175v-36h175v-67h-175v-36h175v-77h54v77h174v36h-174v67h174v36h-174v66h174v318h-55z" />
    <glyph glyph-name="brokenbar" unicode="&#xa6;" horiz-adv-x="246" 
d="M79 300v452h84v-452h-84zM79 -199v452h84v-452h-84zM103 -175h35v403h-35v-403zM103 324h35v403h-35v-403z" />
    <glyph glyph-name="section" unicode="&#xa7;" horiz-adv-x="420" 
d="M366 716v-109h-227q-1 0 -1 -2v-92h175q34 0 57.5 -24t23.5 -59v-347q0 -35 -23.5 -59t-58.5 -24h-257v108h229v94h-175q-35 0 -58.5 24.5t-24.5 59.5v347q0 35 23.5 59t58.5 24h258zM52 286q0 -25 16.5 -41.5t40.5 -16.5h200v-119q0 -11 -7 -18.5t-18 -7.5h-204v-58h232
q24 0 40.5 17t16.5 42v346q0 24 -16.5 41t-39.5 17h-201v117q0 12 8 19.5t19 7.5h201v59h-232q-23 0 -39.5 -17t-16.5 -41v-347zM282 430q11 0 19.5 -8t7.5 -19l-1 -117h-171q-9 0 -17 6.5t-8 20.5v117h170zM138 405v-94h145v17v28t1 47q0 2 -2 2h-144z" />
    <glyph glyph-name="dieresis" unicode="&#xa8;" horiz-adv-x="604" 
d="M377 649h112v-107h-112v107zM135 649h112v-107h-112v107zM221 623h-61v-56h61v56zM464 623h-61v-56h61v56z" />
    <glyph glyph-name="copyright" unicode="&#xa9;" horiz-adv-x="726" 
d="M15 332q0 70 27.5 132.5t75 108.5t111.5 73t137 27q72 0 136 -27t111.5 -73t75 -108.5t27.5 -132.5t-27.5 -132t-75 -108t-111.5 -73t-136 -27q-73 0 -137 27t-111.5 73t-75 108t-27.5 132zM41 332q0 -65 25.5 -122.5t69.5 -100.5t103 -67.5t127 -24.5q67 0 126 24.5
t103.5 67.5t70 100.5t25.5 122.5t-25.5 122.5t-70 100.5t-103.5 68t-126 25q-68 0 -127 -25t-103 -68t-69.5 -100.5t-25.5 -122.5zM84 332q0 57 22.5 107t60.5 87.5t89.5 59t109.5 21.5t109 -21.5t89.5 -59t60.5 -87.5t22 -107q0 -56 -22 -106t-60.5 -87t-89.5 -58.5
t-109 -21.5t-109.5 21.5t-89.5 58.5t-60.5 87t-22.5 106zM110 332q0 -51 20 -96.5t54.5 -79t81.5 -53t100 -19.5t99.5 19.5t81.5 53t55 79t20 96.5q0 52 -20 97t-55 79t-81.5 53.5t-99.5 19.5t-100 -19.5t-81.5 -53.5t-54.5 -79t-20 -97zM447 492q20 0 39 -7.5t33 -21.5
q27 -25 25 -61l-1 -35h-79v32q0 8 -6 12.5t-14 4.5h-149q-19 0 -19 -17v-137q0 -7 5.5 -12t13.5 -5h149q8 0 14 5t6 12v37h79l1 -40q2 -35 -26 -61q-28 -28 -71 -28h-156q-20 0 -37.5 7t-30.5 19t-20.5 28t-7.5 34v144q0 38 28 64t68 26h156zM217 258q0 -28 21.5 -48
t52.5 -20h156q34 0 56 22q20 20 20 45q0 1 -0.5 8t-0.5 14h-37v-17q0 -16 -12 -27t-29 -11h-149q-17 0 -29 11t-12 27v137q0 16 12 27t29 11h149q17 0 29 -11t12 -27v-12h37v5q0 6 1 11v2q0 26 -20 44q-22 22 -56 22h-156q-31 0 -52.5 -20t-21.5 -49v-144z" />
    <glyph glyph-name="ordfeminine" unicode="&#xaa;" horiz-adv-x="362" 
d="M114 352q-21 0 -39 7t-31.5 19.5t-21.5 29t-8 35.5v111q0 19 8 36t21.5 30t31.5 20t39 7h228v-295h-228zM319 375v248h-205q-32 0 -54.5 -20t-22.5 -49v-111q0 -29 22.5 -48.5t54.5 -19.5h205zM255 566v-134l-138 1q-6 0 -11 4.5t-5 9.5v105q0 5 5 9.5t11 4.5h138z
M125 542v-86l106 -1v87h-106z" />
    <glyph glyph-name="guillemotleft" unicode="&#xab;" horiz-adv-x="460" 
d="M179 373l9 9l66 -64q-37 -40 -58.5 -63.5t-32.5 -36.5q-13 -15 -19 -20q6 -5 19 -20q11 -13 32.5 -36.5t58.5 -62.5l-66 -65l-130 140q-13 14 -17.5 27t-3 24t7 20.5t12.5 17.5zM342 373l8 9l66 -64q-37 -40 -58.5 -63.5t-32.5 -36.5q-13 -15 -19 -20q6 -5 19 -20
q11 -13 32.5 -36.5t58.5 -62.5l-66 -65l-130 140q-13 14 -17 27t-3 24t6.5 20.5t12.5 17.5zM238 171q37 -40 59 -64t34 -37q14 -15 20 -21l31 31q-6 5 -19 20q-11 12 -33 35.5t-57 62.5q36 39 57.5 62t32.5 36q13 15 19 21q-7 6 -15.5 14.5l-15.5 15.5q-6 -6 -20 -21
q-12 -13 -34.5 -36.5t-59.5 -63.5q-13 -13 -13 -26t14 -29zM76 171q37 -40 59 -64t34 -37q14 -15 20 -21l31 31q-6 5 -19 20q-11 12 -33 35.5t-57 62.5q35 39 57 62t33 36q13 15 19 21q-7 6 -15.5 14.5l-15.5 15.5q-11 -11 -29.5 -31t-37.5 -40q-22 -24 -47 -50
q-13 -13 -13 -26q0 -15 14 -29z" />
    <glyph glyph-name="logicalnot" unicode="&#xac;" horiz-adv-x="500" 
d="M471 301v-220h-84v136h-356v84h440zM446 276h-391v-35h356v-136h35v171z" />
    <glyph glyph-name="sfthyphen" unicode="&#xad;" horiz-adv-x="454" 
d="M405 270v-84h-355v84h355zM74 245v-35h307v35h-307z" />
    <glyph glyph-name="registered" unicode="&#xae;" horiz-adv-x="726" 
d="M16 332q0 70 27.5 132t75 108t111.5 73t136 27t136 -27t111.5 -73t75 -108t27.5 -132q0 -71 -27.5 -133t-75 -108t-111.5 -73t-136 -27t-136 27t-111.5 73t-75 108t-27.5 133zM41 332q0 -65 25.5 -122.5t70 -100.5t103.5 -68t126 -25t126 25t103.5 68t70 100.5
t25.5 122.5t-25.5 122.5t-70 100t-103.5 67.5t-126 25t-126 -25t-103.5 -67.5t-70 -100t-25.5 -122.5zM85 332q0 57 22 106.5t60.5 87t89.5 59t109 21.5t109 -21.5t89.5 -59t60.5 -87t22 -106.5t-22 -106.5t-60.5 -87t-89.5 -59t-109 -21.5t-109 21.5t-89.5 59t-60.5 87
t-22 106.5zM110 332q0 -51 20 -96.5t55 -79t81.5 -53t99.5 -19.5t99.5 19.5t81.5 53t55 79t20 96.5t-20 96.5t-55 79.5t-81.5 53.5t-99.5 19.5t-99.5 -19.5t-81.5 -53.5t-55 -79.5t-20 -96.5zM439 507q32 0 55 -21.5t23 -53.5v-168h-52l80 -96l-97 -2q-29 34 -45 53.5
t-24 29.5q-10 11 -12 15h-79v-96h-77v339h228zM233 486v-297h33v96h111q28 -34 44.5 -53t24.5 -29q10 -11 12 -15h16.5t25.5 1q-6 8 -17 21q-10 11 -25.5 29t-38.5 46h77v147q0 23 -17 38.5t-40 15.5h-206zM437 454q11 0 18 -6.5t7 -17.5v-113h-196v137h171zM288 433v-94
h152v91q0 3 -3 3h-149z" />
    <glyph glyph-name="macron" unicode="&#xaf;" horiz-adv-x="371" 
d="M364 650v-84h-355v84h355zM33 625v-35h307v35h-307z" />
    <glyph glyph-name="degree" unicode="&#xb0;" horiz-adv-x="439" 
d="M83 581q0 22 9.5 41t26 33t38.5 22.5t47 8.5t46.5 -8.5t38 -22.5t26 -33t9.5 -41t-9.5 -41.5t-26 -33.5t-38.5 -22.5t-47 -8.5t-46.5 8.5t-38 22.5t-26 33.5t-9.5 41.5zM108 581q0 -17 7.5 -31.5t20.5 -25.5t30 -17.5t37 -6.5q40 0 68 23.5t28 57.5q0 16 -7.5 30.5
t-20.5 25.5t-30.5 17.5t-36.5 6.5q-40 0 -68 -23.5t-28 -56.5zM146 581q0 21 16.5 36t41.5 15q23 0 40 -15.5t17 -35.5q0 -22 -16.5 -36.5t-41.5 -14.5q-23 0 -40 15t-17 36zM171 581q0 -9 9 -17t23 -8q15 0 24 8t9 17t-9 17t-23 8t-23.5 -7t-9.5 -18z" />
    <glyph glyph-name="plusminus" unicode="&#xb1;" horiz-adv-x="550" 
d="M69 23h415v59h-415v-59zM317 271h166v73h-166v164h-78v-164h-174v-73h174v-125h78v125zM340 122h-124v125h-174v121h174v163h124v-163h166v-121h-166v-125zM45 106h462v-106h-462v106z" />
    <glyph glyph-name="twosuperior" unicode="&#xb2;" horiz-adv-x="337" 
d="M321 594q0 -35 -25 -59t-61 -24h-103v-56h189v-104h-298v172q0 19 7.5 36.5t21 30t31.5 20t39 7.5l89 -1v19h-116v106h140q37 0 62 -23.5t25 -58.5zM299 659q0 25 -18.5 42t-45.5 17h-117v-60h107q10 0 10 -8v-49q0 -8 -10 -8l-103 1q-32 0 -54 -21t-22 -50v-149h252v58
h-189v88q0 6 5 10t11 4h110q26 0 44.5 17t18.5 43z" />
    <glyph glyph-name="threesuperior" unicode="&#xb3;" horiz-adv-x="337" 
d="M231 373q32 0 54.5 20t22.5 49v206q0 29 -22.5 50t-54.5 21h-192v-60h189q7 0 12 -4t5 -9v-51h-178v-59h178l1 -90q0 -5 -5.5 -10t-12.5 -5h-189l-1 -58h193zM14 350l1 105h207v58h-179v105h179v18h-207v106h216q21 0 39.5 -7.5t32 -20t21.5 -30t8 -36.5v-206
q0 -19 -8 -36t-21.5 -29.5t-32 -19.5t-39.5 -7h-217z" />
    <glyph glyph-name="acute" unicode="&#xb4;" 
d="M233 555l114 142l95 -61l-135 -130zM270 561l34 -22q4 4 17.5 16.5t29 27.5t30 29t20.5 20q-11 8 -25.5 17t-23.5 15z" />
    <glyph glyph-name="mu" unicode="&#xb5;" horiz-adv-x="621" 
d="M453 461h114v-462h-109v22q-8 -8 -23 -14.5t-37 -6.5h-225v-189h-112v650h113v-357h243q15 0 25.5 10.5t10.5 25.5v321zM542 436h-64v-296q0 -26 -17.5 -43.5t-43.5 -17.5h-268v356h-63v-599h62v189h251q22 0 36 6.5t24 15.5q4 3 8 7q3 3 7 6.5t7 7.5v-43h61v411z" />
    <glyph glyph-name="mu" unicode="&#x3bc;" horiz-adv-x="621" 
d="M453 461h114v-462h-109v22q-8 -8 -23 -14.5t-37 -6.5h-225v-189h-112v650h113v-357h243q15 0 25.5 10.5t10.5 25.5v321zM542 436h-64v-296q0 -26 -17.5 -43.5t-43.5 -17.5h-268v356h-63v-599h62v189h251q22 0 36 6.5t24 15.5q4 3 8 7q3 3 7 6.5t7 7.5v-43h61v411z" />
    <glyph glyph-name="paragraph" unicode="&#xb6;" horiz-adv-x="547" 
d="M221 -33h63v594h85v-594h64v664h-220q-24 0 -45 -9t-37 -24t-25 -35.5t-9 -43.5v-190h124v-362zM198 305h-124v214q0 28 11 52.5t29.5 43t44 29t54.5 10.5h243v-710h-111v594h-38v-594h-109v361z" />
    <glyph glyph-name="periodcentered" unicode="&#xb7;" horiz-adv-x="305" 
d="M209 214h-113v104h113v-104zM184 293h-62v-54h62v54z" />
    <glyph glyph-name="cedilla" unicode="&#xb8;" horiz-adv-x="572" 
d="M264 -14q20 -4 30 -16t10 -26t-11.5 -26t-35.5 -12q-12 0 -30 5v-42q11 -3 21.5 -4t19.5 -1q47 0 70.5 23.5t23.5 51.5q0 18 -10 34.5t-32 25.5v59h-56v-72zM241 81h103v-69q23 -12 33.5 -31t10.5 -41q0 -18 -8 -35.5t-23 -31.5t-37 -23t-51 -9q-10 0 -24.5 2t-38.5 9v85
q14 -5 26.5 -8t22.5 -3q8 0 16 4t8 13q0 8 -11 14t-27 6v118z" />
    <glyph glyph-name="onesuperior" unicode="&#xb9;" horiz-adv-x="142" 
d="M37 377h64v343h-64v-343zM14 743h110v-389h-110v389z" />
    <glyph glyph-name="ordmasculine" unicode="&#xba;" horiz-adv-x="359" 
d="M119 351q-21 0 -39.5 7t-32 19.5t-21 29t-7.5 35.5v111q0 39 29 66t71 27h126q42 0 71 -27t29 -66v-111q0 -19 -8 -35.5t-21.5 -29t-31.5 -19.5t-39 -7h-126zM245 374q32 0 54.5 19.5t22.5 48.5v111q0 29 -22.5 49.5t-54.5 20.5h-126q-32 0 -54.5 -20.5t-22.5 -49.5v-111
q0 -29 22.5 -48.5t54.5 -19.5h126zM259 445q0 -5 -5.5 -9.5t-11.5 -4.5h-120q-6 0 -11 4.5t-5 9.5v105q0 5 5 9.5t11 4.5h120q6 0 11.5 -4.5t5.5 -9.5v-105zM130 455h105v85h-105v-85z" />
    <glyph glyph-name="guillemotright" unicode="&#xbb;" horiz-adv-x="460" 
d="M416 243q7 -8 12.5 -17.5t7 -20.5t-3 -24t-17.5 -27l-130 -140l-66 65q36 39 58 62.5t33 36.5q13 15 19 20q-6 5 -19 20q-11 13 -33 36.5t-58 63.5l66 64l9 -9zM254 243q7 -8 12.5 -17.5t6.5 -20.5t-3 -24t-17 -27l-130 -140l-66 65q36 39 58 62.5t33 36.5q13 15 19 20
q-6 5 -19 20q-11 13 -33 36.5t-58 63.5l66 64l8 -9zM235 171q14 16 14 29t-13 26q-38 40 -60 63.5t-34 36.5q-14 15 -20 21l-15.5 -15.5t-15.5 -14.5q5 -6 18 -21q11 -13 33 -36t58 -62q-36 -39 -57.5 -62.5t-32.5 -35.5q-13 -15 -19 -20l31 -31q6 6 20 21q12 13 34 37
t59 64zM397 171q14 14 14 29q0 13 -13 26q-25 26 -47 50l-38 40t-29 31l-15.5 -15.5t-15.5 -14.5q6 -6 19 -21q11 -13 32.5 -36t57.5 -62q-36 -39 -57.5 -62.5t-32.5 -35.5q-13 -15 -19 -20l31 -31q6 6 20 21q12 13 34 37t59 64z" />
    <glyph glyph-name="onequarter" unicode="&#xbc;" horiz-adv-x="736" 
d="M561 273v-97h-96zM624 117h22v59h-22v190h-53l-203 -200v-49h193v-94h63v94zM92 289h64v343h-64v-343zM104 -9l490 643l-49 35l-489 -642zM23 22l516 679l88 -63l-518 -680zM647 93v-93h-110v93h-192v83l216 213h86v-189h22v-107h-22zM69 655h110v-389h-110v389zM522 200
h15v16z" />
    <glyph glyph-name="onehalf" unicode="&#xbd;" horiz-adv-x="736" 
d="M24 22l516 679l88 -63l-518 -680zM691 245q0 -35 -25 -59t-62 -24h-102v-56h189v-104h-298v172q0 19 7.5 36.5t21 30t31 20t38.5 7.5l90 -1v19h-117v106h140q38 0 63 -23.5t25 -58.5zM105 -9l490 643l-49 35l-489 -642zM669 310q0 25 -18.5 42t-46.5 17h-116v-60h107
q9 0 9 -8v-49q0 -8 -9 -8l-104 1q-32 0 -53.5 -21t-21.5 -50v-149h252v58h-190v88q0 6 5.5 10t11.5 4h109q27 0 45.5 17t18.5 43zM70 655h110v-389h-110v389zM93 289h63v343h-63v-343z" />
    <glyph glyph-name="threequarters" unicode="&#xbe;" horiz-adv-x="867" 
d="M257 284q32 0 55 20t23 49v205q0 29 -23 50t-55 21h-192v-60h190q16 0 16 -13v-61h-178v-59h178l1 -79q0 -6 -5 -10.5t-12 -4.5h-190l-1 -58h193zM688 273v-97h-95zM751 117h22v59h-22v190h-53l-203 -200v-49h193v-94h63v94zM231 -9l490 643l-49 35l-489 -642zM41 260
l1 105h207l-1 48h-178v106h178v27h-206v106h215q21 0 39.5 -7.5t32 -20t21.5 -30t8 -36.5v-205q0 -20 -8 -36.5t-21.5 -29.5t-32 -20t-39.5 -7h-216zM150 22l516 679l88 -63l-518 -680zM775 93v-93h-111v93h-192v83l216 213h87v-189h21v-107h-21zM649 200h15v16z" />
    <glyph glyph-name="questiondown" unicode="&#xbf;" horiz-adv-x="542" 
d="M188 -189q-55 0 -93 38q-18 17 -27.5 40t-9.5 49v180q0 26 10 49.5t28 40.5t41.5 27.5t50.5 10.5h180v63h101v-164h-276q-13 0 -22.5 -9.5t-9.5 -22.5v-172q0 -13 9 -22t23 -9h291v-99h-296zM417 -165h42v50h-91q-39 0 -85.5 0.5t-88.5 0.5q-24 -1 -41 16q-16 16 -16 39
v172q0 23 16.5 39.5t39.5 16.5h252v115h-54v-31v-21.5t1 -9.5h-203q-22 0 -41.5 -8.5t-34 -22.5t-23 -33t-8.5 -40v-181q0 -41 30 -71q31 -31 76 -31h229zM366 359v100h103v-100h-103zM445 383v52h-54v-52h54z" />
    <glyph glyph-name="Agrave" unicode="&#xc0;" horiz-adv-x="582" 
d="M547 648v-648h-112v339h-283v-339h-111v519q0 27 11 50.5t29.5 41t43.5 27.5t54 10h368zM521 26v597h-342q-23 0 -43.5 -8t-36 -22.5t-24.5 -33.5t-9 -40v-493h61v339h333v-339h61zM127 512q0 23 17 38.5t41 15.5h275v-145h-333v91zM152 446h283v95h-250
q-14 0 -23.5 -8.5t-9.5 -20.5v-66zM324 672l-135 130l95 61l113 -142zM229 798l98 -94l34 23q-5 6 -17 21t-25 31.5t-25 30.5t-16 19z" />
    <glyph glyph-name="Aacute" unicode="&#xc1;" horiz-adv-x="582" 
d="M547 648v-648h-112v339h-283v-339h-111v519q0 27 11 50.5t29.5 41t43.5 27.5t54 10h368zM521 26v597h-342q-23 0 -43.5 -8t-36 -22.5t-24.5 -33.5t-9 -40v-493h61v339h333v-339h61zM127 512q0 23 17 38.5t41 15.5h275v-145h-333v91zM152 446h283v95h-250
q-14 0 -23.5 -8.5t-9.5 -20.5v-66zM239 721l113 142l95 -61l-135 -130zM358 829q-5 -5 -16.5 -19t-24.5 -30.5t-25 -31.5t-17 -21l34 -23l98 94z" />
    <glyph glyph-name="Acircumflex" unicode="&#xc2;" horiz-adv-x="582" 
d="M547 648v-648h-112v339h-283v-339h-111v519q0 27 11 50.5t29.5 41t43.5 27.5t54 10h368zM521 26v597h-342q-23 0 -43.5 -8t-36 -22.5t-24.5 -33.5t-9 -40v-493h61v339h333v-339h61zM127 512q0 23 17 38.5t41 15.5h275v-145h-333v91zM314 888q4 0 8 -1q3 -1 6.5 -2t5.5 -3
l139 -114l-62 -64l-98 77l-94 -80l-60 67l135 114q2 2 6 3.5t7 2.5q4 1 7 0zM152 446h283v95h-250q-14 0 -23.5 -8.5t-9.5 -20.5v-66zM324 857q-11 9 -21 0l-106 -90l26 -30l90 78l95 -76l26 28z" />
    <glyph glyph-name="Atilde" unicode="&#xc3;" horiz-adv-x="582" 
d="M547 648v-648h-112v339h-283v-339h-111v519q0 27 11 50.5t29.5 41t43.5 27.5t54 10h368zM521 26v597h-342q-23 0 -43.5 -8t-36 -22.5t-24.5 -33.5t-9 -40v-493h61v339h333v-339h61zM127 512q0 23 17 38.5t41 15.5h275v-145h-333v91zM388 718q-24 -19 -46 -19t-42 14
l-36 23q-13 -11 -28 -24.5t-26 -21.5l-73 61l77 69q27 24 43.5 26.5t35.5 -11.5q17 -10 25 -15.5t25 -15.5q11 11 24.5 23t21.5 20l83 -54l-83 -74zM152 446h283v95h-250q-14 0 -23.5 -8.5t-9.5 -20.5v-66zM436 790l-45 30l-47 -43l-62 40q-12 8 -23 6t-30 -19l-58 -52
l39 -33l54 44l48 -32q17 -11 33 -9.5t29 13.5z" />
    <glyph glyph-name="Adieresis" unicode="&#xc4;" horiz-adv-x="582" 
d="M547 648v-648h-112v339h-283v-339h-111v519q0 27 11 50.5t29.5 41t43.5 27.5t54 10h368zM521 26v597h-342q-23 0 -43.5 -8t-36 -22.5t-24.5 -33.5t-9 -40v-493h61v339h333v-339h61zM127 512q0 23 17 38.5t41 15.5h275v-145h-333v91zM152 446h283v95h-250
q-14 0 -23.5 -8.5t-9.5 -20.5v-66zM373 819h112v-107h-112v107zM131 819h111v-107h-111v107zM217 793h-61v-56h61v56zM460 793h-61v-56h61v56z" />
    <glyph glyph-name="Aring" unicode="&#xc5;" horiz-adv-x="582" 
d="M547 648v-648h-112v339h-283v-339h-111v519q0 27 11 50.5t29.5 41t43.5 27.5t54 10h368zM521 26v597h-342q-23 0 -43.5 -8t-36 -22.5t-24.5 -33.5t-9 -40v-493h61v339h333v-339h61zM127 512q0 23 17 38.5t41 15.5h275v-145h-333v91zM186 792q0 22 9.5 41.5t26 33.5
t38.5 22.5t47 8.5t47 -8.5t38.5 -22.5t26 -33.5t9.5 -41.5t-9.5 -41t-26 -33.5t-39 -22.5t-47.5 -8t-46.5 8t-38 22.5t-26 33.5t-9.5 41zM152 446h283v95h-250q-14 0 -23.5 -8.5t-9.5 -20.5v-66zM211 792q0 -16 7.5 -30.5t20.5 -25.5t30.5 -17.5t36.5 -6.5q40 0 68 23.5
t28 56.5q0 16 -7.5 31t-20.5 26t-30.5 17.5t-36.5 6.5q-40 0 -68 -23.5t-28 -57.5zM249 792q0 22 17 37t41 15q23 0 40.5 -15.5t17.5 -36.5t-17 -35.5t-42 -14.5q-23 0 -40 15t-17 35zM275 792q0 -8 8.5 -16t22.5 -8q16 0 24.5 7.5t8.5 16.5q0 10 -9 18t-23 8t-23 -7.5
t-9 -18.5z" />
    <glyph glyph-name="AE" unicode="&#xc6;" horiz-adv-x="978" 
d="M435 339h-283v-339h-111v519q0 27 11 50.5t29.5 41t43.5 27.5t54 10h745v-108h-346q-14 0 -23.5 -8.5t-9.5 -19.5v-66h326v-107h-326v-205q0 -11 10 -20t25 -9h344v-105h-351q-29 0 -54 10t-43.5 28t-29.5 41.5t-11 50.5v209zM127 512q0 23 17 38.5t41 15.5h275v-145
h-333v91zM152 446h283v95h-250q-14 0 -23.5 -8.5t-9.5 -20.5v-66zM460 130q0 -22 9 -41t24.5 -33.5t36 -22.5t43.5 -8h326v55h-319q-25 0 -42.5 16t-17.5 38v231h326v56h-326v91q0 22 17 38t41 16h321v57h-720q-23 0 -43.5 -8t-36 -22.5t-24.5 -33.5t-9 -40v-493h61v339h333
v-235z" />
    <glyph glyph-name="Ccedilla" unicode="&#xc7;" horiz-adv-x="542" 
d="M25 516q0 27 10.5 51t29 42t43 28.5t52.5 10.5h228q29 0 54.5 -11t45.5 -31q38 -38 36 -91l-1 -56h-106v51q0 14 -10 23.5t-24 9.5h-216q-16 0 -27 -11q-9 -9 -9 -22v-374q0 -14 10.5 -23.5t24.5 -9.5h217q14 0 24 9.5t10 23.5v57h107v-65q0 -50 -36 -88
q-20 -20 -45.5 -30.5t-54.5 -10.5h-51v-17q23 -12 33.5 -31t10.5 -41q0 -18 -6.5 -35.5t-20.5 -31.5t-35 -23t-50 -9q-10 0 -24.5 2t-38.5 9l-1 85q26 -8 45.5 -11t26.5 13q4 9 -8 16.5t-29 7.5v66h-80q-28 0 -52.5 10.5t-43 28.5t-29 42t-10.5 51v385zM313 24h75
q48 0 82 34q29 29 29 70v39h-57v-31q0 -24 -17 -41t-42 -17h-217q-25 0 -42.5 17t-17.5 41v374q0 23 17 40q18 18 44 18h216q25 0 42 -17t17 -41v-26h56q1 10 1 21.5v12.5q0 40 -29 71q-16 16 -37.5 25t-44.5 9h-228q-23 0 -43 -8.5t-35 -23t-23.5 -34t-8.5 -41.5v-385
q0 -22 8.5 -41.5t23.5 -34t35 -23t43 -8.5h103v-68q23 -4 33 -20t5.5 -31t-23 -24t-52.5 0l1 -42q51 -12 82 2t42 38t1.5 50.5t-39.5 39.5v55z" />
    <glyph glyph-name="Egrave" unicode="&#xc8;" horiz-adv-x="556" 
d="M530 105v-105h-351q-29 0 -54 10t-43.5 28t-29.5 41.5t-11 50.5v388q0 27 11 50.5t29.5 41.5t43.5 28t54 10h351v-108h-346q-14 0 -23.5 -8.5t-9.5 -19.5v-66h326v-107h-326v-205q0 -11 10 -20t25 -9h344zM505 25v55h-319q-25 0 -42.5 16t-17.5 38v231h326v56h-326v91
q0 22 17 38t41 16h321v57h-326q-23 0 -43.5 -8.5t-36 -22.5t-24.5 -33t-9 -41v-388q0 -22 9 -41t24.5 -33.5t36 -22.5t43.5 -8h326zM286 682l-135 130l95 61l113 -142zM191 808l98 -94l34 23q-5 6 -17 21t-25 31.5t-25 30.5t-16 19z" />
    <glyph glyph-name="Eacute" unicode="&#xc9;" horiz-adv-x="556" 
d="M530 105v-105h-351q-29 0 -54 10t-43.5 28t-29.5 41.5t-11 50.5v388q0 27 11 50.5t29.5 41.5t43.5 28t54 10h351v-108h-346q-14 0 -23.5 -8.5t-9.5 -19.5v-66h326v-107h-326v-205q0 -11 10 -20t25 -9h344zM505 25v55h-319q-25 0 -42.5 16t-17.5 38v231h326v56h-326v91
q0 22 17 38t41 16h321v57h-326q-23 0 -43.5 -8.5t-36 -22.5t-24.5 -33t-9 -41v-388q0 -22 9 -41t24.5 -33.5t36 -22.5t43.5 -8h326zM239 725l113 142l95 -61l-135 -130zM358 833q-5 -5 -16.5 -19t-24.5 -30.5t-25 -31.5t-17 -21l34 -23l98 94z" />
    <glyph glyph-name="Ecircumflex" unicode="&#xca;" horiz-adv-x="556" 
d="M530 105v-105h-351q-29 0 -54 10t-43.5 28t-29.5 41.5t-11 50.5v388q0 27 11 50.5t29.5 41.5t43.5 28t54 10h351v-108h-346q-14 0 -23.5 -8.5t-9.5 -19.5v-66h326v-107h-326v-205q0 -11 10 -20t25 -9h344zM505 25v55h-319q-25 0 -42.5 16t-17.5 38v231h326v56h-326v91
q0 22 17 38t41 16h321v57h-326q-23 0 -43.5 -8.5t-36 -22.5t-24.5 -33t-9 -41v-388q0 -22 9 -41t24.5 -33.5t36 -22.5t43.5 -8h326zM304 878q4 0 8 -1q3 -1 6.5 -2t5.5 -3l139 -114l-62 -64l-98 77l-94 -80l-60 67l135 114q2 2 6 3.5t7 2.5q4 1 7 0zM314 847q-11 9 -21 0
l-106 -90l26 -30l90 78l95 -76l26 28z" />
    <glyph glyph-name="Edieresis" unicode="&#xcb;" horiz-adv-x="556" 
d="M530 105v-105h-351q-29 0 -54 10t-43.5 28t-29.5 41.5t-11 50.5v388q0 27 11 50.5t29.5 41.5t43.5 28t54 10h351v-108h-346q-14 0 -23.5 -8.5t-9.5 -19.5v-66h326v-107h-326v-205q0 -11 10 -20t25 -9h344zM505 25v55h-319q-25 0 -42.5 16t-17.5 38v231h326v56h-326v91
q0 22 17 38t41 16h321v57h-326q-23 0 -43.5 -8.5t-36 -22.5t-24.5 -33t-9 -41v-388q0 -22 9 -41t24.5 -33.5t36 -22.5t43.5 -8h326zM373 819h112v-107h-112v107zM131 819h111v-107h-111v107zM217 793h-61v-56h61v56zM460 793h-61v-56h61v56z" />
    <glyph glyph-name="Igrave" unicode="&#xcc;" horiz-adv-x="276" 
d="M79 648h112v-648h-111zM166 623h-61v-598h61v598zM142 674l-135 130l95 61l113 -142zM47 800l98 -94l34 23q-5 6 -17 21t-25 31.5t-25 30.5t-16 19z" />
    <glyph glyph-name="Iacute" unicode="&#xcd;" horiz-adv-x="276" 
d="M79 648h112v-648h-111zM166 623h-61v-598h61v598zM71 726l113 142l95 -61l-135 -130zM190 834q-5 -5 -16.5 -19t-24.5 -30.5t-25 -31.5t-17 -21l34 -23l98 94z" />
    <glyph glyph-name="Icircumflex" unicode="&#xce;" horiz-adv-x="276" 
d="M79 648h112v-648h-111zM166 623h-61v-598h61v598zM139 858q4 0 8 -1q3 -1 6.5 -2t5.5 -3l139 -114l-62 -64l-98 77l-94 -80l-60 67l135 114q2 2 6 3.5t7 2.5q4 1 7 0zM149 827q-11 9 -21 0l-106 -90l26 -30l90 78l95 -76l26 28z" />
    <glyph glyph-name="Idieresis" unicode="&#xcf;" horiz-adv-x="276" 
d="M79 648h112v-648h-111zM166 623h-61v-598h61v598zM202 819h112v-107h-112v107zM-40 819h111v-107h-111v107zM46 793h-61v-56h61v56zM289 793h-61v-56h61v56z" />
    <glyph glyph-name="Eth" unicode="&#xd0;" horiz-adv-x="591" 
d="M413 648q28 0 53 -10t43.5 -28t29.5 -41.5t11 -50.5v-388q0 -27 -11 -50.5t-29.5 -41.5t-43.5 -28t-53 -10h-369v284h-44v84h44v280h369zM156 368h137v-84h-137v-179h251q13 0 22.5 8.5t9.5 20.5v378q0 12 -9 20t-23 8q-92 0 -143 0.5t-75 0.5h-33v-173zM70 25h343
q23 0 43.5 8t35.5 22.5t24 33.5t9 41v388q0 22 -9 41t-24 33t-35.5 22.5t-43.5 8.5h-343v-280h-46v-35h46v-283zM131 308h138v35h-138v223h276q24 0 41 -15.5t17 -38.5v-378q0 -22 -17.5 -38t-40.5 -16h-276v228z" />
    <glyph glyph-name="Ntilde" unicode="&#xd1;" horiz-adv-x="624" 
d="M564 0h-107q-3 2 -34 49q-13 20 -33.5 51.5t-50.5 78t-71 110.5t-95 150v-439h-113v648h116q2 -6 32 -54q13 -21 33 -53.5t49.5 -80t70 -112.5t94.5 -150v450h109v-648zM538 27v596h-58v-511q-58 92 -102.5 162.5t-78 123.5t-57.5 90.5l-40 62.5q-38 58 -47 72h-70v-598
h62v501q58 -92 102.5 -162t77.5 -122.5t56.5 -88.5t39.5 -60q37 -56 45 -66h70zM413 698q-24 -19 -46 -19t-42 14l-36 23q-13 -11 -28 -24.5t-26 -21.5l-73 61l77 69q27 24 43.5 26.5t35.5 -11.5q17 -10 25 -15.5t25 -15.5q11 11 24.5 23t21.5 20l83 -54l-83 -74zM461 770
l-45 30l-47 -43l-62 40q-12 8 -23 6t-30 -19l-58 -52l39 -33l54 44l48 -32q17 -11 33 -9.5t29 13.5z" />
    <glyph glyph-name="Ograve" unicode="&#xd2;" 
d="M425 649q28 0 53.5 -10t44 -28t29.5 -41.5t11 -50.5v-389q0 -27 -11 -50.5t-29.5 -41.5t-44 -28t-53.5 -10h-229q-29 0 -54 10t-43.5 28t-29.5 41.5t-11 50.5v389q0 27 11 50.5t29.5 41.5t43.5 28t54 10h229zM538 519q0 22 -9 41t-24.5 33t-36 22.5t-43.5 8.5h-229
q-23 0 -43.5 -8.5t-36 -22.5t-24.5 -33t-9 -41v-389q0 -22 9 -41t24.5 -33.5t36 -22.5t43.5 -8h229q23 0 43.5 8t36 22.5t24.5 33.5t9 41v389zM420 567q23 0 40 -15.5t17 -38.5v-379q0 -23 -17 -38.5t-40 -15.5h-218q-24 0 -40.5 15.5t-16.5 38.5v379q0 23 16.5 38.5
t40.5 15.5h218zM452 513q0 12 -9.5 20.5t-22.5 8.5h-218q-14 0 -23 -8t-9 -21v-379q0 -12 9 -20.5t23 -8.5h218q13 0 22.5 8.5t9.5 20.5v379zM321 692l-135 130l95 61l113 -142zM226 818l98 -94l34 23q-5 6 -17 21t-25 31.5t-25 30.5t-16 19z" />
    <glyph glyph-name="Oacute" unicode="&#xd3;" 
d="M425 649q28 0 53.5 -10t44 -28t29.5 -41.5t11 -50.5v-389q0 -27 -11 -50.5t-29.5 -41.5t-44 -28t-53.5 -10h-229q-29 0 -54 10t-43.5 28t-29.5 41.5t-11 50.5v389q0 27 11 50.5t29.5 41.5t43.5 28t54 10h229zM538 519q0 22 -9 41t-24.5 33t-36 22.5t-43.5 8.5h-229
q-23 0 -43.5 -8.5t-36 -22.5t-24.5 -33t-9 -41v-389q0 -22 9 -41t24.5 -33.5t36 -22.5t43.5 -8h229q23 0 43.5 8t36 22.5t24.5 33.5t9 41v389zM420 567q23 0 40 -15.5t17 -38.5v-379q0 -23 -17 -38.5t-40 -15.5h-218q-24 0 -40.5 15.5t-16.5 38.5v379q0 23 16.5 38.5
t40.5 15.5h218zM452 513q0 12 -9.5 20.5t-22.5 8.5h-218q-14 0 -23 -8t-9 -21v-379q0 -12 9 -20.5t23 -8.5h218q13 0 22.5 8.5t9.5 20.5v379zM220 731l113 142l95 -61l-135 -130zM339 839q-5 -5 -16.5 -19t-24.5 -30.5t-25 -31.5t-17 -21l34 -23l98 94z" />
    <glyph glyph-name="Ocircumflex" unicode="&#xd4;" 
d="M425 649q28 0 53.5 -10t44 -28t29.5 -41.5t11 -50.5v-389q0 -27 -11 -50.5t-29.5 -41.5t-44 -28t-53.5 -10h-229q-29 0 -54 10t-43.5 28t-29.5 41.5t-11 50.5v389q0 27 11 50.5t29.5 41.5t43.5 28t54 10h229zM538 519q0 22 -9 41t-24.5 33t-36 22.5t-43.5 8.5h-229
q-23 0 -43.5 -8.5t-36 -22.5t-24.5 -33t-9 -41v-389q0 -22 9 -41t24.5 -33.5t36 -22.5t43.5 -8h229q23 0 43.5 8t36 22.5t24.5 33.5t9 41v389zM420 567q23 0 40 -15.5t17 -38.5v-379q0 -23 -17 -38.5t-40 -15.5h-218q-24 0 -40.5 15.5t-16.5 38.5v379q0 23 16.5 38.5
t40.5 15.5h218zM452 513q0 12 -9.5 20.5t-22.5 8.5h-218q-14 0 -23 -8t-9 -21v-379q0 -12 9 -20.5t23 -8.5h218q13 0 22.5 8.5t9.5 20.5v379zM317 871q4 0 8 -1q3 -1 6.5 -2t5.5 -3l139 -114l-62 -64l-98 77l-94 -80l-60 67l135 114q2 2 6 3.5t7 2.5q4 1 7 0zM327 840
q-11 9 -21 0l-106 -90l26 -30l90 78l95 -76l26 28z" />
    <glyph glyph-name="Otilde" unicode="&#xd5;" 
d="M425 649q28 0 53.5 -10t44 -28t29.5 -41.5t11 -50.5v-389q0 -27 -11 -50.5t-29.5 -41.5t-44 -28t-53.5 -10h-229q-29 0 -54 10t-43.5 28t-29.5 41.5t-11 50.5v389q0 27 11 50.5t29.5 41.5t43.5 28t54 10h229zM538 519q0 22 -9 41t-24.5 33t-36 22.5t-43.5 8.5h-229
q-23 0 -43.5 -8.5t-36 -22.5t-24.5 -33t-9 -41v-389q0 -22 9 -41t24.5 -33.5t36 -22.5t43.5 -8h229q23 0 43.5 8t36 22.5t24.5 33.5t9 41v389zM420 567q23 0 40 -15.5t17 -38.5v-379q0 -23 -17 -38.5t-40 -15.5h-218q-24 0 -40.5 15.5t-16.5 38.5v379q0 23 16.5 38.5
t40.5 15.5h218zM452 513q0 12 -9.5 20.5t-22.5 8.5h-218q-14 0 -23 -8t-9 -21v-379q0 -12 9 -20.5t23 -8.5h218q13 0 22.5 8.5t9.5 20.5v379zM395 711q-24 -19 -46 -19t-42 14l-36 23q-13 -11 -28 -24.5t-26 -21.5l-73 61l77 69q27 24 43.5 26.5t35.5 -11.5q17 -10 25 -15.5
t25 -15.5q11 11 24.5 23t21.5 20l83 -54l-83 -74zM443 783l-45 30l-47 -43l-62 40q-12 8 -23 6t-30 -19l-58 -52l39 -33l54 44l48 -32q17 -11 33 -9.5t29 13.5z" />
    <glyph glyph-name="Odieresis" unicode="&#xd6;" 
d="M425 649q28 0 53.5 -10t44 -28t29.5 -41.5t11 -50.5v-389q0 -27 -11 -50.5t-29.5 -41.5t-44 -28t-53.5 -10h-229q-29 0 -54 10t-43.5 28t-29.5 41.5t-11 50.5v389q0 27 11 50.5t29.5 41.5t43.5 28t54 10h229zM538 519q0 22 -9 41t-24.5 33t-36 22.5t-43.5 8.5h-229
q-23 0 -43.5 -8.5t-36 -22.5t-24.5 -33t-9 -41v-389q0 -22 9 -41t24.5 -33.5t36 -22.5t43.5 -8h229q23 0 43.5 8t36 22.5t24.5 33.5t9 41v389zM420 567q23 0 40 -15.5t17 -38.5v-379q0 -23 -17 -38.5t-40 -15.5h-218q-24 0 -40.5 15.5t-16.5 38.5v379q0 23 16.5 38.5
t40.5 15.5h218zM452 513q0 12 -9.5 20.5t-22.5 8.5h-218q-14 0 -23 -8t-9 -21v-379q0 -12 9 -20.5t23 -8.5h218q13 0 22.5 8.5t9.5 20.5v379zM370 819h112v-107h-112v107zM128 819h111v-107h-111v107zM214 793h-61v-56h61v56zM457 793h-61v-56h61v56z" />
    <glyph glyph-name="multiply" unicode="&#xd7;" horiz-adv-x="550" 
d="M270 154q-4 -3 -18 -17q-12 -12 -37.5 -37t-70.5 -70l-72 73q45 45 70.5 70t37.5 37l17 17l-22 22l-39 39l-67 67l77 77l128 -128l134 134l72 -74q-48 -48 -74.5 -73.5t-39.5 -39.5q-15 -16 -19 -20l131 -131l-77 -77zM144 67q8 7 24 23l38 38t63 62l132 -132
q20 22 42 42l-132 132q41 42 66.5 67.5l40.5 40.5l26 26q-7 5 -18.5 17t-18.5 20q-9 -8 -27 -26q-15 -15 -40.5 -41t-66.5 -67q-35 35 -59.5 60t-39.5 40l-28 28q-22 -20 -42 -42l127 -127q-38 -39 -61.5 -63t-37.5 -38l-24 -24z" />
    <glyph glyph-name="Oslash" unicode="&#xd8;" 
d="M30 -1l47 64q-19 32 -19 67v389q0 27 11 50.5t29.5 41.5t43.5 28t54 10h229q36 0 67 -17l49 67l63 -45l-56 -77q15 -26 15 -58v-389q0 -27 -11 -50.5t-29.5 -41.5t-44 -28t-53.5 -10h-229q-33 0 -60 12l-42 -58zM496 600q-23 15 -40 19.5t-31 4.5h-229q-23 0 -43.5 -8.5
t-36 -22.5t-24.5 -33t-9 -41v-389q0 -12 4 -27.5t20 -37.5l-15 -20l-30 -42l26 -18l28 38l15 21q20 -12 36.5 -15.5t28.5 -3.5h229q23 0 43.5 8t36 22.5t24.5 33.5t9 41v389q0 9 -2.5 24.5t-16.5 33.5l15 21q17 23 26 36.5t11 15.5q-5 5 -12 9t-14 9l-34 -47zM445 530
q-30 -42 -65.5 -90t-71.5 -97.5t-71.5 -98t-66.5 -91.5l-24 -33q-3 11 -2 20t1 24v349q0 23 16.5 38.5t40.5 15.5h218q11 0 22 -3t19 -13zM477 522v-388q0 -23 -17 -38.5t-40 -15.5h-218q-4 0 -13.5 1.5t-22.5 9.5l15 21l271 373zM202 542q-14 0 -23 -8t-9 -21v-323l256 351
q-2 1 -6 1h-218zM452 445l-248 -340h216q13 0 22.5 8.5t9.5 20.5v311z" />
    <glyph glyph-name="Ugrave" unicode="&#xd9;" horiz-adv-x="576" 
d="M541 648v-648h-365q-29 0 -54 10t-43.5 27.5t-29.5 41t-11 50.5v519h113v-514q0 -12 9 -20.5t22 -8.5h246v543h113zM515 623h-62v-544h-271q-23 0 -39.5 16t-16.5 38v490h-63v-494q0 -21 9 -40t24.5 -33.5t36 -22.5t44.5 -8h338v598zM292 672l-135 130l95 61l113 -142z
M197 798l98 -94l34 23q-5 6 -17 21t-25 31.5t-25 30.5t-16 19z" />
    <glyph glyph-name="Uacute" unicode="&#xda;" horiz-adv-x="576" 
d="M541 648v-648h-365q-29 0 -54 10t-43.5 27.5t-29.5 41t-11 50.5v519h113v-514q0 -12 9 -20.5t22 -8.5h246v543h113zM515 623h-62v-544h-271q-23 0 -39.5 16t-16.5 38v490h-63v-494q0 -21 9 -40t24.5 -33.5t36 -22.5t44.5 -8h338v598zM210 721l113 142l95 -61l-135 -130z
M329 829q-5 -5 -16.5 -19t-24.5 -30.5t-25 -31.5t-17 -21l34 -23l98 94z" />
    <glyph glyph-name="Ucircumflex" unicode="&#xdb;" horiz-adv-x="576" 
d="M541 648v-648h-365q-29 0 -54 10t-43.5 27.5t-29.5 41t-11 50.5v519h113v-514q0 -12 9 -20.5t22 -8.5h246v543h113zM515 623h-62v-544h-271q-23 0 -39.5 16t-16.5 38v490h-63v-494q0 -21 9 -40t24.5 -33.5t36 -22.5t44.5 -8h338v598zM285 868q4 0 8 -1q3 -1 6.5 -2
t5.5 -3l139 -114l-62 -64l-98 77l-94 -80l-60 67l135 114q2 2 6 3.5t7 2.5q4 1 7 0zM295 837q-11 9 -21 0l-106 -90l26 -30l90 78l95 -76l26 28z" />
    <glyph glyph-name="Udieresis" unicode="&#xdc;" horiz-adv-x="576" 
d="M541 648v-648h-365q-29 0 -54 10t-43.5 27.5t-29.5 41t-11 50.5v519h113v-514q0 -12 9 -20.5t22 -8.5h246v543h113zM515 623h-62v-544h-271q-23 0 -39.5 16t-16.5 38v490h-63v-494q0 -21 9 -40t24.5 -33.5t36 -22.5t44.5 -8h338v598zM369 819h112v-107h-112v107zM127 819
h111v-107h-111v107zM213 793h-61v-56h61v56zM456 793h-61v-56h61v56z" />
    <glyph glyph-name="Yacute" unicode="&#xdd;" horiz-adv-x="582" 
d="M542 649v-473h-182v-176h-112v176h-70q-29 0 -54.5 10t-44 27.5t-29.5 41t-11 50.5v344h114v-339q0 -11 9 -20t22 -9h245v368h113zM516 624h-62v-368h-270q-23 0 -40 16t-17 38q0 105 0.5 166.5t0.5 94.5v53h-64v-319q0 -21 9 -40t24.5 -33.5t36 -22.5t44.5 -8h95v-176
h61v176h182v423zM220 721l113 142l95 -61l-135 -130zM339 829q-5 -5 -16.5 -19t-24.5 -30.5t-25 -31.5t-17 -21l34 -23l98 94z" />
    <glyph glyph-name="Thorn" unicode="&#xde;" horiz-adv-x="580" 
d="M41 0v647h112v-89h252q28 0 53.5 -10t44.5 -27.5t30 -41t11 -50.5v-321q-72 0 -127.5 -0.5t-96 -0.5h-69h-46.5h-51v-107h-113zM399 476q23 0 40 -16t17 -38v-234h-328v288h271zM431 213v209q0 11 -9.5 20t-22.5 9h-245v-238h277zM128 622h-62v-597h62v107
q133 0 210.5 0.5t117.5 0.5h62v296q0 21 -9 40t-24 33.5t-35.5 22.5t-44.5 8h-277v89z" />
    <glyph glyph-name="germandbls" unicode="&#xdf;" horiz-adv-x="585" 
d="M48 648h327q56 0 83.5 -31.5t28.5 -77.5q0 -20 0.5 -34.5t0.5 -23.5v-17q1 -17 -3.5 -35t-17.5 -30q44 -26 61 -65.5t18 -85.5v-68t-0.5 -35.5t-0.5 -13.5t0 -1q-1 -26 -10.5 -49t-27.5 -41q-19 -20 -44.5 -30t-52.5 -10h-217v104h210q15 0 25 9.5t10 23.5v110
q0 37 -25.5 61.5t-64.5 24.5h-193v-333h-106zM73 623q0 -6 0.5 -51t0.5 -109.5v-138.5v-138.5v-109.5v-51h56v333h218q50 0 83 -31t33 -78v-112q0 -24 -17.5 -41t-43.5 -17h-184v-54h191q23 0 43.5 8.5t35.5 24.5q31 31 31 73v117q0 42 -18.5 79.5t-68.5 65.5q18 20 24 38
t6 33v74q-1 36 -23 60.5t-65 24.5h-302zM360 568q24 -1 36 -14.5t12 -32.5l-1 -57q0 -20 -14 -35t-34 -15h-229v154h230zM156 543v-104h203q9 0 16 7.5t7 17.5v57q0 10 -7.5 16t-15.5 6h-203z" />
    <glyph glyph-name="agrave" unicode="&#xe0;" horiz-adv-x="614" 
d="M561 461v-461h-370q-61 0 -103 42q-34 36 -34 84v208q0 26 10.5 49t29.5 40.5t43.5 27.5t53.5 10h370zM535 25l1 411h-345q-23 0 -43.5 -8t-35.5 -22t-24 -32.5t-9 -39.5v-209q0 -37 27 -66q17 -16 39 -25t46 -9h344zM475 383v-305h-279q-24 0 -40 16t-16 37v198
q0 23 16.5 38.5t40.5 15.5h278zM450 357h-253q-14 0 -23 -8t-9 -20v-198q0 -11 9 -19t23 -8h253v253zM309 506l-136 130l96 61l113 -142zM263 664q-8 -6 -23 -15t-26 -17q6 -6 20.5 -20t30.5 -29t29 -27.5t18 -16.5q7 5 16 10.5t17 11.5z" />
    <glyph glyph-name="aacute" unicode="&#xe1;" horiz-adv-x="614" 
d="M561 461v-461h-370q-61 0 -103 42q-34 36 -34 84v208q0 26 10.5 49t29.5 40.5t43.5 27.5t53.5 10h370zM535 25l1 411h-345q-23 0 -43.5 -8t-35.5 -22t-24 -32.5t-9 -39.5v-209q0 -37 27 -66q17 -16 39 -25t46 -9h344zM475 383v-305h-279q-24 0 -40 16t-16 37v198
q0 23 16.5 38.5t40.5 15.5h278zM450 357h-253q-14 0 -23 -8t-9 -20v-198q0 -11 9 -19t23 -8h253v253zM233 555l114 142l95 -61l-135 -130zM270 561l34 -22q4 4 17.5 16.5t29 27.5t30 29t20.5 20q-11 8 -25.5 17t-23.5 15z" />
    <glyph glyph-name="acircumflex" unicode="&#xe2;" horiz-adv-x="614" 
d="M561 461v-461h-370q-61 0 -103 42q-34 36 -34 84v208q0 26 10.5 49t29.5 40.5t43.5 27.5t53.5 10h370zM535 25l1 411h-345q-23 0 -43.5 -8t-35.5 -22t-24 -32.5t-9 -39.5v-209q0 -37 27 -66q17 -16 39 -25t46 -9h344zM475 383v-305h-279q-24 0 -40 16t-16 37v198
q0 23 16.5 38.5t40.5 15.5h278zM450 357h-253q-14 0 -23 -8t-9 -20v-198q0 -11 9 -19t23 -8h253v253zM321 690q4 0 8 -1q3 -1 6.5 -2t5.5 -3l144 -124l-67 -64q-32 28 -50.5 44.5t-29.5 26.5q-12 11 -18 16q-5 -5 -17 -16q-11 -10 -30 -27.5t-50 -46.5l-60 67l138 124
q2 2 6 3.5t7 2.5q4 1 7 0zM331 659q-11 9 -21 0q-2 -2 -17 -16t-34 -31t-36.5 -33t-23.5 -21l25 -29q6 5 18 16q11 10 29.5 27t48.5 45q31 -28 50 -45t30 -26q12 -11 18 -16q6 7 14 14.5t16 14.5z" />
    <glyph glyph-name="atilde" unicode="&#xe3;" horiz-adv-x="614" 
d="M561 461v-461h-370q-61 0 -103 42q-34 36 -34 84v208q0 26 10.5 49t29.5 40.5t43.5 27.5t53.5 10h370zM535 25l1 411h-345q-23 0 -43.5 -8t-35.5 -22t-24 -32.5t-9 -39.5v-209q0 -37 27 -66q17 -16 39 -25t46 -9h344zM475 383v-305h-279q-24 0 -40 16t-16 37v198
q0 23 16.5 38.5t40.5 15.5h278zM450 357h-253q-14 0 -23 -8t-9 -20v-198q0 -11 9 -19t23 -8h253v253zM404 529q-24 -19 -46 -19t-42 14l-36 23q-13 -11 -28 -24.5t-26 -21.5l-73 61l77 69q27 24 43.5 26.5t35.5 -11.5q17 -10 25 -15.5t25 -15.5q11 11 24.5 23t21.5 20
l83 -54l-83 -74zM452 601l-45 30l-47 -43l-62 40q-12 8 -23 6t-30 -19l-58 -52l39 -33l54 44l48 -32q17 -11 33 -9.5t29 13.5z" />
    <glyph glyph-name="adieresis" unicode="&#xe4;" horiz-adv-x="614" 
d="M561 461v-461h-370q-61 0 -103 42q-34 36 -34 84v208q0 26 10.5 49t29.5 40.5t43.5 27.5t53.5 10h370zM535 25l1 411h-345q-23 0 -43.5 -8t-35.5 -22t-24 -32.5t-9 -39.5v-209q0 -37 27 -66q17 -16 39 -25t46 -9h344zM475 383v-305h-279q-24 0 -40 16t-16 37v198
q0 23 16.5 38.5t40.5 15.5h278zM450 357h-253q-14 0 -23 -8t-9 -20v-198q0 -11 9 -19t23 -8h253v253zM377 649h112v-107h-112v107zM135 649h112v-107h-112v107zM221 623h-61v-56h61v56zM464 623h-61v-56h61v56z" />
    <glyph glyph-name="aring" unicode="&#xe5;" horiz-adv-x="614" 
d="M561 461v-461h-370q-61 0 -103 42q-34 36 -34 84v208q0 26 10.5 49t29.5 40.5t43.5 27.5t53.5 10h370zM535 25l1 411h-345q-23 0 -43.5 -8t-35.5 -22t-24 -32.5t-9 -39.5v-209q0 -37 27 -66q17 -16 39 -25t46 -9h344zM475 383v-305h-279q-24 0 -40 16t-16 37v198
q0 23 16.5 38.5t40.5 15.5h278zM450 357h-253q-14 0 -23 -8t-9 -20v-198q0 -11 9 -19t23 -8h253v253zM206 597q0 22 9 41.5t24.5 33.5t37 22.5t46.5 8.5q51 0 83.5 -30.5t32.5 -75.5q0 -22 -9 -41t-24.5 -33.5t-37 -22.5t-46.5 -8t-46 8t-36.5 22.5t-24.5 33.5t-9 41z
M231 597q0 -16 7 -30.5t19.5 -25.5t29 -17.5t35.5 -6.5q40 0 65.5 23.5t25.5 56.5t-25.5 57t-64.5 24q-40 0 -66 -23.5t-26 -57.5zM265 597q0 22 17 37t41 15q23 0 40.5 -15.5t17.5 -36.5t-17 -35.5t-42 -14.5q-23 0 -40 15t-17 35zM291 597q0 -8 8.5 -16t22.5 -8
q16 0 24.5 7.5t8.5 16.5q0 10 -9 18t-23 8t-23 -7.5t-9 -18.5z" />
    <glyph glyph-name="ae" unicode="&#xe6;" horiz-adv-x="1003" 
d="M191 0q-61 0 -103 42q-34 36 -34 84v208q0 26 10.5 49t29.5 40.5t43.5 27.5t53.5 10h160.5h116h87.5h76h81h103q30 0 55 -10t43 -28t28.5 -43t10.5 -55v-123h-393v-68q0 -12 10 -20.5t24 -8.5h355v-105h-757zM922 25v54h-329q-25 0 -42.5 16t-17.5 39v93h393v22v75
q0 51 -30.5 81.5t-80.5 30.5h-624q-23 0 -43.5 -8t-35.5 -22t-24 -32.5t-9 -39.5v-209q0 -37 27 -66q17 -16 39 -25t46 -9h731zM475 383v-305h-279q-24 0 -40 16t-16 37v198q0 23 16.5 38.5t40.5 15.5h278zM450 104v253h-253q-14 0 -23 -8t-9 -20v-198q0 -11 9 -19t23 -8
h253zM865 275h-331v52q0 23 17 39t42 16h213q25 0 42 -16t17 -39v-52zM840 300v27q0 13 -10 21.5t-24 8.5h-213q-14 0 -23.5 -8.5t-9.5 -21.5v-27h280z" />
    <glyph glyph-name="ccedilla" unicode="&#xe7;" horiz-adv-x="572" 
d="M55 334q0 27 10.5 50.5t28.5 41t42 27.5t51 10h222q28 0 53 -10.5t45 -30.5q17 -19 26.5 -41.5t8.5 -47.5l-1 -48h-104v44q0 13 -9.5 21.5t-23.5 8.5h-212q-14 0 -23 -9t-9 -21l-1 -195q0 -12 9 -21q9 -11 24 -11h212q14 0 23.5 9.5t9.5 22.5v49h104q0 -21 0.5 -32.5
t0.5 -16.5v-7q1 -24 -9 -46.5t-27 -39.5q-39 -41 -97 -41h-64v-18q23 -12 33.5 -31t10.5 -41q0 -18 -6.5 -35.5t-20.5 -31.5t-35 -23t-50 -9q-10 0 -24.5 2t-38.5 9l-1 85q26 -8 45.5 -11t26.5 13q4 9 -8 16.5t-29 7.5v67h-61q-27 0 -51 10t-42 27.5t-28.5 41t-10.5 49.5
v206zM321 25h88q23 0 43.5 8.5t35.5 24.5q29 29 29 69q-1 6 -1 11v20h-54v-24q0 -23 -17 -40t-41 -17h-212q-24 0 -42 18t-16 39l1 195q0 23 17 39.5t40 16.5h212q24 0 41 -16.5t17 -39.5v-19h54q0 8 0.5 16.5t0.5 9.5q0 38 -28 68q-33 33 -80 33h-222q-22 0 -41.5 -8
t-34 -22t-23 -33t-8.5 -40v-206q0 -21 8.5 -39.5t23 -33t34 -22.5t41.5 -8h84v-69q23 -4 33 -20t5.5 -31t-23 -24t-52.5 0l1 -42q51 -12 82 2t42 38t1.5 50.5t-39.5 39.5v56z" />
    <glyph glyph-name="egrave" unicode="&#xe8;" 
d="M560 202h-393v-68q0 -12 10 -20.5t24 -8.5h355v-105h-364q-28 0 -52.5 10t-43 27t-29 39.5t-10.5 48.5v210q0 26 10.5 49t29 40t43.5 27t53 10h230q30 0 55 -10t43 -28t28.5 -43t10.5 -55v-123zM201 79q-25 0 -42.5 16t-17.5 39v93h393v22v75q0 51 -30.5 81.5t-80.5 30.5
h-231q-23 0 -43 -8t-35 -21.5t-23.5 -32t-8.5 -39.5v-210q0 -21 9 -39t24 -31.5t35 -21.5t43 -8h337v54h-329zM473 275h-331v52q0 23 17 39t42 16h213q25 0 42 -16t17 -39v-52zM309 506l-136 130l96 61l113 -142zM448 327q0 13 -10 21.5t-24 8.5h-213q-14 0 -23.5 -8.5
t-9.5 -21.5v-27h280v27zM263 664q-8 -6 -23 -15t-26 -17q6 -6 20.5 -20t30.5 -29t29 -27.5t18 -16.5q7 5 16 10.5t17 11.5z" />
    <glyph glyph-name="eacute" unicode="&#xe9;" 
d="M560 202h-393v-68q0 -12 10 -20.5t24 -8.5h355v-105h-364q-28 0 -52.5 10t-43 27t-29 39.5t-10.5 48.5v210q0 26 10.5 49t29 40t43.5 27t53 10h230q30 0 55 -10t43 -28t28.5 -43t10.5 -55v-123zM201 79q-25 0 -42.5 16t-17.5 39v93h393v22v75q0 51 -30.5 81.5t-80.5 30.5
h-231q-23 0 -43 -8t-35 -21.5t-23.5 -32t-8.5 -39.5v-210q0 -21 9 -39t24 -31.5t35 -21.5t43 -8h337v54h-329zM473 275h-331v52q0 23 17 39t42 16h213q25 0 42 -16t17 -39v-52zM233 555l114 142l95 -61l-135 -130zM448 327q0 13 -10 21.5t-24 8.5h-213q-14 0 -23.5 -8.5
t-9.5 -21.5v-27h280v27zM270 561l34 -22q4 4 17.5 16.5t29 27.5t30 29t20.5 20q-11 8 -25.5 17t-23.5 15z" />
    <glyph glyph-name="ecircumflex" unicode="&#xea;" 
d="M560 202h-393v-68q0 -12 10 -20.5t24 -8.5h355v-105h-364q-28 0 -52.5 10t-43 27t-29 39.5t-10.5 48.5v210q0 26 10.5 49t29 40t43.5 27t53 10h230q30 0 55 -10t43 -28t28.5 -43t10.5 -55v-123zM201 79q-25 0 -42.5 16t-17.5 39v93h393v22v75q0 51 -30.5 81.5t-80.5 30.5
h-231q-23 0 -43 -8t-35 -21.5t-23.5 -32t-8.5 -39.5v-210q0 -21 9 -39t24 -31.5t35 -21.5t43 -8h337v54h-329zM473 275h-331v52q0 23 17 39t42 16h213q25 0 42 -16t17 -39v-52zM310 690q4 0 8 -1q3 -1 6.5 -2t5.5 -3l144 -124l-67 -64q-32 28 -50.5 44.5t-29.5 26.5
q-12 11 -18 16q-5 -5 -17 -16q-11 -10 -30 -27.5t-50 -46.5l-60 67l138 124q2 2 6 3.5t7 2.5q4 1 7 0zM448 327q0 13 -10 21.5t-24 8.5h-213q-14 0 -23.5 -8.5t-9.5 -21.5v-27h280v27zM320 659q-11 9 -21 0q-2 -2 -17 -16t-34 -31t-36.5 -33t-23.5 -21l25 -29q6 5 18 16
q11 10 29.5 27t48.5 45q31 -28 50 -45t30 -26q12 -11 18 -16q6 7 14 14.5t16 14.5z" />
    <glyph glyph-name="edieresis" unicode="&#xeb;" 
d="M560 202h-393v-68q0 -12 10 -20.5t24 -8.5h355v-105h-364q-28 0 -52.5 10t-43 27t-29 39.5t-10.5 48.5v210q0 26 10.5 49t29 40t43.5 27t53 10h230q30 0 55 -10t43 -28t28.5 -43t10.5 -55v-123zM201 79q-25 0 -42.5 16t-17.5 39v93h393v22v75q0 51 -30.5 81.5t-80.5 30.5
h-231q-23 0 -43 -8t-35 -21.5t-23.5 -32t-8.5 -39.5v-210q0 -21 9 -39t24 -31.5t35 -21.5t43 -8h337v54h-329zM473 275h-331v52q0 23 17 39t42 16h213q25 0 42 -16t17 -39v-52zM448 327q0 13 -10 21.5t-24 8.5h-213q-14 0 -23.5 -8.5t-9.5 -21.5v-27h280v27zM377 649h112
v-107h-112v107zM135 649h112v-107h-112v107zM221 623h-61v-56h61v56zM464 623h-61v-56h61v56z" />
    <glyph glyph-name="igrave" unicode="&#xec;" horiz-adv-x="255" 
d="M73 461h114v-461h-113zM161 436h-62v-411h62v411zM126 506l-136 130l96 61l113 -142zM80 664q-8 -6 -23 -15t-26 -17q6 -6 20.5 -20t30.5 -29t29 -27.5t18 -16.5q7 5 16 10.5t17 11.5z" />
    <glyph glyph-name="iacute" unicode="&#xed;" horiz-adv-x="255" 
d="M73 461h114v-461h-113zM161 436h-62v-411h62v411zM72 555l114 142l95 -61l-135 -130zM109 561l34 -22q4 4 17.5 16.5t29 27.5t30 29t20.5 20q-11 8 -25.5 17t-23.5 15z" />
    <glyph glyph-name="icircumflex" unicode="&#xee;" horiz-adv-x="247" 
d="M73 461h114v-461h-113zM128 690q4 0 8 -1q3 -1 6.5 -2t5.5 -3l144 -124l-67 -64q-32 28 -50.5 44.5t-29.5 26.5q-12 11 -18 16q-5 -5 -17 -16q-11 -10 -30 -27.5t-50 -46.5l-60 67l138 124q2 2 6 3.5t7 2.5q4 1 7 0zM161 436h-62v-411h62v411zM138 659q-11 9 -21 0
q-2 -2 -17 -16t-34 -31t-36.5 -33t-23.5 -21l25 -29q6 5 18 16q11 10 29.5 27t48.5 45q31 -28 50 -45t30 -26q12 -11 18 -16q6 7 14 14.5t16 14.5z" />
    <glyph glyph-name="idieresis" unicode="&#xef;" horiz-adv-x="255" 
d="M73 461h114v-461h-113zM161 436h-62v-411h62v411zM-46 649h112v-107h-112v107zM196 649h112v-107h-112v107zM283 623h-61v-56h61v56zM40 623h-61v-56h61v56z" />
    <glyph glyph-name="eth" unicode="&#xf0;" horiz-adv-x="608" 
d="M537 701l60 -60l-62 -60q17 -28 17 -61v-520h-368q-29 0 -54 10.5t-43.5 28t-29.5 41.5t-11 51v160q0 27 11 50.5t29.5 41.5t43.5 28t54 10h256v66l-47 -46l-60 60l44 43h-190v106h227q16 0 31.5 -3.5t26.5 -9.5zM477 606q-19 12 -36 15t-27 3h-202v-55h190q20 0 29 -6
l-63 -63l25 -25l64 66q5 -8 6.5 -15t1.5 -15v-115h-281q-23 0 -43.5 -8.5t-36 -22.5t-24.5 -33t-9 -41v-160q0 -22 9 -41t24.5 -33.5t36 -22.5t43.5 -8h343v494q0 11 -6.5 30t-17.5 33l60 58l-25 25zM133 288q0 23 16.5 38.5t40.5 15.5h275v-263h-275q-24 0 -40.5 15.5
t-16.5 38.5v155zM158 133q0 -12 9 -20.5t23 -8.5h250v213h-250q-14 0 -23 -8.5t-9 -20.5v-155z" />
    <glyph glyph-name="ntilde" unicode="&#xf1;" 
d="M429 461q28 0 53.5 -10t44 -27.5t29.5 -40.5t11 -49v-334h-112v329q0 12 -9 20t-23 8h-246v-357h-113v461h365zM542 334q0 21 -9 39.5t-24.5 32t-36 21.5t-43.5 8h-339v-410h62v357h271q24 0 40.5 -15t16.5 -38v-304h62v309zM394 539q-24 -19 -46 -19t-42 14l-36 23
q-13 -11 -28 -24.5t-26 -21.5l-73 61l77 69q27 24 43.5 26.5t35.5 -11.5q17 -10 25 -15.5t25 -15.5q11 11 24.5 23t21.5 20l83 -54l-83 -74zM442 611l-45 30l-47 -43l-62 40q-12 8 -23 6t-30 -19l-58 -52l39 -33l54 44l48 -32q17 -11 33 -9.5t29 13.5z" />
    <glyph glyph-name="ograve" unicode="&#xf2;" horiz-adv-x="624" 
d="M430 461q29 0 54.5 -10t44 -27.5t29.5 -40.5t11 -49v-207q0 -26 -11 -49.5t-29.5 -40.5t-44 -27t-54.5 -10h-228q-29 0 -54.5 10t-44 27t-29.5 40.5t-11 49.5v207q0 26 11 49t29.5 40.5t44 27.5t54.5 10h228zM543 334q0 21 -9 39.5t-24 32.5t-35.5 22t-44.5 8h-228
q-24 0 -44.5 -8t-36 -22t-24.5 -32.5t-9 -39.5v-207q0 -21 9 -39.5t24.5 -32.5t36 -22t44.5 -8h228q24 0 44.5 8t35.5 22t24 32.5t9 39.5v207zM425 383q23 0 40 -16t17 -37v-197q0 -22 -17 -37.5t-40 -15.5h-217q-23 0 -40.5 15.5t-17.5 37.5v197q0 21 17.5 37t40.5 16h217z
M457 330q0 10 -9 18.5t-23 8.5h-217q-14 0 -23 -8.5t-9 -18.5v-197q0 -11 9 -19.5t23 -8.5h217q14 0 23 8.5t9 19.5v197zM309 506l-136 130l96 61l113 -142zM263 664q-8 -6 -23 -15t-26 -17q6 -6 20.5 -20t30.5 -29t29 -27.5t18 -16.5q7 5 16 10.5t17 11.5z" />
    <glyph glyph-name="oacute" unicode="&#xf3;" horiz-adv-x="624" 
d="M430 461q29 0 54.5 -10t44 -27.5t29.5 -40.5t11 -49v-207q0 -26 -11 -49.5t-29.5 -40.5t-44 -27t-54.5 -10h-228q-29 0 -54.5 10t-44 27t-29.5 40.5t-11 49.5v207q0 26 11 49t29.5 40.5t44 27.5t54.5 10h228zM543 334q0 21 -9 39.5t-24 32.5t-35.5 22t-44.5 8h-228
q-24 0 -44.5 -8t-36 -22t-24.5 -32.5t-9 -39.5v-207q0 -21 9 -39.5t24.5 -32.5t36 -22t44.5 -8h228q24 0 44.5 8t35.5 22t24 32.5t9 39.5v207zM425 383q23 0 40 -16t17 -37v-197q0 -22 -17 -37.5t-40 -15.5h-217q-23 0 -40.5 15.5t-17.5 37.5v197q0 21 17.5 37t40.5 16h217z
M457 330q0 10 -9 18.5t-23 8.5h-217q-14 0 -23 -8.5t-9 -18.5v-197q0 -11 9 -19.5t23 -8.5h217q14 0 23 8.5t9 19.5v197zM233 555l114 142l95 -61l-135 -130zM270 561l34 -22q4 4 17.5 16.5t29 27.5t30 29t20.5 20q-11 8 -25.5 17t-23.5 15z" />
    <glyph glyph-name="ocircumflex" unicode="&#xf4;" horiz-adv-x="624" 
d="M430 461q29 0 54.5 -10t44 -27.5t29.5 -40.5t11 -49v-207q0 -26 -11 -49.5t-29.5 -40.5t-44 -27t-54.5 -10h-228q-29 0 -54.5 10t-44 27t-29.5 40.5t-11 49.5v207q0 26 11 49t29.5 40.5t44 27.5t54.5 10h228zM543 334q0 21 -9 39.5t-24 32.5t-35.5 22t-44.5 8h-228
q-24 0 -44.5 -8t-36 -22t-24.5 -32.5t-9 -39.5v-207q0 -21 9 -39.5t24.5 -32.5t36 -22t44.5 -8h228q24 0 44.5 8t35.5 22t24 32.5t9 39.5v207zM425 383q23 0 40 -16t17 -37v-197q0 -22 -17 -37.5t-40 -15.5h-217q-23 0 -40.5 15.5t-17.5 37.5v197q0 21 17.5 37t40.5 16h217z
M457 330q0 10 -9 18.5t-23 8.5h-217q-14 0 -23 -8.5t-9 -18.5v-197q0 -11 9 -19.5t23 -8.5h217q14 0 23 8.5t9 19.5v197zM310 690q4 0 8 -1q3 -1 6.5 -2t5.5 -3l144 -124l-67 -64q-32 28 -50.5 44.5t-29.5 26.5q-12 11 -18 16q-5 -5 -17 -16q-11 -10 -30 -27.5t-50 -46.5
l-60 67l138 124q2 2 6 3.5t7 2.5q4 1 7 0zM320 659q-11 9 -21 0q-2 -2 -17 -16t-34 -31t-36.5 -33t-23.5 -21l25 -29q6 5 18 16q11 10 29.5 27t48.5 45q31 -28 50 -45t30 -26q12 -11 18 -16q6 7 14 14.5t16 14.5z" />
    <glyph glyph-name="otilde" unicode="&#xf5;" horiz-adv-x="624" 
d="M430 461q29 0 54.5 -10t44 -27.5t29.5 -40.5t11 -49v-207q0 -26 -11 -49.5t-29.5 -40.5t-44 -27t-54.5 -10h-228q-29 0 -54.5 10t-44 27t-29.5 40.5t-11 49.5v207q0 26 11 49t29.5 40.5t44 27.5t54.5 10h228zM543 334q0 21 -9 39.5t-24 32.5t-35.5 22t-44.5 8h-228
q-24 0 -44.5 -8t-36 -22t-24.5 -32.5t-9 -39.5v-207q0 -21 9 -39.5t24.5 -32.5t36 -22t44.5 -8h228q24 0 44.5 8t35.5 22t24 32.5t9 39.5v207zM425 383q23 0 40 -16t17 -37v-197q0 -22 -17 -37.5t-40 -15.5h-217q-23 0 -40.5 15.5t-17.5 37.5v197q0 21 17.5 37t40.5 16h217z
M457 330q0 10 -9 18.5t-23 8.5h-217q-14 0 -23 -8.5t-9 -18.5v-197q0 -11 9 -19.5t23 -8.5h217q14 0 23 8.5t9 19.5v197zM394 529q-24 -19 -46 -19t-42 14l-36 23q-13 -11 -28 -24.5t-26 -21.5l-73 61l77 69q27 24 43.5 26.5t35.5 -11.5q17 -10 25 -15.5t25 -15.5
q11 11 24.5 23t21.5 20l83 -54l-83 -74zM442 601l-45 30l-47 -43l-62 40q-12 8 -23 6t-30 -19l-58 -52l39 -33l54 44l48 -32q17 -11 33 -9.5t29 13.5z" />
    <glyph glyph-name="odieresis" unicode="&#xf6;" horiz-adv-x="624" 
d="M430 461q29 0 54.5 -10t44 -27.5t29.5 -40.5t11 -49v-207q0 -26 -11 -49.5t-29.5 -40.5t-44 -27t-54.5 -10h-228q-29 0 -54.5 10t-44 27t-29.5 40.5t-11 49.5v207q0 26 11 49t29.5 40.5t44 27.5t54.5 10h228zM543 334q0 21 -9 39.5t-24 32.5t-35.5 22t-44.5 8h-228
q-24 0 -44.5 -8t-36 -22t-24.5 -32.5t-9 -39.5v-207q0 -21 9 -39.5t24.5 -32.5t36 -22t44.5 -8h228q24 0 44.5 8t35.5 22t24 32.5t9 39.5v207zM425 383q23 0 40 -16t17 -37v-197q0 -22 -17 -37.5t-40 -15.5h-217q-23 0 -40.5 15.5t-17.5 37.5v197q0 21 17.5 37t40.5 16h217z
M457 330q0 10 -9 18.5t-23 8.5h-217q-14 0 -23 -8.5t-9 -18.5v-197q0 -11 9 -19.5t23 -8.5h217q14 0 23 8.5t9 19.5v197zM377 649h112v-107h-112v107zM135 649h112v-107h-112v107zM221 623h-61v-56h61v56zM464 623h-61v-56h61v56z" />
    <glyph glyph-name="divide" unicode="&#xf7;" horiz-adv-x="550" 
d="M442 270v-84h-335v84h335zM324 336h-113v104h113v-104zM324 1h-113v104h113v-104zM131 245v-35h287v35h-287zM299 415h-62v-54h62v54zM299 79h-62v-53h62v53z" />
    <glyph glyph-name="oslash" unicode="&#xf8;" horiz-adv-x="624" 
d="M22 8l60 54q-19 30 -19 65v207q0 26 11 49t29.5 40.5t44 27.5t54.5 10h228q20 0 38 -5t34 -13l74 67l50 -55l-72 -65q7 -13 11 -27t4 -29v-207q0 -26 -11 -49.5t-29.5 -40.5t-44 -27t-54.5 -10h-228q-34 0 -64 14l-66 -60zM137 43q25 -13 39 -15.5t26 -2.5h228
q24 0 44.5 8t35.5 22t24 32.5t9 39.5v207q0 10 -2.5 24t-17.5 34l72 65l-21 22l-73 -66q-23 16 -40 19.5t-31 3.5h-228q-24 0 -44.5 -8t-36 -22t-24.5 -32.5t-9 -39.5v-207q0 -13 4.5 -29t21.5 -36l-62 -56l10.5 -10.5t9.5 -11.5zM159 104q-4 3 -6 11.5t-3 18.5v196
q0 21 17.5 37t40.5 16h217q13 0 19 -2.5t13 -7.5l-21 -18l-257 -234zM206 105l251 227l20 18q5 -5 5 -11v-14v-192q0 -22 -17 -37.5t-40 -15.5h-214h-17.5t-10.5 4zM176 147l231 210h-199q-14 0 -23 -8.5t-9 -18.5v-183zM457 302l-219 -197h187q14 0 23 8.5t9 19.5v169z" />
    <glyph glyph-name="ugrave" unicode="&#xf9;" 
d="M193 0q-29 0 -54 10t-44 27t-30 40.5t-11 49.5v334h113v-329q0 -12 9 -20t23 -8h246v357h112v-461h-364zM80 127q0 -21 9 -39.5t24.5 -32.5t36 -22t43.5 -8h339v410h-62v-357l-271 1q-24 0 -40.5 15t-16.5 38v303h-62v-308zM309 506l-136 130l96 61l113 -142zM263 664
q-8 -6 -23 -15t-26 -17q6 -6 20.5 -20t30.5 -29t29 -27.5t18 -16.5q7 5 16 10.5t17 11.5z" />
    <glyph glyph-name="uacute" unicode="&#xfa;" 
d="M193 0q-29 0 -54 10t-44 27t-30 40.5t-11 49.5v334h113v-329q0 -12 9 -20t23 -8h246v357h112v-461h-364zM80 127q0 -21 9 -39.5t24.5 -32.5t36 -22t43.5 -8h339v410h-62v-357l-271 1q-24 0 -40.5 15t-16.5 38v303h-62v-308zM233 555l114 142l95 -61l-135 -130zM270 561
l34 -22q4 4 17.5 16.5t29 27.5t30 29t20.5 20q-11 8 -25.5 17t-23.5 15z" />
    <glyph glyph-name="ucircumflex" unicode="&#xfb;" 
d="M193 0q-29 0 -54 10t-44 27t-30 40.5t-11 49.5v334h113v-329q0 -12 9 -20t23 -8h246v357h112v-461h-364zM80 127q0 -21 9 -39.5t24.5 -32.5t36 -22t43.5 -8h339v410h-62v-357l-271 1q-24 0 -40.5 15t-16.5 38v303h-62v-308zM310 690q4 0 8 -1q3 -1 6.5 -2t5.5 -3
l144 -124l-67 -64q-32 28 -50.5 44.5t-29.5 26.5q-12 11 -18 16q-5 -5 -17 -16q-11 -10 -30 -27.5t-50 -46.5l-60 67l138 124q2 2 6 3.5t7 2.5q4 1 7 0zM320 659q-11 9 -21 0q-2 -2 -17 -16t-34 -31t-36.5 -33t-23.5 -21l25 -29q6 5 18 16q11 10 29.5 27t48.5 45
q31 -28 50 -45t30 -26q12 -11 18 -16q6 7 14 14.5t16 14.5z" />
    <glyph glyph-name="udieresis" unicode="&#xfc;" 
d="M193 0q-29 0 -54 10t-44 27t-30 40.5t-11 49.5v334h113v-329q0 -12 9 -20t23 -8h246v357h112v-461h-364zM80 127q0 -21 9 -39.5t24.5 -32.5t36 -22t43.5 -8h339v410h-62v-357l-271 1q-24 0 -40.5 15t-16.5 38v303h-62v-308zM135 649h112v-107h-112v107zM377 649h112v-107
h-112v107zM464 623h-61v-56h61v56zM221 623h-61v-56h61v56z" />
    <glyph glyph-name="yacute" unicode="&#xfd;" horiz-adv-x="605" 
d="M558 461v-519q0 -27 -11 -50.5t-29.5 -41.5t-44 -28t-53.5 -10h-226v106h220q14 0 23 8.5t9 20.5v53h-256q-29 0 -54 10t-43.5 28t-29.5 41.5t-11 50.5v331h112v-327q0 -13 9 -21t23 -8h250v356h112zM533 436h-62v-357h-275q-24 0 -40.5 16t-16.5 39v302h-62v-306
q0 -22 9 -41t24.5 -33.5t36 -22.5t43.5 -8h281v-78q0 -23 -16.5 -38.5t-40.5 -15.5h-195v-56h201q23 0 43.5 8t36 22.5t24.5 33.5t9 41v494zM233 555l114 142l95 -61l-135 -130zM270 561l34 -22q4 4 17.5 16.5t29 27.5t30 29t20.5 20q-11 8 -25.5 17t-23.5 15z" />
    <glyph glyph-name="thorn" unicode="&#xfe;" horiz-adv-x="592" 
d="M409 461q28 0 53.5 -10t44.5 -28t30 -41.5t11 -50.5v-331h-391v-190h-111v840h112l-1 -189h252zM70 -164h62v189h390v307q0 21 -9 40t-24.5 33.5t-36 22.5t-43.5 8h-277l1 189h-62zM402 383q24 0 41 -15q17 -17 17 -39v-251h-328v305h270zM435 104v225q0 12 -9 20
q-9 9 -23 9q-90 -1 -140 -0.5t-73 0.5h-33v-254h278z" />
    <glyph glyph-name="ydieresis" unicode="&#xff;" horiz-adv-x="605" 
d="M558 461v-519q0 -27 -11 -50.5t-29.5 -41.5t-44 -28t-53.5 -10h-226v106h220q14 0 23 8.5t9 20.5v53h-256q-29 0 -54 10t-43.5 28t-29.5 41.5t-11 50.5v331h112v-327q0 -13 9 -21t23 -8h250v356h112zM533 436h-62v-357h-275q-24 0 -40.5 16t-16.5 39v302h-62v-306
q0 -22 9 -41t24.5 -33.5t36 -22.5t43.5 -8h281v-78q0 -23 -16.5 -38.5t-40.5 -15.5h-195v-56h201q23 0 43.5 8t36 22.5t24.5 33.5t9 41v494zM135 649h112v-107h-112v107zM377 649h112v-107h-112v107zM464 623h-61v-56h61v56zM221 623h-61v-56h61v56z" />
    <glyph glyph-name="Amacron" unicode="&#x100;" horiz-adv-x="582" 
d="M547 648v-648h-112v339h-283v-339h-111v519q0 27 11 50.5t29.5 41t43.5 27.5t54 10h368zM521 26v597h-342q-23 0 -43.5 -8t-36 -22.5t-24.5 -33.5t-9 -40v-493h61v339h333v-339h61zM127 512q0 23 17 38.5t41 15.5h275v-145h-333v91zM151 819h304v-106h-304v106zM152 446
h283v95h-250q-14 0 -23.5 -8.5t-9.5 -20.5v-66zM175 737h256v59h-256v-59z" />
    <glyph glyph-name="amacron" unicode="&#x101;" horiz-adv-x="614" 
d="M561 461v-461h-370q-61 0 -103 42q-34 36 -34 84v208q0 26 10.5 49t29.5 40.5t43.5 27.5t53.5 10h370zM535 25l1 411h-345q-23 0 -43.5 -8t-35.5 -22t-24 -32.5t-9 -39.5v-209q0 -37 27 -66q17 -16 39 -25t46 -9h344zM475 383v-305h-279q-24 0 -40 16t-16 37v198
q0 23 16.5 38.5t40.5 15.5h278zM450 357h-253q-14 0 -23 -8t-9 -20v-198q0 -11 9 -19t23 -8h253v253zM493 616v-84h-355v84h355zM162 591v-35h307v35h-307z" />
    <glyph glyph-name="Abreve" unicode="&#x102;" horiz-adv-x="582" 
d="M547 648v-648h-112v339h-283v-339h-111v519q0 27 11 50.5t29.5 41t43.5 27.5t54 10h368zM521 26v597h-342q-23 0 -43.5 -8t-36 -22.5t-24.5 -33.5t-9 -40v-493h61v339h333v-339h61zM127 512q0 23 17 38.5t41 15.5h275v-145h-333v91zM457 850v-75q0 -50 -24.5 -73
t-77.5 -23h-88q-54 0 -79.5 24.5t-25.5 71.5v75h114v-74h68v74h113zM152 446h283v95h-250q-14 0 -23.5 -8.5t-9.5 -20.5v-66zM368 826v-51q0 -13 -6 -17t-12 -4h-79q-7 0 -13 3.5t-6 17.5v51h-64v-58q0 -39 22 -51.5t58 -12.5h85q15 0 29 1t25.5 7t18 19t6.5 37v58h-64z" />
    <glyph glyph-name="abreve" unicode="&#x103;" horiz-adv-x="614" 
d="M561 461v-461h-370q-61 0 -103 42q-34 36 -34 84v208q0 26 10.5 49t29.5 40.5t43.5 27.5t53.5 10h370zM535 25l1 411h-345q-23 0 -43.5 -8t-35.5 -22t-24 -32.5t-9 -39.5v-209q0 -37 27 -66q17 -16 39 -25t46 -9h344zM475 383v-305h-279q-24 0 -40 16t-16 37v198
q0 23 16.5 38.5t40.5 15.5h278zM450 357h-253q-14 0 -23 -8t-9 -20v-198q0 -11 9 -19t23 -8h253v253zM279 663v-72h69v72h108l1 -81q0 -20 -7.5 -36t-21 -28t-32.5 -18.5t-40 -6.5h-88q-42 0 -70 25t-28 64v81h109zM191 644v-62q0 -29 22.5 -49t54.5 -20h88q34 0 56.5 20
t23.5 49l1 62h-66l-1 -60q0 -5 -5 -9.5t-12 -4.5h-82q-6 0 -11 4.5t-5 9.5v60h-64z" />
    <glyph glyph-name="Aogonek" unicode="&#x104;" horiz-adv-x="582" 
d="M435 359h-283v-359h-111v519q0 27 11 50.5t29.5 41t43.5 27.5t54 10h368v-649q-15 -12 -22.5 -26.5t-7.5 -27.5q0 -16 11 -27t34 -11q8 0 16.5 1t19.5 5v-100q-25 -7 -53 -7q-29 0 -54.5 8t-44 23t-29.5 35.5t-11 45.5q0 40 29 84v357zM460 0q-14 -20 -20.5 -39t-6.5 -36
q0 -21 9 -38.5t24 -29.5t34.5 -19t40.5 -7q18 0 33 4v48q-5 -1 -9 -1.5t-8 -0.5q-31 0 -47.5 18t-16.5 42q0 15 7 30.5t21 28.5v623h-342q-23 0 -43.5 -8t-36 -22.5t-24.5 -33.5t-9 -40v-493h61v359h333v-385zM127 512q0 23 17 38.5t41 15.5h275v-125h-333v71zM152 466h283
v75h-250q-14 0 -23.5 -8.5t-9.5 -20.5v-46z" />
    <glyph glyph-name="aogonek" unicode="&#x105;" horiz-adv-x="614" 
d="M535 25v411h-344q-23 0 -43.5 -8t-35.5 -22t-24 -32.5t-9 -39.5v-209q0 -21 9 -39.5t24.5 -32t36 -21t42.5 -7.5h129q-23 -23 -35 -51.5t-12 -48.5q0 -21 9 -38.5t24 -29.5t34.5 -19t40.5 -7q18 0 33 4v48q-5 -1 -8.5 -1.5t-7.5 -0.5q-32 0 -48.5 18.5t-16.5 42.5
q0 7 1.5 15.5t7 19t16.5 22.5t29 26h148zM475 383v-305h-279q-24 0 -40 16t-16 37v198q0 23 16.5 38.5t40.5 15.5h278zM450 104v253h-253q-14 0 -23 -8t-9 -20v-198q0 -11 9 -19t23 -8h253zM388 0q-30 -26 -30 -55q0 -16 11 -27t34 -11q15 0 35 6v-100q-25 -7 -53 -7
q-29 0 -54 8t-44 23t-29.5 35.5t-10.5 45.5q0 39 27 82h-83q-27 0 -52 9.5t-43.5 26t-30 40t-11.5 50.5v208q0 26 10.5 49t29.5 40.5t43.5 27.5t53.5 10h370v-461h-173z" />
    <glyph glyph-name="Cacute" unicode="&#x106;" horiz-adv-x="556" 
d="M529 462h-111v51q0 12 -9.5 20.5t-22.5 8.5h-218q-14 0 -23.5 -8.5t-9.5 -20.5v-379q0 -12 9 -20.5t23 -8.5h219q13 0 22.5 8.5t9.5 20.5v59h111v-63q0 -52 -36 -88q-20 -20 -46.5 -31t-55.5 -11h-229q-29 0 -54 10t-43.5 28t-29.5 41.5t-11 50.5v389q0 27 11 50.5
t29.5 41.5t43.5 28t54 10h229q29 0 55.5 -11t46.5 -31q36 -36 36 -88v-57zM386 567q23 0 40 -15.5t17 -38.5v-26h61v34q0 39 -29 68q-35 35 -84 35h-229q-23 0 -43.5 -8.5t-36 -22.5t-24.5 -33t-9 -41v-389q0 -22 9 -41t24.5 -33.5t36 -22.5t43.5 -8h229q24 0 46 9t38 26
q29 29 29 68v40h-61v-34q0 -23 -17 -38.5t-40 -15.5h-219q-23 0 -40 15.5t-17 38.5v379q0 23 16.5 38.5t41.5 15.5h218zM239 721l113 142l95 -61l-135 -130zM358 829q-5 -5 -16.5 -19t-24.5 -30.5t-25 -31.5t-17 -21l34 -23l98 94z" />
    <glyph glyph-name="cacute" unicode="&#x107;" horiz-adv-x="607" 
d="M563 284h-111v46q0 10 -9 19t-23 9h-218q-14 0 -23 -9t-9 -19v-198q0 -10 9 -19t23 -9h218q14 0 23 9t9 19v50h111v-55q0 -50 -35 -85q-20 -20 -47 -31t-56 -11h-229q-29 0 -54 10t-43.5 27t-29.5 40t-11 49v209q0 26 11 49t29.5 40t43.5 27t54 10h229q29 0 56 -11
t47 -31q35 -35 35 -84v-51zM420 383q23 0 40 -15.5t17 -37.5v-20h61v26q0 37 -28 65q-33 35 -85 35h-229q-23 0 -43.5 -8t-36 -21.5t-24.5 -32t-9 -39.5v-209q0 -21 9 -39.5t24.5 -32t36 -21.5t43.5 -8h229q52 0 85 35q28 28 28 65v32h-61v-25q0 -22 -17 -37.5t-40 -15.5
h-218q-23 0 -40 15.5t-17 37.5v198q0 22 17 37.5t40 15.5h218zM233 555l114 142l95 -61l-135 -130zM270 561l34 -22q4 4 17.5 16.5t29 27.5t30 29t20.5 20q-11 8 -25.5 17t-23.5 15z" />
    <glyph glyph-name="Ccircumflex" unicode="&#x108;" horiz-adv-x="556" 
d="M529 462h-111v51q0 12 -9.5 20.5t-22.5 8.5h-218q-14 0 -23.5 -8.5t-9.5 -20.5v-379q0 -12 9 -20.5t23 -8.5h219q13 0 22.5 8.5t9.5 20.5v59h111v-63q0 -52 -36 -88q-20 -20 -46.5 -31t-55.5 -11h-229q-29 0 -54 10t-43.5 28t-29.5 41.5t-11 50.5v389q0 27 11 50.5
t29.5 41.5t43.5 28t54 10h229q29 0 55.5 -11t46.5 -31q36 -36 36 -88v-57zM386 567q23 0 40 -15.5t17 -38.5v-26h61v34q0 39 -29 68q-35 35 -84 35h-229q-23 0 -43.5 -8.5t-36 -22.5t-24.5 -33t-9 -41v-389q0 -22 9 -41t24.5 -33.5t36 -22.5t43.5 -8h229q24 0 46 9t38 26
q29 29 29 68v40h-61v-34q0 -23 -17 -38.5t-40 -15.5h-219q-23 0 -40 15.5t-17 38.5v379q0 23 16.5 38.5t41.5 15.5h218zM304 868q4 0 8 -1q3 -1 6.5 -2t5.5 -3l139 -114l-62 -64l-98 77l-94 -80l-60 67l135 114q2 2 6 3.5t7 2.5q4 1 7 0zM314 837q-11 9 -21 0l-106 -90
l26 -30l90 78l95 -76l26 28z" />
    <glyph glyph-name="ccircumflex" unicode="&#x109;" horiz-adv-x="607" 
d="M563 284h-111v46q0 10 -9 19t-23 9h-218q-14 0 -23 -9t-9 -19v-198q0 -10 9 -19t23 -9h218q14 0 23 9t9 19v50h111v-55q0 -50 -35 -85q-20 -20 -47 -31t-56 -11h-229q-29 0 -54 10t-43.5 27t-29.5 40t-11 49v209q0 26 11 49t29.5 40t43.5 27t54 10h229q29 0 56 -11
t47 -31q35 -35 35 -84v-51zM420 383q23 0 40 -15.5t17 -37.5v-20h61v26q0 37 -28 65q-33 35 -85 35h-229q-23 0 -43.5 -8t-36 -21.5t-24.5 -32t-9 -39.5v-209q0 -21 9 -39.5t24.5 -32t36 -21.5t43.5 -8h229q52 0 85 35q28 28 28 65v32h-61v-25q0 -22 -17 -37.5t-40 -15.5
h-218q-23 0 -40 15.5t-17 37.5v198q0 22 17 37.5t40 15.5h218zM310 690q4 0 8 -1q3 -1 6.5 -2t5.5 -3l144 -124l-67 -64q-32 28 -50.5 44.5t-29.5 26.5q-12 11 -18 16q-5 -5 -17 -16q-11 -10 -30 -27.5t-50 -46.5l-60 67l138 124q2 2 6 3.5t7 2.5q4 1 7 0zM320 659
q-11 9 -21 0q-2 -2 -17 -16t-34 -31t-36.5 -33t-23.5 -21l25 -29q6 5 18 16q11 10 29.5 27t48.5 45q31 -28 50 -45t30 -26q12 -11 18 -16q6 7 14 14.5t16 14.5z" />
    <glyph glyph-name="Cdotaccent" unicode="&#x10a;" horiz-adv-x="556" 
d="M529 462h-111v51q0 12 -9.5 20.5t-22.5 8.5h-218q-14 0 -23.5 -8.5t-9.5 -20.5v-379q0 -12 9 -20.5t23 -8.5h219q13 0 22.5 8.5t9.5 20.5v59h111v-63q0 -52 -36 -88q-20 -20 -46.5 -31t-55.5 -11h-229q-29 0 -54 10t-43.5 28t-29.5 41.5t-11 50.5v389q0 27 11 50.5
t29.5 41.5t43.5 28t54 10h229q29 0 55.5 -11t46.5 -31q36 -36 36 -88v-57zM386 567q23 0 40 -15.5t17 -38.5v-26h61v34q0 39 -29 68q-35 35 -84 35h-229q-23 0 -43.5 -8.5t-36 -22.5t-24.5 -33t-9 -41v-389q0 -22 9 -41t24.5 -33.5t36 -22.5t43.5 -8h229q24 0 46 9t38 26
q29 29 29 68v40h-61v-34q0 -23 -17 -38.5t-40 -15.5h-219q-23 0 -40 15.5t-17 38.5v379q0 23 16.5 38.5t41.5 15.5h218zM233 801h111v-107h-111v107zM319 775h-61v-56h61v56z" />
    <glyph glyph-name="cdotaccent" unicode="&#x10b;" horiz-adv-x="607" 
d="M563 284h-111v46q0 10 -9 19t-23 9h-218q-14 0 -23 -9t-9 -19v-198q0 -10 9 -19t23 -9h218q14 0 23 9t9 19v50h111v-55q0 -50 -35 -85q-20 -20 -47 -31t-56 -11h-229q-29 0 -54 10t-43.5 27t-29.5 40t-11 49v209q0 26 11 49t29.5 40t43.5 27t54 10h229q29 0 56 -11
t47 -31q35 -35 35 -84v-51zM420 383q23 0 40 -15.5t17 -37.5v-20h61v26q0 37 -28 65q-33 35 -85 35h-229q-23 0 -43.5 -8t-36 -21.5t-24.5 -32t-9 -39.5v-209q0 -21 9 -39.5t24.5 -32t36 -21.5t43.5 -8h229q52 0 85 35q28 28 28 65v32h-61v-25q0 -22 -17 -37.5t-40 -15.5
h-218q-23 0 -40 15.5t-17 37.5v198q0 22 17 37.5t40 15.5h218zM259 618h111v-107h-111v107zM345 592h-61v-56h61v56z" />
    <glyph glyph-name="Ccaron" unicode="&#x10c;" horiz-adv-x="556" 
d="M529 462h-111v51q0 12 -9.5 20.5t-22.5 8.5h-218q-14 0 -23.5 -8.5t-9.5 -20.5v-379q0 -12 9 -20.5t23 -8.5h219q13 0 22.5 8.5t9.5 20.5v59h111v-63q0 -52 -36 -88q-20 -20 -46.5 -31t-55.5 -11h-229q-29 0 -54 10t-43.5 28t-29.5 41.5t-11 50.5v389q0 27 11 50.5
t29.5 41.5t43.5 28t54 10h229q29 0 55.5 -11t46.5 -31q36 -36 36 -88v-57zM386 567q23 0 40 -15.5t17 -38.5v-26h61v34q0 39 -29 68q-35 35 -84 35h-229q-23 0 -43.5 -8.5t-36 -22.5t-24.5 -33t-9 -41v-389q0 -22 9 -41t24.5 -33.5t36 -22.5t43.5 -8h229q24 0 46 9t38 26
q29 29 29 68v40h-61v-34q0 -23 -17 -38.5t-40 -15.5h-219q-23 0 -40 15.5t-17 38.5v379q0 23 16.5 38.5t41.5 15.5h218zM268 685q-3 -1 -7 0q-3 1 -7 2t-6 4l-135 114l60 67l94 -80l98 77l62 -64l-139 -114q-2 -2 -5.5 -3t-6.5 -2q-4 -1 -8 -1zM388 806q-8 7 -14 14l-12 14
l-95 -76l-90 78l-26 -30l106 -90q10 -9 21 0z" />
    <glyph glyph-name="ccaron" unicode="&#x10d;" horiz-adv-x="607" 
d="M563 284h-111v46q0 10 -9 19t-23 9h-218q-14 0 -23 -9t-9 -19v-198q0 -10 9 -19t23 -9h218q14 0 23 9t9 19v50h111v-55q0 -50 -35 -85q-20 -20 -47 -31t-56 -11h-229q-29 0 -54 10t-43.5 27t-29.5 40t-11 49v209q0 26 11 49t29.5 40t43.5 27t54 10h229q29 0 56 -11
t47 -31q35 -35 35 -84v-51zM420 383q23 0 40 -15.5t17 -37.5v-20h61v26q0 37 -28 65q-33 35 -85 35h-229q-23 0 -43.5 -8t-36 -21.5t-24.5 -32t-9 -39.5v-209q0 -21 9 -39.5t24.5 -32t36 -21.5t43.5 -8h229q52 0 85 35q28 28 28 65v32h-61v-25q0 -22 -17 -37.5t-40 -15.5
h-218q-23 0 -40 15.5t-17 37.5v198q0 22 17 37.5t40 15.5h218zM312 502q-3 -1 -7 0q-3 1 -7 2t-6 4l-138 124l60 67q31 -29 50 -46.5t30 -27.5q12 -11 17 -16q6 5 18 16q11 9 29.5 26t50.5 45l67 -64l-144 -124q-2 -2 -5.5 -3t-6.5 -2q-4 -1 -8 -1zM439 633q-8 7 -16 14.5
t-14 14.5q-6 -5 -18 -16q-11 -10 -30 -26.5t-50 -44.5q-30 28 -48.5 45t-29.5 27q-12 11 -18 16l-25 -29q6 -5 23.5 -21t36.5 -33t34 -31t17 -16q10 -9 21 0z" />
    <glyph glyph-name="Dcaron" unicode="&#x10e;" horiz-adv-x="591" 
d="M413 648q28 0 53 -10t43.5 -28t29.5 -41.5t11 -50.5v-388q0 -27 -11 -50.5t-29.5 -41.5t-43.5 -28t-53 -10h-369v648h369zM525 518q0 22 -9 41t-24 33t-35.5 22.5t-43.5 8.5h-343v-598h343q23 0 43.5 8t35.5 22.5t24 33.5t9 41v388zM407 566q24 0 41 -15.5t17 -38.5v-378
q0 -22 -17.5 -38t-40.5 -16h-276v486h276zM439 512q0 12 -9 20t-23 8q-92 0 -143 0.5t-75 0.5h-33v-436h251q13 0 22.5 8.5t9.5 20.5v378zM279 680q-3 -1 -7 0q-3 1 -7 2t-6 4l-135 114l60 67l94 -80l98 77l62 -64l-139 -114q-2 -2 -5.5 -3t-6.5 -2q-4 -1 -8 -1zM399 801
q-8 7 -14 14l-12 14l-95 -76l-90 78l-26 -30l106 -90q10 -9 21 0z" />
    <glyph glyph-name="dcaron" unicode="&#x10f;" horiz-adv-x="713" 
d="M436 461v187h112v-648h-500v331q0 27 11 50.5t29.5 41.5t44 28t54.5 10h249zM522 25v598h-61v-187h-274q-24 0 -44.5 -8.5t-36 -22.5t-24.5 -33t-9 -41v-306h449zM461 383v-304h-327v249q0 23 16.5 39t39.5 16h271zM436 104v254q-6 -1 -33 -1h-213q-12 0 -21 -8.5
t-9 -20.5v-224h276zM723 699l-47 -159h-95l31 159h111zM689 674h-56l-21 -108h45z" />
    <glyph glyph-name="Dcroat" unicode="&#x110;" horiz-adv-x="591" 
d="M413 648q28 0 53 -10t43.5 -28t29.5 -41.5t11 -50.5v-388q0 -27 -11 -50.5t-29.5 -41.5t-43.5 -28t-53 -10h-369v284h-44v84h44v280h369zM156 368h137v-84h-137v-179h251q13 0 22.5 8.5t9.5 20.5v378q0 12 -9 20t-23 8q-92 0 -143 0.5t-75 0.5h-33v-173zM70 25h343
q23 0 43.5 8t35.5 22.5t24 33.5t9 41v388q0 22 -9 41t-24 33t-35.5 22.5t-43.5 8.5h-343v-280h-46v-35h46v-283zM131 308h138v35h-138v223h276q24 0 41 -15.5t17 -38.5v-378q0 -22 -17.5 -38t-40.5 -16h-276v228z" />
    <glyph glyph-name="dcroat" unicode="&#x111;" horiz-adv-x="608" 
d="M461 383v-304h-327v249q0 23 16.5 39t39.5 16h271zM436 104v254q-6 -1 -33 -1h-213q-12 0 -21 -8.5t-9 -20.5v-224h276zM548 0h-500v331q0 27 11 50.5t29.5 41.5t44 28t54.5 10h249v36h-44v84h44v67h112v-67h50v-84h-50v-497zM523 521h51v35h-52v67h-61v-67h-45v-35h45
v-85h-274q-24 0 -44.5 -8.5t-36 -22.5t-24.5 -33t-9 -41v-306h449z" />
    <glyph glyph-name="Emacron" unicode="&#x112;" horiz-adv-x="556" 
d="M530 105v-105h-351q-29 0 -54 10t-43.5 28t-29.5 41.5t-11 50.5v388q0 27 11 50.5t29.5 41.5t43.5 28t54 10h351v-108h-346q-14 0 -23.5 -8.5t-9.5 -19.5v-66h326v-107h-326v-205q0 -11 10 -20t25 -9h344zM505 25v55h-319q-25 0 -42.5 16t-17.5 38v231h326v56h-326v91
q0 22 17 38t41 16h321v57h-326q-23 0 -43.5 -8.5t-36 -22.5t-24.5 -33t-9 -41v-388q0 -22 9 -41t24.5 -33.5t36 -22.5t43.5 -8h326zM151 819h304v-106h-304v106zM175 737h256v59h-256v-59z" />
    <glyph glyph-name="emacron" unicode="&#x113;" 
d="M560 202h-393v-68q0 -12 10 -20.5t24 -8.5h355v-105h-364q-28 0 -52.5 10t-43 27t-29 39.5t-10.5 48.5v210q0 26 10.5 49t29 40t43.5 27t53 10h230q30 0 55 -10t43 -28t28.5 -43t10.5 -55v-123zM201 79q-25 0 -42.5 16t-17.5 39v93h393v22v75q0 51 -30.5 81.5t-80.5 30.5
h-231q-23 0 -43 -8t-35 -21.5t-23.5 -32t-8.5 -39.5v-210q0 -21 9 -39t24 -31.5t35 -21.5t43 -8h337v54h-329zM473 275h-331v52q0 23 17 39t42 16h213q25 0 42 -16t17 -39v-52zM488 621v-84h-355v84h355zM448 327q0 13 -10 21.5t-24 8.5h-213q-14 0 -23.5 -8.5t-9.5 -21.5
v-27h280v27zM157 596v-35h307v35h-307z" />
    <glyph glyph-name="Ebreve" unicode="&#x114;" horiz-adv-x="556" 
d="M530 105v-105h-351q-29 0 -54 10t-43.5 28t-29.5 41.5t-11 50.5v388q0 27 11 50.5t29.5 41.5t43.5 28t54 10h351v-108h-346q-14 0 -23.5 -8.5t-9.5 -19.5v-66h326v-107h-326v-205q0 -11 10 -20t25 -9h344zM505 25v55h-319q-25 0 -42.5 16t-17.5 38v231h326v56h-326v91
q0 22 17 38t41 16h321v57h-326q-23 0 -43.5 -8.5t-36 -22.5t-24.5 -33t-9 -41v-388q0 -22 9 -41t24.5 -33.5t36 -22.5t43.5 -8h326zM457 850v-75q0 -50 -24.5 -73t-77.5 -23h-88q-54 0 -79.5 24.5t-25.5 71.5v75h114v-74h68v74h113zM368 826v-51q0 -13 -6 -17t-12 -4h-79
q-7 0 -13 3.5t-6 17.5v51h-64v-58q0 -39 22 -51.5t58 -12.5h85q15 0 29 1t25.5 7t18 19t6.5 37v58h-64z" />
    <glyph glyph-name="ebreve" unicode="&#x115;" 
d="M560 202h-393v-68q0 -12 10 -20.5t24 -8.5h355v-105h-364q-28 0 -52.5 10t-43 27t-29 39.5t-10.5 48.5v210q0 26 10.5 49t29 40t43.5 27t53 10h230q30 0 55 -10t43 -28t28.5 -43t10.5 -55v-123zM201 79q-25 0 -42.5 16t-17.5 39v93h393v22v75q0 51 -30.5 81.5t-80.5 30.5
h-231q-23 0 -43 -8t-35 -21.5t-23.5 -32t-8.5 -39.5v-210q0 -21 9 -39t24 -31.5t35 -21.5t43 -8h337v54h-329zM266 663v-72h69v72h108l1 -81q0 -20 -7.5 -36t-21 -28t-32.5 -18.5t-40 -6.5h-88q-42 0 -70 25t-28 64v81h109zM473 275h-331v52q0 23 17 39t42 16h213
q25 0 42 -16t17 -39v-52zM178 644v-62q0 -29 22.5 -49t54.5 -20h88q34 0 56.5 20t23.5 49l1 62h-66l-1 -60q0 -5 -5 -9.5t-12 -4.5h-82q-6 0 -11 4.5t-5 9.5v60h-64zM448 327q0 13 -10 21.5t-24 8.5h-213q-14 0 -23.5 -8.5t-9.5 -21.5v-27h280v27z" />
    <glyph glyph-name="Edotaccent" unicode="&#x116;" horiz-adv-x="556" 
d="M530 105v-105h-351q-29 0 -54 10t-43.5 28t-29.5 41.5t-11 50.5v388q0 27 11 50.5t29.5 41.5t43.5 28t54 10h351v-108h-346q-14 0 -23.5 -8.5t-9.5 -19.5v-66h326v-107h-326v-205q0 -11 10 -20t25 -9h344zM505 25v55h-319q-25 0 -42.5 16t-17.5 38v231h326v56h-326v91
q0 22 17 38t41 16h321v57h-326q-23 0 -43.5 -8.5t-36 -22.5t-24.5 -33t-9 -41v-388q0 -22 9 -41t24.5 -33.5t36 -22.5t43.5 -8h326zM255 798h111v-107h-111v107zM341 772h-61v-56h61v56z" />
    <glyph glyph-name="edotaccent" unicode="&#x117;" 
d="M560 202h-393v-68q0 -12 10 -20.5t24 -8.5h355v-105h-364q-28 0 -52.5 10t-43 27t-29 39.5t-10.5 48.5v210q0 26 10.5 49t29 40t43.5 27t53 10h230q30 0 55 -10t43 -28t28.5 -43t10.5 -55v-123zM201 79q-25 0 -42.5 16t-17.5 39v93h393v22v75q0 51 -30.5 81.5t-80.5 30.5
h-231q-23 0 -43 -8t-35 -21.5t-23.5 -32t-8.5 -39.5v-210q0 -21 9 -39t24 -31.5t35 -21.5t43 -8h337v54h-329zM473 275h-331v52q0 23 17 39t42 16h213q25 0 42 -16t17 -39v-52zM448 327q0 13 -10 21.5t-24 8.5h-213q-14 0 -23.5 -8.5t-9.5 -21.5v-27h280v27zM255 634h111
v-107h-111v107zM341 608h-61v-56h61v56z" />
    <glyph glyph-name="Eogonek" unicode="&#x118;" horiz-adv-x="556" 
d="M480 0q-15 -14 -23 -29.5t-8 -29.5t9.5 -24t31.5 -10q18 0 39 7v-100q-14 -4 -27 -5.5t-25 -1.5q-29 0 -54 8t-43 23t-28.5 36t-10.5 47q0 18 5.5 38t17.5 41h-185q-29 0 -54 10t-43.5 28t-29.5 41.5t-11 50.5v388q0 27 11 50.5t29.5 41.5t43.5 28t54 10h351v-108h-346
q-14 0 -23.5 -8.5t-9.5 -19.5v-46h326v-107h-326v-225q0 -11 10 -20t25 -9h344v-105h-50zM391 1q-14 -20 -19.5 -39t-5.5 -36q0 -21 8.5 -38.5t23 -29.5t34 -19t40.5 -7q18 0 33 4v48q-5 -1 -9 -1h-8q-33 0 -49 16t-16 39q0 21 12.5 44t38.5 43h31v55h-319q-25 0 -42.5 16
t-17.5 38v251h326v56h-326v71q0 22 17 38t41 16h321v57h-326q-23 0 -43.5 -8.5t-36 -22.5t-24.5 -33t-9 -41v-388q0 -22 9 -41t24.5 -33.5t36 -22.5t43.5 -8h228z" />
    <glyph glyph-name="eogonek" unicode="&#x119;" 
d="M405 0q-15 -13 -23 -27.5t-8 -28.5q0 -16 11 -26.5t33 -10.5q15 0 35 6v-100q-25 -7 -54 -7t-54 8t-44 23t-29.5 35.5t-10.5 45.5q0 39 27 82h-96q-28 0 -52.5 10t-43 27t-29 39.5t-10.5 48.5v210q0 26 10.5 49t29 40t43.5 27t53 10h230q30 0 55 -10t43 -28t28.5 -43
t10.5 -55v-123h-393v-68q0 -12 10 -20.5t24 -8.5h355v-105h-151zM473 275h-331v52q0 23 17 39t42 16h213q25 0 42 -16t17 -39v-52zM448 300v27q0 13 -10 21.5t-24 8.5h-213q-14 0 -23.5 -8.5t-9.5 -21.5v-27h280zM530 25v54h-329q-25 0 -42.5 16t-17.5 39v93h393v10
q0 5 0.5 12.5t0.5 18.5t-0.5 25t-0.5 31q0 51 -30.5 81.5t-80.5 30.5h-231q-23 0 -43 -8t-35 -21.5t-23.5 -32t-8.5 -39.5v-210q0 -21 9 -39t24 -31.5t35 -21.5t43 -8h138l-16 -25q-14 -21 -20.5 -39t-6.5 -36q0 -21 9 -38.5t24 -29.5t34.5 -19t40.5 -7q18 0 33 4v48
q-5 -1 -9 -1.5t-9 -0.5q-31 0 -47 18.5t-16 42.5q0 23 14 44t33 39h135z" />
    <glyph glyph-name="Ecaron" unicode="&#x11a;" horiz-adv-x="556" 
d="M530 105v-105h-351q-29 0 -54 10t-43.5 28t-29.5 41.5t-11 50.5v388q0 27 11 50.5t29.5 41.5t43.5 28t54 10h351v-108h-346q-14 0 -23.5 -8.5t-9.5 -19.5v-66h326v-107h-326v-205q0 -11 10 -20t25 -9h344zM505 25v55h-319q-25 0 -42.5 16t-17.5 38v231h326v56h-326v91
q0 22 17 38t41 16h321v57h-326q-23 0 -43.5 -8.5t-36 -22.5t-24.5 -33t-9 -41v-388q0 -22 9 -41t24.5 -33.5t36 -22.5t43.5 -8h326zM296 680q-3 -1 -7 0q-3 1 -7 2t-6 4l-135 114l60 67l94 -80l98 77l62 -64l-139 -114q-2 -2 -5.5 -3t-6.5 -2q-4 -1 -8 -1zM416 801
q-8 7 -14 14l-12 14l-95 -76l-90 78l-26 -30l106 -90q10 -9 21 0z" />
    <glyph glyph-name="ecaron" unicode="&#x11b;" 
d="M560 202h-393v-68q0 -12 10 -20.5t24 -8.5h355v-105h-364q-28 0 -52.5 10t-43 27t-29 39.5t-10.5 48.5v210q0 26 10.5 49t29 40t43.5 27t53 10h230q30 0 55 -10t43 -28t28.5 -43t10.5 -55v-123zM201 79q-25 0 -42.5 16t-17.5 39v93h393v22v75q0 51 -30.5 81.5t-80.5 30.5
h-231q-23 0 -43 -8t-35 -21.5t-23.5 -32t-8.5 -39.5v-210q0 -21 9 -39t24 -31.5t35 -21.5t43 -8h337v54h-329zM473 275h-331v52q0 23 17 39t42 16h213q25 0 42 -16t17 -39v-52zM310 489q-3 -1 -7 0q-3 1 -7 2t-6 4l-138 124l60 67q31 -29 50 -46.5t30 -27.5q12 -11 17 -16
q6 5 18 16q11 9 29.5 26t50.5 45l67 -64l-144 -124q-2 -2 -5.5 -3t-6.5 -2q-4 -1 -8 -1zM448 327q0 13 -10 21.5t-24 8.5h-213q-14 0 -23.5 -8.5t-9.5 -21.5v-27h280v27zM437 620q-8 7 -16 14.5t-14 14.5q-6 -5 -18 -16q-11 -10 -30 -26.5t-50 -44.5q-30 28 -48.5 45
t-29.5 27q-12 11 -18 16l-25 -29q6 -5 23.5 -21t36.5 -33t34 -31t17 -16q10 -9 21 0z" />
    <glyph glyph-name="Gcircumflex" unicode="&#x11c;" horiz-adv-x="584" 
d="M549 462h-111v51q0 12 -9.5 20.5t-22.5 8.5h-217q-14 0 -23.5 -8.5t-9.5 -20.5v-379q0 -12 9 -20.5t23 -8.5h218q13 0 22.5 8.5t9.5 20.5v62h-150v104h261v-170q0 -27 -11 -50.5t-29.5 -41.5t-44 -28t-53.5 -10h-229q-29 0 -54 10t-43.5 28t-29.5 41.5t-11 50.5v389
q0 27 11 50.5t29.5 41.5t43.5 28t54 10h229q28 0 53.5 -10t44 -28t29.5 -41.5t11 -50.5v-57zM406 567q23 0 40 -15.5t17 -38.5v-26h61v32q0 22 -9 41t-24.5 33t-36 22.5t-43.5 8.5h-229q-23 0 -43.5 -8.5t-36 -22.5t-24.5 -33t-9 -41v-389q0 -22 9 -41t24.5 -33.5t36 -22.5
t43.5 -8h229q23 0 43.5 8t36 22.5t24.5 33.5t9 41v145h-211v-54h150v-87q0 -23 -17 -38.5t-40 -15.5h-218q-24 0 -40.5 15.5t-16.5 38.5v379q0 23 17 38.5t41 15.5h217zM304 868q4 0 8 -1q3 -1 6.5 -2t5.5 -3l139 -114l-62 -64l-98 77l-94 -80l-60 67l135 114q2 2 6 3.5
t7 2.5q4 1 7 0zM314 837q-11 9 -21 0l-106 -90l26 -30l90 78l95 -76l26 28z" />
    <glyph glyph-name="gcircumflex" unicode="&#x11d;" horiz-adv-x="608" 
d="M552 461v-520q0 -27 -11 -50.5t-29.5 -41t-44 -28t-53.5 -10.5h-227v106h221q13 0 22.5 8.5t9.5 20.5v54h-256q-29 0 -54 10t-43.5 28t-29.5 41.5t-11 50.5v200q0 27 11 51t29.5 41.5t43.5 28t54 10.5h368zM527 435h-343q-23 0 -43.5 -8.5t-36 -22.5t-24.5 -33t-9 -41
v-200q0 -22 9 -41t24.5 -33.5t36 -22.5t43.5 -8h281v-79q0 -23 -17 -38.5t-40 -15.5h-196v-55h202q23 0 43.5 8t36 22t24.5 33t9 41v494zM133 328q0 23 16.5 38.5t40.5 15.5h275v-303h-275q-24 0 -40.5 15.5t-16.5 38.5v195zM158 133q0 -12 9 -20.5t23 -8.5h250v253h-250
q-14 0 -23 -8.5t-9 -20.5v-195zM310 698q4 0 8 -1q3 -1 6.5 -2t5.5 -3l144 -124l-67 -64q-32 28 -50.5 44.5t-29.5 26.5q-12 11 -18 16q-5 -5 -17 -16q-11 -10 -30 -27.5t-50 -46.5l-60 67l138 124q2 2 6 3.5t7 2.5q4 1 7 0zM320 667q-11 9 -21 0q-2 -2 -17 -16t-34 -31
t-36.5 -33t-23.5 -21l25 -29q6 5 18 16q11 10 29.5 27t48.5 45q31 -28 50 -45t30 -26q12 -11 18 -16q6 7 14 14.5t16 14.5z" />
    <glyph glyph-name="Gbreve" unicode="&#x11e;" horiz-adv-x="584" 
d="M549 462h-111v51q0 12 -9.5 20.5t-22.5 8.5h-217q-14 0 -23.5 -8.5t-9.5 -20.5v-379q0 -12 9 -20.5t23 -8.5h218q13 0 22.5 8.5t9.5 20.5v62h-150v104h261v-170q0 -27 -11 -50.5t-29.5 -41.5t-44 -28t-53.5 -10h-229q-29 0 -54 10t-43.5 28t-29.5 41.5t-11 50.5v389
q0 27 11 50.5t29.5 41.5t43.5 28t54 10h229q28 0 53.5 -10t44 -28t29.5 -41.5t11 -50.5v-57zM406 567q23 0 40 -15.5t17 -38.5v-26h61v32q0 22 -9 41t-24.5 33t-36 22.5t-43.5 8.5h-229q-23 0 -43.5 -8.5t-36 -22.5t-24.5 -33t-9 -41v-389q0 -22 9 -41t24.5 -33.5t36 -22.5
t43.5 -8h229q23 0 43.5 8t36 22.5t24.5 33.5t9 41v145h-211v-54h150v-87q0 -23 -17 -38.5t-40 -15.5h-218q-24 0 -40.5 15.5t-16.5 38.5v379q0 23 17 38.5t41 15.5h217zM446 850v-75q0 -50 -24.5 -73t-77.5 -23h-88q-54 0 -79.5 24.5t-25.5 71.5v75h114v-74h68v74h113z
M357 826v-51q0 -13 -6 -17t-12 -4h-79q-7 0 -13 3.5t-6 17.5v51h-64v-58q0 -39 22 -51.5t58 -12.5h85q15 0 29 1t25.5 7t18 19t6.5 37v58h-64z" />
    <glyph glyph-name="gbreve" unicode="&#x11f;" horiz-adv-x="608" 
d="M552 461v-520q0 -27 -11 -50.5t-29.5 -41t-44 -28t-53.5 -10.5h-227v106h221q13 0 22.5 8.5t9.5 20.5v54h-256q-29 0 -54 10t-43.5 28t-29.5 41.5t-11 50.5v200q0 27 11 51t29.5 41.5t43.5 28t54 10.5h368zM527 435h-343q-23 0 -43.5 -8.5t-36 -22.5t-24.5 -33t-9 -41
v-200q0 -22 9 -41t24.5 -33.5t36 -22.5t43.5 -8h281v-79q0 -23 -17 -38.5t-40 -15.5h-196v-55h202q23 0 43.5 8t36 22t24.5 33t9 41v494zM133 328q0 23 16.5 38.5t40.5 15.5h275v-303h-275q-24 0 -40.5 15.5t-16.5 38.5v195zM158 133q0 -12 9 -20.5t23 -8.5h250v253h-250
q-14 0 -23 -8.5t-9 -20.5v-195zM280 663v-72h69v72h108l1 -81q0 -20 -7.5 -36t-21 -28t-32.5 -18.5t-40 -6.5h-88q-42 0 -70 25t-28 64v81h109zM192 644v-62q0 -29 22.5 -49t54.5 -20h88q34 0 56.5 20t23.5 49l1 62h-66l-1 -60q0 -5 -5 -9.5t-12 -4.5h-82q-6 0 -11 4.5
t-5 9.5v60h-64z" />
    <glyph glyph-name="Gdotaccent" unicode="&#x120;" horiz-adv-x="584" 
d="M549 462h-111v51q0 12 -9.5 20.5t-22.5 8.5h-217q-14 0 -23.5 -8.5t-9.5 -20.5v-379q0 -12 9 -20.5t23 -8.5h218q13 0 22.5 8.5t9.5 20.5v62h-150v104h261v-170q0 -27 -11 -50.5t-29.5 -41.5t-44 -28t-53.5 -10h-229q-29 0 -54 10t-43.5 28t-29.5 41.5t-11 50.5v389
q0 27 11 50.5t29.5 41.5t43.5 28t54 10h229q28 0 53.5 -10t44 -28t29.5 -41.5t11 -50.5v-57zM406 567q23 0 40 -15.5t17 -38.5v-26h61v32q0 22 -9 41t-24.5 33t-36 22.5t-43.5 8.5h-229q-23 0 -43.5 -8.5t-36 -22.5t-24.5 -33t-9 -41v-389q0 -22 9 -41t24.5 -33.5t36 -22.5
t43.5 -8h229q23 0 43.5 8t36 22.5t24.5 33.5t9 41v145h-211v-54h150v-87q0 -23 -17 -38.5t-40 -15.5h-218q-24 0 -40.5 15.5t-16.5 38.5v379q0 23 17 38.5t41 15.5h217zM241 799h111v-107h-111v107zM327 773h-61v-56h61v56z" />
    <glyph glyph-name="gdotaccent" unicode="&#x121;" horiz-adv-x="608" 
d="M552 461v-520q0 -27 -11 -50.5t-29.5 -41t-44 -28t-53.5 -10.5h-227v106h221q13 0 22.5 8.5t9.5 20.5v54h-256q-29 0 -54 10t-43.5 28t-29.5 41.5t-11 50.5v200q0 27 11 51t29.5 41.5t43.5 28t54 10.5h368zM527 435h-343q-23 0 -43.5 -8.5t-36 -22.5t-24.5 -33t-9 -41
v-200q0 -22 9 -41t24.5 -33.5t36 -22.5t43.5 -8h281v-79q0 -23 -17 -38.5t-40 -15.5h-196v-55h202q23 0 43.5 8t36 22t24.5 33t9 41v494zM133 328q0 23 16.5 38.5t40.5 15.5h275v-303h-275q-24 0 -40.5 15.5t-16.5 38.5v195zM158 133q0 -12 9 -20.5t23 -8.5h250v253h-250
q-14 0 -23 -8.5t-9 -20.5v-195zM267 626h111v-107h-111v107zM353 600h-61v-56h61v56z" />
    <glyph glyph-name="Gcommaaccent" unicode="&#x122;" horiz-adv-x="584" 
d="M549 462h-111v51q0 12 -9.5 20.5t-22.5 8.5h-217q-14 0 -23.5 -8.5t-9.5 -20.5v-379q0 -12 9 -20.5t23 -8.5h218q13 0 22.5 8.5t9.5 20.5v62h-150v104h261v-170q0 -27 -11 -50.5t-29.5 -41.5t-44 -28t-53.5 -10h-229q-29 0 -54 10t-43.5 28t-29.5 41.5t-11 50.5v389
q0 27 11 50.5t29.5 41.5t43.5 28t54 10h229q28 0 53.5 -10t44 -28t29.5 -41.5t11 -50.5v-57zM406 567q23 0 40 -15.5t17 -38.5v-26h61v32q0 22 -9 41t-24.5 33t-36 22.5t-43.5 8.5h-229q-23 0 -43.5 -8.5t-36 -22.5t-24.5 -33t-9 -41v-389q0 -22 9 -41t24.5 -33.5t36 -22.5
t43.5 -8h229q23 0 43.5 8t36 22.5t24.5 33.5t9 41v145h-211v-54h150v-87q0 -23 -17 -38.5t-40 -15.5h-218q-24 0 -40.5 15.5t-16.5 38.5v379q0 23 17 38.5t41 15.5h217zM376 -55l-47 -159h-95l31 159h111zM342 -80h-56l-21 -108h45z" />
    <glyph glyph-name="gcommaaccent" unicode="&#x123;" horiz-adv-x="608" 
d="M552 461v-520q0 -27 -11 -50.5t-29.5 -41t-44 -28t-53.5 -10.5h-227v106h221q13 0 22.5 8.5t9.5 20.5v54h-256q-29 0 -54 10t-43.5 28t-29.5 41.5t-11 50.5v200q0 27 11 51t29.5 41.5t43.5 28t54 10.5h368zM527 435h-343q-23 0 -43.5 -8.5t-36 -22.5t-24.5 -33t-9 -41
v-200q0 -22 9 -41t24.5 -33.5t36 -22.5t43.5 -8h281v-79q0 -23 -17 -38.5t-40 -15.5h-196v-55h202q23 0 43.5 8t36 22t24.5 33t9 41v494zM133 328q0 23 16.5 38.5t40.5 15.5h275v-303h-275q-24 0 -40.5 15.5t-16.5 38.5v195zM158 133q0 -12 9 -20.5t23 -8.5h250v253h-250
q-14 0 -23 -8.5t-9 -20.5v-195zM268 495l47 159h95l-31 -159h-111zM302 520h56l21 108h-45z" />
    <glyph glyph-name="Hcircumflex" unicode="&#x124;" 
d="M559 648v-648h-113v116t0.5 86t0.5 60.5v39.5v37h-276v-339h-113v648h113v-202h276v35q0 21 -0.5 61t-0.5 106h113zM534 623h-62v-202h-326v202h-62v-598h62v340h326v-340h62v598zM309 858q4 0 8 -1q3 -1 6.5 -2t5.5 -3l139 -114l-62 -64l-98 77l-94 -80l-60 67l135 114
q2 2 6 3.5t7 2.5q4 1 7 0zM319 827q-11 9 -21 0l-106 -90l26 -30l90 78l95 -76l26 28z" />
    <glyph glyph-name="hcircumflex" unicode="&#x125;" horiz-adv-x="604" 
d="M423 461q28 0 53.5 -10t44 -28t29.5 -41.5t11 -50.5v-331h-114l1 328q0 12 -9 20.5t-22 8.5h-244v-357h-111v648h111v-187h250zM536 25v306q0 22 -9 41t-24.5 33t-36 22.5t-43.5 8.5h-275v187h-61v-598h61v357h269q23 0 39.5 -15.5t16.5 -38.5v-303h63zM116 858q4 0 8 -1
q3 -1 6.5 -2t5.5 -3l139 -114l-62 -64l-98 77l-94 -80l-60 67l135 114q2 2 6 3.5t7 2.5q4 1 7 0zM126 827q-11 9 -21 0l-106 -90l26 -30l90 78l95 -76l26 28z" />
    <glyph glyph-name="Hbar" unicode="&#x126;" horiz-adv-x="637" 
d="M627 591v-84h-58v-507h-113v117t0.5 88.5t0.5 63.5v43v47h-276v-359h-113v507h-58v84h58v57h113v-57h275v57h113v-57h58zM457 466v41h-276v-41h276zM482 531v-90h-326v90h326zM603 531v35h-59v57h-62v-57h-326v57h-62v-57h-60v-35h60v-506h62v360h326v-360h62v506h59z
" />
    <glyph glyph-name="hbar" unicode="&#x127;" horiz-adv-x="614" 
d="M483 588v-84h-300v-43h250q28 0 53.5 -10t44 -28t29.5 -41.5t11 -50.5v-331h-114l1 328q0 12 -9 20.5t-22 8.5h-244v-357h-111v504h-62v84h62v60h111v-60h300zM459 528v35h-301v60h-61v-60h-63v-35h63v-503h61v357h269q23 0 39.5 -15.5t16.5 -38.5v-303h63v306
q0 22 -9 41t-24.5 33t-36 22.5t-43.5 8.5h-275v92h301z" />
    <glyph glyph-name="Itilde" unicode="&#x128;" horiz-adv-x="276" 
d="M79 648h112v-648h-111zM166 623h-61v-598h61v598zM217 716q-24 -19 -46 -19t-42 14l-36 23q-13 -11 -28 -24.5t-26 -21.5l-73 61l77 69q27 24 43.5 26.5t35.5 -11.5q17 -10 25 -15.5t25 -15.5q11 11 24.5 23t21.5 20l83 -54l-83 -74zM265 788l-45 30l-47 -43l-62 40
q-12 8 -23 6t-30 -19l-58 -52l39 -33l54 44l48 -32q17 -11 33 -9.5t29 13.5z" />
    <glyph glyph-name="itilde" unicode="&#x129;" horiz-adv-x="247" 
d="M73 461h114v-461h-113zM199 519q-24 -19 -46 -19t-42 14l-36 23q-13 -11 -28 -24.5t-26 -21.5l-73 61l77 69q27 24 43.5 26.5t35.5 -11.5q17 -10 25 -15.5t25 -15.5q11 11 24.5 23t21.5 20l83 -54l-83 -74zM161 436h-62v-411h62v411zM247 591l-45 30l-47 -43l-62 40
q-12 8 -23 6t-30 -19l-58 -52l39 -33l54 44l48 -32q17 -11 33 -9.5t29 13.5z" />
    <glyph glyph-name="Imacron" unicode="&#x12a;" horiz-adv-x="276" 
d="M79 648h112v-648h-111zM166 623h-61v-598h61v598zM-16 798h304v-106h-304v106zM8 716h256v59h-256v-59z" />
    <glyph glyph-name="imacron" unicode="&#x12b;" horiz-adv-x="247" 
d="M73 461h114v-461h-113zM309 606v-84h-355v84h355zM161 436h-62v-411h62v411zM-22 581v-35h307v35h-307z" />
    <glyph glyph-name="Ibreve" unicode="&#x12c;" horiz-adv-x="276" 
d="M79 648h112v-648h-111zM282 850v-75q0 -50 -24.5 -73t-77.5 -23h-88q-54 0 -79.5 24.5t-25.5 71.5v75h114v-74h68v74h113zM166 623h-61v-598h61v598zM193 826v-51q0 -13 -6 -17t-12 -4h-79q-7 0 -13 3.5t-6 17.5v51h-64v-58q0 -39 22 -51.5t58 -12.5h85q15 0 29 1t25.5 7
t18 19t6.5 37v58h-64z" />
    <glyph glyph-name="ibreve" unicode="&#x12d;" horiz-adv-x="247" 
d="M73 461h114v-461h-113zM95 663v-72h69v72h108l1 -81q0 -20 -7.5 -36t-21 -28t-32.5 -18.5t-40 -6.5h-88q-42 0 -70 25t-28 64v81h109zM161 436h-62v-411h62v411zM7 644v-62q0 -29 22.5 -49t54.5 -20h88q34 0 56.5 20t23.5 49l1 62h-66l-1 -60q0 -5 -5 -9.5t-12 -4.5h-82
q-6 0 -11 4.5t-5 9.5v60h-64z" />
    <glyph glyph-name="Iogonek" unicode="&#x12e;" horiz-adv-x="276" 
d="M80 648h111v-648q-28 -32 -28 -58q0 -15 11 -24.5t31 -9.5q14 0 40 8v-100q-14 -4 -27 -5.5t-25 -1.5q-29 0 -54.5 8t-44.5 23t-29.5 35.5t-10.5 45.5q0 38 26 80v647zM166 623h-61v-624q-24 -37 -24 -72q0 -21 8.5 -38t23.5 -29.5t34.5 -19t40.5 -6.5q18 0 33 4v48
q-5 -1 -9 -1.5t-9 -0.5q-29 0 -46.5 14.5t-17.5 39.5q0 29 27 62v623z" />
    <glyph glyph-name="iogonek" unicode="&#x12f;" horiz-adv-x="247" 
d="M76 462h111v-462q-28 -32 -28 -58q0 -15 11 -24.5t31 -9.5q14 0 40 8v-100q-14 -4 -27 -5.5t-25 -1.5q-29 0 -54.5 8t-44.5 23t-29.5 35.5t-10.5 45.5q0 38 26 80v461zM162 437h-61l1 -437q-25 -40 -25 -73q0 -21 8.5 -38t23.5 -29.5t34.5 -19t40.5 -6.5q18 0 33 4v48
q-5 -1 -9 -1.5t-9 -0.5q-29 0 -46.5 14.5t-17.5 39.5q0 29 27 62v437zM75 649h112v-107h-112v107zM161 623h-61v-56h61v56z" />
    <glyph glyph-name="Idotaccent" unicode="&#x130;" horiz-adv-x="276" 
d="M79 648h112v-648h-111zM166 623h-61v-598h61v598zM80 798h111v-107h-111v107zM166 772h-61v-56h61v56z" />
    <glyph glyph-name="dotlessi" unicode="&#x131;" horiz-adv-x="247" 
d="M73 461h114v-461h-113zM161 436h-62v-411h62v411z" />
    <glyph glyph-name="IJ" unicode="&#x132;" horiz-adv-x="617" 
d="M456 648h112v-519q0 -27 -11 -50.5t-29.5 -41t-44 -27.5t-53.5 -10h-171v105h165q14 0 23 8t9 21v514zM79 648h112v-648h-111zM543 623h-62v-489q0 -23 -16.5 -38.5t-40.5 -15.5h-140v-55h146q23 0 43.5 8t36 22.5t24.5 33.5t9 40v494zM166 623h-61v-598h61v598z" />
    <glyph glyph-name="ij" unicode="&#x133;" horiz-adv-x="480" 
d="M295 -52v513h113v-518q0 -27 -11 -51t-29.5 -41.5t-44 -28t-53.5 -10.5h-69v107h63q14 0 23 8.5t9 20.5h-1zM72 461h114v-461h-113zM321 -52q0 -23 -16.5 -38.5t-40.5 -15.5h-37v-57h43q23 0 43.5 8.5t36 23t24.5 33.5t9 41v493h-62v-488zM160 436h-62v-411h62v411z
M296 649h112v-107h-113zM74 649h112v-107h-112v107zM383 624h-62v-57h62v57zM160 623h-61v-56h61v56z" />
    <glyph glyph-name="Jcircumflex" unicode="&#x134;" horiz-adv-x="339" 
d="M178 649h112v-519q0 -27 -11 -50.5t-29.5 -41t-44 -27.5t-53.5 -10h-171v105h165q14 0 23 8t9 21v514zM265 624h-62v-489q0 -23 -16.5 -38.5t-40.5 -15.5h-140v-55h146q23 0 43.5 8t36 22.5t24.5 33.5t9 40v494zM241 858q4 0 8 -1q3 -1 6.5 -2t5.5 -3l139 -114l-62 -64
l-98 77l-94 -80l-60 67l135 114q2 2 6 3.5t7 2.5q4 1 7 0zM251 827q-11 9 -21 0l-106 -90l26 -30l90 78l95 -76l26 28z" />
    <glyph glyph-name="jcircumflex" unicode="&#x135;" horiz-adv-x="267" 
d="M82 -52v513h113v-518q0 -27 -11 -51t-29.5 -41.5t-44 -28t-53.5 -10.5h-69v107h63q14 0 23 8.5t9 20.5h-1zM108 -52q0 -23 -16.5 -38.5t-40.5 -15.5h-37v-57h43q23 0 43.5 8.5t36 23t24.5 33.5t9 41v493h-62v-488zM138 670q4 0 8 -1q3 -1 6.5 -2t5.5 -3l144 -124l-67 -64
q-32 28 -50.5 44.5t-29.5 26.5q-12 11 -18 16q-5 -5 -17 -16q-11 -10 -30 -27.5t-50 -46.5l-60 67l138 124q2 2 6 3.5t7 2.5q4 1 7 0zM148 639q-11 9 -21 0q-2 -2 -17 -16t-34 -31t-36.5 -33t-23.5 -21l25 -29q6 5 18 16q11 10 29.5 27t48.5 45q31 -28 50 -45t30 -26
q12 -11 18 -16q6 7 14 14.5t16 14.5z" />
    <glyph glyph-name="Kcommaaccent" unicode="&#x136;" horiz-adv-x="604" 
d="M430 384q57 -20 91.5 -67t34.5 -105v-212h-112v212q0 16 -7 30.5t-18.5 25.5t-27 17.5t-32.5 6.5h-191v-292h-113v648h113v-251h140q3 5 20 33q14 24 44.5 74.5t86.5 143.5h127q-29 -49 -50.5 -86t-38 -64.5t-28 -46.5t-18.5 -32zM530 212q0 51 -30 93t-81 56l-27 8
q45 78 74 127t46 78q19 33 30 49h-69q-5 -8 -23 -38q-15 -26 -45.5 -76t-82.5 -137h-180v251h-62v-598h62v292h217q22 0 42 -8.5t35 -22.5t24 -33.5t9 -40.5v-187h61v187zM359 -9l-47 -159h-95l31 159h111zM325 -34h-56l-21 -108h45z" />
    <glyph glyph-name="kcommaaccent" unicode="&#x137;" horiz-adv-x="618" 
d="M441 283q56 -20 87.5 -66.5t31.5 -101.5v-115h-111v115q0 32 -25 55.5t-60 23.5h-192v-194h-113v648h113v-348h146q3 3 18 21q13 16 39.5 48.5t77.5 93.5h147q-58 -65 -90 -101.5t-47 -53.5q-18 -20 -22 -25zM535 115q0 48 -28.5 89.5t-76.5 58.5q-7 2 -13 3.5t-11 2.5
t-10 1q7 9 25.5 30t41 46t44.5 50t36 42h-78q-5 -6 -21 -25q-14 -17 -40.5 -49t-73.5 -89h-183v348h-63v-597h63v193h217q23 0 43 -8t35 -22.5t23.5 -33.5t8.5 -40v-89h61v89zM372 -29l-47 -159h-95l31 159h111zM338 -54h-56l-21 -108h45z" />
    <glyph glyph-name="kgreenlandic" unicode="&#x138;" horiz-adv-x="618" 
d="M440 283q56 -19 88 -66t32 -102v-115h-111v115q0 32 -25 55.5t-60 23.5h-192v-194h-113v461h113v-161h146l17 20q13 15 39.5 48t77.5 93h146q-58 -65 -90 -101t-47 -53q-18 -20 -21 -24zM535 115q0 48 -28 89t-76 57q-8 2 -14 4t-11 3l-10 2q7 9 25.5 30t40.5 45.5
t44 49.5t36 41h-79q-4 -6 -20 -24q-14 -17 -40 -48.5t-73 -88.5h-183v161h-63v-410h63v193h217q23 0 43 -8t35 -22.5t23.5 -33.5t8.5 -40v-89h61v89z" />
    <glyph glyph-name="Lacute" unicode="&#x139;" horiz-adv-x="486" 
d="M471 104v-104h-415l1 648h112v-544h302zM446 79h-302v544h-62v-598h364v54zM50 721l113 142l95 -61l-135 -130zM169 829q-5 -5 -16.5 -19t-24.5 -30.5t-25 -31.5t-17 -21l34 -23l98 94z" />
    <glyph glyph-name="lacute" unicode="&#x13a;" horiz-adv-x="296" 
d="M271 104v-104h-69q-28 0 -53 10t-43.5 28t-29.5 41.5t-11 50.5v518h113l-1 -515q0 -13 9 -21t22 -8h63zM245 78h-37q-23 0 -39.5 16t-16.5 39v490h-62v-493q0 -22 9 -41t24 -33.5t35.5 -22.5t43.5 -8h43v53zM69 721l113 142l95 -61l-135 -130zM188 829q-5 -5 -16.5 -19
t-24.5 -30.5t-25 -31.5t-17 -21l34 -23l98 94z" />
    <glyph glyph-name="Lcommaaccent" unicode="&#x13b;" horiz-adv-x="486" 
d="M471 104v-104h-415l1 648h112v-544h302zM446 79h-302v544h-62v-598h364v54zM347 -29l-47 -159h-95l31 159h111zM313 -54h-56l-21 -108h45z" />
    <glyph glyph-name="lcommaaccent" unicode="&#x13c;" horiz-adv-x="296" 
d="M271 104v-104h-69q-28 0 -53 10t-43.5 28t-29.5 41.5t-11 50.5v518h113l-1 -515q0 -13 9 -21t22 -8h63zM245 78h-37q-23 0 -39.5 16t-16.5 39v490h-62v-493q0 -22 9 -41t24 -33.5t35.5 -22.5t43.5 -8h43v53zM257 -29l-47 -159h-95l31 159h111zM223 -54h-56l-21 -108h45z
" />
    <glyph glyph-name="Lcaron" unicode="&#x13d;" horiz-adv-x="486" 
d="M471 104v-104h-415l1 648h112v-544h302zM446 79h-302v544h-62v-598h364v54zM425 666l-47 -159h-95l31 159h111zM391 641h-56l-21 -108h45z" />
    <glyph glyph-name="lcaron" unicode="&#x13e;" horiz-adv-x="344" 
d="M271 104v-104h-69q-28 0 -53 10t-43.5 28t-29.5 41.5t-11 50.5v518h113l-1 -515q0 -13 9 -21t22 -8h63zM245 78h-37q-23 0 -39.5 16t-16.5 39v490h-62v-493q0 -22 9 -41t24 -33.5t35.5 -22.5t43.5 -8h43v53zM347 671l-47 -159h-95l31 159h111zM313 646h-56l-21 -108h45z
" />
    <glyph glyph-name="Ldot" unicode="&#x13f;" horiz-adv-x="486" 
d="M471 104v-104h-415l1 648h112v-544h302zM446 79h-302v544h-62v-598h364v54zM253 459h111v-107h-111v107zM339 433h-61v-56h61v56z" />
    <glyph glyph-name="ldot" unicode="&#x140;" horiz-adv-x="359" 
d="M271 104v-104h-69q-28 0 -53 10t-43.5 28t-29.5 41.5t-11 50.5v518h113l-1 -515q0 -13 9 -21t22 -8h63zM245 78h-37q-23 0 -39.5 16t-16.5 39v490h-62v-493q0 -22 9 -41t24 -33.5t35.5 -22.5t43.5 -8h43v53zM229 443h111v-107h-111v107zM315 417h-61v-56h61v56z" />
    <glyph glyph-name="Lslash" unicode="&#x141;" horiz-adv-x="542" 
d="M38 170l-45 86l119 65l1 327h112v-266l101 55l44 -88l-145 -78v-167h302v-104h-415v210zM200 282l141 76l-25 48l-116 -63v280h-62v-313l-116 -62l25 -47l91 48v-224h364v54h-302v203z" />
    <glyph glyph-name="lslash" unicode="&#x142;" horiz-adv-x="352" 
d="M38 180l-45 86l128 69v313h113l-1 -251l93 50l44 -88l-137 -74v-152q0 -13 9 -21t22 -8h63v-104h-69q-28 0 -53 10t-43.5 28t-29.5 41.5t-11 50.5v95zM208 358v265h-62v-299l-124 -66l25 -47l99 53v-134q0 -22 9 -41t24 -33.5t35.5 -22.5t43.5 -8h43v53h-37
q-23 0 -39.5 16t-16.5 39v164l133 71l-25 48z" />
    <glyph glyph-name="Nacute" unicode="&#x143;" horiz-adv-x="624" 
d="M564 0h-107q-3 2 -34 49q-13 20 -33.5 51.5t-50.5 78t-71 110.5t-95 150v-439h-113v648h116q2 -6 32 -54q13 -21 33 -53.5t49.5 -80t70 -112.5t94.5 -150v450h109v-648zM538 27v596h-58v-511q-58 92 -102.5 162.5t-78 123.5t-57.5 90.5l-40 62.5q-38 58 -47 72h-70v-598
h62v501q58 -92 102.5 -162t77.5 -122.5t56.5 -88.5t39.5 -60q37 -56 45 -66h70zM216 721l113 142l95 -61l-135 -130zM335 829q-5 -5 -16.5 -19t-24.5 -30.5t-25 -31.5t-17 -21l34 -23l98 94z" />
    <glyph glyph-name="nacute" unicode="&#x144;" 
d="M429 461q28 0 53.5 -10t44 -27.5t29.5 -40.5t11 -49v-334h-112v329q0 12 -9 20t-23 8h-246v-357h-113v461h365zM542 334q0 21 -9 39.5t-24.5 32t-36 21.5t-43.5 8h-339v-410h62v357h271q24 0 40.5 -15t16.5 -38v-304h62v309zM227 555l114 142l95 -61l-135 -130zM264 561
l34 -22q4 4 17.5 16.5t29 27.5t30 29t20.5 20q-11 8 -25.5 17t-23.5 15z" />
    <glyph glyph-name="Ncommaaccent" unicode="&#x145;" horiz-adv-x="624" 
d="M564 0h-107q-3 2 -34 49q-13 20 -33.5 51.5t-50.5 78t-71 110.5t-95 150v-439h-113v648h116q2 -6 32 -54q13 -21 33 -53.5t49.5 -80t70 -112.5t94.5 -150v450h109v-648zM538 27v596h-58v-511q-58 92 -102.5 162.5t-78 123.5t-57.5 90.5l-40 62.5q-38 58 -47 72h-70v-598
h62v501q58 -92 102.5 -162t77.5 -122.5t56.5 -88.5t39.5 -60q37 -56 45 -66h70zM400 -29l-47 -159h-95l31 159h111zM366 -54h-56l-21 -108h45z" />
    <glyph glyph-name="ncommaaccent" unicode="&#x146;" 
d="M429 461q28 0 53.5 -10t44 -27.5t29.5 -40.5t11 -49v-334h-112v329q0 12 -9 20t-23 8h-246v-357h-113v461h365zM542 334q0 21 -9 39.5t-24.5 32t-36 21.5t-43.5 8h-339v-410h62v357h271q24 0 40.5 -15t16.5 -38v-304h62v309zM389 -29l-47 -159h-95l31 159h111zM355 -54
h-56l-21 -108h45z" />
    <glyph glyph-name="Ncaron" unicode="&#x147;" horiz-adv-x="624" 
d="M564 0h-107q-3 2 -34 49q-13 20 -33.5 51.5t-50.5 78t-71 110.5t-95 150v-439h-113v648h116q2 -6 32 -54q13 -21 33 -53.5t49.5 -80t70 -112.5t94.5 -150v450h109v-648zM538 27v596h-58v-511q-58 92 -102.5 162.5t-78 123.5t-57.5 90.5l-40 62.5q-38 58 -47 72h-70v-598
h62v501q58 -92 102.5 -162t77.5 -122.5t56.5 -88.5t39.5 -60q37 -56 45 -66h70zM330 672q-3 -1 -7 0q-3 1 -7 2t-6 4l-135 114l60 67l94 -80l98 77l62 -64l-139 -114q-2 -2 -5.5 -3t-6.5 -2q-4 -1 -8 -1zM450 793q-8 7 -14 14l-12 14l-95 -76l-90 78l-26 -30l106 -90
q10 -9 21 0z" />
    <glyph glyph-name="ncaron" unicode="&#x148;" 
d="M429 461q28 0 53.5 -10t44 -27.5t29.5 -40.5t11 -49v-334h-112v329q0 12 -9 20t-23 8h-246v-357h-113v461h365zM542 334q0 21 -9 39.5t-24.5 32t-36 21.5t-43.5 8h-339v-410h62v357h271q24 0 40.5 -15t16.5 -38v-304h62v309zM288 498q-3 -1 -7 0q-3 1 -7 2t-6 4l-138 124
l60 67q31 -29 50 -46.5t30 -27.5q12 -11 17 -16q6 5 18 16q11 9 29.5 26t50.5 45l67 -64l-144 -124q-2 -2 -5.5 -3t-6.5 -2q-4 -1 -8 -1zM415 629q-8 7 -16 14.5t-14 14.5q-6 -5 -18 -16q-11 -10 -30 -26.5t-50 -44.5q-30 28 -48.5 45t-29.5 27q-12 11 -18 16l-25 -29
q6 -5 23.5 -21t36.5 -33t34 -31t17 -16q10 -9 21 0z" />
    <glyph glyph-name="napostrophe" unicode="&#x149;" horiz-adv-x="669" 
d="M482 461q28 0 53.5 -10t44 -27.5t29.5 -40.5t11 -49v-334h-112v329q0 12 -9 20t-23 8h-246v-357h-113v461h365zM595 334q0 21 -9 39.5t-24.5 32t-36 21.5t-43.5 8h-339v-410h62v357h271q24 0 40.5 -15t16.5 -38v-304h62v309zM128 631l-47 -159h-95l31 159h111zM94 606
h-56l-21 -108h45z" />
    <glyph glyph-name="Eng" unicode="&#x14a;" horiz-adv-x="624" 
d="M564 648v-705q0 -27 -11 -51t-29.5 -41.5t-44 -28t-53.5 -10.5h-69v107h63q14 0 24.5 8.5t10.5 20.5v54q-2 2 -7.5 9.5t-17.5 25.5t-31.5 48.5t-50.5 78.5t-74 115.5t-101 159.5v-439h-113v648h116q2 -6 32 -54q13 -21 33 -53.5t49.5 -80t70 -112.5t94.5 -150v450h109z
M480 -52q0 -23 -18 -38.5t-42 -15.5h-37v-57h43q23 0 43.5 8.5t35.5 23t24 33.5t9 41v680h-58v-511q-58 92 -102.5 162.5t-78 123.5t-57.5 90.5l-40 62.5q-38 58 -47 72h-70v-598h62v501q77 -122 131 -206.5t90 -140.5t57 -88t32 -48.5t15.5 -22.5l7.5 -10v-62z" />
    <glyph glyph-name="eng" unicode="&#x14b;" 
d="M455 329q0 12 -9 20t-23 8h-246v-357h-113v461h365q28 0 53.5 -10t44 -27.5t29.5 -40.5t11 -49v-391q0 -27 -11.5 -51t-30.5 -41.5t-45 -28t-54 -10.5h-69v107h63q14 0 24.5 8.5t10.5 20.5v381zM480 -52q0 -23 -18 -38.5t-42 -15.5h-37v-57h43q23 0 44 8.5t37 23
t25.5 33.5t9.5 41v391q0 21 -9 39.5t-24.5 32t-36 21.5t-43.5 8h-339v-410h62v357h271q24 0 40.5 -15t16.5 -38v-381z" />
    <glyph glyph-name="Omacron" unicode="&#x14c;" 
d="M425 649q28 0 53.5 -10t44 -28t29.5 -41.5t11 -50.5v-389q0 -27 -11 -50.5t-29.5 -41.5t-44 -28t-53.5 -10h-229q-29 0 -54 10t-43.5 28t-29.5 41.5t-11 50.5v389q0 27 11 50.5t29.5 41.5t43.5 28t54 10h229zM538 519q0 22 -9 41t-24.5 33t-36 22.5t-43.5 8.5h-229
q-23 0 -43.5 -8.5t-36 -22.5t-24.5 -33t-9 -41v-389q0 -22 9 -41t24.5 -33.5t36 -22.5t43.5 -8h229q23 0 43.5 8t36 22.5t24.5 33.5t9 41v389zM420 567q23 0 40 -15.5t17 -38.5v-379q0 -23 -17 -38.5t-40 -15.5h-218q-24 0 -40.5 15.5t-16.5 38.5v379q0 23 16.5 38.5
t40.5 15.5h218zM452 513q0 12 -9.5 20.5t-22.5 8.5h-218q-14 0 -23 -8t-9 -21v-379q0 -12 9 -20.5t23 -8.5h218q13 0 22.5 8.5t9.5 20.5v379zM185 737h256v59h-256v-59zM161 819h304v-106h-304v106z" />
    <glyph glyph-name="omacron" unicode="&#x14d;" horiz-adv-x="624" 
d="M430 461q29 0 54.5 -10t44 -27.5t29.5 -40.5t11 -49v-207q0 -26 -11 -49.5t-29.5 -40.5t-44 -27t-54.5 -10h-228q-29 0 -54.5 10t-44 27t-29.5 40.5t-11 49.5v207q0 26 11 49t29.5 40.5t44 27.5t54.5 10h228zM543 334q0 21 -9 39.5t-24 32.5t-35.5 22t-44.5 8h-228
q-24 0 -44.5 -8t-36 -22t-24.5 -32.5t-9 -39.5v-207q0 -21 9 -39.5t24.5 -32.5t36 -22t44.5 -8h228q24 0 44.5 8t35.5 22t24 32.5t9 39.5v207zM425 383q23 0 40 -16t17 -37v-197q0 -22 -17 -37.5t-40 -15.5h-217q-23 0 -40.5 15.5t-17.5 37.5v197q0 21 17.5 37t40.5 16h217z
M457 330q0 10 -9 18.5t-23 8.5h-217q-14 0 -23 -8.5t-9 -18.5v-197q0 -11 9 -19.5t23 -8.5h217q14 0 23 8.5t9 19.5v197zM496 634v-84h-355v84h355zM165 609v-35h307v35h-307z" />
    <glyph glyph-name="Obreve" unicode="&#x14e;" 
d="M425 649q28 0 53.5 -10t44 -28t29.5 -41.5t11 -50.5v-389q0 -27 -11 -50.5t-29.5 -41.5t-44 -28t-53.5 -10h-229q-29 0 -54 10t-43.5 28t-29.5 41.5t-11 50.5v389q0 27 11 50.5t29.5 41.5t43.5 28t54 10h229zM538 519q0 22 -9 41t-24.5 33t-36 22.5t-43.5 8.5h-229
q-23 0 -43.5 -8.5t-36 -22.5t-24.5 -33t-9 -41v-389q0 -22 9 -41t24.5 -33.5t36 -22.5t43.5 -8h229q23 0 43.5 8t36 22.5t24.5 33.5t9 41v389zM420 567q23 0 40 -15.5t17 -38.5v-379q0 -23 -17 -38.5t-40 -15.5h-218q-24 0 -40.5 15.5t-16.5 38.5v379q0 23 16.5 38.5
t40.5 15.5h218zM452 513q0 12 -9.5 20.5t-22.5 8.5h-218q-14 0 -23 -8t-9 -21v-379q0 -12 9 -20.5t23 -8.5h218q13 0 22.5 8.5t9.5 20.5v379zM378 842v-51q0 -13 -6 -17t-12 -4h-79q-7 0 -13 3.5t-6 17.5v51h-64v-58q0 -39 22 -51.5t58 -12.5h85q15 0 29 1t25.5 7t18 19
t6.5 37v58h-64zM467 866v-75q0 -50 -24.5 -73t-77.5 -23h-88q-54 0 -79.5 24.5t-25.5 71.5v75h114v-74h68v74h113z" />
    <glyph glyph-name="obreve" unicode="&#x14f;" horiz-adv-x="624" 
d="M430 461q29 0 54.5 -10t44 -27.5t29.5 -40.5t11 -49v-207q0 -26 -11 -49.5t-29.5 -40.5t-44 -27t-54.5 -10h-228q-29 0 -54.5 10t-44 27t-29.5 40.5t-11 49.5v207q0 26 11 49t29.5 40.5t44 27.5t54.5 10h228zM543 334q0 21 -9 39.5t-24 32.5t-35.5 22t-44.5 8h-228
q-24 0 -44.5 -8t-36 -22t-24.5 -32.5t-9 -39.5v-207q0 -21 9 -39.5t24.5 -32.5t36 -22t44.5 -8h228q24 0 44.5 8t35.5 22t24 32.5t9 39.5v207zM425 383q23 0 40 -16t17 -37v-197q0 -22 -17 -37.5t-40 -15.5h-217q-23 0 -40.5 15.5t-17.5 37.5v197q0 21 17.5 37t40.5 16h217z
M457 330q0 10 -9 18.5t-23 8.5h-217q-14 0 -23 -8.5t-9 -18.5v-197q0 -11 9 -19.5t23 -8.5h217q14 0 23 8.5t9 19.5v197zM196 647v-62q0 -29 22.5 -49t54.5 -20h88q34 0 56.5 20t23.5 49l1 62h-66l-1 -60q0 -5 -5 -9.5t-12 -4.5h-82q-6 0 -11 4.5t-5 9.5v60h-64zM284 666
v-72h69v72h108l1 -81q0 -20 -7.5 -36t-21 -28t-32.5 -18.5t-40 -6.5h-88q-42 0 -70 25t-28 64v81h109z" />
    <glyph glyph-name="Ohungarumlaut" unicode="&#x150;" 
d="M425 649q28 0 53.5 -10t44 -28t29.5 -41.5t11 -50.5v-389q0 -27 -11 -50.5t-29.5 -41.5t-44 -28t-53.5 -10h-229q-29 0 -54 10t-43.5 28t-29.5 41.5t-11 50.5v389q0 27 11 50.5t29.5 41.5t43.5 28t54 10h229zM538 519q0 22 -9 41t-24.5 33t-36 22.5t-43.5 8.5h-229
q-23 0 -43.5 -8.5t-36 -22.5t-24.5 -33t-9 -41v-389q0 -22 9 -41t24.5 -33.5t36 -22.5t43.5 -8h229q23 0 43.5 8t36 22.5t24.5 33.5t9 41v389zM420 567q23 0 40 -15.5t17 -38.5v-379q0 -23 -17 -38.5t-40 -15.5h-218q-24 0 -40.5 15.5t-16.5 38.5v379q0 23 16.5 38.5
t40.5 15.5h218zM452 513q0 12 -9.5 20.5t-22.5 8.5h-218q-14 0 -23 -8t-9 -21v-379q0 -12 9 -20.5t23 -8.5h218q13 0 22.5 8.5t9.5 20.5v379zM323 726l113 142l95 -61l-135 -130zM159 726l113 142l95 -61l-135 -130zM278 834q-5 -5 -16.5 -19t-24.5 -30.5t-25 -31.5t-17 -21
l34 -23l98 94zM442 834q-5 -5 -16.5 -19t-24.5 -30.5t-25 -31.5t-17 -21l34 -23l98 94z" />
    <glyph glyph-name="ohungarumlaut" unicode="&#x151;" horiz-adv-x="624" 
d="M430 461q29 0 54.5 -10t44 -27.5t29.5 -40.5t11 -49v-207q0 -26 -11 -49.5t-29.5 -40.5t-44 -27t-54.5 -10h-228q-29 0 -54.5 10t-44 27t-29.5 40.5t-11 49.5v207q0 26 11 49t29.5 40.5t44 27.5t54.5 10h228zM543 334q0 21 -9 39.5t-24 32.5t-35.5 22t-44.5 8h-228
q-24 0 -44.5 -8t-36 -22t-24.5 -32.5t-9 -39.5v-207q0 -21 9 -39.5t24.5 -32.5t36 -22t44.5 -8h228q24 0 44.5 8t35.5 22t24 32.5t9 39.5v207zM425 383q23 0 40 -16t17 -37v-197q0 -22 -17 -37.5t-40 -15.5h-217q-23 0 -40.5 15.5t-17.5 37.5v197q0 21 17.5 37t40.5 16h217z
M457 330q0 10 -9 18.5t-23 8.5h-217q-14 0 -23 -8.5t-9 -18.5v-197q0 -11 9 -19.5t23 -8.5h217q14 0 23 8.5t9 19.5v197zM163 555l114 142l95 -61l-135 -130zM342 555l114 142l95 -61l-135 -130zM379 561l34 -22q4 4 17.5 16.5t29 27.5t30 29t20.5 20q-11 8 -25.5 17
t-23.5 15zM200 561l34 -22q4 4 17.5 16.5t29 27.5t30 29t20.5 20q-11 8 -25.5 17t-23.5 15z" />
    <glyph glyph-name="OE" unicode="&#x152;" horiz-adv-x="997" 
d="M943 105v-105h-351q-24 0 -45.5 7t-38.5 19q-17 -12 -38.5 -19t-44.5 -7h-229q-29 0 -54 10t-43.5 28t-29.5 41.5t-11 50.5v389q0 27 11 50.5t29.5 41.5t43.5 28t54 10h229q45 0 83 -27q17 12 39 19t45 7h351v-108h-346q-14 0 -23.5 -8.5t-9.5 -19.5v-66h326v-107h-326
v-205q0 -11 10 -20t25 -9h344zM452 513q0 12 -9.5 20.5t-22.5 8.5h-218q-14 0 -23 -8t-9 -21v-379q0 -12 9 -20.5t23 -8.5h218q13 0 22.5 8.5t9.5 20.5v379zM202 80q-24 0 -40.5 15.5t-16.5 38.5v379q0 23 16.5 38.5t40.5 15.5h218q27 0 43 -13.5t16 -35.5v-388
q0 -24 -17.5 -37t-41.5 -13h-218zM865 365v56h-327v98q0 20 18 33.5t41 13.5h321v57h-326q-21 0 -41.5 -10t-42.5 -24q-28 21 -46.5 28t-36.5 7h-229q-23 0 -43.5 -8.5t-36 -22.5t-24.5 -33t-9 -41v-389q0 -22 9 -41t24.5 -33.5t36 -22.5t43.5 -8h229q37 0 64 18q10 7 19 16
q9 -9 20 -16q29 -18 64 -18h326v55h-319q-6 0 -16.5 2t-20 7.5t-17 15t-7.5 25.5v235h327z" />
    <glyph glyph-name="oe" unicode="&#x153;" horiz-adv-x="898" 
d="M848 460v-256h-347v-80q0 -12 10 -18.5t21 -6.5h316l1 -99h-321q-22 0 -42 7t-37 19q-17 -12 -37 -19t-42 -7h-190q-27 0 -50.5 10t-41.5 27t-28 39.5t-10 48.5v210q0 26 10 48.5t28 39.5t41.5 27t50.5 10h190q21 0 41.5 -7t37.5 -20q17 13 37.5 20t41.5 7h320zM449 404
l-8 6q-31 26 -71 26h-190q-22 0 -41.5 -8t-33.5 -21.5t-22.5 -32t-8.5 -39.5v-210q0 -21 8.5 -39.5t22.5 -32t33.5 -21.5t41.5 -8h190q41 0 71 25l8 7l8 -7q30 -25 71 -25h296q0 10 -0.5 24.5t0.5 25.5h-292q-20 0 -38 13t-18 32l1 110h347v207h-296q-40 0 -71 -26zM366 384
q21 0 36.5 -12.5t18.5 -32.5v-220q-4 -20 -19.5 -32.5t-35.5 -12.5h-180q-24 0 -42 18q-15 15 -15 37v200q0 23 16.5 39t39.5 16h181zM162 109q9 -10 24 -10h180q11 0 20 7t11 18v211q-2 11 -11 18t-20 7h-181q-14 0 -23 -8.5t-9 -22.5v-200q0 -13 9 -20zM769 384v-106h-292
v61q2 20 18 32.5t37 12.5h237zM501 303h244v57h-213q-11 0 -20 -7t-11 -18v-32z" />
    <glyph glyph-name="Racute" unicode="&#x154;" horiz-adv-x="600" 
d="M416 193q5 -6 23 -28q16 -19 48.5 -58t91.5 -108h-144q-60 72 -93 111t-48 58q-18 21 -21 25h-113v-193h-113v648h364q28 0 53.5 -10t44.5 -27.5t30 -41t11 -50.5v-326h-134zM285 218q57 -68 89 -106t49 -58q19 -23 24 -29h78q-13 15 -35 41q-19 23 -50 59t-78 93h162
v301q0 21 -9 40t-24 33.5t-35.5 22.5t-44.5 8h-339v-598h62v193h151zM462 274h-328v293h271q23 0 40 -16t17 -38v-239zM437 513q0 11 -9.5 20t-22.5 9h-245v-242h277v213zM192 721l113 142l95 -61l-135 -130zM311 829q-5 -5 -16.5 -19t-24.5 -30.5t-25 -31.5t-17 -21l34 -23
l98 94z" />
    <glyph glyph-name="racute" unicode="&#x155;" horiz-adv-x="348" 
d="M347 461v-104h-133q-13 0 -21.5 -8t-8.5 -19v-330h-113v335q0 26 11 49t29.5 40t43.5 27t53 10h139zM322 437h-114q-23 0 -43.5 -8t-35.5 -22t-24 -32t-9 -39v-310h62v304q0 22 16.5 37.5t39.5 15.5h108v54zM147 555l114 142l95 -61l-135 -130zM184 561l34 -22
q4 4 17.5 16.5t29 27.5t30 29t20.5 20q-11 8 -25.5 17t-23.5 15z" />
    <glyph glyph-name="Rcommaaccent" unicode="&#x156;" horiz-adv-x="600" 
d="M416 193q5 -6 23 -28q16 -19 48.5 -58t91.5 -108h-144q-60 72 -93 111t-48 58q-18 21 -21 25h-113v-193h-113v648h364q28 0 53.5 -10t44.5 -27.5t30 -41t11 -50.5v-326h-134zM285 218q57 -68 89 -106t49 -58q19 -23 24 -29h78q-13 15 -35 41q-19 23 -50 59t-78 93h162
v301q0 21 -9 40t-24 33.5t-35.5 22.5t-44.5 8h-339v-598h62v193h151zM462 274h-328v293h271q23 0 40 -16t17 -38v-239zM437 513q0 11 -9.5 20t-22.5 9h-245v-242h277v213zM358 -29l-47 -159h-95l31 159h111zM324 -54h-56l-21 -108h45z" />
    <glyph glyph-name="rcommaaccent" unicode="&#x157;" horiz-adv-x="348" 
d="M347 461v-104h-133q-13 0 -21.5 -8t-8.5 -19v-330h-113v335q0 26 11 49t29.5 40t43.5 27t53 10h139zM322 437h-114q-23 0 -43.5 -8t-35.5 -22t-24 -32t-9 -39v-310h62v304q0 22 16.5 37.5t39.5 15.5h108v54zM179 -29l-47 -159h-95l31 159h111zM145 -54h-56l-21 -108h45z
" />
    <glyph glyph-name="Rcaron" unicode="&#x158;" horiz-adv-x="600" 
d="M416 193q5 -6 23 -28q16 -19 48.5 -58t91.5 -108h-144q-60 72 -93 111t-48 58q-18 21 -21 25h-113v-193h-113v648h364q28 0 53.5 -10t44.5 -27.5t30 -41t11 -50.5v-326h-134zM285 218q57 -68 89 -106t49 -58q19 -23 24 -29h78q-13 15 -35 41q-19 23 -50 59t-78 93h162
v301q0 21 -9 40t-24 33.5t-35.5 22.5t-44.5 8h-339v-598h62v193h151zM462 274h-328v293h271q23 0 40 -16t17 -38v-239zM437 513q0 11 -9.5 20t-22.5 9h-245v-242h277v213zM278 672q-3 -1 -7 0q-3 1 -7 2t-6 4l-135 114l60 67l94 -80l98 77l62 -64l-139 -114q-2 -2 -5.5 -3
t-6.5 -2q-4 -1 -8 -1zM398 793q-8 7 -14 14l-12 14l-95 -76l-90 78l-26 -30l106 -90q10 -9 21 0z" />
    <glyph glyph-name="rcaron" unicode="&#x159;" horiz-adv-x="348" 
d="M347 461v-104h-133q-13 0 -21.5 -8t-8.5 -19v-330h-113v335q0 26 11 49t29.5 40t43.5 27t53 10h139zM322 437h-114q-23 0 -43.5 -8t-35.5 -22t-24 -32t-9 -39v-310h62v304q0 22 16.5 37.5t39.5 15.5h108v54zM199 488q-3 -1 -7 0q-3 1 -7 2t-6 4l-138 124l60 67
q31 -29 50 -46.5t30 -27.5q12 -11 17 -16q6 5 18 16q11 9 29.5 26t50.5 45l67 -64l-144 -124q-2 -2 -5.5 -3t-6.5 -2q-4 -1 -8 -1zM326 619q-8 7 -16 14.5t-14 14.5q-6 -5 -18 -16q-11 -10 -30 -26.5t-50 -44.5q-30 28 -48.5 45t-29.5 27q-12 11 -18 16l-25 -29
q6 -5 23.5 -21t36.5 -33t34 -31t17 -16q10 -9 21 0z" />
    <glyph glyph-name="Sacute" unicode="&#x15a;" horiz-adv-x="572" 
d="M404 381q28 0 53.5 -10t44 -27.5t29.5 -41t11 -50.5v-122q0 -52 -39 -91q-20 -20 -45 -29.5t-54 -9.5h-351v104h353q10 0 17 7t7 15v124q0 9 -7 16t-17 7h-239q-29 0 -54.5 10t-44 27.5t-29.5 41t-11 50.5v117q0 27 11 50.5t29.5 41.5t44 28t54.5 10h352v-108h-354
q-11 0 -18 -6.5t-7 -16.5v-115q0 -9 7 -15.5t18 -6.5h239zM516 252q0 21 -9 40t-24 33.5t-35.5 22.5t-43.5 8h-239q-21 0 -35.5 13.5t-14.5 33.5v115q0 20 14.5 34.5t35.5 14.5h329v56h-327q-24 0 -44.5 -8t-35.5 -22t-24 -33t-9 -41v-117q0 -21 9 -40t24 -33.5t35.5 -22.5
t44.5 -8h239q20 0 34.5 -14t14.5 -34v-124q0 -19 -14.5 -33t-34.5 -14h-328v-54h54h273q47 0 81 32q30 30 30 73v122zM187 721l113 142l95 -61l-135 -130zM306 829q-5 -5 -16.5 -19t-24.5 -30.5t-25 -31.5t-17 -21l34 -23l98 94z" />
    <glyph glyph-name="sacute" unicode="&#x15b;" horiz-adv-x="622" 
d="M439 283q28 0 53 -10t43.5 -27.5t29.5 -40.5t11 -49v-29q0 -26 -11 -49.5t-29.5 -40.5t-43.5 -27t-53 -10h-350v104h352q10 0 17 6t7 15v31q0 9 -7 15t-17 6h-240q-29 0 -54 10t-43.5 27t-29.5 40.5t-11 49.5v30q0 26 11 49t29.5 40.5t43.5 27.5t54 10h351v-104h-353
q-10 0 -17.5 -6.5t-7.5 -16.5v-29q0 -8 7 -15t18 -7h240zM551 156q0 21 -9 39.5t-24 32t-35.5 21.5t-43.5 8l-240 1q-20 0 -35 13.5t-15 33.5v29q0 20 15 34.5t35 14.5h328v53h-326q-23 0 -43.5 -8t-36 -22t-24.5 -32.5t-9 -39.5v-30q0 -21 9 -39.5t24.5 -32.5t36 -22
t43.5 -8h240q20 0 34.5 -13t14.5 -33v-31q0 -20 -14.5 -33.5t-34.5 -13.5h-327v-53h325q23 0 43.5 8t35.5 22t24 32.5t9 39.5v29zM282 555l114 142l95 -61l-135 -130zM319 561l34 -22q4 4 17.5 16.5t29 27.5t30 29t20.5 20q-11 8 -25.5 17t-23.5 15z" />
    <glyph glyph-name="Scircumflex" unicode="&#x15c;" horiz-adv-x="572" 
d="M404 381q28 0 53.5 -10t44 -27.5t29.5 -41t11 -50.5v-122q0 -52 -39 -91q-20 -20 -45 -29.5t-54 -9.5h-351v104h353q10 0 17 7t7 15v124q0 9 -7 16t-17 7h-239q-29 0 -54.5 10t-44 27.5t-29.5 41t-11 50.5v117q0 27 11 50.5t29.5 41.5t44 28t54.5 10h352v-108h-354
q-11 0 -18 -6.5t-7 -16.5v-115q0 -9 7 -15.5t18 -6.5h239zM516 252q0 21 -9 40t-24 33.5t-35.5 22.5t-43.5 8h-239q-21 0 -35.5 13.5t-14.5 33.5v115q0 20 14.5 34.5t35.5 14.5h329v56h-327q-24 0 -44.5 -8t-35.5 -22t-24 -33t-9 -41v-117q0 -21 9 -40t24 -33.5t35.5 -22.5
t44.5 -8h239q20 0 34.5 -14t14.5 -34v-124q0 -19 -14.5 -33t-34.5 -14h-328v-54h54h273q47 0 81 32q30 30 30 73v122zM302 866q4 0 8 -1q3 -1 6.5 -2t5.5 -3l139 -114l-62 -64l-98 77l-94 -80l-60 67l135 114q2 2 6 3.5t7 2.5q4 1 7 0zM312 835q-11 9 -21 0l-106 -90l26 -30
l90 78l95 -76l26 28z" />
    <glyph glyph-name="scircumflex" unicode="&#x15d;" horiz-adv-x="622" 
d="M439 283q28 0 53 -10t43.5 -27.5t29.5 -40.5t11 -49v-29q0 -26 -11 -49.5t-29.5 -40.5t-43.5 -27t-53 -10h-350v104h352q10 0 17 6t7 15v31q0 9 -7 15t-17 6h-240q-29 0 -54 10t-43.5 27t-29.5 40.5t-11 49.5v30q0 26 11 49t29.5 40.5t43.5 27.5t54 10h351v-104h-353
q-10 0 -17.5 -6.5t-7.5 -16.5v-29q0 -8 7 -15t18 -7h240zM551 156q0 21 -9 39.5t-24 32t-35.5 21.5t-43.5 8l-240 1q-20 0 -35 13.5t-15 33.5v29q0 20 15 34.5t35 14.5h328v53h-326q-23 0 -43.5 -8t-36 -22t-24.5 -32.5t-9 -39.5v-30q0 -21 9 -39.5t24.5 -32.5t36 -22
t43.5 -8h240q20 0 34.5 -13t14.5 -33v-31q0 -20 -14.5 -33.5t-34.5 -13.5h-327v-53h325q23 0 43.5 8t35.5 22t24 32.5t9 39.5v29zM336 689q4 0 8 -1q3 -1 6.5 -2t5.5 -3l144 -124l-67 -64q-32 28 -50.5 44.5t-29.5 26.5q-12 11 -18 16q-5 -5 -17 -16q-11 -10 -30 -27.5
t-50 -46.5l-60 67l138 124q2 2 6 3.5t7 2.5q4 1 7 0zM346 658q-11 9 -21 0q-2 -2 -17 -16t-34 -31t-36.5 -33t-23.5 -21l25 -29q6 5 18 16q11 10 29.5 27t48.5 45q31 -28 50 -45t30 -26q12 -11 18 -16q6 7 14 14.5t16 14.5z" />
    <glyph glyph-name="Scedilla" unicode="&#x15e;" horiz-adv-x="572" 
d="M404 381q28 0 53.5 -10t44 -27.5t29.5 -41t11 -50.5v-122q0 -27 -11 -50.5t-29.5 -41t-44 -28t-53.5 -10.5h-82v-18q23 -12 33.5 -31t10.5 -41q0 -18 -8 -35.5t-23 -31.5t-37 -23t-51 -9q-10 0 -24.5 2t-38.5 9v85q14 -5 26.5 -8t22.5 -3q8 0 16 4t8 13q0 8 -11 14t-27 6
v67h-166v104h353q10 0 17 7t7 15v124q0 9 -7 16t-17 7h-239q-29 0 -54.5 10t-44 27.5t-29.5 41t-11 50.5v117q0 27 11 50.5t29.5 41.5t44 28t54.5 10h352v-108h-354q-11 0 -18 -6.5t-7 -16.5v-115q0 -9 7 -15.5t18 -6.5h239zM242 -44q20 -4 30 -16t10 -26t-11.5 -26
t-35.5 -12q-12 0 -30 5v-42q11 -3 21.5 -4t19.5 -1q47 0 70.5 23.5t23.5 51.5q0 18 -10 34.5t-32 25.5v56h107q22 0 42 8t35.5 22t24.5 33t9 42v122q0 21 -9 40t-24 33.5t-35.5 22.5t-43.5 8h-239q-21 0 -35.5 13.5t-14.5 33.5v115q0 20 14.5 34.5t35.5 14.5h329v56h-327
q-48 0 -80.5 -29.5t-32.5 -74.5v-117q0 -21 9 -40t24 -33.5t35.5 -22.5t44.5 -8h239q20 0 34.5 -14t14.5 -34v-124q0 -19 -14.5 -33t-34.5 -14h-328v-54h164v-69z" />
    <glyph glyph-name="scedilla" unicode="&#x15f;" horiz-adv-x="622" 
d="M439 283q28 0 53 -10t43.5 -27.5t29.5 -40.5t11 -49v-29q0 -26 -11 -49.5t-29.5 -40.5t-43.5 -27t-53 -10h-95v-16q23 -12 33.5 -31t10.5 -41q0 -18 -7 -35.5t-21.5 -31.5t-36 -23t-50.5 -9q-10 0 -24.5 2t-38.5 9v85q14 -5 26.5 -8t22.5 -3q8 0 16 4t8 13q0 8 -11 14
t-27 6v65h-156v104h352q10 0 17 6t7 15v31q0 9 -7 15t-17 6h-240q-29 0 -54 10t-43.5 27t-29.5 40.5t-11 49.5v30q0 26 11 49t29.5 40.5t43.5 27.5t54 10h351v-104h-353q-10 0 -17.5 -6.5t-7.5 -16.5v-29q0 -8 7 -15t18 -7h240zM439 25q23 0 43.5 8t35.5 22t24 32.5t9 39.5
v29q0 21 -9 39.5t-24 32t-35.5 21.5t-43.5 8l-240 1q-20 0 -35 13.5t-15 33.5v29q0 20 15 34.5t35 14.5h328v53h-326q-23 0 -43.5 -8t-36 -22t-24.5 -32.5t-9 -39.5v-30q0 -21 9 -39.5t24.5 -32.5t36 -22t43.5 -8h240q20 0 34.5 -13t14.5 -33v-31q0 -20 -14.5 -33.5
t-34.5 -13.5h-327v-53h154v-67q20 -4 30 -16t10 -26t-11.5 -26t-35.5 -12q-12 0 -30 5v-42q11 -3 21.5 -4t19.5 -1q45 0 68 23t23 50q0 19 -10.5 35.5t-32.5 26.5v54h119z" />
    <glyph glyph-name="Scaron" unicode="&#x160;" horiz-adv-x="572" 
d="M404 381q28 0 53.5 -10t44 -27.5t29.5 -41t11 -50.5v-122q0 -52 -39 -91q-20 -20 -45 -29.5t-54 -9.5h-351v104h353q10 0 17 7t7 15v124q0 9 -7 16t-17 7h-239q-29 0 -54.5 10t-44 27.5t-29.5 41t-11 50.5v117q0 27 11 50.5t29.5 41.5t44 28t54.5 10h352v-108h-354
q-11 0 -18 -6.5t-7 -16.5v-115q0 -9 7 -15.5t18 -6.5h239zM516 252q0 21 -9 40t-24 33.5t-35.5 22.5t-43.5 8h-239q-21 0 -35.5 13.5t-14.5 33.5v115q0 20 14.5 34.5t35.5 14.5h329v56h-327q-24 0 -44.5 -8t-35.5 -22t-24 -33t-9 -41v-117q0 -21 9 -40t24 -33.5t35.5 -22.5
t44.5 -8h239q20 0 34.5 -14t14.5 -34v-124q0 -19 -14.5 -33t-34.5 -14h-328v-54h54h273q47 0 81 32q30 30 30 73v122zM294 676q-3 -1 -7 0q-3 1 -7 2t-6 4l-135 114l60 67l94 -80l98 77l62 -64l-139 -114q-2 -2 -5.5 -3t-6.5 -2q-4 -1 -8 -1zM414 797q-8 7 -14 14l-12 14
l-95 -76l-90 78l-26 -30l106 -90q10 -9 21 0z" />
    <glyph glyph-name="scaron" unicode="&#x161;" horiz-adv-x="622" 
d="M439 283q28 0 53 -10t43.5 -27.5t29.5 -40.5t11 -49v-29q0 -26 -11 -49.5t-29.5 -40.5t-43.5 -27t-53 -10h-350v104h352q10 0 17 6t7 15v31q0 9 -7 15t-17 6h-240q-29 0 -54 10t-43.5 27t-29.5 40.5t-11 49.5v30q0 26 11 49t29.5 40.5t43.5 27.5t54 10h351v-104h-353
q-10 0 -17.5 -6.5t-7.5 -16.5v-29q0 -8 7 -15t18 -7h240zM551 156q0 21 -9 39.5t-24 32t-35.5 21.5t-43.5 8l-240 1q-20 0 -35 13.5t-15 33.5v29q0 20 15 34.5t35 14.5h328v53h-326q-23 0 -43.5 -8t-36 -22t-24.5 -32.5t-9 -39.5v-30q0 -21 9 -39.5t24.5 -32.5t36 -22
t43.5 -8h240q20 0 34.5 -13t14.5 -33v-31q0 -20 -14.5 -33.5t-34.5 -13.5h-327v-53h325q23 0 43.5 8t35.5 22t24 32.5t9 39.5v29zM325 498q-3 -1 -7 0q-3 1 -7 2t-6 4l-138 124l60 67q31 -29 50 -46.5t30 -27.5q12 -11 17 -16q6 5 18 16q11 9 29.5 26t50.5 45l67 -64
l-144 -124q-2 -2 -5.5 -3t-6.5 -2q-4 -1 -8 -1zM452 629q-8 7 -16 14.5t-14 14.5q-6 -5 -18 -16q-11 -10 -30 -26.5t-50 -44.5q-30 28 -48.5 45t-29.5 27q-12 11 -18 16l-25 -29q6 -5 23.5 -21t36.5 -33t34 -31t17 -16q10 -9 21 0z" />
    <glyph glyph-name="Tcommaaccent" unicode="&#x162;" horiz-adv-x="524" 
d="M14 648h496v-108h-193v-540h-113v540h-190v108zM484 623h-445v-57h190v-541h62v541h193v57zM315 -29l-47 -159h-95l31 159h111zM281 -54h-56l-21 -108h45z" />
    <glyph glyph-name="tcommaaccent" unicode="&#x163;" horiz-adv-x="288" 
d="M180 461h95v-104h-95v-357h-112v649h112v-188zM250 437h-95v187h-62v-599h62v357h95v55zM180 -29l-47 -159h-95l31 159h111zM146 -54h-56l-21 -108h45z" />
    <glyph glyph-name="Tcaron" unicode="&#x164;" horiz-adv-x="524" 
d="M14 648h496v-108h-193v-540h-113v540h-190v108zM484 623h-445v-57h190v-541h62v541h193v57zM258 685q-3 -1 -7 0q-3 1 -7 2t-6 4l-135 114l60 67l94 -80l98 77l62 -64l-139 -114q-2 -2 -5.5 -3t-6.5 -2q-4 -1 -8 -1zM378 806q-8 7 -14 14l-12 14l-95 -76l-90 78l-26 -30
l106 -90q10 -9 21 0z" />
    <glyph glyph-name="tcaron" unicode="&#x165;" horiz-adv-x="324" 
d="M180 461h95v-104h-95v-357h-112v649h112v-188zM250 437h-95v187h-62v-599h62v357h95v55zM352 747l-47 -159h-95l31 159h111zM318 722h-56l-21 -108h45z" />
    <glyph glyph-name="Tbar" unicode="&#x166;" horiz-adv-x="524" 
d="M509 461v-84h-192v-377h-113v377h-189v84h189v79h-190v108h496v-108h-193v-79h192zM229 401v-376h62v376h194v35h-194v130h193v57h-445v-57h190v-130h-190v-35h190z" />
    <glyph glyph-name="tbar" unicode="&#x167;" horiz-adv-x="288" 
d="M68 0v649h112v-188h95v-104h-95v-46h94v-84h-94v-227h-112zM155 251h95v35h-95v96h95v55h-95v187h-62v-599h62v226z" />
    <glyph glyph-name="Utilde" unicode="&#x168;" horiz-adv-x="576" 
d="M541 648v-648h-365q-29 0 -54 10t-43.5 27.5t-29.5 41t-11 50.5v519h113v-514q0 -12 9 -20.5t22 -8.5h246v543h113zM515 623h-62v-544h-271q-23 0 -39.5 16t-16.5 38v490h-63v-494q0 -21 9 -40t24.5 -33.5t36 -22.5t44.5 -8h338v598zM387 700q-24 -19 -46 -19t-42 14
l-36 23q-13 -11 -28 -24.5t-26 -21.5l-73 61l77 69q27 24 43.5 26.5t35.5 -11.5q17 -10 25 -15.5t25 -15.5q11 11 24.5 23t21.5 20l83 -54l-83 -74zM435 772l-45 30l-47 -43l-62 40q-12 8 -23 6t-30 -19l-58 -52l39 -33l54 44l48 -32q17 -11 33 -9.5t29 13.5z" />
    <glyph glyph-name="utilde" unicode="&#x169;" 
d="M193 0q-29 0 -54 10t-44 27t-30 40.5t-11 49.5v334h113v-329q0 -12 9 -20t23 -8h246v357h112v-461h-364zM80 127q0 -21 9 -39.5t24.5 -32.5t36 -22t43.5 -8h339v410h-62v-357l-271 1q-24 0 -40.5 15t-16.5 38v303h-62v-308zM411 517q-24 -19 -46 -19t-42 14l-36 23
q-13 -11 -28 -24.5t-26 -21.5l-73 61l77 69q27 24 43.5 26.5t35.5 -11.5q17 -10 25 -15.5t25 -15.5q11 11 24.5 23t21.5 20l83 -54l-83 -74zM459 589l-45 30l-47 -43l-62 40q-12 8 -23 6t-30 -19l-58 -52l39 -33l54 44l48 -32q17 -11 33 -9.5t29 13.5z" />
    <glyph glyph-name="Umacron" unicode="&#x16a;" horiz-adv-x="576" 
d="M541 648v-648h-365q-29 0 -54 10t-43.5 27.5t-29.5 41t-11 50.5v519h113v-514q0 -12 9 -20.5t22 -8.5h246v543h113zM515 623h-62v-544h-271q-23 0 -39.5 16t-16.5 38v490h-63v-494q0 -21 9 -40t24.5 -33.5t36 -22.5t44.5 -8h338v598zM150 819h304v-106h-304v106zM174 737
h256v59h-256v-59z" />
    <glyph glyph-name="umacron" unicode="&#x16b;" 
d="M193 0q-29 0 -54 10t-44 27t-30 40.5t-11 49.5v334h113v-329q0 -12 9 -20t23 -8h246v357h112v-461h-364zM80 127q0 -21 9 -39.5t24.5 -32.5t36 -22t43.5 -8h339v410h-62v-357l-271 1q-24 0 -40.5 15t-16.5 38v303h-62v-308zM492 626v-84h-355v84h355zM161 601v-35h307v35
h-307z" />
    <glyph glyph-name="Ubreve" unicode="&#x16c;" horiz-adv-x="576" 
d="M541 648v-648h-365q-29 0 -54 10t-43.5 27.5t-29.5 41t-11 50.5v519h113v-514q0 -12 9 -20.5t22 -8.5h246v543h113zM515 623h-62v-544h-271q-23 0 -39.5 16t-16.5 38v490h-63v-494q0 -21 9 -40t24.5 -33.5t36 -22.5t44.5 -8h338v598zM441 850v-75q0 -50 -24.5 -73
t-77.5 -23h-88q-54 0 -79.5 24.5t-25.5 71.5v75h114v-74h68v74h113zM352 826v-51q0 -13 -6 -17t-12 -4h-79q-7 0 -13 3.5t-6 17.5v51h-64v-58q0 -39 22 -51.5t58 -12.5h85q15 0 29 1t25.5 7t18 19t6.5 37v58h-64z" />
    <glyph glyph-name="ubreve" unicode="&#x16d;" 
d="M193 0q-29 0 -54 10t-44 27t-30 40.5t-11 49.5v334h113v-329q0 -12 9 -20t23 -8h246v357h112v-461h-364zM80 127q0 -21 9 -39.5t24.5 -32.5t36 -22t43.5 -8h339v410h-62v-357l-271 1q-24 0 -40.5 15t-16.5 38v303h-62v-308zM266 663v-72h69v72h108l1 -81q0 -20 -7.5 -36
t-21 -28t-32.5 -18.5t-40 -6.5h-88q-42 0 -70 25t-28 64v81h109zM178 644v-62q0 -29 22.5 -49t54.5 -20h88q34 0 56.5 20t23.5 49l1 62h-66l-1 -60q0 -5 -5 -9.5t-12 -4.5h-82q-6 0 -11 4.5t-5 9.5v60h-64z" />
    <glyph glyph-name="Uring" unicode="&#x16e;" horiz-adv-x="576" 
d="M541 648v-648h-365q-29 0 -54 10t-43.5 27.5t-29.5 41t-11 50.5v519h113v-514q0 -12 9 -20.5t22 -8.5h246v543h113zM515 623h-62v-544h-271q-23 0 -39.5 16t-16.5 38v490h-63v-494q0 -21 9 -40t24.5 -33.5t36 -22.5t44.5 -8h338v598zM175 774q0 22 9 41.5t24.5 33.5
t37 22.5t46.5 8.5q51 0 83.5 -30.5t32.5 -75.5q0 -22 -9 -41t-24.5 -33.5t-37 -22.5t-46.5 -8t-46 8t-36.5 22.5t-24.5 33.5t-9 41zM200 774q0 -16 7 -30.5t19.5 -25.5t29 -17.5t35.5 -6.5q40 0 65.5 23.5t25.5 56.5t-25.5 57t-64.5 24q-40 0 -66 -23.5t-26 -57.5zM234 774
q0 22 17 37t41 15q23 0 40.5 -15.5t17.5 -36.5t-17 -35.5t-42 -14.5q-23 0 -40 15t-17 35zM260 774q0 -8 8.5 -16t22.5 -8q16 0 24.5 7.5t8.5 16.5q0 10 -9 18t-23 8t-23 -7.5t-9 -18.5z" />
    <glyph glyph-name="uring" unicode="&#x16f;" 
d="M193 0q-29 0 -54 10t-44 27t-30 40.5t-11 49.5v334h113v-329q0 -12 9 -20t23 -8h246v357h112v-461h-364zM80 127q0 -21 9 -39.5t24.5 -32.5t36 -22t43.5 -8h339v410h-62v-357l-271 1q-24 0 -40.5 15t-16.5 38v303h-62v-308zM190 577q0 22 9 41.5t24.5 33.5t37 22.5
t46.5 8.5q51 0 83.5 -30.5t32.5 -75.5q0 -22 -9 -41t-24.5 -33.5t-37 -22.5t-46.5 -8t-46 8t-36.5 22.5t-24.5 33.5t-9 41zM215 577q0 -16 7 -30.5t19.5 -25.5t29 -17.5t35.5 -6.5q40 0 65.5 23.5t25.5 56.5t-25.5 57t-64.5 24q-40 0 -66 -23.5t-26 -57.5zM249 577
q0 22 17 37t41 15q23 0 40.5 -15.5t17.5 -36.5t-17 -35.5t-42 -14.5q-23 0 -40 15t-17 35zM275 577q0 -8 8.5 -16t22.5 -8q16 0 24.5 7.5t8.5 16.5q0 10 -9 18t-23 8t-23 -7.5t-9 -18.5z" />
    <glyph glyph-name="Uhungarumlaut" unicode="&#x170;" horiz-adv-x="576" 
d="M541 648v-648h-365q-29 0 -54 10t-43.5 27.5t-29.5 41t-11 50.5v519h113v-514q0 -12 9 -20.5t22 -8.5h246v543h113zM515 623h-62v-544h-271q-23 0 -39.5 16t-16.5 38v490h-63v-494q0 -21 9 -40t24.5 -33.5t36 -22.5t44.5 -8h338v598zM144 721l113 142l95 -61l-135 -130z
M308 721l113 142l95 -61l-135 -130zM427 829q-5 -5 -16.5 -19t-24.5 -30.5t-25 -31.5t-17 -21l34 -23l98 94zM263 829q-5 -5 -16.5 -19t-24.5 -30.5t-25 -31.5t-17 -21l34 -23l98 94z" />
    <glyph glyph-name="uhungarumlaut" unicode="&#x171;" 
d="M193 0q-29 0 -54 10t-44 27t-30 40.5t-11 49.5v334h113v-329q0 -12 9 -20t23 -8h246v357h112v-461h-364zM80 127q0 -21 9 -39.5t24.5 -32.5t36 -22t43.5 -8h339v410h-62v-357l-271 1q-24 0 -40.5 15t-16.5 38v303h-62v-308zM323 555l114 142l95 -61l-135 -130zM144 555
l114 142l95 -61l-135 -130zM181 561l34 -22q4 4 17.5 16.5t29 27.5t30 29t20.5 20q-11 8 -25.5 17t-23.5 15zM360 561l34 -22q4 4 17.5 16.5t29 27.5t30 29t20.5 20q-11 8 -25.5 17t-23.5 15z" />
    <glyph glyph-name="Uogonek" unicode="&#x172;" horiz-adv-x="576" 
d="M38 648h113v-514q0 -12 9 -20.5t22 -8.5h246v543h113v-648h-187q-14 -14 -21.5 -31.5t-7.5 -31.5q0 -30 40 -30q15 0 41 8v-100q-14 -4 -27 -5.5t-25 -1.5q-29 0 -54.5 8t-44.5 23t-29.5 35.5t-10.5 45.5q0 21 7 40.5t19 39.5h-65q-29 0 -54 10t-43.5 27.5t-29.5 41
t-11 50.5v519zM515 25v598h-62v-544h-271q-23 0 -39.5 16t-16.5 38v490h-63v-494q0 -21 9 -40t24.5 -33.5t36 -22.5t44.5 -8h105q-19 -28 -29.5 -53t-10.5 -48q0 -42 31.5 -67t73.5 -25q15 0 35 5v48q-5 -1 -9.5 -1.5t-9.5 -0.5q-27 0 -44.5 14.5t-17.5 38.5q0 20 12.5 43.5
t32.5 45.5h169z" />
    <glyph glyph-name="uogonek" unicode="&#x173;" 
d="M192 0q-29 0 -54 10t-43.5 27t-29.5 40.5t-11 49.5v334h113v-329q0 -12 9 -20t23 -8h246v357h112v-461h-187q-14 -14 -21.5 -31.5t-7.5 -31.5q0 -30 40 -30q15 0 41 8v-100q-14 -4 -27 -5.5t-25 -1.5q-29 0 -54.5 8t-44.5 23t-29.5 35.5t-10.5 45.5q0 21 7 40.5t19 39.5
h-65zM532 435h-62v-357l-271 1q-24 0 -40.5 15t-16.5 38v303h-62v-308q0 -21 9 -39.5t24.5 -32.5t36 -22t43.5 -8h105q-19 -28 -29.5 -53t-10.5 -48q0 -42 31.5 -67t73.5 -25q15 0 35 5v48q-5 -1 -9.5 -1.5t-9.5 -0.5q-27 0 -44.5 14.5t-17.5 38.5q0 20 12.5 43.5t32.5 45.5
h170v410z" />
    <glyph glyph-name="Wcircumflex" unicode="&#x174;" horiz-adv-x="734" 
d="M696 649v-649h-523q-29 0 -55 11t-46 31q-36 36 -36 88v519h112l1 -515q0 -12 8.5 -20.5t21.5 -8.5h130v544h113v-544h161v544h113zM671 623h-62v-543h-212v543h-62v-543h-156q-23 0 -39.5 15.5t-16.5 38.5v489h-62v-495q0 -19 7.5 -37t21.5 -32q16 -16 38 -25t46 -9h497
v598zM367 877q4 0 8 -1q3 -1 6.5 -2t5.5 -3l139 -114l-62 -64l-98 77l-94 -80l-60 67l135 114q2 2 6 3.5t7 2.5q4 1 7 0zM377 846q-11 9 -21 0l-106 -90l26 -30l90 78l95 -76l26 28z" />
    <glyph glyph-name="wcircumflex" unicode="&#x175;" horiz-adv-x="768" 
d="M160 132q0 -11 9 -19.5t23 -8.5h130v357h112v-356h162v356h113v-461h-523q-29 0 -54 10t-43.5 27t-29.5 40.5t-11 49.5v334h112v-329zM73 127q0 -21 9 -39.5t24.5 -32t36 -21.5t43.5 -8h497v410h-62v-356h-212v357h-62v-358h-155q-23 0 -40 15.5t-17 37.5v304h-62v-309z
M378 688q4 0 8 -1q3 -1 6.5 -2t5.5 -3l144 -124l-67 -64q-32 28 -50.5 44.5t-29.5 26.5q-12 11 -18 16q-5 -5 -17 -16q-11 -10 -30 -27.5t-50 -46.5l-60 67l138 124q2 2 6 3.5t7 2.5q4 1 7 0zM388 657q-11 9 -21 0q-2 -2 -17 -16t-34 -31t-36.5 -33t-23.5 -21l25 -29
q6 5 18 16q11 10 29.5 27t48.5 45q31 -28 50 -45t30 -26q12 -11 18 -16q6 7 14 14.5t16 14.5z" />
    <glyph glyph-name="Ycircumflex" unicode="&#x176;" horiz-adv-x="582" 
d="M542 649v-473h-182v-176h-112v176h-70q-29 0 -54.5 10t-44 27.5t-29.5 41t-11 50.5v344h114v-339q0 -11 9 -20t22 -9h245v368h113zM516 624h-62v-368h-270q-23 0 -40 16t-17 38q0 105 0.5 166.5t0.5 94.5v53h-64v-319q0 -21 9 -40t24.5 -33.5t36 -22.5t44.5 -8h95v-176
h61v176h182v423zM299 858q4 0 8 -1q3 -1 6.5 -2t5.5 -3l139 -114l-62 -64l-98 77l-94 -80l-60 67l135 114q2 2 6 3.5t7 2.5q4 1 7 0zM309 827q-11 9 -21 0l-106 -90l26 -30l90 78l95 -76l26 28z" />
    <glyph glyph-name="ycircumflex" unicode="&#x177;" horiz-adv-x="605" 
d="M558 461v-519q0 -27 -11 -50.5t-29.5 -41.5t-44 -28t-53.5 -10h-226v106h220q14 0 23 8.5t9 20.5v53h-256q-29 0 -54 10t-43.5 28t-29.5 41.5t-11 50.5v331h112v-327q0 -13 9 -21t23 -8h250v356h112zM533 436h-62v-357h-275q-24 0 -40.5 16t-16.5 39v302h-62v-306
q0 -22 9 -41t24.5 -33.5t36 -22.5t43.5 -8h281v-78q0 -23 -16.5 -38.5t-40.5 -15.5h-195v-56h201q23 0 43.5 8t36 22.5t24.5 33.5t9 41v494zM313 685q4 0 8 -1q3 -1 6.5 -2t5.5 -3l144 -124l-67 -64q-32 28 -50.5 44.5t-29.5 26.5q-12 11 -18 16q-5 -5 -17 -16
q-11 -10 -30 -27.5t-50 -46.5l-60 67l138 124q2 2 6 3.5t7 2.5q4 1 7 0zM323 654q-11 9 -21 0q-2 -2 -17 -16t-34 -31t-36.5 -33t-23.5 -21l25 -29q6 5 18 16q11 10 29.5 27t48.5 45q31 -28 50 -45t30 -26q12 -11 18 -16q6 7 14 14.5t16 14.5z" />
    <glyph glyph-name="Ydieresis" unicode="&#x178;" horiz-adv-x="582" 
d="M542 649v-473h-182v-176h-112v176h-70q-29 0 -54.5 10t-44 27.5t-29.5 41t-11 50.5v344h114v-339q0 -11 9 -20t22 -9h245v368h113zM516 624h-62v-368h-270q-23 0 -40 16t-17 38q0 105 0.5 166.5t0.5 94.5v53h-64v-319q0 -21 9 -40t24.5 -33.5t36 -22.5t44.5 -8h95v-176
h61v176h182v423zM371 819h112v-107h-112v107zM129 819h111v-107h-111v107zM215 793h-61v-56h61v56zM458 793h-61v-56h61v56z" />
    <glyph glyph-name="Zacute" unicode="&#x179;" horiz-adv-x="548" 
d="M529 648v-103q-65 -81 -114.5 -143t-87 -108t-63 -78t-42.5 -53q-40 -49 -47 -58h354v-105h-503v34v12.5t0 2t0 2v12.5v34q66 81 116.5 143.5t88 109t64 79t43.5 53.5q40 50 48 59h-332v107h475zM504 623h-425v-57h360q-97 -120 -192 -239.5t-196 -236.5v-65h452v55h-380
q94 118 187.5 238t193.5 233v72zM212 721l113 142l95 -61l-135 -130zM331 829q-5 -5 -16.5 -19t-24.5 -30.5t-25 -31.5t-17 -21l34 -23l98 94z" />
    <glyph glyph-name="zacute" unicode="&#x17a;" horiz-adv-x="542" 
d="M510 461v-100q-104 -86 -165.5 -137t-93.5 -77t-42 -34t-11 -9h312v-104h-474v99l301 258h-300v104h473zM485 435h-422v-53h344q-63 -53 -111 -94t-84 -71.5t-61 -52t-42 -35.5q-40 -33 -48 -41v-63h424v53h-357q64 53 113.5 94t87 72t63.5 52.5t43 35.5q40 33 50 41v62z
M213 550l114 142l95 -61l-135 -130zM250 556l34 -22q4 4 17.5 16.5t29 27.5t30 29t20.5 20q-11 8 -25.5 17t-23.5 15z" />
    <glyph glyph-name="Zdotaccent" unicode="&#x17b;" horiz-adv-x="548" 
d="M529 648v-103q-65 -81 -114.5 -143t-87 -108t-63 -78t-42.5 -53q-40 -49 -47 -58h354v-105h-503v34v12.5t0 2t0 2v12.5v34q66 81 116.5 143.5t88 109t64 79t43.5 53.5q40 50 48 59h-332v107h475zM504 623h-425v-57h360q-97 -120 -192 -239.5t-196 -236.5v-65h452v55h-380
q94 118 187.5 238t193.5 233v72zM223 797h111v-107h-111v107zM309 771h-61v-56h61v56z" />
    <glyph glyph-name="zdotaccent" unicode="&#x17c;" horiz-adv-x="542" 
d="M510 461v-100q-104 -86 -165.5 -137t-93.5 -77t-42 -34t-11 -9h312v-104h-474v99l301 258h-300v104h473zM485 435h-422v-53h344q-63 -53 -111 -94t-84 -71.5t-61 -52t-42 -35.5q-40 -33 -48 -41v-63h424v53h-357q64 53 113.5 94t87 72t63.5 52.5t43 35.5q40 33 50 41v62z
M229 607h111v-107h-111v107zM315 581h-61v-56h61v56z" />
    <glyph glyph-name="Zcaron" unicode="&#x17d;" horiz-adv-x="548" 
d="M529 648v-103q-65 -81 -114.5 -143t-87 -108t-63 -78t-42.5 -53q-40 -49 -47 -58h354v-105h-503v34v12.5t0 2t0 2v12.5v34q66 81 116.5 143.5t88 109t64 79t43.5 53.5q40 50 48 59h-332v107h475zM504 623h-425v-57h360q-97 -120 -192 -239.5t-196 -236.5v-65h452v55h-380
q94 118 187.5 238t193.5 233v72zM305 692q-3 -1 -7 0q-3 1 -7 2t-6 4l-135 114l60 67l94 -80l98 77l62 -64l-139 -114q-2 -2 -5.5 -3t-6.5 -2q-4 -1 -8 -1zM425 813q-8 7 -14 14l-12 14l-95 -76l-90 78l-26 -30l106 -90q10 -9 21 0z" />
    <glyph glyph-name="zcaron" unicode="&#x17e;" horiz-adv-x="542" 
d="M510 461v-100q-104 -86 -165.5 -137t-93.5 -77t-42 -34t-11 -9h312v-104h-474v99l301 258h-300v104h473zM485 435h-422v-53h344q-63 -53 -111 -94t-84 -71.5t-61 -52t-42 -35.5q-40 -33 -48 -41v-63h424v53h-357q64 53 113.5 94t87 72t63.5 52.5t43 35.5q40 33 50 41v62z
M274 498q-3 -1 -7 0q-3 1 -7 2t-6 4l-138 124l60 67q31 -29 50 -46.5t30 -27.5q12 -11 17 -16q6 5 18 16q11 9 29.5 26t50.5 45l67 -64l-144 -124q-2 -2 -5.5 -3t-6.5 -2q-4 -1 -8 -1zM401 629q-8 7 -16 14.5t-14 14.5q-6 -5 -18 -16q-11 -10 -30 -26.5t-50 -44.5
q-30 28 -48.5 45t-29.5 27q-12 11 -18 16l-25 -29q6 -5 23.5 -21t36.5 -33t34 -31t17 -16q10 -9 21 0z" />
    <glyph glyph-name="florin" unicode="&#x192;" horiz-adv-x="550" 
d="M131 519q0 27 11 50.5t29.5 41t43.5 28t54 10.5h214v-107h-208q-13 0 -22 -8.5t-9 -20.5v-52h145v-104h-145v-406q0 -27 -11 -50.5t-29.5 -41t-44 -28t-53.5 -10.5h-39v107h33q13 0 22 8.5t9 20.5v562zM218 383h146v53h-146v77q0 23 17 38.5t40 15.5h183v56h-189
q-23 0 -43.5 -8t-36 -22t-24.5 -33t-9 -41v-562q0 -23 -16.5 -38.5t-39.5 -15.5h-8v-56h14q23 0 43.5 8t35.5 22t24 33t9 41v432z" />
    <glyph glyph-name="Ohorn" unicode="&#x1a0;" horiz-adv-x="659" 
d="M425 25q47 0 79.5 28.5t32.5 72.5v384q42 5 70.5 25t28.5 58v67h-42v-62q0 -19 -11 -32.5t-48 -20.5q-17 35 -46.5 57t-63.5 22h-225q-23 0 -43 -8t-35 -22t-24 -32.5t-9 -40.5v-395q0 -22 9 -40.5t24 -32t35 -21t43 -7.5h225zM477 131q0 -23 -15.5 -37.5t-41.5 -14.5
h-214q-25 0 -41.5 14.5t-16.5 37.5l1 385q0 23 15.5 38.5t41.5 15.5h214q26 0 41.5 -15.5t15.5 -38.5v-385zM200 0q-28 0 -53 9.5t-43.5 26.5t-29 40t-10.5 50v395q0 27 10.5 50.5t29 40.5t43.5 27t53 10h225q42 0 75.5 -21t49.5 -54q12 2 15.5 8.5t3.5 15.5v87h92v-92
q0 -50 -28.5 -75.5t-70.5 -30.5v-361q0 -27 -10.5 -50t-29.5 -40t-44 -26.5t-53 -9.5h-225zM452 516q0 12 -9 20.5t-23 8.5h-214q-14 0 -23 -8.5t-9 -20.5l-1 -385q0 -12 9.5 -19.5t23.5 -7.5h214q14 0 23 7.5t9 19.5v385z" />
    <glyph glyph-name="ohorn" unicode="&#x1a1;" horiz-adv-x="661" 
d="M424 25q23 0 43.5 8t35.5 22.5t24 33t9 39.5v192q43 5 72 25t29 58v67h-42v-61q0 -17 -11 -31.5t-50 -21.5q-17 35 -46.5 57t-63.5 22h-225q-23 0 -43 -8t-35 -22t-24 -33t-9 -40v-204q0 -21 9 -39.5t24 -33t35 -22.5t43 -8h225zM476 133q0 -23 -15.5 -38t-40.5 -15h-215
q-24 0 -41 15t-17 38l1 194q0 23 16.5 38t40.5 15h215q25 0 40.5 -15t15.5 -38v-194zM199 0q-28 0 -53 10t-43.5 27.5t-29 41t-10.5 49.5v204q0 27 10.5 50t29 40.5t43.5 27.5t53 10h225q42 0 75.5 -21t49.5 -55q14 2 17.5 9t3.5 16v86h92v-92q0 -50 -29 -75.5t-72 -30.5
v-169q0 -26 -10.5 -49.5t-29.5 -41t-44 -27.5t-53 -10h-225zM451 327q0 12 -8.5 20t-22.5 8h-215q-14 0 -23 -8t-9 -20l-1 -194q0 -12 9.5 -20t23.5 -8h215q14 0 22.5 8t8.5 20v194z" />
    <glyph glyph-name="Uhorn" unicode="&#x1af;" horiz-adv-x="661" 
d="M510 25v515h37q37 0 63.5 20t26.5 61v67h-42v-61q0 -21 -10.5 -35.5t-45.5 -14.5h-29v47h-59v-545h-269q-23 0 -39.5 15t-16.5 39v491h-60v-497q0 -22 9 -41t24 -32.5t35 -21t42 -7.5h334zM176 0q-27 0 -51.5 9.5t-43 26.5t-29.5 40.5t-11 50.5v522h110v-516q0 -13 9 -21
t22 -8h244v545h109v-47h4q20 0 25.5 7t5.5 18v86h92v-92q0 -27 -9 -46.5t-25 -33t-36.5 -20t-44.5 -6.5h-12v-515h-359z" />
    <glyph glyph-name="uhorn" unicode="&#x1b0;" horiz-adv-x="679" 
d="M528 25v324h39q37 0 63.5 20t26.5 61v67h-42v-61q0 -21 -9.5 -35.5t-46.5 -14.5h-31v51h-60v-357h-268q-25 0 -40.5 15t-15.5 37v305h-61v-309q0 -21 9 -39.5t24 -33t35.5 -22.5t43.5 -8h333zM195 0q-28 0 -53 10t-43.5 27.5t-29.5 41t-11 49.5v334h111v-330
q0 -11 8.5 -19t22.5 -8h243v357h110v-51h6q20 0 25.5 7t5.5 18v86h92v-92q0 -27 -9 -46.5t-25 -33t-36.5 -20t-44.5 -6.5h-14v-324h-358z" />
    <glyph glyph-name="AEacute" unicode="&#x1fc;" horiz-adv-x="978" 
d="M435 339h-283v-339h-111v519q0 27 11 50.5t29.5 41t43.5 27.5t54 10h745v-108h-346q-14 0 -23.5 -8.5t-9.5 -19.5v-66h326v-107h-326v-205q0 -11 10 -20t25 -9h344v-105h-351q-29 0 -54 10t-43.5 28t-29.5 41.5t-11 50.5v209zM460 130q0 -22 9 -41t24.5 -33.5t36 -22.5
t43.5 -8h326v55h-319q-25 0 -42.5 16t-17.5 38v231h326v56h-326v91q0 22 17 38t41 16h321v57h-720q-23 0 -43.5 -8t-36 -22.5t-24.5 -33.5t-9 -40v-493h61v339h333v-235zM127 512q0 23 17 38.5t41 15.5h275v-145h-333v91zM152 446h283v95h-250q-14 0 -23.5 -8.5t-9.5 -20.5
v-66zM436 737l113 142l95 -61l-135 -130zM555 845q-5 -5 -16.5 -19t-24.5 -30.5t-25 -31.5t-17 -21l34 -23l98 94z" />
    <glyph glyph-name="aeacute" unicode="&#x1fd;" horiz-adv-x="1003" 
d="M191 0q-61 0 -103 42q-34 36 -34 84v208q0 26 10.5 49t29.5 40.5t43.5 27.5t53.5 10h160.5h116h87.5h76h81h103q30 0 55 -10t43 -28t28.5 -43t10.5 -55v-123h-393v-68q0 -12 10 -20.5t24 -8.5h355v-105h-757zM922 25v54h-329q-25 0 -42.5 16t-17.5 39v93h393v22v75
q0 51 -30.5 81.5t-80.5 30.5h-624q-23 0 -43.5 -8t-35.5 -22t-24 -32.5t-9 -39.5v-209q0 -37 27 -66q17 -16 39 -25t46 -9h731zM475 383v-305h-279q-24 0 -40 16t-16 37v198q0 23 16.5 38.5t40.5 15.5h278zM450 104v253h-253q-14 0 -23 -8t-9 -20v-198q0 -11 9 -19t23 -8
h253zM865 275h-331v52q0 23 17 39t42 16h213q25 0 42 -16t17 -39v-52zM471 555l114 142l95 -61l-135 -130zM840 300v27q0 13 -10 21.5t-24 8.5h-213q-14 0 -23.5 -8.5t-9.5 -21.5v-27h280zM508 561l34 -22q4 4 17.5 16.5t29 27.5t30 29t20.5 20q-11 8 -25.5 17t-23.5 15z
" />
    <glyph glyph-name="Oslashacute" unicode="&#x1fe;" 
d="M30 -1l47 64q-19 32 -19 67v389q0 27 11 50.5t29.5 41.5t43.5 28t54 10h229q36 0 67 -17l49 67l63 -45l-56 -77q15 -26 15 -58v-389q0 -27 -11 -50.5t-29.5 -41.5t-44 -28t-53.5 -10h-229q-33 0 -60 12l-42 -58zM496 600q-23 15 -40 19.5t-31 4.5h-229q-23 0 -43.5 -8.5
t-36 -22.5t-24.5 -33t-9 -41v-389q0 -12 4 -27.5t20 -37.5l-15 -20l-30 -42l26 -18l28 38l15 21q20 -12 36.5 -15.5t28.5 -3.5h229q23 0 43.5 8t36 22.5t24.5 33.5t9 41v389q0 9 -2.5 24.5t-16.5 33.5l15 21q17 23 26 36.5t11 15.5q-5 5 -12 9t-14 9l-34 -47zM445 530
q-30 -42 -65.5 -90t-71.5 -97.5t-71.5 -98t-66.5 -91.5l-24 -33q-3 11 -2 20t1 24v349q0 23 16.5 38.5t40.5 15.5h218q11 0 22 -3t19 -13zM477 522v-388q0 -23 -17 -38.5t-40 -15.5h-218q-4 0 -13.5 1.5t-22.5 9.5l15 21l271 373zM202 542q-14 0 -23 -8t-9 -21v-323l256 351
q-2 1 -6 1h-218zM452 445l-248 -340h216q13 0 22.5 8.5t9.5 20.5v311zM239 721l113 142l95 -61l-135 -130zM358 829q-5 -5 -16.5 -19t-24.5 -30.5t-25 -31.5t-17 -21l34 -23l98 94z" />
    <glyph glyph-name="oslashacute" unicode="&#x1ff;" horiz-adv-x="624" 
d="M22 8l60 54q-19 30 -19 65v207q0 26 11 49t29.5 40.5t44 27.5t54.5 10h228q20 0 38 -5t34 -13l74 67l50 -55l-72 -65q7 -13 11 -27t4 -29v-207q0 -26 -11 -49.5t-29.5 -40.5t-44 -27t-54.5 -10h-228q-34 0 -64 14l-66 -60zM137 43q25 -13 39 -15.5t26 -2.5h228
q24 0 44.5 8t35.5 22t24 32.5t9 39.5v207q0 10 -2.5 24t-17.5 34l72 65l-21 22l-73 -66q-23 16 -40 19.5t-31 3.5h-228q-24 0 -44.5 -8t-36 -22t-24.5 -32.5t-9 -39.5v-207q0 -13 4.5 -29t21.5 -36l-62 -56l10.5 -10.5t9.5 -11.5zM159 104q-4 3 -6 11.5t-3 18.5v196
q0 21 17.5 37t40.5 16h217q13 0 19 -2.5t13 -7.5l-21 -18l-257 -234zM206 105l251 227l20 18q5 -5 5 -11v-14v-192q0 -22 -17 -37.5t-40 -15.5h-214h-17.5t-10.5 4zM176 147l231 210h-199q-14 0 -23 -8.5t-9 -18.5v-183zM457 302l-219 -197h187q14 0 23 8.5t9 19.5v169z
M271 555l114 142l95 -61l-135 -130zM308 561l34 -22q4 4 17.5 16.5t29 27.5t30 29t20.5 20q-11 8 -25.5 17t-23.5 15z" />
    <glyph glyph-name="Scommaaccent" unicode="&#x218;" horiz-adv-x="572" 
d="M404 381q28 0 53.5 -10t44 -27.5t29.5 -41t11 -50.5v-122q0 -52 -39 -91q-20 -20 -45 -29.5t-54 -9.5h-351v104h353q10 0 17 7t7 15v124q0 9 -7 16t-17 7h-239q-29 0 -54.5 10t-44 27.5t-29.5 41t-11 50.5v117q0 27 11 50.5t29.5 41.5t44 28t54.5 10h352v-108h-354
q-11 0 -18 -6.5t-7 -16.5v-115q0 -9 7 -15.5t18 -6.5h239zM516 252q0 21 -9 40t-24 33.5t-35.5 22.5t-43.5 8h-239q-21 0 -35.5 13.5t-14.5 33.5v115q0 20 14.5 34.5t35.5 14.5h329v56h-327q-24 0 -44.5 -8t-35.5 -22t-24 -33t-9 -41v-117q0 -21 9 -40t24 -33.5t35.5 -22.5
t44.5 -8h239q20 0 34.5 -14t14.5 -34v-124q0 -19 -14.5 -33t-34.5 -14h-328v-54h54h273q47 0 81 32q30 30 30 73v122zM362 -29l-47 -159h-95l31 159h111zM328 -54h-56l-21 -108h45z" />
    <glyph glyph-name="scommaaccent" unicode="&#x219;" horiz-adv-x="622" 
d="M439 283q28 0 53 -10t43.5 -27.5t29.5 -40.5t11 -49v-29q0 -26 -11 -49.5t-29.5 -40.5t-43.5 -27t-53 -10h-350v104h352q10 0 17 6t7 15v31q0 9 -7 15t-17 6h-240q-29 0 -54 10t-43.5 27t-29.5 40.5t-11 49.5v30q0 26 11 49t29.5 40.5t43.5 27.5t54 10h351v-104h-353
q-10 0 -17.5 -6.5t-7.5 -16.5v-29q0 -8 7 -15t18 -7h240zM551 156q0 21 -9 39.5t-24 32t-35.5 21.5t-43.5 8l-240 1q-20 0 -35 13.5t-15 33.5v29q0 20 15 34.5t35 14.5h328v53h-326q-23 0 -43.5 -8t-36 -22t-24.5 -32.5t-9 -39.5v-30q0 -21 9 -39.5t24.5 -32.5t36 -22
t43.5 -8h240q20 0 34.5 -13t14.5 -33v-31q0 -20 -14.5 -33.5t-34.5 -13.5h-327v-53h325q23 0 43.5 8t35.5 22t24 32.5t9 39.5v29zM411 -29l-47 -159h-95l31 159h111zM377 -54h-56l-21 -108h45z" />
    <glyph glyph-name="schwa" unicode="&#x259;" horiz-adv-x="600" 
d="M74 128q0 -21 9 -39.5t24 -33t35.5 -22.5t43.5 -8h227q23 0 43 8t35 22.5t24 33t9 39.5v212q0 21 -9 40t-24 33.5t-35 22.5t-43 8h-335v-54h329q25 0 41.5 -15.5t16.5 -38.5v-99h-391v-109zM191 80q-26 0 -41.5 15.5t-15.5 38.5v50h330v-50q0 -23 -15.5 -38.5
t-41.5 -15.5h-216zM49 262h391v74q0 12 -9.5 20.5t-23.5 8.5h-354v104h360q28 0 53 -10t43.5 -27.5t29 -41t10.5 -50.5v-212q0 -26 -10.5 -49.5t-29 -41t-43.5 -27.5t-53 -10h-227q-29 0 -53.5 10t-43.5 27.5t-29.5 41t-10.5 49.5v134zM407 105q14 0 23 8.5t9 20.5v25h-280
v-25q0 -12 9 -20.5t23 -8.5h216z" />
    <glyph glyph-name="primemod" unicode="&#x2b9;" horiz-adv-x="312" 
d="M27 246l227 434l99 -55l-244 -408zM98 247l221 368l-55 31l-202 -385z" />
    <glyph glyph-name="circumflex" unicode="&#x2c6;" horiz-adv-x="484" 
d="M310 670q4 0 8 -1q3 -1 6.5 -2t5.5 -3l144 -124l-67 -64q-32 28 -50.5 44.5t-29.5 26.5q-12 11 -18 16q-5 -5 -17 -16q-11 -10 -30 -27.5t-50 -46.5l-60 67l138 124q2 2 6 3.5t7 2.5q4 1 7 0zM320 639q-11 9 -21 0q-2 -2 -17 -16t-34 -31t-36.5 -33t-23.5 -21l25 -29
q6 5 18 16q11 10 29.5 27t48.5 45q31 -28 50 -45t30 -26q12 -11 18 -16q6 7 14 14.5t16 14.5z" />
    <glyph glyph-name="caron" unicode="&#x2c7;" horiz-adv-x="614" 
d="M325 478q-3 -1 -7 0q-3 1 -7 2t-6 4l-138 124l60 67q31 -29 50 -46.5t30 -27.5q12 -11 17 -16q6 5 18 16q11 9 29.5 26t50.5 45l67 -64l-144 -124q-2 -2 -5.5 -3t-6.5 -2q-4 -1 -8 -1zM452 609q-8 7 -16 14.5t-14 14.5q-6 -5 -18 -16q-11 -10 -30 -26.5t-50 -44.5
q-30 28 -48.5 45t-29.5 27q-12 11 -18 16l-25 -29q6 -5 23.5 -21t36.5 -33t34 -31t17 -16q10 -9 21 0z" />
    <glyph glyph-name="breve" unicode="&#x2d8;" horiz-adv-x="608" 
d="M191 644v-62q0 -29 22.5 -49t54.5 -20h88q34 0 56.5 20t23.5 49l1 62h-66l-1 -60q0 -5 -5 -9.5t-12 -4.5h-82q-6 0 -11 4.5t-5 9.5v60h-64zM279 663v-72h69v72h108l1 -81q0 -20 -7.5 -36t-21 -28t-32.5 -18.5t-40 -6.5h-88q-42 0 -70 25t-28 64v81h109z" />
    <glyph glyph-name="dotaccent" unicode="&#x2d9;" horiz-adv-x="367" 
d="M131 649h111v-107h-111v107zM217 623h-61v-56h61v56z" />
    <glyph glyph-name="ring" unicode="&#x2da;" horiz-adv-x="614" 
d="M206 577q0 22 9 41.5t24.5 33.5t37 22.5t46.5 8.5q51 0 83.5 -30.5t32.5 -75.5q0 -22 -9 -41t-24.5 -33.5t-37 -22.5t-46.5 -8t-46 8t-36.5 22.5t-24.5 33.5t-9 41zM231 577q0 -16 7 -30.5t19.5 -25.5t29 -17.5t35.5 -6.5q40 0 65.5 23.5t25.5 56.5t-25.5 57t-64.5 24
q-40 0 -66 -23.5t-26 -57.5zM265 577q0 22 17 37t41 15q23 0 40.5 -15.5t17.5 -36.5t-17 -35.5t-42 -14.5q-23 0 -40 15t-17 35zM291 577q0 -8 8.5 -16t22.5 -8q16 0 24.5 7.5t8.5 16.5q0 10 -9 18t-23 8t-23 -7.5t-9 -18.5z" />
    <glyph glyph-name="ogonek" unicode="&#x2db;" horiz-adv-x="542" 
d="M375 56q-95 -56 -95 -85q1 -9 7.5 -13.5t25.5 -4.5q8 0 19.5 1t25.5 3v-100q-16 -2 -30.5 -3t-23.5 -1q-37 0 -64 9.5t-45 25.5t-26.5 36.5t-8.5 41.5q0 22 11 45.5t34 44.5h170zM215 33q-29 -29 -29 -67q0 -17 7 -33t21.5 -28.5t37 -20t52.5 -7.5q7 0 14.5 0.5t15.5 1.5
v51q-8 -2 -14.5 -2h-12.5q-29 0 -42 11t-13 27q0 17 13 36t36 31h-86z" />
    <glyph glyph-name="tilde" unicode="&#x2dc;" 
d="M394 519q-24 -19 -46 -19t-42 14l-36 23q-13 -11 -28 -24.5t-26 -21.5l-73 61l77 69q27 24 43.5 26.5t35.5 -11.5q17 -10 25 -15.5t25 -15.5q11 11 24.5 23t21.5 20l83 -54l-83 -74zM442 591l-45 30l-47 -43l-62 40q-12 8 -23 6t-30 -19l-58 -52l39 -33l54 44l48 -32
q17 -11 33 -9.5t29 13.5z" />
    <glyph glyph-name="hungarumlaut" unicode="&#x2dd;" 
d="M233 555l114 142l95 -61l-135 -130zM412 555l114 142l95 -61l-135 -130zM449 561l34 -22q4 4 17.5 16.5t29 27.5t30 29t20.5 20q-11 8 -25.5 17t-23.5 15zM270 561l34 -22q4 4 17.5 16.5t29 27.5t30 29t20.5 20q-11 8 -25.5 17t-23.5 15z" />
    <glyph glyph-name="tonos" unicode="&#x384;" 
d="M233 555l114 142l95 -61l-135 -130zM270 561l34 -22q4 4 17.5 16.5t29 27.5t30 29t20.5 20q-11 8 -25.5 17t-23.5 15z" />
    <glyph glyph-name="dieresistonos" unicode="&#x385;" 
d="M230 579l99 141l102 -44l-122 -134zM118 649h107v-107h-107v107zM417 649h107v-107h-107v107zM268 589l35 -16q4 4 15.5 16.5t25 27.5t26.5 29t19 21l-51 22zM143 624v-57h57v57h-57zM442 624v-57h57v57h-57z" />
    <glyph glyph-name="Alphatonos" unicode="&#x386;" horiz-adv-x="582" 
d="M547 648v-648h-112v339h-283v-339h-111v519q0 27 11 50.5t29.5 41t43.5 27.5t54 10h368zM521 26v597h-342q-23 0 -43.5 -8t-36 -22.5t-24.5 -33.5t-9 -40v-493h61v339h333v-339h61zM127 512q0 23 17 38.5t41 15.5h275v-145h-333v91zM152 446h283v95h-250
q-14 0 -23.5 -8.5t-9.5 -20.5v-66zM-177 525l114 142l95 -61l-135 -130zM-140 531l34 -22q4 4 17.5 16.5t29 27.5t30 29t20.5 20q-11 8 -25.5 17t-23.5 15z" />
    <glyph glyph-name="anoteleia" unicode="&#x387;" horiz-adv-x="249" 
d="M177 294h-113v104h113v-104zM152 373h-62v-54h62v54z" />
    <glyph glyph-name="Epsilontonos" unicode="&#x388;" horiz-adv-x="556" 
d="M530 105v-105h-351q-29 0 -54 10t-43.5 28t-29.5 41.5t-11 50.5v388q0 27 11 50.5t29.5 41.5t43.5 28t54 10h351v-108h-346q-14 0 -23.5 -8.5t-9.5 -19.5v-66h326v-107h-326v-205q0 -11 10 -20t25 -9h344zM505 25v55h-319q-25 0 -42.5 16t-17.5 38v231h326v56h-326v91
q0 22 17 38t41 16h321v57h-326q-23 0 -43.5 -8.5t-36 -22.5t-24.5 -33t-9 -41v-388q0 -22 9 -41t24.5 -33.5t36 -22.5t43.5 -8h326zM-161 525l114 142l95 -61l-135 -130zM-124 531l34 -22q4 4 17.5 16.5t29 27.5t30 29t20.5 20q-11 8 -25.5 17t-23.5 15z" />
    <glyph glyph-name="Etatonos" unicode="&#x389;" 
d="M559 648v-648h-113v116t0.5 86t0.5 60.5v39.5v37h-276v-339h-113v648h113v-202h276v35q0 21 -0.5 61t-0.5 106h113zM534 623h-62v-202h-326v202h-62v-598h62v340h326v-340h62v598zM-174 525l114 142l95 -61l-135 -130zM-137 531l34 -22q4 4 17.5 16.5t29 27.5t30 29
t20.5 20q-11 8 -25.5 17t-23.5 15z" />
    <glyph glyph-name="Iotatonos" unicode="&#x38a;" horiz-adv-x="276" 
d="M79 648h112v-648h-111zM166 623h-61v-598h61v598zM-177 525l114 142l95 -61l-135 -130zM-140 531l34 -22q4 4 17.5 16.5t29 27.5t30 29t20.5 20q-11 8 -25.5 17t-23.5 15z" />
    <glyph glyph-name="Omicrontonos" unicode="&#x38c;" 
d="M425 649q28 0 53.5 -10t44 -28t29.5 -41.5t11 -50.5v-389q0 -27 -11 -50.5t-29.5 -41.5t-44 -28t-53.5 -10h-229q-29 0 -54 10t-43.5 28t-29.5 41.5t-11 50.5v389q0 27 11 50.5t29.5 41.5t43.5 28t54 10h229zM538 519q0 22 -9 41t-24.5 33t-36 22.5t-43.5 8.5h-229
q-23 0 -43.5 -8.5t-36 -22.5t-24.5 -33t-9 -41v-389q0 -22 9 -41t24.5 -33.5t36 -22.5t43.5 -8h229q23 0 43.5 8t36 22.5t24.5 33.5t9 41v389zM420 567q23 0 40 -15.5t17 -38.5v-379q0 -23 -17 -38.5t-40 -15.5h-218q-24 0 -40.5 15.5t-16.5 38.5v379q0 23 16.5 38.5
t40.5 15.5h218zM452 513q0 12 -9.5 20.5t-22.5 8.5h-218q-14 0 -23 -8t-9 -21v-379q0 -12 9 -20.5t23 -8.5h218q13 0 22.5 8.5t9.5 20.5v379zM-156 525l114 142l95 -61l-135 -130zM-119 531l34 -22q4 4 17.5 16.5t29 27.5t30 29t20.5 20q-11 8 -25.5 17t-23.5 15z" />
    <glyph glyph-name="Upsilontonos" unicode="&#x38e;" horiz-adv-x="582" 
d="M542 649v-473h-182v-176h-112v176h-70q-29 0 -54.5 10t-44 27.5t-29.5 41t-11 50.5v344h114v-339q0 -11 9 -20t22 -9h245v368h113zM516 624h-62v-368h-270q-23 0 -40 16t-17 38q0 105 0.5 166.5t0.5 94.5v53h-64v-319q0 -21 9 -40t24.5 -33.5t36 -22.5t44.5 -8h95v-176
h61v176h182v423zM-190 525l114 142l95 -61l-135 -130zM-153 531l34 -22q4 4 17.5 16.5t29 27.5t30 29t20.5 20q-11 8 -25.5 17t-23.5 15z" />
    <glyph glyph-name="Omegatonos" unicode="&#x38f;" horiz-adv-x="603" 
d="M364 176v-71h194v-105h-499v105h192v71h-59q-29 0 -54 10t-43.5 27.5t-29.5 41t-11 50.5v214q0 27 11 50.5t29.5 41.5t43.5 28t54 10h229q28 0 53.5 -10t44 -28t29.5 -41.5t11 -50.5v-214q0 -27 -11 -50.5t-29.5 -41t-44 -27.5t-53.5 -10h-57zM339 79v122h82q23 0 43.5 8
t36 22.5t24.5 33.5t9 40v214q0 22 -9 41t-24.5 33t-36 22.5t-43.5 8.5h-229q-23 0 -43.5 -8.5t-36 -22.5t-24.5 -33t-9 -41v-214q0 -21 9 -40t24.5 -33.5t36 -22.5t43.5 -8h84v-122h-191v-54h448v54h-194zM473 310q0 -23 -17 -38.5t-40 -15.5h-218q-24 0 -40.5 15.5
t-16.5 38.5v203q0 23 16.5 38.5t40.5 15.5h218q23 0 40 -16t17 -38v-203zM166 310q0 -12 9 -20.5t23 -8.5h218q13 0 22.5 8.5t9.5 20.5v203q0 12 -9.5 20.5t-22.5 8.5h-218q-14 0 -23 -8.5t-9 -20.5v-203zM-159 525l114 142l95 -61l-135 -130zM-122 531l34 -22
q4 4 17.5 16.5t29 27.5t30 29t20.5 20q-11 8 -25.5 17t-23.5 15z" />
    <glyph glyph-name="iotadieresistonos" unicode="&#x390;" horiz-adv-x="223" 
d="M57 461h114v-461h-113zM145 436h-62v-411h62v411zM36 579l99 141l102 -44l-122 -134zM-76 649h107v-107h-107v107zM223 649h107v-107h-107v107zM74 589l35 -16q4 4 15.5 16.5t25 27.5t26.5 29t19 21l-51 22zM-51 624v-57h57v57h-57zM248 624v-57h57v57h-57z" />
    <glyph glyph-name="Alpha" unicode="&#x391;" horiz-adv-x="582" 
d="M547 648v-648h-112v339h-283v-339h-111v519q0 27 11 50.5t29.5 41t43.5 27.5t54 10h368zM521 26v597h-342q-23 0 -43.5 -8t-36 -22.5t-24.5 -33.5t-9 -40v-493h61v339h333v-339h61zM127 512q0 23 17 38.5t41 15.5h275v-145h-333v91zM152 446h283v95h-250
q-14 0 -23.5 -8.5t-9.5 -20.5v-66z" />
    <glyph glyph-name="Beta" unicode="&#x392;" horiz-adv-x="586" 
d="M557 128q0 -50 -37 -87q-20 -20 -46 -30.5t-55 -10.5h-366v649h329q55 0 85.5 -32t30.5 -77v-72q0 -17 -3.5 -31t-14.5 -31q27 -12 42 -28.5t22.5 -36t10 -41t2.5 -43.5v-129zM502 59q29 29 29 69v129q0 19 -1.5 37.5t-9.5 36.5t-25 34.5t-49 32.5q17 19 22 37.5t5 32.5
v72q0 35 -23 59t-68 24h-303v-34v-69v-92v-103.5v-103.5v-92.5v-69v-34.5h340q24 0 45.5 8.5t37.5 25.5zM366 363q48 0 75.5 -29.5t27.5 -76.5v-124q0 -23 -16.5 -38.5t-40.5 -15.5h-273v284h227zM412 104q14 0 23 8.5t9 20.5v123q0 36 -20.5 59t-57.5 23h-201v-234h247z
M412 466q0 -20 -13 -33.5t-32 -13.5h-227v148h227q19 0 32 -12.5t13 -30.5v-58zM166 444h201q8 0 14 6.5t6 15.5v58q0 8 -6 13t-14 5h-201v-98z" />
    <glyph glyph-name="Gamma" unicode="&#x393;" horiz-adv-x="464" 
d="M469 649v-108h-301v-541h-112v649h413zM444 623h-363v-597h62v541h301v56z" />
    <glyph glyph-name="Delta" unicode="&#x394;" horiz-adv-x="564" 
d="M336 649l217 -649h-545l221 649h107zM43 25h475l-200 598h-71zM282 532l154 -453h-310zM282 454q-1 -4 -10.5 -31t-22.5 -65t-28 -82t-28 -81.5t-22 -63t-10 -27.5h240z" />
    <glyph glyph-name="Delta" unicode="&#x2206;" horiz-adv-x="564" 
d="M336 649l217 -649h-545l221 649h107zM43 25h475l-200 598h-71zM282 532l154 -453h-310zM282 454q-1 -4 -10.5 -31t-22.5 -65t-28 -82t-28 -81.5t-22 -63t-10 -27.5h240z" />
    <glyph glyph-name="Epsilon" unicode="&#x395;" horiz-adv-x="556" 
d="M530 105v-105h-351q-29 0 -54 10t-43.5 28t-29.5 41.5t-11 50.5v388q0 27 11 50.5t29.5 41.5t43.5 28t54 10h351v-108h-346q-14 0 -23.5 -8.5t-9.5 -19.5v-66h326v-107h-326v-205q0 -11 10 -20t25 -9h344zM505 25v55h-319q-25 0 -42.5 16t-17.5 38v231h326v56h-326v91
q0 22 17 38t41 16h321v57h-326q-23 0 -43.5 -8.5t-36 -22.5t-24.5 -33t-9 -41v-388q0 -22 9 -41t24.5 -33.5t36 -22.5t43.5 -8h326z" />
    <glyph glyph-name="Zeta" unicode="&#x396;" horiz-adv-x="548" 
d="M529 648v-103q-65 -81 -114.5 -143t-87 -108t-63 -78t-42.5 -53q-40 -49 -47 -58h354v-105h-503v34v12.5t0 2t0 2v12.5v34q66 81 116.5 143.5t88 109t64 79t43.5 53.5q40 50 48 59h-332v107h475zM504 623h-425v-57h360q-97 -120 -192 -239.5t-196 -236.5v-65h452v55h-380
q94 118 187.5 238t193.5 233v72z" />
    <glyph glyph-name="Eta" unicode="&#x397;" 
d="M559 648v-648h-113v116t0.5 86t0.5 60.5v39.5v37h-276v-339h-113v648h113v-202h276v35q0 21 -0.5 61t-0.5 106h113zM534 623h-62v-202h-326v202h-62v-598h62v340h326v-340h62v598z" />
    <glyph glyph-name="Theta" unicode="&#x398;" horiz-adv-x="592" 
d="M413 648q29 0 54.5 -10t44 -27.5t29.5 -41t11 -50.5v-390q0 -27 -11 -50.5t-29.5 -41t-44 -27.5t-54.5 -10h-228q-29 0 -54.5 10t-44 27.5t-29.5 41t-11 50.5v390q0 27 11 50.5t29.5 41t44 27.5t54.5 10h228zM526 519q0 21 -9 40t-24 33.5t-35.5 22.5t-44.5 8h-228
q-24 0 -44.5 -8t-36 -22.5t-24.5 -33.5t-9 -40v-390q0 -21 9 -40t24.5 -33.5t36 -22.5t44.5 -8h228q24 0 44.5 8t35.5 22.5t24 33.5t9 40v390zM133 364h332v-230q0 -23 -16.5 -39t-40.5 -16h-217q-24 0 -41 16t-17 39v230zM440 339h-281v-205q0 -12 9 -20.5t23 -8.5h217
q14 0 23 8.5t9 20.5v205zM408 566q24 0 40.5 -15.5t16.5 -38.5v-91h-332v91q0 23 17 38.5t41 15.5h217zM440 512q0 12 -9 20.5t-23 8.5h-217q-14 0 -23 -8t-9 -21v-66h281v66z" />
    <glyph glyph-name="Iota" unicode="&#x399;" horiz-adv-x="276" 
d="M79 648h112v-648h-111zM166 623h-61v-598h61v598z" />
    <glyph glyph-name="Kappa" unicode="&#x39a;" horiz-adv-x="604" 
d="M430 384q57 -20 91.5 -67t34.5 -105v-212h-112v212q0 16 -7 30.5t-18.5 25.5t-27 17.5t-32.5 6.5h-191v-292h-113v648h113v-251h140q3 5 20 33q14 24 44.5 74.5t86.5 143.5h127q-29 -49 -50.5 -86t-38 -64.5t-28 -46.5t-18.5 -32zM530 212q0 51 -30 93t-81 56l-27 8
q45 78 74 127t46 78q19 33 30 49h-69q-5 -8 -23 -38q-15 -26 -45.5 -76t-82.5 -137h-180v251h-62v-598h62v292h217q22 0 42 -8.5t35 -22.5t24 -33.5t9 -40.5v-187h61v187z" />
    <glyph glyph-name="Lambda" unicode="&#x39b;" horiz-adv-x="566" 
d="M10 0l217 648h106l220 -648h-117q-28 82 -49.5 145.5t-38 111t-28 80.5t-18.5 55q-18 52 -22 63q-3 -11 -21 -63q-8 -22 -19 -55t-27 -80.5t-37 -111t-49 -145.5h-117zM245 622q-2 -5 -10.5 -31.5t-22 -67t-30.5 -91t-34.5 -103.5t-35 -104t-31.5 -93t-23.5 -71
t-12.5 -36h64q5 14 24 73q8 25 20.5 62t30.5 89.5t41.5 122.5t54.5 161q31 -91 55 -161l42 -122.5t30.5 -89.5t21.5 -62q20 -59 25 -73h64q-3 9 -13 38t-24 71.5t-31.5 93.5t-35.5 104t-35 103t-31 90.5t-23 66.5t-10 30h-70z" />
    <glyph glyph-name="Mu" unicode="&#x39c;" horiz-adv-x="768" 
d="M582 648q28 0 53.5 -10t44 -28t29.5 -41.5t11 -50.5v-518h-112l-1 513q0 11 -8 19q-9 9 -23 9h-130v-541h-113v541h-161v-541h-113v648h523zM695 25v493q0 22 -9 41t-24.5 33t-36 22.5t-43.5 8.5h-498v-598h62v541h212v-541h62v541h155q24 0 41 -15t17 -38v-488h62z" />
    <glyph glyph-name="Nu" unicode="&#x39d;" horiz-adv-x="624" 
d="M564 0h-107q-3 2 -34 49q-13 20 -33.5 51.5t-50.5 78t-71 110.5t-95 150v-439h-113v648h116q2 -6 32 -54q13 -21 33 -53.5t49.5 -80t70 -112.5t94.5 -150v450h109v-648zM538 27v596h-58v-511q-58 92 -102.5 162.5t-78 123.5t-57.5 90.5l-40 62.5q-38 58 -47 72h-70v-598
h62v501q58 -92 102.5 -162t77.5 -122.5t56.5 -88.5t39.5 -60q37 -56 45 -66h70z" />
    <glyph glyph-name="Xi" unicode="&#x39e;" horiz-adv-x="576" 
d="M540 540h-194v-94h131v-107h-131v-234h194v-105h-500v105h192v234h-129v107h129v94h-192v107h500v-107zM321 421v145h194v56h-449v-56h192v-145h-130v-56h130v-286h-193v-54h450v54h-194v286h131v56h-131z" />
    <glyph glyph-name="Omicron" unicode="&#x39f;" 
d="M425 649q28 0 53.5 -10t44 -28t29.5 -41.5t11 -50.5v-389q0 -27 -11 -50.5t-29.5 -41.5t-44 -28t-53.5 -10h-229q-29 0 -54 10t-43.5 28t-29.5 41.5t-11 50.5v389q0 27 11 50.5t29.5 41.5t43.5 28t54 10h229zM538 519q0 22 -9 41t-24.5 33t-36 22.5t-43.5 8.5h-229
q-23 0 -43.5 -8.5t-36 -22.5t-24.5 -33t-9 -41v-389q0 -22 9 -41t24.5 -33.5t36 -22.5t43.5 -8h229q23 0 43.5 8t36 22.5t24.5 33.5t9 41v389zM420 567q23 0 40 -15.5t17 -38.5v-379q0 -23 -17 -38.5t-40 -15.5h-218q-24 0 -40.5 15.5t-16.5 38.5v379q0 23 16.5 38.5
t40.5 15.5h218zM452 513q0 12 -9.5 20.5t-22.5 8.5h-218q-14 0 -23 -8t-9 -21v-379q0 -12 9 -20.5t23 -8.5h218q13 0 22.5 8.5t9.5 20.5v379z" />
    <glyph glyph-name="Pi" unicode="&#x3a0;" horiz-adv-x="604" 
d="M56 649h500v-649h-112v541h-276v-541h-112v649zM531 623h-449v-34v-69v-92t-0.5 -103.5t-0.5 -103.5v-92.5v-69v-34.5h62v542h326v-542h62v598z" />
    <glyph glyph-name="Rho" unicode="&#x3a1;" horiz-adv-x="580" 
d="M405 648q28 0 53.5 -10t44.5 -27.5t30 -41t11 -50.5v-321q-72 0 -127.5 -0.5t-96 -0.5h-69h-46.5h-51v-197h-113v648h364zM518 519q0 21 -9 40t-24 33.5t-35.5 22.5t-44.5 8h-339v-598h62v197q133 0 210.5 0.5t117.5 0.5h62v296zM399 566q23 0 40 -16t17 -38v-234h-328
v288h271zM431 512q0 11 -9.5 20t-22.5 9h-245v-238h277v209z" />
    <glyph glyph-name="Sigma" unicode="&#x3a3;" horiz-adv-x="576" 
d="M543 105v-105h-505v93q73 101 112.5 156.5t58.5 81.5q22 31 26 36q-4 4 -18.5 19t-34 35t-41 42t-39.5 40.5t-30 30.5t-12 13v101h475v-107h-316q5 -6 24 -25q17 -17 50.5 -49.5t93.5 -91.5q-73 -98 -113.5 -152.5t-59.5 -80.5q-23 -31 -27 -37h356zM517 80h-380
q74 100 117 158t66 88q26 35 34 46l-33 33q-20 20 -59 58t-105 104h352v56h-424q-1 -16 -1 -29v-38q6 -5 27 -27q18 -19 55 -56.5t102 -102.5q-37 -52 -65.5 -91.5t-50 -69.5t-36.5 -50.5t-25 -34.5q-24 -33 -28 -39v-60h454v55z" />
    <glyph glyph-name="Tau" unicode="&#x3a4;" horiz-adv-x="524" 
d="M14 648h496v-108h-193v-540h-113v540h-190v108zM484 623h-445v-57h190v-541h62v541h193v57z" />
    <glyph glyph-name="Upsilon" unicode="&#x3a5;" horiz-adv-x="582" 
d="M542 649v-473h-182v-176h-112v176h-70q-29 0 -54.5 10t-44 27.5t-29.5 41t-11 50.5v344h114v-339q0 -11 9 -20t22 -9h245v368h113zM516 624h-62v-368h-270q-23 0 -40 16t-17 38q0 105 0.5 166.5t0.5 94.5v53h-64v-319q0 -21 9 -40t24.5 -33.5t36 -22.5t44.5 -8h95v-176
h61v176h182v423z" />
    <glyph glyph-name="Phi" unicode="&#x3a6;" horiz-adv-x="720" 
d="M549 648q29 0 54.5 -10.5t44 -28t29.5 -41t11 -50.5v-211q0 -27 -11 -50.5t-29.5 -41.5t-44 -28t-54.5 -10h-131v-177h-113v177h-131q-29 0 -54 10t-43.5 28t-29.5 41.5t-11 50.5v211q0 27 11 50.5t29.5 41t43.5 28t54 10.5h375zM663 518q0 21 -9 40t-24.5 33.5t-36 22.5
t-44.5 8h-375q-23 0 -43.5 -8t-36 -22.5t-24.5 -33.5t-9 -40v-211q0 -22 9 -41t24.5 -33.5t36 -22.5t43.5 -8h156v-177h62v177h157q24 0 44.5 8t36 22.5t24.5 33.5t9 41v211zM544 565q23 0 40 -16t17 -38v-199q0 -23 -16.5 -38.5t-40.5 -15.5h-152v307h152zM330 565v-307
h-150q-23 0 -40 15.5t-17 38.5v199q0 23 17 38.5t40 15.5h150zM576 511q0 11 -9.5 20t-22.5 9h-126v-257h126q14 0 23 8.5t9 20.5v199zM305 540h-125q-13 0 -22.5 -8.5t-9.5 -20.5v-199q0 -12 9.5 -20.5t22.5 -8.5h125v257z" />
    <glyph glyph-name="Chi" unicode="&#x3a7;" horiz-adv-x="560" 
d="M553 649q-38 -61 -67.5 -107.5t-51 -81t-36.5 -58.5t-25 -39q-23 -37 -27 -42q4 -6 26 -41q9 -15 23.5 -38.5t35.5 -57.5t49.5 -79l66.5 -105h-130q-50 78 -77 121.5t-40 64.5l-18 30q-3 -5 -19 -30q-14 -21 -41 -64.5t-76 -121.5h-132q37 60 66 105t50 79t35.5 57.5
t24.5 38.5q22 35 26 41l-25 42q-9 15 -24 39t-36 58.5t-50 81t-67 107.5h131q50 -81 77 -126t41 -67q16 -26 19 -31q4 5 20 31q14 22 41.5 67t78.5 126h131zM502 25q-11 17 -35 55q-20 32 -56 90t-94 151q60 95 97 153.5t58 91.5q25 39 36 57h-72q-6 -9 -24 -38
q-16 -25 -46.5 -74t-83.5 -134q-53 85 -83.5 134t-45.5 74q-18 29 -22 38h-72q11 -18 35 -57q20 -33 56.5 -92.5t95.5 -153.5q-59 -92 -95 -150t-56 -90q-24 -38 -35 -55h72q4 8 22 36l45 72t83 131q52 -83 81.5 -131t44.5 -72q18 -28 23 -36h71z" />
    <glyph glyph-name="Psi" unicode="&#x3a8;" horiz-adv-x="708" 
d="M568 588h111v-281q0 -27 -11 -50.5t-29.5 -41.5t-44 -28t-53.5 -10h-132v-177h-113v177h-130q-29 0 -54.5 10t-44 28t-29.5 41.5t-11 50.5v281h113v-276q0 -13 9 -21t23 -8h125v365h112v-365h127q14 0 23 8t9 21v276zM654 563h-61v-251q0 -23 -16.5 -38.5t-40.5 -15.5
h-152v365h-62v-365h-150q-24 0 -40.5 15.5t-16.5 38.5v250q-15 0 -31.5 0.5t-30.5 0.5v-256q0 -22 9 -41t24 -33.5t35.5 -22.5t44.5 -8h156v-177h62v177h157q23 0 43.5 8t36 22.5t24.5 33.5t9 41v256z" />
    <glyph glyph-name="Omega" unicode="&#x3a9;" horiz-adv-x="603" 
d="M364 176v-71h194v-105h-499v105h192v71h-59q-29 0 -54 10t-43.5 27.5t-29.5 41t-11 50.5v214q0 27 11 50.5t29.5 41.5t43.5 28t54 10h229q28 0 53.5 -10t44 -28t29.5 -41.5t11 -50.5v-214q0 -27 -11 -50.5t-29.5 -41t-44 -27.5t-53.5 -10h-57zM339 79v122h82q23 0 43.5 8
t36 22.5t24.5 33.5t9 40v214q0 22 -9 41t-24.5 33t-36 22.5t-43.5 8.5h-229q-23 0 -43.5 -8.5t-36 -22.5t-24.5 -33t-9 -41v-214q0 -21 9 -40t24.5 -33.5t36 -22.5t43.5 -8h84v-122h-191v-54h448v54h-194zM473 310q0 -23 -17 -38.5t-40 -15.5h-218q-24 0 -40.5 15.5
t-16.5 38.5v203q0 23 16.5 38.5t40.5 15.5h218q23 0 40 -16t17 -38v-203zM166 310q0 -12 9 -20.5t23 -8.5h218q13 0 22.5 8.5t9.5 20.5v203q0 12 -9.5 20.5t-22.5 8.5h-218q-14 0 -23 -8.5t-9 -20.5v-203z" />
    <glyph glyph-name="Iotadieresis" unicode="&#x3aa;" horiz-adv-x="276" 
d="M79 648h112v-648h-111zM166 623h-61v-598h61v598zM195 819h112v-107h-112v107zM-47 819h111v-107h-111v107zM39 793h-61v-56h61v56zM282 793h-61v-56h61v56z" />
    <glyph glyph-name="Upsilondieresis" unicode="&#x3ab;" horiz-adv-x="582" 
d="M542 649v-473h-182v-176h-112v176h-70q-29 0 -54.5 10t-44 27.5t-29.5 41t-11 50.5v344h114v-339q0 -11 9 -20t22 -9h245v368h113zM516 624h-62v-368h-270q-23 0 -40 16t-17 38q0 105 0.5 166.5t0.5 94.5v53h-64v-319q0 -21 9 -40t24.5 -33.5t36 -22.5t44.5 -8h95v-176
h61v176h182v423zM355 819h112v-107h-112v107zM113 819h111v-107h-111v107zM199 793h-61v-56h61v56zM442 793h-61v-56h61v56z" />
    <glyph glyph-name="alphatonos" unicode="&#x3ac;" horiz-adv-x="614" 
d="M561 461v-461h-370q-61 0 -103 42q-34 36 -34 84v208q0 26 10.5 49t29.5 40.5t43.5 27.5t53.5 10h370zM535 25l1 411h-345q-23 0 -43.5 -8t-35.5 -22t-24 -32.5t-9 -39.5v-209q0 -37 27 -66q17 -16 39 -25t46 -9h344zM475 383v-305h-279q-24 0 -40 16t-16 37v198
q0 23 16.5 38.5t40.5 15.5h278zM450 357h-253q-14 0 -23 -8t-9 -20v-198q0 -11 9 -19t23 -8h253v253zM238 555l114 142l95 -61l-135 -130zM275 561l34 -22q4 4 17.5 16.5t29 27.5t30 29t20.5 20q-11 8 -25.5 17t-23.5 15z" />
    <glyph glyph-name="epsilontonos" unicode="&#x3ad;" horiz-adv-x="572" 
d="M188 357q-14 0 -24 -8.5t-10 -21.5v-28h287v-98h-288v-67q0 -12 10.5 -21t24.5 -9h358v-104h-367q-28 0 -52.5 10t-43 26.5t-29 39t-10.5 48.5v211q0 26 10.5 49t29 40t43 27t52.5 10h354v-104h-345zM129 274v53q0 23 17 39t42 16h319v54h-328q-23 0 -43 -8t-35 -21.5
t-23.5 -32t-8.5 -39.5v-211q0 -20 8.5 -38t23.5 -31.5t35 -21.5t43 -8h342v54h-333q-25 0 -42.5 16t-17.5 39v92h287v48h-286zM241 555l114 142l95 -61l-135 -130zM278 561l34 -22q4 4 17.5 16.5t29 27.5t30 29t20.5 20q-11 8 -25.5 17t-23.5 15z" />
    <glyph glyph-name="etatonos" unicode="&#x3ae;" 
d="M429 461q28 0 53.5 -10t44 -27.5t29.5 -40.5t11 -49v-334h-112v329q0 12 -9 20t-23 8h-246v-357h-113v461h365zM542 334q0 21 -9 39.5t-24.5 32t-36 21.5t-43.5 8h-339v-410h62v357h271q24 0 40.5 -15t16.5 -38v-304h62v309zM193 555l114 142l95 -61l-135 -130zM230 561
l34 -22q4 4 17.5 16.5t29 27.5t30 29t20.5 20q-11 8 -25.5 17t-23.5 15z" />
    <glyph glyph-name="iotatonos" unicode="&#x3af;" horiz-adv-x="223" 
d="M57 461h114v-461h-113zM145 436h-62v-411h62v411zM17 555l114 142l95 -61l-135 -130zM54 561l34 -22q4 4 17.5 16.5t29 27.5t30 29t20.5 20q-11 8 -25.5 17t-23.5 15z" />
    <glyph glyph-name="upsilondieresistonos" unicode="&#x3b0;" horiz-adv-x="600" 
d="M444 460h111v-334q0 -26 -11 -49t-29.5 -40t-44 -27t-53.5 -10h-229q-29 0 -54 10t-43.5 27t-29.5 40t-11 49v334h112v-328q0 -10 9 -19t23 -9h218q14 0 23 9t9 19v328zM530 435h-61v-303q0 -22 -17 -37.5t-40 -15.5h-218q-23 0 -40 15.5t-17 37.5v303h-62v-309
q0 -21 9 -39.5t24.5 -32t36 -21.5t43.5 -8h229q23 0 43.5 8t36 21.5t24.5 32t9 39.5v309zM205 579l99 141l102 -44l-122 -134zM93 649h107v-107h-107v107zM392 649h107v-107h-107v107zM243 589l35 -16q4 4 15.5 16.5t25 27.5t26.5 29t19 21l-51 22zM118 624v-57h57v57h-57z
M417 624v-57h57v57h-57z" />
    <glyph glyph-name="alpha" unicode="&#x3b1;" horiz-adv-x="614" 
d="M561 461v-461h-370q-61 0 -103 42q-34 36 -34 84v208q0 26 10.5 49t29.5 40.5t43.5 27.5t53.5 10h370zM535 25l1 411h-345q-23 0 -43.5 -8t-35.5 -22t-24 -32.5t-9 -39.5v-209q0 -37 27 -66q17 -16 39 -25t46 -9h344zM475 383v-305h-279q-24 0 -40 16t-16 37v198
q0 23 16.5 38.5t40.5 15.5h278zM450 357h-253q-14 0 -23 -8t-9 -20v-198q0 -11 9 -19t23 -8h253v253z" />
    </font>
</defs>
</svg>
