<?xml version="1.0" standalone="no"?>
<!DOCTYPE svg PUBLIC "-//W3C//DTD SVG 1.1//EN" "http://www.w3.org/Graphics/SVG/1.1/DTD/svg11.dtd" >
<svg xmlns="http://www.w3.org/2000/svg" xmlns:xlink="http://www.w3.org/1999/xlink" version="1.1">
<metadata>
Created by FontForge 20150824 at Mon May 30 12:27:35 2016
 By Everything Fonts
Copyright (c) 2001, 2002, 2006 Parachute :, www.parachute.gr.  All rights reserved.
</metadata>
<defs>
<font id="PFHAUSSQUAREPROBOLDOUTLINE" horiz-adv-x="616" >
  <font-face 
    font-family="PFHAUSSQUAREPROBOLDOUTLINE"
    font-weight="700"
    font-stretch="normal"
    units-per-em="1000"
    panose-1="2 0 5 6 3 0 0 2 0 4"
    ascent="750"
    descent="-250"
    x-height="461"
    cap-height="648"
    bbox="-219 -217 1106 914"
    underline-thickness="20"
    underline-position="-153"
    unicode-range="U+0020-FB05"
  />
<missing-glyph horiz-adv-x="506" 
d="M25 35h442v630h-442v-630zM257 350l194 297v-591zM41 644l194 -294l-194 -295v589zM57 51l189 286l189 -286h-378zM246 364l-189 285h378zM-10 700h512v-700h-512v700zM370 86l-124 188l-124 -188h248zM370 614h-248l124 -187zM416 172v358l-118 -180zM76 171l117 179
l-117 178v-357z" />
    <glyph glyph-name="fj" unicode="fj" horiz-adv-x="580" 
d="M380 590v22h-176q-20 0 -38 -7.5t-31.5 -19.5t-21 -28.5t-7.5 -34.5v-480h28v351h304v-448q0 -32 -23.5 -53t-54.5 -21h-19v-19h26q20 0 38 7t31 18.5t20.5 27.5t7.5 34v478h-330v99q0 31 20 52.5t52 21.5h174zM210 549q-14 0 -24 -9.5t-10 -23.5v-57h330v-520
q0 -27 -11 -50.5t-29.5 -41t-44 -27.5t-54.5 -10h-68v103h61q14 0 25 9t11 23v414h-220v-359h-112v522q0 27 11 50.5t30 41t44.5 27.5t54.5 10h218v-102h-212z" />
    <glyph glyph-name="ffj" unicode="ffj" horiz-adv-x="817" 
d="M631 602v22h-138q-20 0 -37.5 -7t-31 -18.5t-21 -27.5t-7.5 -34v-120h-258v99q0 31 18 51t48 20h58v22h-54q-20 0 -38 -7t-31.5 -18.5t-21 -27.5t-7.5 -34v-480h28v353h258v-353h28v353h247v-450q0 -32 -23.5 -53t-53.5 -21h-20v-19h26q20 0 38 7t31 18.5t20.5 27.5
t7.5 34v478h-274v119q0 31 22 48.5t55 17.5h131zM500 564q-15 0 -25 -9.5t-10 -23.5v-72h274v-520q0 -27 -11 -50.5t-29.5 -41t-44 -27.5t-54.5 -10h-68v103h62q14 0 24.5 9t10.5 23v414h-163v-359h-112v359h-174v-359h-112v522q0 27 11 50.5t30 41t44.5 27.5t54.5 10h96
v-102h-90q-14 0 -24 -9.5t-10 -23.5v-57h174v78q0 27 11 50.5t30 41t44 27.5t54 10h180v-102h-173z" />
    <glyph glyph-name="ff" unicode="ff" horiz-adv-x="736" 
d="M713 606v18h-175q-20 0 -38 -7t-31 -18.5t-20.5 -27.5t-7.5 -34v-120h-302v99q0 31 22 53t53 22h98v18h-103q-21 0 -38.5 -7t-31 -18.5t-21 -27.5t-7.5 -34v-480h28v350h302v-350h27v350h149v25h-149v114q0 31 21.5 53t51.5 22h172zM544 564q-14 0 -24 -9.5t-10 -23.5
v-72h149v-100h-149v-359h-111v359h-218v-359h-112v522q0 27 11 50.5t30 41t44.5 27.5t54.5 10h145v-102h-140q-14 0 -23.5 -9.5t-9.5 -23.5v-57h218v78q0 27 11 50.5t29.5 41t44 27.5t54.5 10h217v-102h-211z" />
    <glyph glyph-name="fi" unicode="fi" horiz-adv-x="590" 
d="M464 42v375h-330v99q0 31 22 51t54 20h180v22h-186q-20 0 -38 -7t-31.5 -18.5t-21 -27.5t-7.5 -34v-480h28v350h303v-350h27zM395 0v359h-219v-359h-112v522q0 27 11 50.5t30 41t44.5 27.5t54.5 10h228v-102h-222q-14 0 -24 -9.5t-10 -23.5v-57h330v-459h-111z" />
    <glyph glyph-name="fl" unicode="fl" horiz-adv-x="642" 
d="M439 589v-461q0 -18 7.5 -34.5t20.5 -28.5t31 -19.5t38 -7.5h26v21h-21q-31 0 -53 21.5t-22 51.5v479h-260q-20 0 -38 -7t-31.5 -19.5t-21 -28.5t-7.5 -34v-480h28v356h148v24h-148v94q0 31 22 52t54 21h227zM212 549q-14 0 -24 -9.5t-10 -23.5v-57h148v-100h-148v-359
h-112v522q0 27 11 50.5t30 41t44.5 27.5t54.5 10h302v-519q0 -13 9.5 -22t23.5 -9h63v-102h-68q-29 0 -54.5 10t-44.5 27.5t-29.5 41t-10.5 50.5v421h-185z" />
    <glyph glyph-name="ffi" unicode="ffi" horiz-adv-x="834" 
d="M698 42v375h-281v115q0 32 22 51.5t55 19.5h143v21h-150q-20 0 -37.5 -7t-31 -18.5t-21 -27.5t-7.5 -34v-120h-252v100q0 32 23 51.5t53 19.5h48v21h-54q-20 0 -38 -7t-31.5 -18.5t-21 -27.5t-7.5 -34v-480h28v350h252v-350h28v350h253v-350h27zM629 0v359h-169v-359
h-112v359h-168v-359h-112v522q0 27 11 50.5t30 41t44.5 27.5t54.5 10h96v-102h-90q-14 0 -24 -9t-10 -23v-58h168v78q0 27 11 50.5t30 41t44 27.5t54 10h192v-102h-185q-15 0 -25 -9t-10 -23v-73h281v-459h-111z" />
    <glyph glyph-name="ffl" unicode="ffl" horiz-adv-x="880" 
d="M672 601v-467q0 -18 5.5 -35.5t16.5 -31.5t29 -22.5t42 -8.5h31v23h-20q-40 0 -58.5 20t-18.5 50v495h-209q-20 0 -37.5 -7t-31 -18.5t-21 -27.5t-7.5 -34v-120h-253v99q0 31 23 50.5t53 19.5h48v23h-54q-20 0 -38 -7t-31.5 -18.5t-21 -27.5t-7.5 -34v-480h28v350h253
v-350h27v350h101v25h-101v114q0 31 22 50.5t54 19.5h176zM496 564q-14 0 -24 -9.5t-10 -23.5v-72h101v-100h-101v-359h-111v359h-169v-359h-112v522q0 27 11 50.5t30 41t44.5 27.5t54.5 10h96v-102h-90q-14 0 -24 -9.5t-10 -23.5v-57h169v78q0 27 11 50.5t30 41t44 27.5
t54 10h251v-537q0 -13 10.5 -22t24.5 -9h62v-100h-69q-29 0 -54 10t-44 27.5t-30 41t-11 50.5v437h-134z" />
    <glyph glyph-name="ft" unicode="ft" horiz-adv-x="633" 
d="M347 602v23h-141q-20 0 -38 -7t-31.5 -18.5t-21 -27.5t-7.5 -34v-496h28v350h303v-350h27v350h96v25h-96v66h-27v-66h-303v115q0 31 21.5 50.5t53.5 19.5h136zM212 565q-14 0 -24 -9.5t-10 -23.5v-73h219v66h111v-66h96v-100h-96v-359h-111v359h-219v-359h-112v538
q0 27 11 50.5t30 41t44.5 27.5t54.5 10h183v-102h-177z" />
    <glyph glyph-name=".notdef" horiz-adv-x="506" 
d="M25 35h442v630h-442v-630zM257 350l194 297v-591zM41 644l194 -294l-194 -295v589zM57 51l189 286l189 -286h-378zM246 364l-189 285h378zM-10 700h512v-700h-512v700zM370 86l-124 188l-124 -188h248zM370 614h-248l124 -187zM416 172v358l-118 -180zM76 171l117 179
l-117 178v-357z" />
    <glyph glyph-name=".null" horiz-adv-x="0" 
 />
    <glyph glyph-name="nonmarkingreturn" horiz-adv-x="333" 
 />
    <glyph glyph-name="space" unicode=" " horiz-adv-x="270" 
 />
    <glyph glyph-name="exclam" unicode="!" horiz-adv-x="256" 
d="M67 151v497h113v-497h-113zM66 0v107h113v-107h-113zM137 609h-22v-419h22v419zM136 68h-22v-28h22v28z" />
    <glyph glyph-name="quotedbl" unicode="&#x22;" horiz-adv-x="304" 
d="M262 438h-103l-1 210h109zM135 438h-103l-1 210h109zM198 608v-131h25q0 14 0.5 34.5t1 40.5t1 36t0.5 20h-28zM71 608v-131h25q0 14 0.5 34.5t1 40.5t1 36t0.5 20h-28z" />
    <glyph glyph-name="numbersign" unicode="#" horiz-adv-x="600" 
d="M554 363h-113l-11 -87h113l-13 -105h-113l-24 -171h-107l23 171h-52l-24 -171h-107l23 171h-117l13 105h118q2 15 5 41.5t5 45.5h-117l13 104h118l24 181h106l-23 -181h52l23 181h108l-24 -181h114zM406 426l24 183h-23q-7 -53 -12 -93q-2 -17 -4.5 -34t-4 -29.5
t-2.5 -20t-1 -6.5h-137l24 183h-22l-23 -183h-122q-1 -3 -1 -7q-1 -3 -1 -7t-1 -8h120l-19 -170h-121q-1 -8 -1.5 -10.5t-1.5 -10.5h120l-24 -174h23l23 174h138l-24 -174h23l23 174h116l4 21h-117l21 170h116q0 7 2 15q1 4 1 7h-116zM360 234h-138l21 170h137zM281 363
l-11 -87h52l11 87h-52z" />
    <glyph glyph-name="dollar" unicode="$" horiz-adv-x="600" 
d="M523 192q0 -32 -11 -56.5t-29.5 -40.5t-44 -24t-53.5 -8h-28v-63h-113v63h-133v105h276q10 0 17.5 6.5t7.5 16.5v79q0 10 -7.5 18t-17.5 8h-172q-30 0 -55.5 9.5t-43.5 27t-28.5 40.5t-10.5 50v38q0 27 9.5 50t27.5 40t43.5 26.5t57.5 9.5h29v62h113v-62h133v-103h-274
q-10 0 -19 -10t-9 -19v-27q0 -10 11 -18.5t22 -8.5h164q70 0 104 -37.5t34 -91.5v-80zM478 271q0 38 -22.5 64.5t-70.5 26.5h-172q-32 0 -49.5 18t-17.5 44v37q0 26 20.5 44t46.5 18h238v22h-140v64h-21v-64h-75q-41 0 -66 -23.5t-25 -60.5v-38q0 -38 23 -61t68 -23h172
q34 0 51.5 -21.5t17.5 -47.5v-79q0 -34 -21.5 -49t-47.5 -15h-237v-22h140v-66h21v66h74q41 0 67 21t26 66v79z" />
    <glyph glyph-name="percent" unicode="%" horiz-adv-x="816" 
d="M305 -198h-116l326 847h115zM786 79q0 -33 -24 -56t-59 -23h-117q-35 0 -59.5 23t-24.5 56v112q0 16 6.5 30.5t18 25t27 17t32.5 6.5h117q17 0 32 -6.5t26.5 -17t18 -25t6.5 -30.5v-112zM325 271q0 -33 -24 -56t-59 -23h-117q-35 0 -59.5 23t-24.5 56v112q0 16 6.5 30.5
t18 25t27 17t32.5 6.5h117q17 0 32 -6.5t26.5 -17t18 -25t6.5 -30.5v-112zM752 191q0 24 -14.5 34.5t-34.5 10.5h-110q-29 0 -43 -18t-14 -37v-94q0 -19 14.5 -36t35.5 -17h117q20 0 34.5 14t14.5 37v106zM291 383q0 24 -14.5 34.5t-34.5 10.5h-110q-29 0 -43 -18t-14 -37
v-94q0 -19 14.5 -36t35.5 -17h117q20 0 34.5 14t14.5 37v106zM732 90q0 -22 -10 -30.5t-30 -8.5h-96q-16 0 -27.5 9.5t-11.5 29.5v90q0 16 9.5 27t29.5 11h96q26 0 33 -10.5t7 -27.5v-90zM270 282q0 -22 -9.5 -30.5t-29.5 -8.5h-96q-16 0 -28 9.5t-12 29.5v90q0 16 10 27
t30 11h96q26 0 32.5 -11t6.5 -27v-90zM547 609l-296 -768h23q3 7 16 41t32.5 84.5t43.5 114t49.5 129.5t50.5 131.5t46 120t36 93.5t21 54h-22zM236 372q0 5 -5 5h-96q-5 0 -5 -5v-90q0 -5 5 -5h96q5 0 5 5v90zM697 180q0 5 -5 5h-96q-5 0 -5 -5v-90q0 -5 5 -5h96q5 0 5 5
v90z" />
    <glyph glyph-name="ampersand" unicode="&#x26;" horiz-adv-x="587" 
d="M495 -5l-18.5 18.5t-9.5 10.5q-4 4 -5 6q-39 -30 -88 -30h-212q-67 0 -102 37t-35 93v80q0 62 19 105.5t70 75.5q-25 29 -34.5 56.5t-9.5 61.5v9q0 26 9.5 50t27.5 42.5t44 29.5t59 11h61q28 0 51 -10.5t39 -29t24.5 -42.5t8.5 -51v-9q0 -48 -29.5 -85.5t-76.5 -59.5
l111 -118v40h111v-148l70 -72zM519 64q-7 6 -16.5 15.5t-17.5 18.5l-20 22v127h-19v-109l-226 234q22 13 44.5 26.5t40.5 30.5t29.5 37.5t11.5 47.5v4q0 42 -24 67t-67 25h-45q-18 0 -35 -7.5t-30 -20t-20.5 -30t-7.5 -37.5v-5q0 -32 12.5 -57t29.5 -44l26 -30l-34 -20
q-25 -15 -40.5 -32t-24.5 -34.5t-12 -35.5t-3 -34v-93q0 -42 24 -64.5t68 -22.5h211q23 0 46.5 16.5t38.5 38.5q10 -11 18.5 -19.5l14.5 -14.5l13 -13zM442 111q-17 -20 -34 -33t-40 -13h-192q-17 0 -32 2.5t-26.5 10t-18 21.5t-6.5 37v98q0 38 25 66.5t58 48.5l24 14z
M386 112q-39 38 -75 74l-64.5 64.5t-56.5 58.5q-24 -9 -38.5 -29t-14.5 -46l1 -92q0 -22 11.5 -29.5t28.5 -7.5h190q5 0 9 2t9 5zM324 510q0 -18 -11 -36.5t-28.5 -35t-39 -29t-42.5 -18.5l-15 17q-26 29 -37 53t-11 47v12q0 13 6 25.5t15.5 22.5t22 16t25.5 6h48
q15 0 27 -6t21 -16t14 -22.5t5 -25.5v-10zM281 520q0 9 -7 16t-17 7h-48q-11 0 -18 -7.5t-7 -15.5v-12q0 -10 4.5 -20.5t10.5 -20.5t12.5 -18.5t11.5 -13.5q27 11 42.5 31t15.5 44v10z" />
    <glyph glyph-name="quotesingle" unicode="'" horiz-adv-x="174" 
d="M135 438h-103l-1 210h109zM71 608v-131h25q0 14 0.5 34.5t1 40.5t1 36t0.5 20h-28z" />
    <glyph glyph-name="parenleft" unicode="(" horiz-adv-x="306" 
d="M202 -105q-33 0 -58.5 10t-43.5 27t-27.5 40.5t-9.5 49.5v624q0 53 37.5 78.5t101.5 25.5h69v-104h-63q-14 0 -23 -8.5t-9 -18.5v-591q0 -10 9 -19t23 -9h63v-105h-69zM230 -40h-28q-38 0 -54 19.5t-16 48.5v589q0 29 16 48.5t54 19.5h28v22h-30q-45 0 -68 -25.5
t-23 -64.5v-589q0 -42 23 -66t68 -24h30v22z" />
    <glyph glyph-name="parenright" unicode=")" horiz-adv-x="306" 
d="M247 22q0 -26 -9.5 -49.5t-27.5 -40.5t-43.5 -27t-58.5 -10h-69v105h63q14 0 23 9t9 19v591q0 10 -9 18.5t-23 8.5h-63v104h69q64 0 101.5 -25.5t37.5 -78.5v-624zM201 617q0 39 -23 64.5t-68 25.5h-30v-22h28q38 0 54 -19.5t16 -48.5v-589q0 -29 -16 -48.5t-54 -19.5
h-28v-22h30q45 0 68 24t23 66v589z" />
    <glyph glyph-name="asterisk" unicode="*" horiz-adv-x="454" 
d="M409 466q-32 -9 -50 -14.5t-27 -7.5q-11 -4 -14 -4q2 -3 9 -11q6 -7 17.5 -21t31.5 -37l-90 -59q-21 25 -33 38.5t-18 21.5q-7 8 -9 11q-2 -3 -9 -11q-6 -7 -17 -20.5t-31 -37.5l-90 59q20 23 31.5 36.5t17.5 20.5q7 8 9 11q-4 0 -15 4q-10 2 -28 7.5t-50 14.5l37 94
q32 -10 50.5 -15.5t27.5 -8.5q11 -4 14 -4v83h110v-83q3 0 14 4q9 2 27.5 7.5t50.5 14.5zM351 511q-9 -3 -24 -7q-13 -4 -33.5 -9.5t-49.5 -13.5v96h-32v-97q-30 9 -50.5 15t-33.5 10q-15 4 -24 8l-8 -20q9 -3 24 -7q13 -4 34 -10t52 -14q-20 -23 -32.5 -38t-20.5 -25
q-10 -11 -15 -18l23 -15q5 7 14 18q8 9 20.5 24t30.5 37q18 -23 31 -38t21 -25q10 -11 15 -18l16 10t8 6l-68 80q30 9 51 15t34 10q15 4 24 7z" />
    <glyph glyph-name="plus" unicode="+" horiz-adv-x="600" 
d="M361 179v-163h-113v163h-186l1 103h185v163h113v-163h176v-103h-176zM498 243h-180v163h-28v-163h-188v-24h188v-164h28v164h180v24z" />
    <glyph glyph-name="comma" unicode="," horiz-adv-x="213" 
d="M132 -55h-94l30 160h112zM101 65q-4 -18 -7.5 -37t-8.5 -43h18l24 80h-26z" />
    <glyph glyph-name="hyphen" unicode="-" horiz-adv-x="454" 
d="M49 177v102h357v-102h-357zM366 239h-277v-22h277v22z" />
    <glyph glyph-name="period" unicode="." horiz-adv-x="210" 
d="M51 -1v104h113v-104h-113zM120 64h-24v-25h24v25z" />
    <glyph glyph-name="slash" unicode="/" horiz-adv-x="450" 
d="M117 -105h-116l330 855h115zM363 711l-300 -777h23l299 777h-22z" />
    <glyph glyph-name="zero" unicode="0" horiz-adv-x="600" 
d="M553 127q0 -26 -9 -49.5t-27 -40.5t-44 -27t-59 -10h-228q-33 0 -58.5 10t-43.5 27t-27.5 40.5t-9.5 49.5v395q0 26 10 49t28 40.5t43.5 27.5t57.5 10h228q65 0 102 -33.5t37 -93.5v-395zM508 515q0 43 -23 67t-68 24h-233q-45 0 -68 -26t-23 -65v-382q0 -42 23 -66
t68 -24h233q45 0 68 24t23 66v382zM485 133q0 -29 -16 -48.5t-54 -19.5h-229q-38 0 -54 19.5t-16 48.5v383q0 29 16 48.5t54 19.5h229q38 0 54 -19.5t16 -48.5v-383zM441 517q0 10 -9 19t-23 9h-217q-14 0 -23 -9t-9 -19v-384q0 -10 9 -19t23 -9h217q14 0 23 9t9 19v384z
" />
    <glyph glyph-name="one" unicode="1" horiz-adv-x="600" 
d="M244 0v648h112v-648h-112zM312 609h-22v-570h22v570z" />
    <glyph glyph-name="two" unicode="2" horiz-adv-x="600" 
d="M72 0v317q0 28 11 51t30 39t44 25t52 9h182q12 0 17.5 6.5t5.5 14.5v56q0 9 -6 18t-22 9h-184v103h193q24 0 47.5 -7.5t41.5 -22.5t29.5 -37.5t11.5 -53.5v-74q-1 -49 -34 -81t-89 -32h-187q-14 0 -23 -8.5t-9 -19.5v-207h345v-105h-456zM488 65h-348v247q0 28 17.5 46.5
t49.5 18.5h193q16 0 30.5 6t25.5 16.5t17.5 25t6.5 30.5v70q0 14 -5.5 28.5t-16 26t-26 19t-36.5 7.5h-155v-22h154q27 0 44.5 -18.5t17.5 -41.5v-60q0 -34 -18.5 -49.5t-43.5 -15.5h-186q-42 0 -66.5 -23t-24.5 -65v-268h370v22z" />
    <glyph glyph-name="three" unicode="3" horiz-adv-x="600" 
d="M543 129q0 -27 -9.5 -50.5t-27 -41t-43 -27.5t-58.5 -10h-349v105h341q18 0 26 9t8 19v206h-323v103h323v74q0 12 -9.5 20.5t-23.5 8.5h-342v103h349q36 0 62 -10t43 -27.5t25 -41t8 -50.5v-390zM497 519q0 38 -22 62t-70 24h-309v-22h304q15 0 28.5 -3t24 -11t16.5 -22
t6 -35v-106h-328v-28h328v-245q0 -28 -17 -48.5t-59 -20.5h-304v-21h310q48 0 70 24.5t22 61.5v390z" />
    <glyph glyph-name="four" unicode="4" horiz-adv-x="600" 
d="M511 178v-178h-112v178h-349v91l368 379h93v-362h39v-108h-39zM511 246h-45v363h-32q-60 -62 -107 -110t-82.5 -84.5t-61 -62.5t-42.5 -44q-40 -41 -52 -53v-32h354v-183h23v183h45v23zM111 246l332 342v-342h-332zM399 474l-181 -188h181v188z" />
    <glyph glyph-name="five" unicode="5" horiz-adv-x="600" 
d="M541 127q0 -29 -10.5 -52.5t-29.5 -40t-44 -25.5t-54 -9h-206q-33 0 -58.5 10t-43 27.5t-27 41t-9.5 50.5v79h112v-74q0 -12 8 -20.5t21 -8.5h198q14 0 22.5 8t8.5 20v178q0 11 -9.5 21.5t-22.5 10.5h-338v305h371v-105h-259v-97h232q36 0 62 -10t43 -27.5t25 -41
t8 -50.5v-190zM495 317q0 37 -23.5 62t-68.5 25h-276v180h264v22h-286v-225h292q43 0 59 -21t16 -49v-178q0 -20 -6 -33.5t-16 -21t-23.5 -10.5t-28.5 -3h-198q-38 -1 -55.5 19.5t-17.5 49.5v35h-22v-39q0 -38 22 -62.5t70 -24.5h206q42 0 67 22t25 62v190z" />
    <glyph glyph-name="six" unicode="6" horiz-adv-x="600" 
d="M551 130q0 -27 -9.5 -50.5t-26 -41.5t-40.5 -28t-52 -10h-235q-33 0 -59 10t-44 28t-27 41.5t-9 50.5v333q0 38 15.5 72t42 59t62.5 39.5t77 14.5h168v-107h-174q-30 0 -54 -16.5t-24 -45.5v-32h250q36 0 62 -10.5t43.5 -28.5t25.5 -42t8 -51v-185zM505 315
q0 38 -21.5 63t-71.5 25h-295v65q0 24 9.5 44.5t26.5 36.5t40.5 25t52.5 9h129v22h-126q-36 0 -64.5 -11t-48.5 -30t-30.5 -45t-10.5 -56v-333q0 -38 24 -63t68 -25h230q42 0 65 25t23 63v185zM483 127q0 -23 -17 -43t-54 -20h-218q-42 0 -59 20t-17 43v255h304
q29 0 45 -21.5t16 -50.5v-183zM438 310q0 15 -9.5 23.5t-22.5 8.5h-243v-206q0 -16 11.5 -24t19.5 -8h212q8 0 20 6.5t12 21.5v178z" />
    <glyph glyph-name="seven" unicode="7" horiz-adv-x="600" 
d="M549 558l-291 -558h-126l282 541h-363v108h498v-91zM510 605h-420v-21h400l-285 -545h25l280 536v30z" />
    <glyph glyph-name="eight" unicode="8" horiz-adv-x="600" 
d="M551 130q0 -54 -35 -92t-104 -38h-224q-69 0 -104 38t-35 92v171q0 36 18 66t47 40q-11 6 -15.5 16t-4.5 18v90q0 22 9 43.5t25.5 37.5t39.5 26t52 10h160q30 0 53.5 -10t39.5 -26t24.5 -37.5t8.5 -43.5v-86q0 -8 -3 -17t-13 -18q33 -14 47 -46.5t14 -68.5v-165zM506 308
q0 16 -4.5 31t-14 28t-24.5 21.5t-35 11.5q17 8 24.5 22t7.5 30v74q0 34 -21 57t-69 23h-140q-45 0 -67.5 -23t-22.5 -57v-74q0 -16 7.5 -30t24.5 -21q-17 -3 -31 -12t-24.5 -21.5t-16.5 -28t-6 -31.5v-178q0 -38 22 -63t71 -25h225q50 0 72 25t22 63v178zM438 464
q0 -23 -13.5 -41t-38.5 -18h-172q-25 0 -38.5 18t-13.5 41v59q0 23 13.5 42t44.5 19h154q35 0 49.5 -19t14.5 -42v-59zM483 134q0 -29 -17.5 -48.5t-58.5 -19.5h-214q-41 0 -58.5 19.5t-17.5 48.5v169q0 14 5 28t15 25t24 18t31 7h214q21 0 35.5 -7t23.5 -18t13.5 -25
t4.5 -28v-169zM394 517q0 28 -28 28h-132q-16 0 -22 -10t-6 -18v-53q0 -8 4 -13t16 -5h148q12 0 16 5t4 13v53zM439 309q0 12 -9.5 21t-22.5 9h-214q-13 0 -22.5 -9t-9.5 -21v-175q0 -12 9.5 -20.5t22.5 -8.5h214q13 0 22.5 8.5t9.5 20.5v175z" />
    <glyph glyph-name="nine" unicode="9" horiz-adv-x="600" 
d="M49 518q0 27 9.5 50.5t26 41.5t40 28t52.5 10h235q33 0 59 -10t44 -28t27 -41.5t9 -50.5v-333q0 -38 -15.5 -72t-42 -59t-62.5 -39.5t-77 -14.5h-168v107h174q30 0 54 16.5t24 45.5v32h-250q-36 0 -62 10.5t-43.5 28.5t-25.5 42t-8 51v185zM95 333q0 -38 21.5 -63
t71.5 -25h295v-65q0 -24 -9.5 -44.5t-26.5 -36.5t-40.5 -25t-52.5 -9h-129v-22h126q36 0 64.5 11t48.5 30t30.5 45t10.5 56v333q0 38 -24 63t-68 25h-230q-42 0 -65 -25t-23 -63v-185zM117 521q0 23 17 43t54 20h218q42 0 59 -20t17 -43v-255h-304q-29 0 -45 21.5t-16 50.5
v183zM162 338q0 -15 9.5 -23.5t22.5 -8.5h243v206q0 16 -11.5 24t-19.5 8h-212q-8 0 -20 -6.5t-12 -21.5v-178z" />
    <glyph glyph-name="colon" unicode=":" horiz-adv-x="204" 
d="M46 -1v104h113v-104h-113zM46 293v104h113v-104h-113zM115 358h-24v-25h24v25zM115 64h-24v-25h24v25z" />
    <glyph glyph-name="semicolon" unicode=";" horiz-adv-x="216" 
d="M71 105h111l-48 -160h-94zM74 293v104h113v-104h-113zM129 65h-26q-4 -18 -7.5 -37t-8.5 -43h18zM143 358h-24v-25h24v25z" />
    <glyph glyph-name="less" unicode="&#x3c;" horiz-adv-x="600" 
d="M531 352l-12.5 -5t-32.5 -13.5t-45.5 -18.5t-52.5 -21q-62 -26 -142 -57q79 -32 141 -58q27 -11 52.5 -21.5t45.5 -19t32 -13l12 -4.5v-124l-460 191v95q121 51 219 92q42 18 82.5 35t74 31t57 24t29.5 13v-126zM492 412q-102 -43 -184 -77q-35 -15 -69 -29t-62 -25.5
t-46.5 -19.5t-22.5 -10v-31q5 -2 32 -13t65.5 -27t83.5 -34.5t85.5 -35t72 -29.5t43.5 -18q0 14 -0.5 15.5t-0.5 9.5q-102 41 -181 74q-34 14 -66.5 27t-58 23.5t-41 17.5l-15.5 7q27 11 57 23q26 11 58.5 24.5t67.5 27.5l182 76v24z" />
    <glyph glyph-name="equal" unicode="=" horiz-adv-x="600" 
d="M513 207v-102h-426v102h426zM513 342v-102h-426v102h426zM126 302v-22h348v22h-348zM126 167v-22h348v22h-348z" />
    <glyph glyph-name="greater" unicode="&#x3e;" horiz-adv-x="600" 
d="M531 188l-460 -191v124l12 4.5t32 13t45 19t52 21.5l142 58q-81 31 -143 57q-27 11 -52.5 21t-45.5 18.5t-32 13.5l-12 5v126l462 -195v-95zM108 388l182 -76q34 -14 67 -27.5t58.5 -24t41.5 -17l16 -6.5l-15.5 -7t-41 -17.5t-58 -23.5t-66.5 -27q-80 -33 -181 -74
q0 -8 -0.5 -9.5t-0.5 -15.5l382 157v31q-5 2 -32.5 13.5t-66 28t-83.5 35t-86 35.5t-72.5 30.5t-43.5 18.5v-24z" />
    <glyph glyph-name="question" unicode="?" horiz-adv-x="528" 
d="M488 363q0 -70 -39 -104.5t-98 -34.5h-171v-15q0 -8 -0.5 -22t0.5 -36h-113v178h283q11 0 18.5 9t7.5 20v157q0 11 -8.5 20.5t-19.5 9.5h-282v103h280q39 0 66 -10.5t44 -29t24.5 -43.5t7.5 -55v-147zM441 510q0 45 -20.5 70.5t-74.5 25.5h-241v-22h245q26 0 47.5 -15
t21.5 -54v-157q0 -40 -21 -54.5t-48 -14.5h-237v-99h23v77h210q42 0 68.5 20t26.5 76v147zM66 1v106h112v-106h-112zM139 68h-34v-28h34v28z" />
    <glyph glyph-name="at" unicode="@" horiz-adv-x="774" 
d="M739 388q0 -47 -13 -88.5t-38 -73t-60.5 -50t-81.5 -18.5q-5 0 -17 1t-26 4.5t-27.5 9.5t-22.5 17q-47 -30 -114 -30h-34q-28 0 -51.5 9t-40.5 25t-26.5 38.5t-9.5 49.5q0 38 16.5 74t44 63.5t65 44.5t79.5 17h204q-5 -18 -8 -28.5t-5.5 -19.5t-5.5 -19t-7.5 -27.5
t-12 -45.5t-19.5 -72v-3q0 -14 10.5 -17.5t23.5 -3.5q19 0 33 13.5t23.5 34t14.5 44t5 43.5q0 44 -16 79t-44.5 59t-69.5 37t-90 13q-53 0 -103 -22t-89 -59t-63 -84t-24 -96q0 -50 16 -92t46 -73t71.5 -48t92.5 -17q19 0 45.5 4t56 12.5t60 22t57.5 33.5l2 1l78 -61l-3 -2
q-68 -51 -143 -77.5t-143 -26.5q-79 0 -141 22.5t-105 64.5t-66 102t-23 135q0 69 31.5 133t84 113.5t121 79.5t141.5 30q69 0 127.5 -20t101.5 -56.5t67.5 -87t24.5 -111.5zM420 631q-71 0 -134 -27.5t-109.5 -72.5t-73.5 -103t-27 -119q0 -72 23.5 -126t63 -90t93 -54.5
t113.5 -18.5q54 0 111.5 18t115.5 54q-2 2 -4.5 4t-4.5 4q-3 2 -4 4q-60 -35 -115.5 -50t-93.5 -15q-63 0 -115 19.5t-88.5 55t-56.5 84.5t-20 109q0 58 26.5 113t71.5 98t103.5 69.5t122.5 26.5q61 0 109.5 -18t82.5 -49t52.5 -73.5t18.5 -91.5q0 -37 -12 -73t-35 -65
q-18 -23 -44.5 -29t-42.5 -6q-6 0 -16.5 3t-20 9t-17 15.5t-7.5 23.5q0 10 4 19q17 61 25 94t13 48q4 18 6 20h-152q-36 0 -66 -13t-51 -34t-32.5 -48t-11.5 -56q0 -17 5.5 -33.5t16.5 -29t28 -20t40 -7.5h28q14 0 28 1t28.5 5t30.5 12.5t35 22.5q17 -25 38.5 -37t55.5 -12
q38 0 65.5 17.5t45 46t26 63t8.5 69.5q0 49 -18.5 93t-54.5 77.5t-88 53t-119 19.5zM493 362q-5 -20 -12 -44.5t-22.5 -46t-41 -36.5t-65.5 -15h-35q-33 0 -54.5 18t-21.5 52q-1 25 11 49t31 42.5t42 29.5t44 11h138zM369 388q-18 0 -35 -9.5t-30 -23.5t-21 -31.5t-8 -33.5
q0 -19 12.5 -27.5t29.5 -8.5h35q33 0 52.5 12t30 31t15.5 43l10 48h-91z" />
    <glyph glyph-name="A" unicode="A" horiz-adv-x="582" 
d="M546 0h-111v343h-283v-54q0 -24 0.5 -55t0.5 -63v-171h-112v519q0 27 10 50.5t28 41t43.5 27.5t56.5 10h368zM501 605h-322q-41 0 -66.5 -24.5t-25.5 -61.5v-480h23v342h367v-342h24v566zM110 403v109q0 14 3.5 27t12 22.5t23 15.5t36.5 6h292v-180h-367zM435 544h-250
q-14 0 -23.5 -10t-9.5 -22v-66h283v98z" />
    <glyph glyph-name="B" unicode="B" horiz-adv-x="586" 
d="M556 128q0 -57 -37 -92.5t-100 -35.5h-366v648h329q24 0 45 -9.5t37 -25t25 -35t9 -39.5v-71q0 -33 -19 -63q42 -23 59.5 -63t17.5 -84v-130zM512 257q0 54 -25.5 84.5t-72.5 53.5q39 28 39 73v61q0 16 -7 30t-18 24t-25.5 16t-30.5 6h-273v-562h320q40 0 66.5 22.5
t26.5 64.5v127zM488 133q0 -29 -17 -48.5t-47 -19.5h-303v316h234q27 0 51 -9.5t42.5 -26t29 -39.5t10.5 -49v-124zM444 256q0 36 -25.5 59t-63.5 23h-191v-234h248q14 0 23 8.5t9 20.5v123zM430 466q0 -25 -19.5 -44.5t-44.5 -19.5h-244v182h244q25 0 44.5 -18.5
t19.5 -42.5v-57zM386 520q0 15 -8 20t-17 5h-196v-102h201q8 0 14 7t6 16v54z" />
    <glyph glyph-name="C" unicode="C" horiz-adv-x="556" 
d="M530 127q0 -26 -9 -49.5t-27 -40.5t-44 -27t-59 -10h-227q-33 0 -58.5 10t-43.5 27t-27.5 40.5t-9.5 49.5v395q0 26 10 49t28 40.5t43.5 27.5t57.5 10h227q65 0 102 -33t37 -94v-61h-112v56q0 10 -8.5 19t-23.5 9h-216q-15 0 -23.5 -9t-8.5 -19v-384q0 -10 8.5 -19
t23.5 -9h216q15 0 23.5 9t8.5 19v59h112v-65zM485 153h-23v-20q0 -29 -16 -48.5t-54 -19.5h-228q-38 0 -54 19.5t-16 48.5v383q0 29 16 48.5t54 19.5h228q38 0 54 -19.5t16 -48.5v-16h23v15q0 43 -23 67t-68 24h-232q-45 0 -68 -25.5t-23 -65.5v-382q0 -42 23 -66t68 -24
h232q45 0 68 24t23 66v20z" />
    <glyph glyph-name="D" unicode="D" horiz-adv-x="583" 
d="M550 130q0 -32 -11 -56t-29.5 -40.5t-43.5 -25t-53 -8.5h-368v648h368q28 0 53 -7t43.5 -22.5t29.5 -40t11 -60.5v-388zM505 518q0 48 -25.5 68t-66.5 20h-322v-563h322q45 0 68.5 24.5t23.5 62.5v388zM482 134q0 -41 -22.5 -54.5t-52.5 -13.5h-294v518h294
q30 0 52.5 -14.5t22.5 -57.5v-378zM440 516q0 12 -9.5 20t-23.5 8l-251 1v-440h251q14 0 23.5 8.5t9.5 20.5v382z" />
    <glyph glyph-name="E" unicode="E" horiz-adv-x="548" 
d="M170 0q-32 0 -57.5 10t-43.5 28t-27.5 41.5t-9.5 50.5v388q0 27 9 50.5t26.5 41.5t43.5 28t59 10h352v-104h-347q-13 0 -21.5 -8.5t-8.5 -19.5v-70h323v-104h-323v-208q0 -11 8.5 -20t23.5 -9h345v-105h-352zM482 66h-305q-44 0 -60 20t-16 48v248h328v21h-328v109
q0 14 3.5 27t12 23t23 16t35.5 6h307v21h-312q-43 0 -67.5 -24.5t-24.5 -62.5v-388q0 -38 22 -62.5t70 -24.5h312v23z" />
    <glyph glyph-name="F" unicode="F" horiz-adv-x="476" 
d="M175 544q-13 0 -21.5 -8.5t-8.5 -19.5v-70h234v-104h-234v-342h-113v518q0 27 9 50.5t26.5 41.5t43.5 28t59 10h283v-104h-278zM413 605h-243q-43 0 -67.5 -24.5t-24.5 -62.5v-468h23v332h239v21h-239v109q0 14 3.5 27t12 23t23 16t35.5 6h238v21z" />
    <glyph glyph-name="G" unicode="G" horiz-adv-x="580" 
d="M545 130q0 -31 -11 -55t-29.5 -40.5t-44 -25.5t-53.5 -9h-229q-33 0 -58.5 10t-43 28t-27 41.5t-9.5 50.5v389q0 27 9 50.5t26.5 41t43.5 28t59 10.5h229q37 0 63.5 -10.5t43 -28t24 -41t7.5 -50.5v-57h-111v51q0 12 -9 22t-23 10h-218q-14 0 -23.5 -10t-9.5 -22l1 -379
q0 -12 9 -20.5t22 -8.5h219q13 0 22.5 8.5t9.5 20.5v62h-150v105h261v-171zM500 261h-176v-26h153v-101q0 -20 -6 -33.5t-16.5 -21t-24 -10.5t-28.5 -3h-219q-43 0 -58.5 19.5t-15.5 48.5v379q0 29 16 50t59 21h218q43 0 59 -21t16 -50v-12h23v18q0 38 -22.5 62t-70.5 24
h-229q-41 0 -67 -24t-26 -62v-389q0 -38 22.5 -62.5t70.5 -24.5h229q48 0 70.5 24.5t22.5 62.5v131z" />
    <glyph glyph-name="H" unicode="H" 
d="M446 0v116t0.5 86t0.5 60.5v39.5v37h-276v-339h-113v648h113v-202h276v35q0 21 -0.5 61t-0.5 106h113v-648h-113zM514 609h-22v-202h-366v202h-22v-570h22v340h366v-340h22v570z" />
    <glyph glyph-name="I" unicode="I" horiz-adv-x="276" 
d="M80 0v648h112v-648h-112zM148 609h-22v-570h22v570z" />
    <glyph glyph-name="J" unicode="J" horiz-adv-x="386" 
d="M321 129q0 -31 -11 -55t-29.5 -40.5t-44 -25t-54.5 -8.5h-171v105h165q14 0 23 8t9 21v515h113v-520zM276 609h-24v-475q0 -20 -6.5 -33.5t-17 -21.5t-24 -11.5t-28.5 -3.5h-126v-21h132q42 0 68 21t26 65v480z" />
    <glyph glyph-name="K" unicode="K" horiz-adv-x="604" 
d="M587 648q-57 -98 -89 -150.5t-47 -78.5l-21 -35q28 -10 51.5 -27.5t40 -40t25.5 -49t9 -55.5v-212h-111v212q0 16 -7 31t-19 25.5t-27.5 17t-32.5 6.5h-191v-292h-113v649h113v-252h137q3 5 20 33q14 24 44.5 74.5t86.5 143.5h131zM487 609l-145 -252h-218v251h-23v-56.5
v-102.5v-125v-125t-0.5 -103t-0.5 -57h24v295h243q25 0 47.5 -10t39 -26.5t26 -39t9.5 -46.5v-173h22v173q0 31 -11.5 57t-31 45t-45 30t-53.5 13l141 252h-24z" />
    <glyph glyph-name="L" unicode="L" horiz-adv-x="486" 
d="M56 0v648h112v-544h303v-104h-415zM432 64h-309v545h-22v-565l331 -1v21z" />
    <glyph glyph-name="M" unicode="M" horiz-adv-x="768" 
d="M608 0v517q0 10 -9 18.5t-23 8.5h-130v-544h-112v544h-162v-544h-113v649h523q35 0 61 -10t43 -27.5t25.5 -40.5t8.5 -49v-522h-112zM675 522q0 36 -24.5 60t-68.5 24h-476v-567h22v545h251v-545h23v545h174q15 0 28.5 -3.5t24 -11t17 -20.5t6.5 -32v-478h23v483z" />
    <glyph glyph-name="N" unicode="N" horiz-adv-x="624" 
d="M562 0h-111l-278 439v-439h-113l1 648h112l277 -440v440h112v-648zM517 609h-23v-551l-353 551h-35v-570h22v550l353 -550h36v570z" />
    <glyph glyph-name="O" unicode="O" 
d="M563 127q0 -26 -9 -49.5t-27 -40.5t-44 -27t-59 -10h-228q-33 0 -58.5 10t-43.5 27t-27.5 40.5t-9.5 49.5v395q0 26 10 49t28 40t43.5 27t57.5 10h228q65 0 102 -33t37 -93v-395zM518 515q0 42 -23 66.5t-68 24.5h-233q-45 0 -68 -26t-23 -65v-382q0 -42 23 -66t68 -24
h233q45 0 68 24t23 66v382zM495 133q0 -29 -16 -48.5t-54 -19.5h-229q-38 0 -54 19.5t-16 48.5v383q0 29 16 48.5t54 19.5h229q38 0 54 -19.5t16 -48.5v-383zM451 517q0 10 -9 19t-23 9h-217q-14 0 -23 -9t-9 -19v-384q0 -10 9 -19t23 -9h217q14 0 23 9t9 19v384z" />
    <glyph glyph-name="P" unicode="P" horiz-adv-x="576" 
d="M154 188v-190h-113v651h364q36 0 62.5 -10t43.5 -28t25 -41.5t8 -50.5v-331h-390zM498 519q0 38 -22 63t-71 25h-318v-569h23v192h388v289zM110 253v331h287q44 0 61 -18.5t17 -49.5v-263h-365zM431 516q0 14 -9.5 21.5t-22.5 7.5h-246v-253h278v224z" />
    <glyph glyph-name="Q" unicode="Q" horiz-adv-x="586" 
d="M543 129q0 -36 -17 -66t-55 -49q2 -2 10 -11q7 -8 21 -23.5t38 -43.5h-149q-20 23 -31 36t-16 19q-6 7 -7 9h-161q-32 0 -57.5 10.5t-43.5 28t-27.5 41.5t-9.5 51v386q0 27 8.5 51t26 41.5t43 28t60.5 10.5h229q36 0 62.5 -10t43 -27.5t24.5 -41.5t8 -52v-388zM498 517
q0 39 -23 64t-70 25h-229q-45 0 -69 -25.5t-24 -63.5v-386q0 -38 24 -63t69 -25h183l55 -68h24l-55 68q23 0 44 3t36.5 12.5t25 26.5t9.5 44v388zM475 134q0 -20 -6 -33.5t-16.5 -21.5t-24 -11t-28.5 -3h-35l-49 63h-24l50 -63h-160q-41 0 -58.5 20t-17.5 49v376
q0 15 3.5 28.5t12.5 24t23.5 16.5t36.5 6h218q23 0 37.5 -6t23 -16.5t11.5 -24t3 -28.5v-376zM432 510q0 13 -8 24t-24 11h-218q-18 0 -25 -11t-7 -24v-376q0 -13 9 -21t23 -8h66q-2 2 -8 10q-5 7 -15 19t-26 33h144q17 -23 27 -35.5t15 -18.5q5 -7 7 -8h8q14 0 23 8t9 21
v376z" />
    <glyph glyph-name="R" unicode="R" horiz-adv-x="600" 
d="M435 -1q-60 72 -93 110.5t-48 55.5l-21 23h-113v-188h-113v649h364q36 0 62.5 -10.5t43.5 -28t25 -41t8 -50.5v-331h-134q5 -4 23 -25q16 -18 48.5 -56.5t91.5 -107.5h-144zM504 519q0 38 -21 62.5t-72 24.5h-318v-567h23v191h183l161 -191h26q-15 17 -38 44
q-20 23 -51 59t-74 88h181v289zM116 252v332h289q43 0 59.5 -21t16.5 -50v-261h-365zM437 513q0 12 -9.5 22t-22.5 10h-245v-252h277v220z" />
    <glyph glyph-name="S" unicode="S" horiz-adv-x="572" 
d="M541 127q0 -26 -9 -49.5t-26.5 -40.5t-43 -27t-59.5 -10h-349v105h344q11 0 21 7t10 18v120q0 11 -7.5 17t-18.5 6h-237q-32 0 -57.5 10t-43.5 27t-28 40.5t-10 49.5v121q0 26 10 49t28 40.5t43.5 27.5t57.5 10h353v-104h-349q-10 0 -20 -8t-10 -19v-112q0 -10 9.5 -18.5
t20.5 -8.5h233q34 0 60 -10t43.5 -27t26 -40t8.5 -49v-125zM496 252q0 36 -24 61t-69 25h-239q-33 0 -50.5 18.5t-17.5 44.5v120q0 26 19 44t49 18h316v21h-314q-45 0 -69 -24.5t-24 -58.5v-121q0 -37 24 -60.5t69 -23.5h239q33 0 50.5 -19t17.5 -45v-127q0 -26 -19 -43.5
t-49 -17.5h-312v-21h310q46 0 69.5 23.5t23.5 60.5v125z" />
    <glyph glyph-name="T" unicode="T" horiz-adv-x="524" 
d="M317 540v-540h-113v540h-190v108h496v-108h-193zM470 605h-417v-20h197v-546h22v546h198v20z" />
    <glyph glyph-name="U" unicode="U" horiz-adv-x="576" 
d="M176 0q-33 0 -58.5 10t-43.5 27t-27.5 40t-9.5 49v523h113v-518q0 -11 9 -19t22 -8q90 -1 140 -1h74h33v546h112v-649h-364zM495 609h-23v-544h-291q-44 0 -60 19t-16 47v479h-23v-484q0 -36 23.5 -59.5t70.5 -23.5h319v566z" />
    <glyph glyph-name="V" unicode="V" horiz-adv-x="564" 
d="M334 0h-98l-233 649h125l155 -445l145 445h126zM465 609l-181 -544l-189 544h-25l197 -570h34l191 570h-27z" />
    <glyph glyph-name="W" unicode="W" horiz-adv-x="753" 
d="M174 0q-35 0 -61 10t-43.5 27t-26 40t-8.5 49v522h113v-516q0 -11 9 -19.5t23 -8.5h130v545h112v-545h162v544h112v-648h-522zM650 609h-22v-545h-251v545h-23v-545l-174 1q-15 0 -28.5 3t-24 11t-17 20.5t-6.5 32.5v477h-23v-483q0 -36 24.5 -60t68.5 -24h476v567z" />
    <glyph glyph-name="X" unicode="X" horiz-adv-x="560" 
d="M346 321l200 -321h-130l-135 216l-136 -216h-131l201 321l-204 327h132l138 -223l139 223h131zM448 609l-166 -267l-167 267h-28l181 -289l-175 -280h27l161 258l162 -258h27l-175 280l181 289h-28z" />
    <glyph glyph-name="Y" unicode="Y" horiz-adv-x="582" 
d="M360 176v-176h-112v176h-70q-32 0 -58 10t-44 27.5t-27.5 41t-9.5 50.5v343h114v-338q0 -11 7.5 -20.5t20.5 -9.5h248v368h113v-472h-182zM497 609h-23v-367h-290q-23 0 -38 5.5t-23.5 14.5t-12 21.5t-3.5 26.5v299h-23v-304q0 -37 23 -61.5t71 -24.5h114v-180h23v180
h182v390z" />
    <glyph glyph-name="Z" unicode="Z" horiz-adv-x="548" 
d="M26 0v97l346 443h-318v108h475v-103l-338 -440h338v-105h-503zM491 606h-397v-21h368l-396 -520v-24h424v22h-396l397 520v23z" />
    <glyph glyph-name="bracketleft" unicode="[" horiz-adv-x="348" 
d="M72 755h206v-107h-94v-648h94v-105h-207zM239 713h-121v-775h121v23h-98v730h98v22z" />
    <glyph glyph-name="backslash" unicode="\" horiz-adv-x="450" 
d="M1 750h115l330 -855h-116zM361 -66h23l-300 777h-22z" />
    <glyph glyph-name="bracketright" unicode="]" horiz-adv-x="348" 
d="M261 -105h-207v105h94v648h-94v107h206zM191 691v-730h-98v-23h121v775h-121v-22h98z" />
    <glyph glyph-name="asciicircum" unicode="^" horiz-adv-x="504" 
d="M308 651l191 -460h-124q-8 21 -18 44q-8 20 -18.5 45t-21.5 52l-58 142q-31 -81 -57 -143l-58 -142h-126l195 462h95zM108 228q42 102 75 182q14 34 28 67t24.5 58.5t17 41.5l6.5 16q12 -27 24 -57q11 -26 24 -58t27 -66q33 -80 74 -181q8 0 9.5 -0.5t15.5 -0.5l-157 382
h-31q-3 -5 -14 -32.5t-27.5 -66t-35 -83.5t-35.5 -86t-30.5 -72.5t-18.5 -43.5h24z" />
    <glyph glyph-name="underscore" unicode="_" horiz-adv-x="500" 
d="M0 -76h500v-101h-500v101zM39 -115v-23h422v23h-422z" />
    <glyph glyph-name="grave" unicode="`" horiz-adv-x="614" 
d="M176 628l108 69l114 -144l-84 -56zM274 644l-32 -22l79 -75l18 14z" />
    <glyph glyph-name="a" unicode="a" horiz-adv-x="614" 
d="M186 0q-33 0 -58.5 10t-43.5 27t-27.5 40.5t-9.5 49.5v208q0 26 10 49t28 40t43.5 27t57.5 10h368v-461h-368zM509 418h-325q-45 0 -68 -25.5t-23 -64.5v-195q0 -42 23 -66t68 -24h325v375zM186 65q-38 0 -54 19.5t-16 48.5v195q0 29 16 48.5t54 19.5h300v-331h-300z
M442 358h-250q-14 0 -23 -9t-9 -19v-197q0 -10 9 -19t23 -9h250v253z" />
    <glyph glyph-name="b" unicode="b" horiz-adv-x="608" 
d="M63 0v648h116v-187h252q63 0 97.5 -36t34.5 -91v-334h-500zM518 325q0 38 -21 65.5t-71 27.5h-292v186h-24v-561h408v282zM495 66h-361v330h286q42 0 58.5 -19.5t16.5 -48.5v-262zM450 331q0 11 -8 19t-20 8h-246v-253h274v226z" />
    <glyph glyph-name="c" unicode="c" horiz-adv-x="607" 
d="M563 127q0 -26 -9 -49.5t-27 -40.5t-44 -27t-59 -10h-227q-33 0 -58.5 10t-43.5 27t-27.5 40.5t-9.5 49.5v208q0 26 10 49t28 40t43.5 27t57.5 10h227q65 0 102 -33t37 -93v-51h-112v46q0 10 -9 19t-23 9h-216q-14 0 -23 -9t-9 -19v-197q0 -10 9 -19t23 -9h216q14 0 23 9
t9 19v49h112v-55zM518 143h-23v-10q0 -29 -16 -48.5t-54 -19.5h-228q-38 0 -54 19.5t-16 48.5v195q0 29 16 48.5t54 19.5h228q38 0 54 -19.5t16 -48.5v-5h23v5q0 42 -23 66t-68 24h-232q-45 0 -68 -25.5t-23 -64.5v-195q0 -42 23 -66t68 -24h232q45 0 68 24t23 66v10z" />
    <glyph glyph-name="d" unicode="d" horiz-adv-x="608" 
d="M53 0v334q0 55 34.5 91t97.5 36h251v187h117v-648h-500zM506 604h-24v-186h-291q-50 0 -71.5 -27.5t-21.5 -65.5v-282h408v561zM121 66l-1 262q0 29 16.5 48.5t58.5 19.5l287 1v-331h-361zM439 358l-246 1q-11 0 -19.5 -8.5t-8.5 -19.5v-226h274v253z" />
    <glyph glyph-name="e" unicode="e" 
d="M170 202v-68q0 -12 10 -20t24 -8h352v-106h-363q-30 0 -55 10t-43 27t-28 39.5t-10 48.5v210q0 26 10.5 49t29 40t43 27t52.5 10h231q60 0 98.5 -31.5t38.5 -95.5v-132h-390zM516 65h-315q-43 0 -59 20t-16 49v105h388v89q0 44 -24 67.5t-67 23.5h-230q-41 0 -65.5 -25
t-24.5 -61v-208q0 -35 24.5 -58.5t64.5 -23.5h324v22zM126 262v65q0 29 16.5 49t58.5 20h213q31 0 54.5 -14.5t23.5 -54.5v-65h-366zM448 327q0 13 -10 21.5t-24 8.5h-210q-14 0 -24 -8.5t-10 -21.5v-27h278v27z" />
    <glyph glyph-name="f" unicode="f" horiz-adv-x="404" 
d="M209 545q-13 0 -22 -10t-9 -22v-53h145v-103h-145v-357h-113v519q0 27 10 50.5t28 41.5t43.5 28t56.5 10h214v-104h-208zM378 607h-175q-41 0 -66.5 -25t-25.5 -63v-480h24v358h149v22h-149v94q0 29 16 50.5t58 21.5h169v22z" />
    <glyph glyph-name="g" unicode="g" horiz-adv-x="608" 
d="M552 -59q0 -27 -9 -50.5t-26.5 -41t-43 -28t-59.5 -10.5h-227v105h221q13 0 22 9t9 21v54h-255q-33 0 -58.5 10t-43.5 27t-27.5 40.5t-9.5 49.5v208q0 26 10 49t28 40t43.5 27t57.5 10h368v-520zM507 419q-54 0 -87.5 -0.5t-55.5 -0.5h-37.5h-33.5h-43.5h-67.5
q-45 0 -68 -25.5t-23 -64.5v-195q0 -42 23 -66t68 -24h302v-94q0 -38 -17.5 -55t-52.5 -17h-188v-22h188q48 0 70.5 24t22.5 62v478zM184 65q-38 0 -54 19.5t-16 48.5v195q0 29 16 48.5t54 19.5h66.5h43h31.5h33.5t48.5 0.5t77 0.5v-332h-300zM440 357q-35 0 -55.5 0.5
t-35 0.5h-26.5h-28h-40.5h-64.5q-14 0 -23 -9t-9 -19v-197q0 -10 9 -19t23 -9h250v252z" />
    <glyph glyph-name="h" unicode="h" horiz-adv-x="604" 
d="M442 0v331q0 11 -8 19t-20 8h-246v-358h-113v648h116v-187h252q63 0 97.5 -36t34.5 -91v-334h-113zM510 325q0 38 -21 65.5t-71 27.5h-292v186h-24v-561h24v354h286q42 0 58.5 -20t16.5 -49v-285h23v282z" />
    <glyph glyph-name="i" unicode="i" horiz-adv-x="256" 
d="M74 0v461h112v-461h-112zM75 542v107h112v-107h-112zM142 422h-23v-383h23v383zM142 609h-23v-28h23v28z" />
    <glyph glyph-name="j" unicode="j" horiz-adv-x="267" 
d="M195 -57q0 -27 -9 -51t-26.5 -42t-43.5 -28.5t-59 -10.5h-68v107h62q14 0 23 7.5t9 21.5v515h112v-519zM151 422h-22v-474q0 -29 -16 -50.5t-62 -21.5h-23v-22h29q49 0 71.5 25.5t22.5 63.5v479zM81 542v107h112v-107h-112zM148 609h-23v-28h23v28z" />
    <glyph glyph-name="k" unicode="k" horiz-adv-x="618" 
d="M444 284q30 -10 52 -27.5t36 -40t21 -48.5t7 -53v-115h-112v115q0 32 -24.5 55t-59.5 23h-191v-193h-113v648h113v-351h145l138 164h140zM515 118q0 60 -40 98.5t-106 38.5l143 167h-33l-141 -167l-209 -1v355h-22v-570h22v194h235q59 0 93.5 -34.5t34.5 -83.5v-76h23v79
z" />
    <glyph glyph-name="l" unicode="l" horiz-adv-x="296" 
d="M202 0q-32 0 -57.5 10t-43.5 28t-27.5 41.5t-9.5 50.5l1 518h112v-515q0 -13 8.5 -20.5t22.5 -7.5h62v-105h-68zM231 64h-23q-38 0 -56.5 20t-18.5 49v476h-23v-479q0 -38 23.5 -63t68.5 -25h29v22z" />
    <glyph glyph-name="m" unicode="m" horiz-adv-x="752" 
d="M600 0v329q0 11 -9 19.5t-23 8.5h-130v-357h-112v357h-162v-357h-113v461h523q35 0 61 -10t43 -27.5t25.5 -40.5t8.5 -49v-334h-112zM667 334q0 37 -24.5 61t-68.5 24h-476v-380h22v358h251v-358h23v358l174 -1q15 0 28.5 -3t24 -11t17 -21t6.5 -32v-290h23v295z" />
    <glyph glyph-name="n" unicode="n" 
d="M455 0v329q0 12 -9 20t-23 8h-245v-357h-113v461h364q36 0 62 -10t43 -27.5t25.5 -40.5t8.5 -49v-334h-113zM522 334q0 36 -24 60t-69 24h-319v-379h23v358h290q41 0 58.5 -19.5t17.5 -48.5v-290h23v295z" />
    <glyph glyph-name="o" unicode="o" horiz-adv-x="624" 
d="M569 127q0 -26 -9 -49.5t-27 -40.5t-44 -27t-59 -10h-228q-33 0 -58.5 10t-43.5 27t-27.5 40.5t-9.5 49.5v208q0 26 10 49t28 40t43.5 27t57.5 10h228q65 0 102 -33t37 -93v-208zM524 328q0 42 -23 66t-68 24h-233q-45 0 -68 -25.5t-23 -64.5v-195q0 -42 23 -66t68 -24
h233q45 0 68 24t23 66v195zM501 133q0 -29 -16 -48.5t-54 -19.5h-229q-38 0 -54 19.5t-16 48.5v195q0 29 16 48.5t54 19.5h229q38 0 54 -19.5t16 -48.5v-195zM457 330q0 10 -9 19t-23 9h-217q-14 0 -23 -9t-9 -19v-197q0 -10 9 -19t23 -9h217q14 0 23 9t9 19v197z" />
    <glyph glyph-name="p" unicode="p" horiz-adv-x="592" 
d="M158 0v-190h-113v651h364q36 0 62.5 -10t43.5 -28t25 -41.5t8 -50.5v-331h-390zM502 331q0 38 -22 63t-71 25h-318v-569h23v192h388v289zM114 64v332h287q44 0 61 -18.5t17 -49.5v-264h-365zM435 328q0 14 -9.5 21.5t-22.5 7.5h-246v-253h278v224z" />
    <glyph glyph-name="q" unicode="q" horiz-adv-x="592" 
d="M435 -190v190h-390v331q0 27 8 50.5t25 41.5t43 28t62 10h365v-651h-113zM501 419h-318q-48 0 -70.5 -25t-22.5 -63v-289h388v-192h23v569zM113 64v264q0 31 17.5 49.5t60.5 18.5h287v-332h-365zM435 357h-246q-12 0 -21.5 -7.5t-9.5 -21.5v-224h277v253z" />
    <glyph glyph-name="r" unicode="r" horiz-adv-x="348" 
d="M215 357q-13 0 -22 -8.5t-9 -19.5v-329h-113v335q0 26 10.5 49t29 40t43.5 27t55 10h138v-104h-132zM308 418h-99q-41 0 -66.5 -24t-25.5 -65v-290h23v290q0 28 16 47.5t56 19.5h96v22z" />
    <glyph glyph-name="s" unicode="s" horiz-adv-x="622" 
d="M577 127q0 -26 -9 -49.5t-26.5 -40.5t-43 -27t-59.5 -10h-349v105h344q11 0 21 7t10 18v24q0 11 -7.5 17t-18.5 6h-237q-32 0 -57.5 10t-43.5 27t-28 40.5t-10 49.5v30q0 26 10 49t28 40.5t43.5 27.5t57.5 10h351v-104h-347q-10 0 -20 -7.5t-10 -19.5v-21
q0 -10 9.5 -18.5t20.5 -8.5h233q34 0 60 -10t43.5 -27t26 -40t8.5 -49v-29zM532 156q0 36 -24 61.5t-69 25.5h-239q-33 0 -50.5 18t-17.5 44v29q0 26 19 44.5t49 18.5h314v21h-312q-45 0 -69 -24.5t-24 -59.5v-30q0 -36 24 -59.5t69 -23.5h239q33 0 50.5 -19.5t17.5 -45.5
v-31q0 -26 -19 -43.5t-49 -17.5h-312v-21h310q46 0 69.5 23.5t23.5 60.5v29z" />
    <glyph glyph-name="t" unicode="t" horiz-adv-x="288" 
d="M180 358v-358h-112v648h112v-186h95v-104h-95zM236 418h-100v191h-22v-570h22v357h100v22z" />
    <glyph glyph-name="u" unicode="u" 
d="M193 0q-33 0 -58.5 10t-43.5 27t-27.5 40t-9.5 49v335h113v-330q0 -11 9 -19t22 -8q90 -1 140 -1h74h33v357h112v-460h-364zM512 421h-23v-356h-291q-44 0 -60 19t-16 47v290h-23v-295q0 -36 23.5 -59.5t70.5 -23.5h319v378z" />
    <glyph glyph-name="v" unicode="v" horiz-adv-x="552" 
d="M328 0h-95l-217 462h125q25 -56 44 -98.5t33.5 -74.5t24.5 -54.5t17 -37.5q16 -35 19 -43q3 8 19 43q6 15 16 37.5t24 54.5t33 74.5t43 98.5h126zM451 422l-171 -361l-173 361h-24l181 -383h31l181 383h-25z" />
    <glyph glyph-name="w" unicode="w" horiz-adv-x="752" 
d="M190 0q-35 0 -61 10t-43.5 27t-26 40t-8.5 49v335h113v-329q0 -11 9 -19.5t23 -8.5h130v357h112v-357h162v357h112v-461h-522zM666 422h-22v-358h-251v358h-23v-358l-174 1q-15 0 -28.5 3t-24 11t-17 20.5t-6.5 32.5v290h-23v-296q0 -36 24.5 -60t68.5 -24h476v380z" />
    <glyph glyph-name="x" unicode="x" horiz-adv-x="584" 
d="M568 461q-77 -86 -119.5 -133t-61.5 -69q-23 -26 -27 -30q4 -4 27 -30q10 -11 24.5 -27.5t36.5 -40.5t51 -56.5t67 -74.5h-147l-132 147l-3.5 -3.5t-16.5 -18t-40 -44t-74 -81.5h-147q76 84 118 130.5t62 68.5q23 26 28 30q-5 4 -28 30q-20 22 -62 69t-118 133h146
l135 -151l3 4t16.5 19t41 45t75.5 83h145zM473 39q-18 19 -44 47q-22 24 -54 59.5t-75 83.5q44 48 76 84.5t53 60.5l42 48h-25q-8 -10 -28 -32q-17 -19 -48.5 -53.5t-82.5 -91.5q-51 57 -82.5 91.5t-48.5 53.5q-20 22 -29 32h-25l42 -48q21 -24 53 -60.5t76 -84.5
q-44 -48 -75.5 -83.5t-53.5 -59.5q-26 -28 -43 -47h30q8 10 27 32q17 19 47.5 53t81.5 90q50 -56 80 -90t47 -53q19 -22 28 -32h31z" />
    <glyph glyph-name="y" unicode="y" horiz-adv-x="605" 
d="M558 -59q0 -27 -9 -50.5t-26.5 -41t-43 -28t-59.5 -10.5h-227v105h221q13 0 22 9t9 21v54h-255q-33 0 -58.5 10t-43.5 27t-27.5 40.5t-9.5 49.5v334h113v-328q0 -10 9 -19t23 -9h250v356h112v-520zM513 421h-23v-356h-300q-38 0 -54 19.5t-16 48.5v288h-23v-288
q0 -42 23 -66t68 -24h302v-94q0 -38 -17.5 -55t-52.5 -17h-188v-22h188q48 0 70.5 24t22.5 62v480z" />
    <glyph glyph-name="z" unicode="z" horiz-adv-x="542" 
d="M26 0v100q101 86 160 136.5t90 77t40.5 34.5t10.5 9h-300v104h473v-90l-299 -267h299v-104h-474zM461 42q1 6 1 10v7.5t-1 5.5h-374l374 330v23h-394v-21h366l-368 -322v-33h396z" />
    <glyph glyph-name="braceleft" unicode="{" horiz-adv-x="383" 
d="M242 455q0 -37 -16 -72t-45 -61q29 -26 45 -60.5t16 -72.5v-162q0 -11 9 -22t21 -11h64v-103h-68q-35 0 -61 10.5t-43.5 28t-26 41.5t-8.5 51v77v57t-2 34q-3 15 -9 29t-18 25t-31 18t-48 8v106q56 0 83 28q17 18 21.5 44.5t4.5 56.5v58t-1 58q-1 26 9.5 49.5t29.5 42.5
q20 20 45.5 29.5t54.5 9.5h68v-105q-21 0 -34.5 0.5t-22 0t-13.5 -2t-10 -5.5q-7 -5 -10.5 -11.5t-3.5 -12.5v-161zM196 616q0 14 7.5 27.5t19 24t25 16.5t25.5 6h23v19h-19q-18 0 -36 -7t-32.5 -19t-23 -28.5t-8.5 -35.5v-138q0 -25 -5 -48.5t-17.5 -43.5t-33.5 -34
t-52 -20v-27q33 -6 53.5 -19.5t32 -30t15.5 -33t4 -28.5q0 -7 -0.5 -35t-0.5 -59v-81q0 -38 23 -63.5t65 -25.5h35v24h-28q-21 0 -35 5.5t-22.5 15.5t-11.5 22.5t-3 26.5v161q0 50 -28 87t-76 45q19 4 38 17.5t33.5 33.5t23.5 45t9 52v148z" />
    <glyph glyph-name="bar" unicode="|" horiz-adv-x="239" 
d="M74 -201v950h104v-950h-104zM115 -162h23v872h-23v-872z" />
    <glyph glyph-name="braceright" unicode="}" horiz-adv-x="383" 
d="M135 616q0 6 -4 12.5t-10 11.5q-5 4 -10 5.5t-13.5 2t-22 0t-34.5 -0.5v105h68q29 0 54 -9.5t45 -29.5q19 -19 29.5 -42.5t9.5 -49.5q-1 -29 -1 -58v-58q0 -30 4.5 -56.5t22.5 -44.5q25 -28 82 -28l1 -106q-30 -1 -49 -8t-31 -18t-18 -25t-9 -29q-2 -7 -2 -34v-57v-77
q0 -27 -8.5 -51t-25.5 -41.5t-43 -28t-61 -10.5h-68v103h63q13 0 22 11t9 22v162q0 38 15.5 72.5t44.5 60.5q-29 26 -44.5 61t-15.5 72v161zM180 468q0 -27 9 -52t24 -45t33.5 -33.5t38.5 -17.5q-48 -8 -76.5 -45t-28.5 -87v-161q0 -14 -3 -26.5t-11.5 -22.5t-22.5 -15.5
t-35 -5.5h-28v-24h36q42 0 64.5 25.5t22.5 63.5v175q0 12 4 28.5t15 33t32 30t54 19.5q0 5 -0.5 12t0.5 15q-32 6 -53 20t-33 34t-17 43.5t-5 48.5v138q0 19 -9 35.5t-23 28.5t-32 19t-37 7h-19v-19h24q12 0 25.5 -6t24.5 -16.5t18.5 -24t7.5 -27.5v-148z" />
    <glyph glyph-name="asciitilde" unicode="~" horiz-adv-x="512" 
d="M383 293q-8 -6 -20 -13t-27.5 -10t-34 1t-39.5 19q-20 14 -33 23.5t-21 15.5q-10 7 -15 12q-5 -4 -16 -13q-10 -8 -27 -22.5t-44 -37.5l-85 64l102 89q58 51 120 10q22 -15 37 -24.5t24 -15.5q11 -7 17 -11q6 5 17 15q9 8 24 20.5t38 32.5l98 -58zM433 387q-10 6 -18 11
t-8 6q-3 -3 -14 -12q-9 -8 -26.5 -22t-46.5 -37l-107 71q-17 11 -29 9t-35 -22l-65 -56l21 -17l80 70q38 -26 60 -40.5t34 -22.5q14 -9 19 -12q16 -11 28.5 -8t31.5 18q19 16 32.5 28t23.5 20q11 10 19 16z" />
    <glyph glyph-name="exclamdown" unicode="&#xa1;" horiz-adv-x="256" 
d="M179 311v-497h-113v497h113zM180 462v-107h-113v107h113zM109 -147h22v419h-22v-419zM110 394h22v28h-22v-28z" />
    <glyph glyph-name="cent" unicode="&#xa2;" horiz-adv-x="600" 
d="M242 -135v135h-56q-33 0 -58.5 10t-43.5 27t-27.5 40.5t-9.5 49.5v208q0 26 10 49t28 40t43.5 27t57.5 10h56v135h104v-135h67q65 0 102 -33t37 -93v-51h-112v46q0 10 -9 19t-23 9h-62v-253h62q14 0 23 9t9 19v49h112v-55q0 -26 -9 -49.5t-27 -40.5t-44 -27t-59 -10h-67
v-135h-104zM306 43h110q45 0 68 24t23 66v10h-23v-10q0 -29 -16 -48.5t-54 -19.5h-108v331h108q38 0 54 -19.5t16 -48.5v-5h23v5q0 42 -23 66t-68 24h-110v139h-23v-139h-99q-45 0 -68 -25.5t-23 -64.5v-195q0 -42 23 -66t68 -24h99v-139h23v139zM186 65q-38 0 -54 19.5
t-16 48.5v195q0 29 16 48.5t54 19.5h97v-331h-97zM160 133q0 -10 9 -19t23 -9h50v253h-50q-14 0 -23 -9t-9 -19v-197z" />
    <glyph glyph-name="sterling" unicode="&#xa3;" horiz-adv-x="600" 
d="M453 461v60q0 11 -8 17.5t-19 6.5h-182q-11 0 -18.5 -10.5t-7.5 -21.5v-133h144v-104h-145v-170h239v-106h-421v106h71v420q0 21 8.5 42.5t25.5 39.5t42.5 29t60.5 11h179q41 0 68.5 -11t44 -30t23.5 -44.5t7 -53.5v-48h-112zM521 509q0 21 -5 38.5t-16.5 30.5
t-30.5 20.5t-47 7.5h-183q-23 0 -39.5 -7.5t-27 -20t-15.5 -28.5t-5 -33v-452h-78v-21h343v21h-244v254h149v22h-148v172q0 28 15 49.5t55 21.5h173q47 0 63 -21.5t16 -49.5v-13h25v9z" />
    <glyph glyph-name="currency" unicode="&#xa4;" horiz-adv-x="684" 
d="M534 319q0 -26 -7 -50t-19 -45q15 -14 32.5 -31.5l38.5 -38.5l-73 -73q-22 22 -40 39.5t-34 32.5q-39 -21 -89 -21q-45 0 -86 19l-74 -74l-80 80l72 72q-23 40 -23 90q0 49 23 90l-72 74l73 72q21 -22 39.5 -40t33.5 -33q20 11 44 17.5t50 6.5q49 0 88 -21l70 70l80 -80
l-69 -69q22 -41 22 -87zM523 478l-20 20l-69 -67q-19 14 -42 22.5t-49 8.5q-28 0 -52.5 -9t-43.5 -26q-22 21 -35.5 35.5t-21.5 22.5q-10 10 -14 15l-17 -17q4 -5 14 -15q8 -8 21.5 -22.5t35.5 -35.5q-16 -19 -25 -42t-9 -49q0 -29 9.5 -51.5t28.5 -42.5l-74 -70l20 -20
l72 73q20 -17 41.5 -24.5t49.5 -7.5q51 0 90 30q22 -21 36 -34t22 -21q10 -9 15 -14q6 5 8.5 7.5t8.5 9.5l-71 68q17 19 27.5 45t10.5 52t-9 50.5t-24 42.5zM454 318q0 -23 -9 -42.5t-24.5 -34.5t-36 -23.5t-43.5 -8.5q-24 0 -44.5 8.5t-35.5 23.5t-24 34.5t-9 42.5t9 43
t24 35t35.5 24t44.5 9q23 0 43.5 -9t36 -24t24.5 -35t9 -43zM406 318q0 26 -19 44.5t-46 18.5t-46 -18.5t-19 -44.5t19 -43.5t46 -17.5t46 17.5t19 43.5z" />
    <glyph glyph-name="yen" unicode="&#xa5;" horiz-adv-x="600" 
d="M363 282v-16h165v-91h-165v-28h165v-94h-165v-53h-111v53h-174v94h174v28h-173v91h173v16h-61q-32 0 -57.5 10t-43.5 27.5t-27.5 41t-9.5 50.5v237h114l-1 -232q0 -12 9.5 -21.5t21.5 -9.5h237v262h112v-365h-183zM501 610h-23v-264h-282q-43 0 -58.5 20t-15.5 49v195
h-23v-200q0 -38 21.5 -62t69.5 -24h106v-94h-183l-1 -21h184v-96h-186v-23h186v-50h24q0 6 -0.5 19t-0.5 30h168v24h-167v96h167v21h-167v94h181v286z" />
    <glyph glyph-name="brokenbar" unicode="&#xa6;" horiz-adv-x="239" 
d="M74 -201v442h104v-442h-104zM74 308v442h104v-442h-104zM115 347h23v364h-23v-364zM115 -162h23v364h-23v-364z" />
    <glyph glyph-name="section" unicode="&#xa7;" horiz-adv-x="421" 
d="M398 123q0 -30 -12 -53t-30.5 -38.5t-40 -23t-40.5 -7.5h-220v104h232v104h-130q-19 0 -40 7.5t-39 24.5t-30 44t-12 65v234q0 19 7 41t23.5 41t43 31.5t65.5 12.5h204v-104h-231v-99h118q19 0 42 -5.5t43 -19.5t33.5 -38.5t13.5 -61.5v-259zM353 384q0 25 -10.5 41
t-25 24.5t-30.5 11.5t-26 3h-156v123q0 20 17 39.5t55 19.5h163v20h-175q-11 0 -25 -4.5t-26.5 -14.5t-21.5 -25.5t-9 -37.5v-244q0 -11 3 -26t12.5 -29t27.5 -24t48 -10h156v-121q0 -21 -7 -34t-17 -19.5t-21 -9t-18 -2.5h-173v-22h172q27 0 43.5 9t26.5 22.5t13.5 28
t3.5 25.5v256zM330 273h-141h-20t-28 6.5t-25 22t-11 46.5v94h154q32 0 51.5 -17t19.5 -43v-109zM287 403h-139v-90h138z" />
    <glyph glyph-name="dieresis" unicode="&#xa8;" horiz-adv-x="604" 
d="M133 542v107h112v-107h-112zM200 609h-23v-28h23v28zM377 542v107h111v-107h-111zM444 609h-23v-28h23v28z" />
    <glyph glyph-name="copyright" unicode="&#xa9;" horiz-adv-x="749" 
d="M731 324q0 -72 -28 -135t-76.5 -110t-113.5 -74.5t-139 -27.5t-139 27.5t-113.5 74.5t-76.5 110t-28 135t28 135t76.5 110.5t113.5 74.5t139 27t139 -27t113.5 -74.5t76.5 -110.5t28 -135zM689 324q0 63 -25 119t-67.5 97.5t-100 65.5t-122.5 24t-122.5 -24t-100.5 -65.5
t-67.5 -97.5t-24.5 -119t24.5 -118.5t67.5 -97t100.5 -65.5t122.5 -24t122.5 24t100 65.5t67.5 97t25 118.5zM670 324q0 -60 -23.5 -112.5t-63.5 -91.5t-94 -61.5t-115 -22.5t-115 22.5t-94 61.5t-63.5 91.5t-23.5 112.5t23.5 112.5t63.5 92t94 62t115 22.5t115 -22.5
t94 -62t63.5 -92t23.5 -112.5zM628 324q0 51 -20 96t-54.5 78.5t-81 53t-98.5 19.5q-53 0 -99 -19.5t-80 -53t-54 -78.5t-20 -96t20 -95.5t54 -77.5t80 -52.5t99 -19.5q52 0 98.5 19.5t81 52.5t54.5 77.5t20 95.5zM540 258q0 -18 -6 -34.5t-19 -30.5q-30 -30 -71 -30h-146
q-20 0 -37.5 7.5t-30 20t-20 29.5t-7.5 36v143q0 19 7.5 36t20 29.5t30 20t37.5 7.5h146q40 0 68 -26.5t28 -67.5v-40h-86v37q0 12 -13 12h-139q-13 0 -13 -12v-135q0 -11 13 -11h139q13 0 13 11v42h86v-44zM488 269v-16q0 -20 -14 -29t-33 -9h-139q-19 0 -32.5 13t-13.5 32
v135q0 19 13.5 32t32.5 13h139q19 0 33 -9t14 -28v-12h19v10q0 25 -17 41.5t-46 16.5h-146q-26 0 -44 -17.5t-18 -42.5v-143q0 -24 18 -41.5t44 -17.5h146q29 0 46 16.5t17 41.5v14h-19z" />
    <glyph glyph-name="ordfeminine" unicode="&#xaa;" horiz-adv-x="374" 
d="M140 363q-52 0 -81 29.5t-29 71.5v92q0 41 29.5 70t80.5 29h204v-292h-204zM308 621h-169q-35 0 -53.5 -20t-18.5 -51v-82q0 -33 18.5 -52t53.5 -19h169v224zM140 414q-30 0 -43 15.5t-13 38.5v82q0 23 13 38t43 15h151v-189h-151zM255 573h-111q-11 0 -18 -7t-7 -15v-83
q0 -8 7 -15t18 -7h111v127z" />
    <glyph glyph-name="guillemotleft" unicode="&#xab;" horiz-adv-x="460" 
d="M369 7q-39 43 -64.5 70t-40 43t-21 23t-8.5 9t-2 1.5t-1 0.5q-23 25 -21.5 49.5t24.5 49.5l135 143l8.5 -8.5t8 -7.5t17.5 -17t38 -37q-36 -39 -58.5 -63.5t-35.5 -38.5q-15 -16 -21 -23q6 -7 21 -23q13 -14 35.5 -38.5t58.5 -62.5zM189 7q-39 43 -64.5 70t-40 43t-21 23
t-8.5 9.5t-2 2t-1 1.5q-23 25 -21.5 48.5t24.5 48.5l135 143l8.5 -8.5t8 -7.5t17.5 -17t38 -37q-36 -39 -58.5 -63.5t-35.5 -38.5q-15 -16 -21 -23q6 -7 21 -23q13 -14 35.5 -38.5t58.5 -62.5zM385 324q-3 3 -4 4.5t-3 2.5q-1 2 -6 7l-107 -113q-12 -14 -12 -23
q0 -10 13 -23l105 -114l14 13l-114 123zM205 324q-3 3 -4 4.5t-3 2.5q-1 2 -6 7l-107 -113q-12 -14 -12 -23q0 -10 13 -23l105 -114l14 13l-114 123z" />
    <glyph glyph-name="logicalnot" unicode="&#xac;" horiz-adv-x="500" 
d="M30 302h440v-242h-101v141h-339v101zM431 263h-362v-23h339v-141h23v164z" />
    <glyph glyph-name="sfthyphen" unicode="&#xad;" horiz-adv-x="454" 
d="M49 177v102h357v-102h-357zM366 239h-277v-22h277v22z" />
    <glyph glyph-name="registered" unicode="&#xae;" horiz-adv-x="749" 
d="M731 324q0 -72 -28 -135t-76.5 -110t-113.5 -74.5t-139 -27.5t-139 27.5t-113.5 74.5t-76.5 110t-28 135t28 135t76.5 110.5t113.5 74.5t139 27t139 -27t113.5 -74.5t76.5 -110.5t28 -135zM689 324q0 63 -25 119t-67.5 97.5t-100 65.5t-122.5 24t-122.5 -24t-100.5 -65.5
t-67.5 -97.5t-24.5 -119t24.5 -118.5t67.5 -97t100.5 -65.5t122.5 -24t122.5 24t100 65.5t67.5 97t25 118.5zM670 324q0 -60 -23.5 -112.5t-63.5 -91.5t-94 -61.5t-115 -22.5t-115 22.5t-94 61.5t-63.5 91.5t-23.5 112.5t23.5 112.5t63.5 92t94 62t115 22.5t115 -22.5
t94 -62t63.5 -92t23.5 -112.5zM628 324q0 51 -20 96t-54.5 78.5t-81 53t-98.5 19.5q-53 0 -99 -19.5t-80 -53t-54 -78.5t-20 -96t20 -95.5t54 -77.5t80 -52.5t99 -19.5q52 0 98.5 19.5t81 52.5t54.5 77.5t20 95.5zM450 167q-26 30 -40.5 48t-22.5 28q-10 11 -13 15h-66v-90
h-82v329h218q33 0 56 -22t23 -53v-164h-42q6 -9 17 -21q9 -11 23 -28t34 -40zM490 422q0 17 -13.5 29.5t-32.5 12.5h-185v-263h16v90h115l75 -91h21l-76 91h80v131zM275 449h167q13 0 21.5 -8.5t8.5 -21.5v-112h-197v142zM439 416h-131v-77h131v77z" />
    <glyph glyph-name="macron" unicode="&#xaf;" horiz-adv-x="614" 
d="M168 537v102h322v-102h-322zM450 599h-242v-22h242v22z" />
    <glyph glyph-name="degree" unicode="&#xb0;" horiz-adv-x="582" 
d="M429 548q0 -24 -10 -46t-27.5 -38t-41 -25.5t-49.5 -9.5t-49.5 9.5t-40.5 25.5t-27 38t-10 46q0 25 10 46.5t27.5 38t40.5 26t50 9.5q26 0 49 -9.5t40.5 -26t27.5 -38t10 -46.5zM390 548q0 16 -7 31t-19 25.5t-28 17t-34 6.5q-37 0 -63 -23t-26 -57q0 -16 7 -30.5
t19 -25.5t28 -17.5t34 -6.5q37 0 63 23.5t26 56.5zM366 548q0 -25 -19 -42.5t-46 -17.5t-46 17.5t-19 42.5q0 26 19 44t47 18q26 0 45 -18t19 -44zM327 548q0 8 -7 15t-18 7q-12 0 -19.5 -7t-7.5 -15t7 -14t19 -6q11 0 18.5 6t7.5 14z" />
    <glyph glyph-name="plusminus" unicode="&#xb1;" horiz-adv-x="600" 
d="M361 278v-163h-113v163h-186l1 103h185v163h113v-163h176v-103h-176zM62 0v102h475v-102h-475zM498 342h-180v163h-28v-163h-188v-24h188v-164h28v164h180v24zM497 62h-395v-22h395v22z" />
    <glyph glyph-name="twosuperior" unicode="&#xb2;" horiz-adv-x="418" 
d="M50 364v114q0 27 10.5 48.5t28.5 37t41.5 24t49.5 8.5h58q11 0 16.5 6t5.5 13v6q0 8 -6 17t-21 9h-174v97h183q22 0 44.5 -7t39.5 -21t28 -35.5t11 -50.5v-23q-1 -47 -32.5 -77t-83.5 -30h-64q-13 0 -21.5 -7.5t-8.5 -18.5v-11h213v-99h-318zM330 405v20h-216v49
q0 26 17 43.5t47 17.5h69q15 0 28.5 6t24 16t16.5 23.5t6 28.5v19q0 27 -20 51.5t-59 24.5h-147v-20h146q26 0 42 -17.5t16 -39.5v-10q0 -32 -17.5 -46.5t-40.5 -14.5h-62q-40 0 -63.5 -21.5t-23.5 -61.5v-68h237z" />
    <glyph glyph-name="threesuperior" unicode="&#xb3;" horiz-adv-x="381" 
d="M331 485q0 -25 -9 -47.5t-25.5 -39t-41 -26t-55.5 -9.5h-150v100h143q17 0 24.5 8.5t7.5 17.5v28h-126v97h126v5q0 11 -9 19t-22 8h-144v98h150q34 0 58.5 -9.5t40.5 -26t24 -39t8 -47.5v-137zM287 622q0 35 -20.5 58t-66.5 23h-113v-21h108q28 0 50 -13.5t22 -53.5v-35
h-131v-26h131v-65q0 -26 -16.5 -45.5t-55.5 -19.5h-109v-20h114q45 0 66 23t21 58v137z" />
    <glyph glyph-name="acute" unicode="&#xb4;" horiz-adv-x="614" 
d="M318 497l-84 56l114 144l108 -69zM293 561l18 -14l79 75l-32 22z" />
    <glyph glyph-name="mu" unicode="&#xb5;" horiz-adv-x="621" 
d="M462 0v24q-5 -6 -21 -14.5t-48 -8.5h-219v-190h-113v650h114v-357h243q14 0 24.5 10.5t10.5 25.5v321h112v-461h-103zM522 422h-24v-278q0 -19 -7.5 -33.5t-19.5 -24.5t-27.5 -15.5t-31.5 -5.5h-280v357h-24v-571h23v193h291q14 0 37 8.5t39 30.5v-41h24v380z" />
    <glyph glyph-name="mu" unicode="&#x3bc;" horiz-adv-x="621" 
d="M462 0v24q-5 -6 -21 -14.5t-48 -8.5h-219v-190h-113v650h114v-357h243q14 0 24.5 10.5t10.5 25.5v321h112v-461h-103zM522 422h-24v-278q0 -19 -7.5 -33.5t-19.5 -24.5t-27.5 -15.5t-31.5 -5.5h-280v357h-24v-571h23v193h291q14 0 37 8.5t39 30.5v-41h24v380z" />
    <glyph glyph-name="paragraph" unicode="&#xb6;" horiz-adv-x="569" 
d="M253 37h20v542h140v-542h20v560h-206q-50 0 -70.5 -24t-20.5 -71v-133h117v-332zM209 325h-117v177q0 66 34 102.5t101 36.5h249v-648h-107v542h-53v-542h-107v332zM251 390h-93v126q0 29 17 45.5t48 16.5h28v-188z" />
    <glyph glyph-name="periodcentered" unicode="&#xb7;" horiz-adv-x="204" 
d="M159 298v-104h-113v104h113zM120 259h-34v-25h34v25z" />
    <glyph glyph-name="cedilla" unicode="&#xb8;" horiz-adv-x="572" 
d="M271 -50q26 -2 35 -16t9 -27q0 -15 -7.5 -23.5t-19.5 -12.5t-27 -5t-30 0v-20q60 -2 84.5 15t24.5 47q0 24 -14.5 38.5t-31.5 19.5v49h-23v-65zM237 43h98v-67q17 -11 27 -26t10 -43q0 -27 -12.5 -46t-35 -29.5t-54 -13t-68.5 3.5v73q32 -3 52.5 -2t20.5 15q0 11 -10 14
t-28 3v118z" />
    <glyph glyph-name="onesuperior" unicode="&#xb9;" horiz-adv-x="276" 
d="M80 363v381h107v-381h-107zM145 707h-21v-307h21v307z" />
    <glyph glyph-name="ordmasculine" unicode="&#xba;" horiz-adv-x="373" 
d="M343 464q0 -42 -28.5 -71.5t-82.5 -29.5h-92q-52 0 -81 29.5t-29 71.5v91q0 42 29.5 71t80.5 29h92q52 0 81.5 -26t29.5 -74v-91zM307 549q0 34 -18.5 53t-53.5 19h-96q-35 0 -54 -20t-19 -52v-80q0 -34 19 -53t54 -19h96q35 0 53.5 19t18.5 53v80zM289 469
q0 -23 -13 -38.5t-43 -15.5h-93q-30 0 -43 15.5t-13 38.5v80q0 23 13 38.5t43 15.5h93q30 0 43 -15.5t13 -38.5v-80zM254 551q0 8 -7 15t-19 7h-83q-11 0 -18.5 -7t-7.5 -15v-82q0 -8 7.5 -15t18.5 -7h83q12 0 19 7t7 15v82z" />
    <glyph glyph-name="guillemotright" unicode="&#xbb;" horiz-adv-x="460" 
d="M238 154q-1 -1 -1 -0.5t-2 -1.5t-8.5 -9t-21 -23t-40 -43t-64.5 -70l-73 70q36 38 58 62.5t35 38.5q15 16 22 23q-7 7 -22 23q-13 14 -35 38.5t-58 63.5q25 25 37.5 37t18 17t8 7.5l8.5 8.5l135 -143q23 -25 24.5 -49.5t-21.5 -49.5zM418 156q-1 -2 -1 -1.5t-2 -2
t-8.5 -9.5t-21 -23t-40 -43t-64.5 -70l-73 70q36 38 58 62.5t35 38.5q15 16 22 23q-7 7 -22 23q-13 14 -35 38.5t-58 63.5q25 25 37.5 37t18 17t8 7.5l8.5 8.5l135 -143q23 -25 24.5 -48.5t-21.5 -48.5zM397 202q0 9 -12 23l-107 113q-5 -5 -6 -7q-2 -1 -3 -2.5t-4 -4.5
l114 -123l-114 -123l14 -13l105 114q13 13 13 23zM217 202q0 9 -12 23l-107 113q-5 -5 -6 -7q-2 -1 -3 -2.5t-4 -4.5l114 -123l-114 -123l14 -13l105 114q13 13 13 23z" />
    <glyph glyph-name="onequarter" unicode="&#xbc;" horiz-adv-x="1000" 
d="M146 2l522 737l85 -60l-522 -737zM842 102v-101h-112v101h-219v91l238 209h93v-192h39v-108h-39zM119 248v400h112v-400h-112zM842 170h-45v193h-32l-215 -184v-32h224v-106h23v106h45v23zM202 10l18 -14q4 5 25.5 35.5t55 77.5t74.5 105.5t84 119t84.5 119t74.5 105.5
t54.5 77.5t25.5 35.5l-19 13zM572 170l202 172v-172h-202zM187 609h-22v-322h22v322zM730 253q-3 -3 -9.5 -9t-14 -12.5t-14 -12.5t-9.5 -9h47v43z" />
    <glyph glyph-name="onehalf" unicode="&#xbd;" horiz-adv-x="1000" 
d="M587 0v121q0 28 11 51t30 39t44 25t52 9h62q12 0 17.5 6.5t5.5 14.5v6q0 9 -6 18t-22 9h-184v103h193q24 0 47.5 -7.5t41.5 -22.5t29.5 -37.5t11.5 -53.5v-24q-1 -49 -34 -81t-89 -32h-67q-14 0 -23 -8.5t-9 -19.5v-11h225v-105h-336zM103 2l522 737l85 -60l-522 -737z
M76 248v400h112v-400h-112zM883 43v22h-228v51q0 28 17.5 46.5t49.5 18.5h73q16 0 30.5 6t25.5 16.5t17.5 25t6.5 30.5v20q0 14 -5.5 28.5t-16 26t-26 19t-36.5 7.5h-155v-22h154q27 0 44.5 -18.5t17.5 -41.5v-10q0 -34 -18.5 -49.5t-43.5 -15.5h-66q-42 0 -66.5 -23
t-24.5 -65v-72h250zM159 10l18 -14q4 5 25.5 35.5t55 77.5t74.5 105.5t84 119t84.5 119t74.5 105.5t54.5 77.5t25.5 35.5l-19 13zM144 609h-22v-322h22v322z" />
    <glyph glyph-name="threequarters" unicode="&#xbe;" horiz-adv-x="1000" 
d="M208 2l522 737l85 -60l-522 -737zM353 375q0 -27 -9.5 -50.5t-27 -41t-43 -27.5t-58.5 -10h-159v105h151q18 0 26 9t8 19v29h-133v103h133v5q0 12 -9.5 20.5t-23.5 8.5h-152v103h159q36 0 62 -10t43 -27.5t25 -41t8 -50.5v-144zM904 102v-101h-112v101h-219v91l238 209
h93v-192h39v-108h-39zM904 170h-45v193h-32l-215 -184v-32h224v-106h23v106h45v23zM264 10l18 -14q4 5 25.5 35.5t55 77.5t74.5 105.5t84 119t84.5 119t74.5 105.5t54.5 77.5t25.5 35.5l-19 13zM307 519q0 38 -22 62t-70 24h-119v-22h114q15 0 28.5 -3t24 -11t16.5 -22
t6 -35v-37h-138v-28h138v-68q0 -28 -17 -48.5t-59 -20.5h-114v-21h120q48 0 70 24.5t22 61.5v144zM634 170l202 172v-172h-202zM792 253q-3 -3 -9.5 -9t-14 -12.5t-14 -12.5t-9.5 -9h47v43z" />
    <glyph glyph-name="questiondown" unicode="&#xbf;" horiz-adv-x="528" 
d="M66 98q0 70 39 104.5t98 34.5h171v15v58h113v-178h-283q-11 0 -18.5 -9t-7.5 -20v-157q0 -11 8.5 -20.5t19.5 -9.5h282v-103h-280q-39 0 -66 10.5t-44 29t-24.5 43.5t-7.5 55v147zM113 -49q0 -45 20.5 -70.5t74.5 -25.5h241v22h-245q-26 0 -47.5 15t-21.5 54v157
q0 40 21 54.5t48 14.5h237v99h-23v-77h-210q-42 0 -68.5 -20t-26.5 -76v-147zM488 460v-106h-112v106h112zM415 393h34v28h-34v-28z" />
    <glyph glyph-name="Agrave" unicode="&#xc0;" horiz-adv-x="582" 
d="M546 0h-111v343h-283v-54q0 -24 0.5 -55t0.5 -63v-171h-112v519q0 27 10 50.5t28 41t43.5 27.5t56.5 10h368zM501 605h-322q-41 0 -66.5 -24.5t-25.5 -61.5v-480h23v342h367v-342h24v566zM110 403v109q0 14 3.5 27t12 22.5t23 15.5t36.5 6h292v-180h-367zM435 544h-250
q-14 0 -23.5 -10t-9.5 -22v-66h283v98zM170 811l100 80l129 -131l-77 -65zM320 741l27 22l-82 83l-38 -30z" />
    <glyph glyph-name="Aacute" unicode="&#xc1;" horiz-adv-x="582" 
d="M546 0h-111v343h-283v-54q0 -24 0.5 -55t0.5 -63v-171h-112v519q0 27 10 50.5t28 41t43.5 27.5t56.5 10h368zM501 605h-322q-41 0 -66.5 -24.5t-25.5 -61.5v-480h23v342h367v-342h24v566zM110 403v109q0 14 3.5 27t12 22.5t23 15.5t36.5 6h292v-180h-367zM435 544h-250
q-14 0 -23.5 -10t-9.5 -22v-66h283v98zM296 695l-77 65l129 131l100 -80zM353 846l-82 -83l27 -22l93 75z" />
    <glyph glyph-name="Acircumflex" unicode="&#xc2;" horiz-adv-x="582" 
d="M546 0h-111v343h-283v-54q0 -24 0.5 -55t0.5 -63v-171h-112v519q0 27 10 50.5t28 41t43.5 27.5t56.5 10h368zM501 605h-322q-41 0 -66.5 -24.5t-25.5 -61.5v-480h23v342h367v-342h24v566zM110 403v109q0 14 3.5 27t12 22.5t23 15.5t36.5 6h292v-180h-367zM421 687
l-117 82l-118 -86l-66 75l160 119q9 8 23 7.5t23 -7.5q8 -5 28 -19q17 -12 50 -35.5t87 -62.5zM435 544h-250q-14 0 -23.5 -10t-9.5 -22v-66h283v98zM315 841q-10 8 -22 0l-118 -88l16 -19l112 80l118 -80l18 20z" />
    <glyph glyph-name="Atilde" unicode="&#xc3;" horiz-adv-x="582" 
d="M546 0h-111v343h-283v-54q0 -24 0.5 -55t0.5 -63v-171h-112v519q0 27 10 50.5t28 41t43.5 27.5t56.5 10h368zM501 605h-322q-41 0 -66.5 -24.5t-25.5 -61.5v-480h23v342h367v-342h24v566zM110 403v109q0 14 3.5 27t12 22.5t23 15.5t36.5 6h292v-180h-367zM199 834
q45 42 97 9l63 -41l64 54l72 -50l-85 -75q-18 -15 -41.5 -20t-47.5 13l-66 46l-70 -59l-61 57zM435 544h-250q-14 0 -23.5 -10t-9.5 -22v-66h283v98zM167 765l17 -14l65 57l89 -60q17 -11 29 -6t22 14l61 51l-21 13l-70 -57l-80 53q-17 11 -26.5 12.5t-26.5 -12.5z" />
    <glyph glyph-name="Adieresis" unicode="&#xc4;" horiz-adv-x="582" 
d="M546 0h-111v343h-283v-54q0 -24 0.5 -55t0.5 -63v-171h-112v519q0 27 10 50.5t28 41t43.5 27.5t56.5 10h368zM501 605h-322q-41 0 -66.5 -24.5t-25.5 -61.5v-480h23v342h367v-342h24v566zM110 403v109q0 14 3.5 27t12 22.5t23 15.5t36.5 6h292v-180h-367zM435 544h-250
q-14 0 -23.5 -10t-9.5 -22v-66h283v98zM125 729v107h112v-107h-112zM369 729v107h111v-107h-111zM436 796h-23v-28h23v28zM192 796h-23v-28h23v28z" />
    <glyph glyph-name="Aring" unicode="&#xc5;" horiz-adv-x="582" 
d="M546 0h-111v343h-283v-54q0 -24 0.5 -55t0.5 -63v-171h-112v519q0 27 10 50.5t28 41t43.5 27.5t56.5 10h368zM501 605h-322q-41 0 -66.5 -24.5t-25.5 -61.5v-480h23v342h367v-342h24v566zM110 403v109q0 14 3.5 27t12 22.5t23 15.5t36.5 6h292v-180h-367zM445 795
q0 -25 -10 -46.5t-27.5 -37.5t-40.5 -25.5t-50 -9.5q-26 0 -49.5 9.5t-40.5 25.5t-27 37.5t-10 46.5t10 46.5t27.5 37.5t40.5 25.5t50 9.5q26 0 49 -9.5t40.5 -25.5t27.5 -37.5t10 -46.5zM435 544h-250q-14 0 -23.5 -10t-9.5 -22v-66h283v98zM406 795q0 16 -7 30.5t-19 25.5
t-28 17.5t-34 6.5q-37 0 -63 -23.5t-26 -56.5t26 -56.5t62 -23.5q37 0 63 23.5t26 56.5zM382 795q0 -25 -19 -42.5t-46 -17.5t-46 17.5t-19 42.5t19.5 43t46.5 18q26 0 45 -18t19 -43zM343 795q0 8 -7 15t-18 7q-12 0 -19.5 -7t-7.5 -15t7.5 -14.5t18.5 -6.5t18.5 6.5
t7.5 14.5z" />
    <glyph glyph-name="AE" unicode="&#xc6;" horiz-adv-x="994" 
d="M582 0q-67 0 -99.5 38.5t-32.5 96.5v208h-282v-343h-112v519q0 27 10 50.5t28 41t43.5 27.5t56.5 10h746v-104h-347q-13 0 -21.5 -8.5t-8.5 -19.5v-70h323v-104h-322v-209q0 -11 8.5 -19.5t22.5 -8.5h345v-105h-358zM492 134q0 -38 24 -64.5t74 -26.5h310v23h-301
q-45 0 -62.5 20t-17.5 48v248h328v21h-328v109q0 14 3.5 27t12 23t23 16t35.5 6h307v21h-706q-41 0 -66.5 -24.5t-25.5 -61.5v-480h23v342h367v-247zM125 403v109q0 14 3.5 27t12 22.5t23 15.5t36.5 6h292v-180h-367zM450 544h-250q-14 0 -23.5 -10t-9.5 -22v-66h283v98z
" />
    <glyph glyph-name="Ccedilla" unicode="&#xc7;" horiz-adv-x="572" 
d="M237 0h-57q-37 0 -63.5 11t-44 29.5t-25.5 43.5t-8 54v373q0 28 8 53.5t25.5 44t44 29.5t63.5 11h230q61 0 97.5 -33.5t36.5 -101.5v-43h-112v46q0 10 -9 19t-20 9h-221q-14 0 -22 -9.5t-8 -20.5v-381q0 -11 8.5 -20t18.5 -9h223q14 0 22 8.5t8 21.5v47h111v-56
q0 -32 -11.5 -56t-31 -39.5t-45.5 -23t-55 -7.5h-65v-24q17 -11 27 -26t10 -43q0 -27 -12.5 -46t-35 -29.5t-54 -13t-68.5 3.5v73q32 -3 52.5 -2t20.5 15q0 11 -10 14t-28 3v75zM294 43h106q47 0 72.5 21.5t25.5 61.5v17h-22v-16q0 -27 -18.5 -44.5t-52.5 -17.5h-229
q-38 0 -53.5 21t-15.5 48v381q0 26 16 48t53 22h229q28 0 49.5 -15.5t21.5 -54.5v-4h23v7q0 42 -24 65t-65 23h-230q-51 0 -72.5 -27t-21.5 -68v-373q0 -41 20.5 -68t73.5 -27h91v-93q26 -2 35 -16t9 -27q0 -15 -7.5 -23.5t-19.5 -12.5t-27 -5t-30 0v-20q60 -2 84.5 15
t24.5 47q0 24 -14.5 38.5t-31.5 19.5v77z" />
    <glyph glyph-name="Egrave" unicode="&#xc8;" horiz-adv-x="548" 
d="M170 0q-32 0 -57.5 10t-43.5 28t-27.5 41.5t-9.5 50.5v388q0 27 9 50.5t26.5 41.5t43.5 28t59 10h352v-104h-347q-13 0 -21.5 -8.5t-8.5 -19.5v-70h323v-104h-323v-208q0 -11 8.5 -20t23.5 -9h345v-105h-352zM482 66h-305q-44 0 -60 20t-16 48v248h328v21h-328v109
q0 14 3.5 27t12 23t23 16t35.5 6h307v21h-312q-43 0 -67.5 -24.5t-24.5 -62.5v-388q0 -38 22 -62.5t70 -24.5h312v23zM161 811l100 80l129 -131l-77 -65zM311 741l27 22l-82 83l-38 -30z" />
    <glyph glyph-name="Eacute" unicode="&#xc9;" horiz-adv-x="548" 
d="M170 0q-32 0 -57.5 10t-43.5 28t-27.5 41.5t-9.5 50.5v388q0 27 9 50.5t26.5 41.5t43.5 28t59 10h352v-104h-347q-13 0 -21.5 -8.5t-8.5 -19.5v-70h323v-104h-323v-208q0 -11 8.5 -20t23.5 -9h345v-105h-352zM482 66h-305q-44 0 -60 20t-16 48v248h328v21h-328v109
q0 14 3.5 27t12 23t23 16t35.5 6h307v21h-312q-43 0 -67.5 -24.5t-24.5 -62.5v-388q0 -38 22 -62.5t70 -24.5h312v23zM276 695l-77 65l129 131l100 -80zM333 846l-82 -83l27 -22l93 75z" />
    <glyph glyph-name="Ecircumflex" unicode="&#xca;" horiz-adv-x="548" 
d="M170 0q-32 0 -57.5 10t-43.5 28t-27.5 41.5t-9.5 50.5v388q0 27 9 50.5t26.5 41.5t43.5 28t59 10h352v-104h-347q-13 0 -21.5 -8.5t-8.5 -19.5v-70h323v-104h-323v-208q0 -11 8.5 -20t23.5 -9h345v-105h-352zM408 687l-117 82l-118 -86l-66 75l160 119q9 8 23 7.5
t23 -7.5q8 -5 28 -19q17 -12 50 -35.5t87 -62.5zM482 66h-305q-44 0 -60 20t-16 48v248h328v21h-328v109q0 14 3.5 27t12 23t23 16t35.5 6h307v21h-312q-43 0 -67.5 -24.5t-24.5 -62.5v-388q0 -38 22 -62.5t70 -24.5h312v23zM302 841q-10 8 -22 0l-118 -88l16 -19l112 80
l118 -80l18 20z" />
    <glyph glyph-name="Edieresis" unicode="&#xcb;" horiz-adv-x="548" 
d="M170 0q-32 0 -57.5 10t-43.5 28t-27.5 41.5t-9.5 50.5v388q0 27 9 50.5t26.5 41.5t43.5 28t59 10h352v-104h-347q-13 0 -21.5 -8.5t-8.5 -19.5v-70h323v-104h-323v-208q0 -11 8.5 -20t23.5 -9h345v-105h-352zM482 66h-305q-44 0 -60 20t-16 48v248h328v21h-328v109
q0 14 3.5 27t12 23t23 16t35.5 6h307v21h-312q-43 0 -67.5 -24.5t-24.5 -62.5v-388q0 -38 22 -62.5t70 -24.5h312v23zM116 729v107h112v-107h-112zM360 729v107h111v-107h-111zM183 796h-23v-28h23v28zM427 796h-23v-28h23v28z" />
    <glyph glyph-name="Igrave" unicode="&#xcc;" horiz-adv-x="276" 
d="M80 0v648h112v-648h-112zM-22 811l100 80l129 -131l-77 -65zM148 609h-22v-570h22v570zM128 741l27 22l-82 83l-38 -30z" />
    <glyph glyph-name="Iacute" unicode="&#xcd;" horiz-adv-x="276" 
d="M80 0v648h112v-648h-112zM138 695l-77 65l129 131l100 -80zM148 609h-22v-570h22v570zM195 846l-82 -83l27 -22l93 75z" />
    <glyph glyph-name="Icircumflex" unicode="&#xce;" horiz-adv-x="276" 
d="M80 0v648h112v-648h-112zM251 687l-117 82l-118 -86l-66 75l160 119q9 8 23 7.5t23 -7.5q8 -5 28 -19q17 -12 50 -35.5t87 -62.5zM148 609h-22v-570h22v570zM145 841q-10 8 -22 0l-118 -88l16 -19l112 80l118 -80l18 20z" />
    <glyph glyph-name="Idieresis" unicode="&#xcf;" horiz-adv-x="276" 
d="M80 0v648h112v-648h-112zM148 609h-22v-570h22v570zM-40 729v107h112v-107h-112zM204 729v107h111v-107h-111zM27 796h-23v-28h23v28zM271 796h-23v-28h23v28z" />
    <glyph glyph-name="Eth" unicode="&#xd0;" horiz-adv-x="583" 
d="M0 363h45v285h368q28 0 53 -7t43.5 -22.5t29.5 -40t11 -60.5v-388q0 -32 -11 -56t-29.5 -40.5t-43.5 -25t-53 -8.5h-368v262h-45v101zM440 516q0 12 -9.5 20t-23.5 8l-251 1v-182h153v-101h-153v-157h251q14 0 23.5 8.5t9.5 20.5v382zM113 301h157v23h-157v260h294
q30 0 52.5 -14.5t22.5 -57.5v-378q0 -41 -22.5 -54.5t-52.5 -13.5h-294v235zM91 43h322q45 0 68.5 24.5t23.5 62.5v388q0 48 -25.5 68t-66.5 20h-322v-282h-52v-23h52v-258z" />
    <glyph glyph-name="Ntilde" unicode="&#xd1;" horiz-adv-x="624" 
d="M562 0h-111l-278 439v-439h-113l1 648h112l277 -440v440h112v-648zM517 609h-23v-551l-353 551h-35v-570h22v550l353 -550h36v570zM206 834q45 42 97 9l63 -41l64 54l72 -50l-85 -75q-18 -15 -41.5 -20t-47.5 13l-66 46l-70 -59l-61 57zM174 765l17 -14l65 57l89 -60
q17 -11 29 -6t22 14l61 51l-21 13l-70 -57l-80 53q-17 11 -26.5 12.5t-26.5 -12.5z" />
    <glyph glyph-name="Ograve" unicode="&#xd2;" 
d="M563 127q0 -26 -9 -49.5t-27 -40.5t-44 -27t-59 -10h-228q-33 0 -58.5 10t-43.5 27t-27.5 40.5t-9.5 49.5v395q0 26 10 49t28 40t43.5 27t57.5 10h228q65 0 102 -33t37 -93v-395zM518 515q0 42 -23 66.5t-68 24.5h-233q-45 0 -68 -26t-23 -65v-382q0 -42 23 -66t68 -24
h233q45 0 68 24t23 66v382zM495 133q0 -29 -16 -48.5t-54 -19.5h-229q-38 0 -54 19.5t-16 48.5v383q0 29 16 48.5t54 19.5h229q38 0 54 -19.5t16 -48.5v-383zM451 517q0 10 -9 19t-23 9h-217q-14 0 -23 -9t-9 -19v-384q0 -10 9 -19t23 -9h217q14 0 23 9t9 19v384zM177 811
l100 80l129 -131l-77 -65zM327 741l27 22l-82 83l-38 -30z" />
    <glyph glyph-name="Oacute" unicode="&#xd3;" 
d="M563 127q0 -26 -9 -49.5t-27 -40.5t-44 -27t-59 -10h-228q-33 0 -58.5 10t-43.5 27t-27.5 40.5t-9.5 49.5v395q0 26 10 49t28 40t43.5 27t57.5 10h228q65 0 102 -33t37 -93v-395zM518 515q0 42 -23 66.5t-68 24.5h-233q-45 0 -68 -26t-23 -65v-382q0 -42 23 -66t68 -24
h233q45 0 68 24t23 66v382zM495 133q0 -29 -16 -48.5t-54 -19.5h-229q-38 0 -54 19.5t-16 48.5v383q0 29 16 48.5t54 19.5h229q38 0 54 -19.5t16 -48.5v-383zM451 517q0 10 -9 19t-23 9h-217q-14 0 -23 -9t-9 -19v-384q0 -10 9 -19t23 -9h217q14 0 23 9t9 19v384zM287 695
l-77 65l129 131l100 -80zM344 846l-82 -83l27 -22l93 75z" />
    <glyph glyph-name="Ocircumflex" unicode="&#xd4;" 
d="M563 127q0 -26 -9 -49.5t-27 -40.5t-44 -27t-59 -10h-228q-33 0 -58.5 10t-43.5 27t-27.5 40.5t-9.5 49.5v395q0 26 10 49t28 40t43.5 27t57.5 10h228q65 0 102 -33t37 -93v-395zM518 515q0 42 -23 66.5t-68 24.5h-233q-45 0 -68 -26t-23 -65v-382q0 -42 23 -66t68 -24
h233q45 0 68 24t23 66v382zM495 133q0 -29 -16 -48.5t-54 -19.5h-229q-38 0 -54 19.5t-16 48.5v383q0 29 16 48.5t54 19.5h229q38 0 54 -19.5t16 -48.5v-383zM451 517q0 10 -9 19t-23 9h-217q-14 0 -23 -9t-9 -19v-384q0 -10 9 -19t23 -9h217q14 0 23 9t9 19v384zM424 687
l-117 82l-118 -86l-66 75l160 119q9 8 23 7.5t23 -7.5q8 -5 28 -19q17 -12 50 -35.5t87 -62.5zM318 841q-10 8 -22 0l-118 -88l16 -19l112 80l118 -80l18 20z" />
    <glyph glyph-name="Otilde" unicode="&#xd5;" 
d="M563 127q0 -26 -9 -49.5t-27 -40.5t-44 -27t-59 -10h-228q-33 0 -58.5 10t-43.5 27t-27.5 40.5t-9.5 49.5v395q0 26 10 49t28 40t43.5 27t57.5 10h228q65 0 102 -33t37 -93v-395zM518 515q0 42 -23 66.5t-68 24.5h-233q-45 0 -68 -26t-23 -65v-382q0 -42 23 -66t68 -24
h233q45 0 68 24t23 66v382zM495 133q0 -29 -16 -48.5t-54 -19.5h-229q-38 0 -54 19.5t-16 48.5v383q0 29 16 48.5t54 19.5h229q38 0 54 -19.5t16 -48.5v-383zM451 517q0 10 -9 19t-23 9h-217q-14 0 -23 -9t-9 -19v-384q0 -10 9 -19t23 -9h217q14 0 23 9t9 19v384zM192 834
q45 42 97 9l63 -41l64 54l72 -50l-85 -75q-18 -15 -41.5 -20t-47.5 13l-66 46l-70 -59l-61 57zM160 765l17 -14l65 57l89 -60q17 -11 29 -6t22 14l61 51l-21 13l-70 -57l-80 53q-17 11 -26.5 12.5t-26.5 -12.5z" />
    <glyph glyph-name="Odieresis" unicode="&#xd6;" 
d="M563 127q0 -26 -9 -49.5t-27 -40.5t-44 -27t-59 -10h-228q-33 0 -58.5 10t-43.5 27t-27.5 40.5t-9.5 49.5v395q0 26 10 49t28 40t43.5 27t57.5 10h228q65 0 102 -33t37 -93v-395zM518 515q0 42 -23 66.5t-68 24.5h-233q-45 0 -68 -26t-23 -65v-382q0 -42 23 -66t68 -24
h233q45 0 68 24t23 66v382zM495 133q0 -29 -16 -48.5t-54 -19.5h-229q-38 0 -54 19.5t-16 48.5v383q0 29 16 48.5t54 19.5h229q38 0 54 -19.5t16 -48.5v-383zM451 517q0 10 -9 19t-23 9h-217q-14 0 -23 -9t-9 -19v-384q0 -10 9 -19t23 -9h217q14 0 23 9t9 19v384zM380 729
v107h111v-107h-111zM136 729v107h112v-107h-112zM447 796h-23v-28h23v28zM203 796h-23v-28h23v28z" />
    <glyph glyph-name="multiply" unicode="&#xd7;" horiz-adv-x="600" 
d="M303 153l-15 -15q-11 -11 -33.5 -34t-64.5 -65l-80 80l113 113l-4 4t-15.5 16t-33 33.5l-57.5 57.5l73 72q33 -33 53.5 -54t32.5 -33l17 -17t7 -6l114 114l80 -80l-114 -114l3 -3.5t14 -14t32.5 -31.5t57.5 -57l-73 -73zM410 102q6 5 8.5 7.5t8.5 9.5l-109 109l53.5 53.5
l35.5 35.5l25 25l-20 20l-114 -114l-112 112q-2 -3 -8 -9t-9 -8l112 -112l-114 -114l20 -20l25 25l89 89z" />
    <glyph glyph-name="Oslash" unicode="&#xd8;" 
d="M13 0l54 75q-10 23 -10 52v395q0 26 10 49t28 40t43.5 27t57.5 10h228q27 0 50 -6l45 63l83 -60l-49 -69q5 -12 7.5 -25.5t2.5 -28.5v-395q0 -26 -9 -49.5t-27 -40.5t-44 -27t-59 -10h-228q-29 0 -50 7l-49 -68zM133 61q11 -9 27.5 -13.5t33.5 -4.5h233q45 0 68 24t23 66
v382q0 19 -5 34.5t-12 24.5l46 63q-7 5 -9.5 7t-9.5 7l-44 -61q-20 12 -35 14t-20 2h-235q-45 0 -68 -26t-23 -65v-390q0 -8 3 -22.5t11 -25.5l-49 -69q6 -5 9.5 -6.5t8.5 -6.5zM175 118l311 436q5 -9 7 -21t2 -38v-362q0 -29 -16 -48.5t-54 -19.5h-238q-26 0 -41 13z
M126 516q0 29 16 48.5t54 19.5h229q15 0 26.5 -4t19.5 -9q-39 -55 -79.5 -111t-79.5 -110.5t-75 -105t-67 -93.5l-38 -53q-5 11 -5.5 25t-0.5 34v359zM419 105q14 0 23 9t9 19v301l-235 -329h203zM170 218l234 327h-202q-14 0 -23 -9t-9 -19v-299z" />
    <glyph glyph-name="Ugrave" unicode="&#xd9;" horiz-adv-x="576" 
d="M176 0q-33 0 -58.5 10t-43.5 27t-27.5 40t-9.5 49v523h113v-518q0 -11 9 -19t22 -8q90 -1 140 -1h74h33v546h112v-649h-364zM495 609h-23v-544h-291q-44 0 -60 19t-16 47v479h-23v-484q0 -36 23.5 -59.5t70.5 -23.5h319v566zM159 811l100 80l129 -131l-77 -65zM309 741
l27 22l-82 83l-38 -30z" />
    <glyph glyph-name="Uacute" unicode="&#xda;" horiz-adv-x="576" 
d="M176 0q-33 0 -58.5 10t-43.5 27t-27.5 40t-9.5 49v523h113v-518q0 -11 9 -19t22 -8q90 -1 140 -1h74h33v546h112v-649h-364zM495 609h-23v-544h-291q-44 0 -60 19t-16 47v479h-23v-484q0 -36 23.5 -59.5t70.5 -23.5h319v566zM287 695l-77 65l129 131l100 -80zM344 846
l-82 -83l27 -22l93 75z" />
    <glyph glyph-name="Ucircumflex" unicode="&#xdb;" horiz-adv-x="576" 
d="M176 0q-33 0 -58.5 10t-43.5 27t-27.5 40t-9.5 49v523h113v-518q0 -11 9 -19t22 -8q90 -1 140 -1h74h33v546h112v-649h-364zM407 687l-117 82l-118 -86l-66 75l160 119q9 8 23 7.5t23 -7.5q8 -5 28 -19q17 -12 50 -35.5t87 -62.5zM495 609h-23v-544h-291q-44 0 -60 19
t-16 47v479h-23v-484q0 -36 23.5 -59.5t70.5 -23.5h319v566zM301 841q-10 8 -22 0l-118 -88l16 -19l112 80l118 -80l18 20z" />
    <glyph glyph-name="Udieresis" unicode="&#xdc;" horiz-adv-x="576" 
d="M176 0q-33 0 -58.5 10t-43.5 27t-27.5 40t-9.5 49v523h113v-518q0 -11 9 -19t22 -8q90 -1 140 -1h74h33v546h112v-649h-364zM495 609h-23v-544h-291q-44 0 -60 19t-16 47v479h-23v-484q0 -36 23.5 -59.5t70.5 -23.5h319v566zM109 729v107h112v-107h-112zM353 729v107h111
v-107h-111zM176 796h-23v-28h23v28zM420 796h-23v-28h23v28z" />
    <glyph glyph-name="Yacute" unicode="&#xdd;" horiz-adv-x="582" 
d="M360 176v-176h-112v176h-70q-32 0 -58 10t-44 27.5t-27.5 41t-9.5 50.5v343h114v-338q0 -11 7.5 -20.5t20.5 -9.5h248v368h113v-472h-182zM497 609h-23v-367h-290q-23 0 -38 5.5t-23.5 14.5t-12 21.5t-3.5 26.5v299h-23v-304q0 -37 23 -61.5t71 -24.5h114v-180h23v180
h182v390zM286 695l-77 65l129 131l100 -80zM343 846l-82 -83l27 -22l93 75z" />
    <glyph glyph-name="Thorn" unicode="&#xde;" horiz-adv-x="576" 
d="M405 552q36 0 62.5 -10t43.5 -28t25 -41.5t8 -50.5v-331h-390v-93h-113v652h113v-98h251zM110 510v100h-23v-572h23v95h388v289q0 38 -22 63t-71 25h-295zM110 156v331h287q44 0 61 -18.5t17 -49.5v-263h-365zM431 419q0 14 -9.5 21.5t-22.5 7.5h-246v-253h278v224z" />
    <glyph glyph-name="germandbls" unicode="&#xdf;" horiz-adv-x="585" 
d="M244 443h119q8 0 14 7t6 16v54q0 15 -8 20t-17 5h-197v-545h-111v648h329q24 0 45 -9.5t37 -25t25 -35t9 -39.5v-71q0 -32 -19 -63q42 -23 59.5 -63t17.5 -84v-73v-39v-16v-3q-1 -57 -38 -92t-99 -35h-192v104h185q14 0 22.5 8.5t8.5 20.5v123q0 36 -25 59t-63 23h-108
v105zM119 584h244q25 0 44.5 -18.5t19.5 -42.5v-57q0 -25 -19.5 -44.5t-44.5 -19.5h-82v-21h71q27 0 51 -9.5t42.5 -26t29 -39.5t10.5 -49v-124q0 -29 -17 -48.5t-47 -19.5h-160v-22h155q40 0 66.5 22.5t26.5 64.5v127q0 54 -25.5 84.5t-72.5 53.5q39 28 39 73v61
q0 16 -7 30t-18 24t-25.5 16t-30.5 6h-273v-566h22z" />
    <glyph glyph-name="agrave" unicode="&#xe0;" horiz-adv-x="614" 
d="M186 0q-33 0 -58.5 10t-43.5 27t-27.5 40.5t-9.5 49.5v208q0 26 10 49t28 40t43.5 27t57.5 10h368v-461h-368zM509 418h-325q-45 0 -68 -25.5t-23 -64.5v-195q0 -42 23 -66t68 -24h325v375zM186 65q-38 0 -54 19.5t-16 48.5v195q0 29 16 48.5t54 19.5h300v-331h-300z
M442 358h-250q-14 0 -23 -9t-9 -19v-197q0 -10 9 -19t23 -9h250v253zM176 628l108 69l114 -144l-84 -56zM274 644l-32 -22l79 -75l18 14z" />
    <glyph glyph-name="aacute" unicode="&#xe1;" horiz-adv-x="614" 
d="M186 0q-33 0 -58.5 10t-43.5 27t-27.5 40.5t-9.5 49.5v208q0 26 10 49t28 40t43.5 27t57.5 10h368v-461h-368zM509 418h-325q-45 0 -68 -25.5t-23 -64.5v-195q0 -42 23 -66t68 -24h325v375zM186 65q-38 0 -54 19.5t-16 48.5v195q0 29 16 48.5t54 19.5h300v-331h-300z
M442 358h-250q-14 0 -23 -9t-9 -19v-197q0 -10 9 -19t23 -9h250v253zM318 497l-84 56l114 144l108 -69zM293 561l18 -14l79 75l-32 22z" />
    <glyph glyph-name="acircumflex" unicode="&#xe2;" horiz-adv-x="614" 
d="M186 0q-33 0 -58.5 10t-43.5 27t-27.5 40.5t-9.5 49.5v208q0 26 10 49t28 40t43.5 27t57.5 10h368v-461h-368zM509 418h-325q-45 0 -68 -25.5t-23 -64.5v-195q0 -42 23 -66t68 -24h325v375zM186 65q-38 0 -54 19.5t-16 48.5v195q0 29 16 48.5t54 19.5h300v-331h-300z
M442 358h-250q-14 0 -23 -9t-9 -19v-197q0 -10 9 -19t23 -9h250v253zM403 484l-98 77l-97 -79l-68 77l142 120q9 8 23 7.5t23 -7.5q7 -3 25 -17q16 -12 45.5 -36t81.5 -68zM313 639q-7 6 -16 0l-102 -83l16 -18l93 76l98 -77l20 19z" />
    <glyph glyph-name="atilde" unicode="&#xe3;" horiz-adv-x="614" 
d="M186 0q-33 0 -58.5 10t-43.5 27t-27.5 40.5t-9.5 49.5v208q0 26 10 49t28 40t43.5 27t57.5 10h368v-461h-368zM509 418h-325q-45 0 -68 -25.5t-23 -64.5v-195q0 -42 23 -66t68 -24h325v375zM186 65q-38 0 -54 19.5t-16 48.5v195q0 29 16 48.5t54 19.5h300v-331h-300z
M442 358h-250q-14 0 -23 -9t-9 -19v-197q0 -10 9 -19t23 -9h250v253zM207 639q45 42 97 9l63 -41l64 54l72 -50l-85 -75q-18 -15 -41.5 -20t-47.5 13l-66 46l-70 -59l-61 57zM175 570l17 -14l65 57l89 -60q17 -11 29 -6t22 14l61 51l-21 13l-70 -57l-80 53
q-17 11 -26.5 12.5t-26.5 -12.5z" />
    <glyph glyph-name="adieresis" unicode="&#xe4;" horiz-adv-x="614" 
d="M186 0q-33 0 -58.5 10t-43.5 27t-27.5 40.5t-9.5 49.5v208q0 26 10 49t28 40t43.5 27t57.5 10h368v-461h-368zM509 418h-325q-45 0 -68 -25.5t-23 -64.5v-195q0 -42 23 -66t68 -24h325v375zM186 65q-38 0 -54 19.5t-16 48.5v195q0 29 16 48.5t54 19.5h300v-331h-300z
M442 358h-250q-14 0 -23 -9t-9 -19v-197q0 -10 9 -19t23 -9h250v253zM140 542v107h112v-107h-112zM207 609h-23v-28h23v28zM384 542v107h111v-107h-111zM451 609h-23v-28h23v28z" />
    <glyph glyph-name="aring" unicode="&#xe5;" horiz-adv-x="614" 
d="M186 0q-33 0 -58.5 10t-43.5 27t-27.5 40.5t-9.5 49.5v208q0 26 10 49t28 40t43.5 27t57.5 10h368v-461h-368zM509 418h-325q-45 0 -68 -25.5t-23 -64.5v-195q0 -42 23 -66t68 -24h325v375zM186 65q-38 0 -54 19.5t-16 48.5v195q0 29 16 48.5t54 19.5h300v-331h-300z
M442 358h-250q-14 0 -23 -9t-9 -19v-197q0 -10 9 -19t23 -9h250v253zM445 593q0 -25 -10 -46.5t-27.5 -37.5t-40.5 -25.5t-50 -9.5q-26 0 -49.5 9.5t-40.5 25.5t-27 37.5t-10 46.5t10 46.5t27.5 37.5t40.5 25.5t50 9.5q26 0 49 -9.5t40.5 -25.5t27.5 -37.5t10 -46.5z
M406 593q0 16 -7 30.5t-19 25.5t-28 17.5t-34 6.5q-37 0 -63 -23.5t-26 -56.5t26 -56.5t62 -23.5q37 0 63 23.5t26 56.5zM382 593q0 -25 -19 -42.5t-46 -17.5t-46 17.5t-19 42.5t19.5 43t46.5 18q26 0 45 -18t19 -43zM343 593q0 8 -7 15t-18 7q-12 0 -19.5 -7t-7.5 -15
t7.5 -14.5t18.5 -6.5t18.5 6.5t7.5 14.5z" />
    <glyph glyph-name="ae" unicode="&#xe6;" horiz-adv-x="975" 
d="M186 0q-33 0 -58.5 10t-43.5 27t-27.5 40.5t-9.5 49.5v208q0 26 10 49t28 40t43.5 27t57.5 10h623q60 0 98.5 -31.5t38.5 -95.5v-132h-390v-68q0 -12 10 -20t24 -8h352v-106h-756zM900 239v89q0 44 -24 67t-67 23h-625q-45 0 -68 -25.5t-23 -64.5v-195q0 -42 23 -66
t68 -24h718v22h-311q-15 0 -30 3.5t-26 11.5t-18.5 21.5t-7.5 33.5v104h391zM489 65h-303q-38 0 -54 19.5t-16 48.5v195q0 29 16 48.5t54 19.5h303v-331zM442 358h-250q-14 0 -23 -9t-9 -19v-197q0 -10 9 -19t23 -9h250v253zM509 263v68q0 24 10.5 37.5t24 19.5t26 7t17.5 1
h213q31 0 54.5 -14.5t23.5 -54.5v-65zM834 327q0 13 -10 21.5t-24 8.5h-210q-14 0 -24 -8.5t-10 -21.5v-27h278v27z" />
    <glyph glyph-name="ccedilla" unicode="&#xe7;" horiz-adv-x="571" 
d="M244 0h-54q-37 0 -63.5 11t-44 29.5t-25.5 43.5t-8 54v185q0 28 8 53.5t25.5 44t44 29.5t63.5 11h218q61 0 97.5 -33.5t36.5 -101.5v-42h-112v45q0 11 -9 20t-20 9h-209q-14 0 -22 -9.5t-8 -20.5v-194q0 -11 8.5 -20t18.5 -9h211q14 0 22 8.5t8 21.5v47h111v-56
q0 -32 -11.5 -56t-31 -39.5t-45.5 -23t-55 -7.5h-56v-24q17 -11 27 -26t10 -43q0 -27 -12.5 -46t-35 -29.5t-54 -13t-68.5 3.5v73q32 -3 52.5 -2t20.5 15q0 11 -10 14t-28 3v75zM301 43h97q47 0 72.5 21.5t25.5 61.5v17h-22v-16q0 -27 -18.5 -44.5t-52.5 -17.5h-217
q-38 0 -53.5 21t-15.5 48v193q0 27 16 48.5t53 21.5h217q28 0 49.5 -15.5t21.5 -54.5v-4h23v7q0 42 -24 65.5t-65 23.5h-218q-51 0 -72.5 -27.5t-21.5 -68.5v-185q0 -41 20.5 -68t73.5 -27h88v-93q26 -2 35 -16t9 -27q0 -15 -7.5 -23.5t-19.5 -12.5t-27 -5t-30 0v-20
q60 -2 84.5 15t24.5 47q0 24 -14.5 38.5t-31.5 19.5v77z" />
    <glyph glyph-name="egrave" unicode="&#xe8;" 
d="M170 202v-68q0 -12 10 -20t24 -8h352v-106h-363q-30 0 -55 10t-43 27t-28 39.5t-10 48.5v210q0 26 10.5 49t29 40t43 27t52.5 10h231q60 0 98.5 -31.5t38.5 -95.5v-132h-390zM516 65h-315q-43 0 -59 20t-16 49v105h388v89q0 44 -24 67.5t-67 23.5h-230q-41 0 -65.5 -25
t-24.5 -61v-208q0 -35 24.5 -58.5t64.5 -23.5h324v22zM126 262v65q0 29 16.5 49t58.5 20h213q31 0 54.5 -14.5t23.5 -54.5v-65h-366zM167 628l108 69l114 -144l-84 -56zM448 327q0 13 -10 21.5t-24 8.5h-210q-14 0 -24 -8.5t-10 -21.5v-27h278v27zM265 644l-32 -22l79 -75
l18 14z" />
    <glyph glyph-name="eacute" unicode="&#xe9;" 
d="M170 202v-68q0 -12 10 -20t24 -8h352v-106h-363q-30 0 -55 10t-43 27t-28 39.5t-10 48.5v210q0 26 10.5 49t29 40t43 27t52.5 10h231q60 0 98.5 -31.5t38.5 -95.5v-132h-390zM516 65h-315q-43 0 -59 20t-16 49v105h388v89q0 44 -24 67.5t-67 23.5h-230q-41 0 -65.5 -25
t-24.5 -61v-208q0 -35 24.5 -58.5t64.5 -23.5h324v22zM126 262v65q0 29 16.5 49t58.5 20h213q31 0 54.5 -14.5t23.5 -54.5v-65h-366zM318 497l-84 56l114 144l108 -69zM448 327q0 13 -10 21.5t-24 8.5h-210q-14 0 -24 -8.5t-10 -21.5v-27h278v27zM293 561l18 -14l79 75
l-32 22z" />
    <glyph glyph-name="ecircumflex" unicode="&#xea;" 
d="M170 202v-68q0 -12 10 -20t24 -8h352v-106h-363q-30 0 -55 10t-43 27t-28 39.5t-10 48.5v210q0 26 10.5 49t29 40t43 27t52.5 10h231q60 0 98.5 -31.5t38.5 -95.5v-132h-390zM516 65h-315q-43 0 -59 20t-16 49v105h388v89q0 44 -24 67.5t-67 23.5h-230q-41 0 -65.5 -25
t-24.5 -61v-208q0 -35 24.5 -58.5t64.5 -23.5h324v22zM126 262v65q0 29 16.5 49t58.5 20h213q31 0 54.5 -14.5t23.5 -54.5v-65h-366zM408 484l-98 77l-97 -79l-68 77l142 120q9 8 23 7.5t23 -7.5q7 -3 25 -17q16 -12 45.5 -36t81.5 -68zM448 327q0 13 -10 21.5t-24 8.5h-210
q-14 0 -24 -8.5t-10 -21.5v-27h278v27zM318 639q-7 6 -16 0l-102 -83l16 -18l93 76l98 -77l20 19z" />
    <glyph glyph-name="edieresis" unicode="&#xeb;" 
d="M170 202v-68q0 -12 10 -20t24 -8h352v-106h-363q-30 0 -55 10t-43 27t-28 39.5t-10 48.5v210q0 26 10.5 49t29 40t43 27t52.5 10h231q60 0 98.5 -31.5t38.5 -95.5v-132h-390zM516 65h-315q-43 0 -59 20t-16 49v105h388v89q0 44 -24 67.5t-67 23.5h-230q-41 0 -65.5 -25
t-24.5 -61v-208q0 -35 24.5 -58.5t64.5 -23.5h324v22zM126 262v65q0 29 16.5 49t58.5 20h213q31 0 54.5 -14.5t23.5 -54.5v-65h-366zM448 327q0 13 -10 21.5t-24 8.5h-210q-14 0 -24 -8.5t-10 -21.5v-27h278v27zM133 542v107h112v-107h-112zM377 542v107h111v-107h-111z
M444 609h-23v-28h23v28zM200 609h-23v-28h23v28z" />
    <glyph glyph-name="igrave" unicode="&#xec;" horiz-adv-x="256" 
d="M74 0v461h112v-461h-112zM-25 628l108 69l114 -144l-84 -56zM142 422h-23v-383h23v383zM73 644l-32 -22l79 -75l18 14z" />
    <glyph glyph-name="iacute" unicode="&#xed;" horiz-adv-x="256" 
d="M74 0v461h112v-461h-112zM164 497l-84 56l114 144l108 -69zM142 422h-23v-383h23v383zM139 561l18 -14l79 75l-32 22z" />
    <glyph glyph-name="icircumflex" unicode="&#xee;" horiz-adv-x="256" 
d="M74 0v461h112v-461h-112zM223 484l-98 77l-97 -79l-68 77l142 120q9 8 23 7.5t23 -7.5q7 -3 25 -17q16 -12 45.5 -36t81.5 -68zM142 422h-23v-383h23v383zM133 639q-7 6 -16 0l-102 -83l16 -18l93 76l98 -77l20 19z" />
    <glyph glyph-name="idieresis" unicode="&#xef;" horiz-adv-x="256" 
d="M74 0v461h112v-461h-112zM-47 542v107h112v-107h-112zM197 542v107h111v-107h-111zM142 422h-23v-383h23v383zM264 609h-23v-28h23v28zM20 609h-23v-28h23v28z" />
    <glyph glyph-name="eth" unicode="&#xf0;" horiz-adv-x="624" 
d="M414 428l-67 59l46 47q-5 2 -10 2h-10h-171v107h171q27 0 53 -2.5t50 -17.5l47 49l67 -61l-50 -55q28 -42 30 -96v-330q0 -27 -9 -50.5t-27 -41.5t-44 -28t-59 -10h-238q-29 0 -52.5 10t-40 28t-26 41.5t-9.5 50.5v150q0 27 8 51t25.5 42t43.5 28.5t62 10.5h222
q8 0 15.5 -0.5t15.5 -2.5v54q0 4 -1 6zM501 133q0 -29 -16 -48.5t-54 -19.5h-229q-38 0 -54 19.5t-16 48.5v145q0 29 16 48.5t54 19.5h229q38 0 54 -19.5t16 -48.5v-145zM457 280q0 10 -9 19t-23 9h-217q-14 0 -23 -9t-9 -19v-147q0 -10 9 -19t23 -9h217q14 0 23 9t9 19v147
zM542 609l-16 16l-53 -57q-28 22 -49.5 27t-53.5 5h-129v-22h132q14 0 36.5 -3t47.5 -23l-61 -63l16 -15l61 63q20 -20 24.5 -41t4.5 -32v-120q-11 11 -23.5 16.5t-41.5 7.5h-233q-50 0 -71.5 -25t-21.5 -63v-150q0 -38 23 -63t65 -25h233q44 0 68 25t24 63v332
q0 23 -9.5 48.5t-26.5 42.5z" />
    <glyph glyph-name="ntilde" unicode="&#xf1;" 
d="M455 0v329q0 12 -9 20t-23 8h-245v-357h-113v461h364q36 0 62 -10t43 -27.5t25.5 -40.5t8.5 -49v-334h-113zM210 649q45 42 97 9l63 -41l64 54l72 -50l-85 -75q-18 -15 -41.5 -20t-47.5 13l-66 46l-70 -59l-61 57zM522 334q0 36 -24 60t-69 24h-319v-379h23v358h290
q41 0 58.5 -19.5t17.5 -48.5v-290h23v295zM178 580l17 -14l65 57l89 -60q17 -11 29 -6t22 14l61 51l-21 13l-70 -57l-80 53q-17 11 -26.5 12.5t-26.5 -12.5z" />
    <glyph glyph-name="ograve" unicode="&#xf2;" horiz-adv-x="624" 
d="M569 127q0 -26 -9 -49.5t-27 -40.5t-44 -27t-59 -10h-228q-33 0 -58.5 10t-43.5 27t-27.5 40.5t-9.5 49.5v208q0 26 10 49t28 40t43.5 27t57.5 10h228q65 0 102 -33t37 -93v-208zM524 328q0 42 -23 66t-68 24h-233q-45 0 -68 -25.5t-23 -64.5v-195q0 -42 23 -66t68 -24
h233q45 0 68 24t23 66v195zM501 133q0 -29 -16 -48.5t-54 -19.5h-229q-38 0 -54 19.5t-16 48.5v195q0 29 16 48.5t54 19.5h229q38 0 54 -19.5t16 -48.5v-195zM457 330q0 10 -9 19t-23 9h-217q-14 0 -23 -9t-9 -19v-197q0 -10 9 -19t23 -9h217q14 0 23 9t9 19v197zM176 628
l108 69l114 -144l-84 -56zM274 644l-32 -22l79 -75l18 14z" />
    <glyph glyph-name="oacute" unicode="&#xf3;" horiz-adv-x="624" 
d="M569 127q0 -26 -9 -49.5t-27 -40.5t-44 -27t-59 -10h-228q-33 0 -58.5 10t-43.5 27t-27.5 40.5t-9.5 49.5v208q0 26 10 49t28 40t43.5 27t57.5 10h228q65 0 102 -33t37 -93v-208zM524 328q0 42 -23 66t-68 24h-233q-45 0 -68 -25.5t-23 -64.5v-195q0 -42 23 -66t68 -24
h233q45 0 68 24t23 66v195zM501 133q0 -29 -16 -48.5t-54 -19.5h-229q-38 0 -54 19.5t-16 48.5v195q0 29 16 48.5t54 19.5h229q38 0 54 -19.5t16 -48.5v-195zM457 330q0 10 -9 19t-23 9h-217q-14 0 -23 -9t-9 -19v-197q0 -10 9 -19t23 -9h217q14 0 23 9t9 19v197zM318 497
l-84 56l114 144l108 -69zM293 561l18 -14l79 75l-32 22z" />
    <glyph glyph-name="ocircumflex" unicode="&#xf4;" horiz-adv-x="624" 
d="M569 127q0 -26 -9 -49.5t-27 -40.5t-44 -27t-59 -10h-228q-33 0 -58.5 10t-43.5 27t-27.5 40.5t-9.5 49.5v208q0 26 10 49t28 40t43.5 27t57.5 10h228q65 0 102 -33t37 -93v-208zM524 328q0 42 -23 66t-68 24h-233q-45 0 -68 -25.5t-23 -64.5v-195q0 -42 23 -66t68 -24
h233q45 0 68 24t23 66v195zM501 133q0 -29 -16 -48.5t-54 -19.5h-229q-38 0 -54 19.5t-16 48.5v195q0 29 16 48.5t54 19.5h229q38 0 54 -19.5t16 -48.5v-195zM457 330q0 10 -9 19t-23 9h-217q-14 0 -23 -9t-9 -19v-197q0 -10 9 -19t23 -9h217q14 0 23 9t9 19v197zM412 484
l-98 77l-97 -79l-68 77l142 120q9 8 23 7.5t23 -7.5q7 -3 25 -17q16 -12 45.5 -36t81.5 -68zM322 639q-7 6 -16 0l-102 -83l16 -18l93 76l98 -77l20 19z" />
    <glyph glyph-name="otilde" unicode="&#xf5;" horiz-adv-x="624" 
d="M569 127q0 -26 -9 -49.5t-27 -40.5t-44 -27t-59 -10h-228q-33 0 -58.5 10t-43.5 27t-27.5 40.5t-9.5 49.5v208q0 26 10 49t28 40t43.5 27t57.5 10h228q65 0 102 -33t37 -93v-208zM524 328q0 42 -23 66t-68 24h-233q-45 0 -68 -25.5t-23 -64.5v-195q0 -42 23 -66t68 -24
h233q45 0 68 24t23 66v195zM501 133q0 -29 -16 -48.5t-54 -19.5h-229q-38 0 -54 19.5t-16 48.5v195q0 29 16 48.5t54 19.5h229q38 0 54 -19.5t16 -48.5v-195zM457 330q0 10 -9 19t-23 9h-217q-14 0 -23 -9t-9 -19v-197q0 -10 9 -19t23 -9h217q14 0 23 9t9 19v197zM209 649
q45 42 97 9l63 -41l64 54l72 -50l-85 -75q-18 -15 -41.5 -20t-47.5 13l-66 46l-70 -59l-61 57zM177 580l17 -14l65 57l89 -60q17 -11 29 -6t22 14l61 51l-21 13l-70 -57l-80 53q-17 11 -26.5 12.5t-26.5 -12.5z" />
    <glyph glyph-name="odieresis" unicode="&#xf6;" horiz-adv-x="624" 
d="M569 127q0 -26 -9 -49.5t-27 -40.5t-44 -27t-59 -10h-228q-33 0 -58.5 10t-43.5 27t-27.5 40.5t-9.5 49.5v208q0 26 10 49t28 40t43.5 27t57.5 10h228q65 0 102 -33t37 -93v-208zM524 328q0 42 -23 66t-68 24h-233q-45 0 -68 -25.5t-23 -64.5v-195q0 -42 23 -66t68 -24
h233q45 0 68 24t23 66v195zM501 133q0 -29 -16 -48.5t-54 -19.5h-229q-38 0 -54 19.5t-16 48.5v195q0 29 16 48.5t54 19.5h229q38 0 54 -19.5t16 -48.5v-195zM457 330q0 10 -9 19t-23 9h-217q-14 0 -23 -9t-9 -19v-197q0 -10 9 -19t23 -9h217q14 0 23 9t9 19v197zM144 542
v107h112v-107h-112zM211 609h-23v-28h23v28zM388 542v107h111v-107h-111zM455 609h-23v-28h23v28z" />
    <glyph glyph-name="divide" unicode="&#xf7;" horiz-adv-x="600" 
d="M121 177v102h357v-102h-357zM248 -1v104h113v-104h-113zM248 349v104h113v-104h-113zM438 239h-277v-22h277v22zM317 64h-24v-25h24v25zM317 414h-24v-25h24v25z" />
    <glyph glyph-name="oslash" unicode="&#xf8;" horiz-adv-x="624" 
d="M18 38l52 46q-7 18 -7 43v208q0 26 10 49t28 40t43.5 27t57.5 10h228q31 0 57 -9l68 60l67 -76l-61 -54q8 -22 8 -47v-208q0 -26 -9 -49.5t-27 -40.5t-44 -27t-59 -10h-228q-17 0 -31.5 2.5t-28.5 7.5l-56 -50zM200 418q-45 0 -68 -25.5t-23 -64.5v-195q0 -16 4 -31.5
t10 -23.5l-34 -30l-16 -14q5 -6 7.5 -8.5t7.5 -8.5q2 2 6.5 5.5t10.5 9.5l33 29q13 -10 29 -14t33 -4h233q45 0 68 24t23 66v195q0 25 -6 38t-12 21l61 53l-15 18l-62 -54q-14 14 -57 14h-233zM489 371q5 -8 8.5 -19.5t3.5 -23.5v-195q0 -29 -16 -48.5t-54 -19.5h-228
q-34 0 -47 12l35 32l263 232zM436 356q-30 -27 -63 -56.5t-67 -59.5t-67 -59.5t-62 -54.5l-36 -32q-9 16 -9 45v189q0 29 16 48.5t54 19.5h221q30 0 48 -9zM425 105q14 0 23 9t9 19v157l-209 -185h177zM176 178l204 180h-172q-14 0 -23 -9t-9 -19v-152z" />
    <glyph glyph-name="ugrave" unicode="&#xf9;" 
d="M193 0q-33 0 -58.5 10t-43.5 27t-27.5 40t-9.5 49v335h113v-330q0 -11 9 -19t22 -8q90 -1 140 -1h74h33v357h112v-460h-364zM512 421h-23v-356h-291q-44 0 -60 19t-16 47v290h-23v-295q0 -36 23.5 -59.5t70.5 -23.5h319v378zM168 628l108 69l114 -144l-84 -56zM266 644
l-32 -22l79 -75l18 14z" />
    <glyph glyph-name="uacute" unicode="&#xfa;" 
d="M193 0q-33 0 -58.5 10t-43.5 27t-27.5 40t-9.5 49v335h113v-330q0 -11 9 -19t22 -8q90 -1 140 -1h74h33v357h112v-460h-364zM512 421h-23v-356h-291q-44 0 -60 19t-16 47v290h-23v-295q0 -36 23.5 -59.5t70.5 -23.5h319v378zM330 497l-84 56l114 144l108 -69zM305 561
l18 -14l79 75l-32 22z" />
    <glyph glyph-name="ucircumflex" unicode="&#xfb;" 
d="M193 0q-33 0 -58.5 10t-43.5 27t-27.5 40t-9.5 49v335h113v-330q0 -11 9 -19t22 -8q90 -1 140 -1h74h33v357h112v-460h-364zM397 484l-98 77l-97 -79l-68 77l142 120q9 8 23 7.5t23 -7.5q7 -3 25 -17q16 -12 45.5 -36t81.5 -68zM512 421h-23v-356h-291q-44 0 -60 19
t-16 47v290h-23v-295q0 -36 23.5 -59.5t70.5 -23.5h319v378zM307 639q-7 6 -16 0l-102 -83l16 -18l93 76l98 -77l20 19z" />
    <glyph glyph-name="udieresis" unicode="&#xfc;" 
d="M193 0q-33 0 -58.5 10t-43.5 27t-27.5 40t-9.5 49v335h113v-330q0 -11 9 -19t22 -8q90 -1 140 -1h74h33v357h112v-460h-364zM512 421h-23v-356h-291q-44 0 -60 19t-16 47v290h-23v-295q0 -36 23.5 -59.5t70.5 -23.5h319v378zM134 542v107h112v-107h-112zM378 542v107h111
v-107h-111zM445 609h-23v-28h23v28zM201 609h-23v-28h23v28z" />
    <glyph glyph-name="yacute" unicode="&#xfd;" horiz-adv-x="615" 
d="M558 -59q0 -27 -9 -50.5t-26.5 -41t-43 -28t-59.5 -10.5h-227v105h221q13 0 22 9t9 21v54h-255q-33 0 -58.5 10t-43.5 27t-27.5 40.5t-9.5 49.5v334h113v-328q0 -10 9 -19t23 -9h250v356h112v-520zM513 421h-23v-356h-300q-38 0 -54 19.5t-16 48.5v288h-23v-288
q0 -42 23 -66t68 -24h302v-94q0 -38 -17.5 -55t-52.5 -17h-188v-22h188q48 0 70.5 24t22.5 62v480zM327 497l-84 56l114 144l108 -69zM302 561l18 -14l79 75l-32 22z" />
    <glyph glyph-name="thorn" unicode="&#xfe;" horiz-adv-x="592" 
d="M158 0v-190h-113v837h112v-186h252q36 0 62.5 -10t43.5 -28t25 -41.5t8 -50.5v-331h-390zM114 64v332h287q44 0 61 -18.5t17 -49.5v-264h-365zM435 328q0 14 -9.5 21.5t-22.5 7.5h-246v-253h278v224zM114 607h-23v-757h23v192h388v289q0 38 -22 63t-71 25h-295v188z" />
    <glyph glyph-name="ydieresis" unicode="&#xff;" horiz-adv-x="615" 
d="M558 -59q0 -27 -9 -50.5t-26.5 -41t-43 -28t-59.5 -10.5h-227v105h221q13 0 22 9t9 21v54h-255q-33 0 -58.5 10t-43.5 27t-27.5 40.5t-9.5 49.5v334h113v-328q0 -10 9 -19t23 -9h250v356h112v-520zM513 421h-23v-356h-300q-38 0 -54 19.5t-16 48.5v288h-23v-288
q0 -42 23 -66t68 -24h302v-94q0 -38 -17.5 -55t-52.5 -17h-188v-22h188q48 0 70.5 24t22.5 62v480zM126 542v107h112v-107h-112zM370 542v107h111v-107h-111zM437 609h-23v-28h23v28zM193 609h-23v-28h23v28z" />
    <glyph glyph-name="Amacron" unicode="&#x100;" horiz-adv-x="582" 
d="M546 0h-111v343h-283v-54q0 -24 0.5 -55t0.5 -63v-171h-112v519q0 27 10 50.5t28 41t43.5 27.5t56.5 10h368zM501 605h-322q-41 0 -66.5 -24.5t-25.5 -61.5v-480h23v342h367v-342h24v566zM110 403v109q0 14 3.5 27t12 22.5t23 15.5t36.5 6h292v-180h-367zM137 729v102
h322v-102h-322zM435 544h-250q-14 0 -23.5 -10t-9.5 -22v-66h283v98zM419 791h-242v-22h242v22z" />
    <glyph glyph-name="amacron" unicode="&#x101;" horiz-adv-x="614" 
d="M186 0q-33 0 -58.5 10t-43.5 27t-27.5 40.5t-9.5 49.5v208q0 26 10 49t28 40t43.5 27t57.5 10h368v-461h-368zM509 418h-325q-45 0 -68 -25.5t-23 -64.5v-195q0 -42 23 -66t68 -24h325v375zM186 65q-38 0 -54 19.5t-16 48.5v195q0 29 16 48.5t54 19.5h300v-331h-300z
M442 358h-250q-14 0 -23 -9t-9 -19v-197q0 -10 9 -19t23 -9h250v253zM159 537v102h322v-102h-322zM441 599h-242v-22h242v22z" />
    <glyph glyph-name="Abreve" unicode="&#x102;" horiz-adv-x="582" 
d="M546 0h-111v343h-283v-54q0 -24 0.5 -55t0.5 -63v-171h-112v519q0 27 10 50.5t28 41t43.5 27.5t56.5 10h368zM501 605h-322q-41 0 -66.5 -24.5t-25.5 -61.5v-480h23v342h367v-342h24v566zM110 403v109q0 14 3.5 27t12 22.5t23 15.5t36.5 6h292v-180h-367zM455 879v-49
q0 -33 -10 -57.5t-27.5 -41t-40.5 -25t-49 -8.5h-58q-26 0 -49 8.5t-40 25.5t-27 41.5t-10 56.5v49h103v-43q0 -14 9 -25.5t19 -11.5h47q10 0 19 11.5t9 25.5v43h105zM435 544h-250q-14 0 -23.5 -10t-9.5 -22v-66h283v98zM390 838v-8q0 -38 -19.5 -54t-48.5 -16h-45
q-29 0 -48.5 16t-19.5 54v11h-22v-13q0 -45 25.5 -68t64.5 -23h45q42 0 66 23t24 68v10h-22z" />
    <glyph glyph-name="abreve" unicode="&#x103;" horiz-adv-x="614" 
d="M186 0q-33 0 -58.5 10t-43.5 27t-27.5 40.5t-9.5 49.5v208q0 26 10 49t28 40t43.5 27t57.5 10h368v-461h-368zM509 418h-325q-45 0 -68 -25.5t-23 -64.5v-195q0 -42 23 -66t68 -24h325v375zM186 65q-38 0 -54 19.5t-16 48.5v195q0 29 16 48.5t54 19.5h300v-331h-300z
M442 358h-250q-14 0 -23 -9t-9 -19v-197q0 -10 9 -19t23 -9h250v253zM473 679v-49q0 -33 -10 -57.5t-27.5 -41t-40.5 -25t-49 -8.5h-58q-26 0 -49 8.5t-40 25.5t-27 41.5t-10 56.5v49h103v-43q0 -14 9 -25.5t19 -11.5h47q10 0 19 11.5t9 25.5v43h105zM408 638v-8
q0 -38 -19.5 -54t-48.5 -16h-45q-29 0 -48.5 16t-19.5 54v11h-22v-13q0 -45 25.5 -68t64.5 -23h45q42 0 66 23t24 68v10h-22z" />
    <glyph glyph-name="Aogonek" unicode="&#x104;" horiz-adv-x="582" 
d="M435 363h-283v-57q0 -26 0.5 -58.5t0.5 -66.5v-181h-112v519q0 27 10 50.5t28 41t43.5 27.5t56.5 10h368v-648h-1q-36 -33 -36 -65q0 -16 8.5 -22.5t32.5 -6.5q7 0 14.5 0.5t16.5 2.5l-1 -96q-24 -6 -46 -6q-66 1 -99.5 35t-33.5 81q0 39 33 77v363zM477 0
q-17 -18 -24.5 -38t-7.5 -39q0 -32 21.5 -53.5t61.5 -21.5h9t9 1v21q-38 0 -57.5 15.5t-19.5 40.5q0 37 32 74v605h-322q-41 0 -66.5 -24.5t-25.5 -61.5v-480h23v362h367v-401zM110 423v89q0 14 3.5 27t12 22.5t23 15.5t36.5 6h292v-160h-367zM435 466v78h-250
q-14 0 -23.5 -10t-9.5 -22v-46h283z" />
    <glyph glyph-name="aogonek" unicode="&#x105;" horiz-adv-x="614" 
d="M186 0q-33 0 -58.5 10t-43.5 27t-27.5 40.5t-9.5 49.5v208q0 26 10 49t28 40t43.5 27t57.5 10h368v-461h-185q-36 -33 -36 -65q0 -16 8.5 -22.5t32.5 -6.5q7 0 14.5 0.5t16.5 2.5l-1 -96q-24 -6 -46 -6q-66 1 -99.5 35t-33.5 81q0 37 32 77h-71zM186 65q-38 0 -54 19.5
t-16 48.5v195q0 29 16 48.5t54 19.5h300v-331h-300zM442 358h-250q-14 0 -23 -9t-9 -19v-197q0 -10 9 -19t23 -9h250v253zM362 43h147v375h-325q-45 0 -68 -25.5t-23 -64.5v-195q0 -42 23 -66t68 -24h151l-32 -36q-17 -18 -26 -41.5t-9 -42.5q0 -32 21.5 -53.5t61.5 -21.5h9
t9 1v21q-38 0 -57.5 15.5t-19.5 40.5q0 37 32 74z" />
    <glyph glyph-name="Cacute" unicode="&#x106;" horiz-adv-x="556" 
d="M530 127q0 -26 -9 -49.5t-27 -40.5t-44 -27t-59 -10h-227q-33 0 -58.5 10t-43.5 27t-27.5 40.5t-9.5 49.5v395q0 26 10 49t28 40.5t43.5 27.5t57.5 10h227q65 0 102 -33t37 -94v-61h-112v56q0 10 -8.5 19t-23.5 9h-216q-15 0 -23.5 -9t-8.5 -19v-384q0 -10 8.5 -19
t23.5 -9h216q15 0 23.5 9t8.5 19v59h112v-65zM485 153h-23v-20q0 -29 -16 -48.5t-54 -19.5h-228q-38 0 -54 19.5t-16 48.5v383q0 29 16 48.5t54 19.5h228q38 0 54 -19.5t16 -48.5v-16h23v15q0 43 -23 67t-68 24h-232q-45 0 -68 -25.5t-23 -65.5v-382q0 -42 23 -66t68 -24
h232q45 0 68 24t23 66v20zM276 695l-77 65l129 131l100 -80zM333 846l-82 -83l27 -22l93 75z" />
    <glyph glyph-name="cacute" unicode="&#x107;" horiz-adv-x="607" 
d="M563 127q0 -26 -9 -49.5t-27 -40.5t-44 -27t-59 -10h-227q-33 0 -58.5 10t-43.5 27t-27.5 40.5t-9.5 49.5v208q0 26 10 49t28 40t43.5 27t57.5 10h227q65 0 102 -33t37 -93v-51h-112v46q0 10 -9 19t-23 9h-216q-14 0 -23 -9t-9 -19v-197q0 -10 9 -19t23 -9h216q14 0 23 9
t9 19v49h112v-55zM518 143h-23v-10q0 -29 -16 -48.5t-54 -19.5h-228q-38 0 -54 19.5t-16 48.5v195q0 29 16 48.5t54 19.5h228q38 0 54 -19.5t16 -48.5v-5h23v5q0 42 -23 66t-68 24h-232q-45 0 -68 -25.5t-23 -64.5v-195q0 -42 23 -66t68 -24h232q45 0 68 24t23 66v10z
M317 497l-84 56l114 144l108 -69zM292 561l18 -14l79 75l-32 22z" />
    <glyph glyph-name="Ccircumflex" unicode="&#x108;" horiz-adv-x="556" 
d="M530 127q0 -26 -9 -49.5t-27 -40.5t-44 -27t-59 -10h-227q-33 0 -58.5 10t-43.5 27t-27.5 40.5t-9.5 49.5v395q0 26 10 49t28 40.5t43.5 27.5t57.5 10h227q65 0 102 -33t37 -94v-61h-112v56q0 10 -8.5 19t-23.5 9h-216q-15 0 -23.5 -9t-8.5 -19v-384q0 -10 8.5 -19
t23.5 -9h216q15 0 23.5 9t8.5 19v59h112v-65zM485 153h-23v-20q0 -29 -16 -48.5t-54 -19.5h-228q-38 0 -54 19.5t-16 48.5v383q0 29 16 48.5t54 19.5h228q38 0 54 -19.5t16 -48.5v-16h23v15q0 43 -23 67t-68 24h-232q-45 0 -68 -25.5t-23 -65.5v-382q0 -42 23 -66t68 -24
h232q45 0 68 24t23 66v20zM398 687l-117 82l-118 -86l-66 75l160 119q9 8 23 7.5t23 -7.5q8 -5 28 -19q17 -12 50 -35.5t87 -62.5zM292 841q-10 8 -22 0l-118 -88l16 -19l112 80l118 -80l18 20z" />
    <glyph glyph-name="ccircumflex" unicode="&#x109;" horiz-adv-x="607" 
d="M563 127q0 -26 -9 -49.5t-27 -40.5t-44 -27t-59 -10h-227q-33 0 -58.5 10t-43.5 27t-27.5 40.5t-9.5 49.5v208q0 26 10 49t28 40t43.5 27t57.5 10h227q65 0 102 -33t37 -93v-51h-112v46q0 10 -9 19t-23 9h-216q-14 0 -23 -9t-9 -19v-197q0 -10 9 -19t23 -9h216q14 0 23 9
t9 19v49h112v-55zM518 143h-23v-10q0 -29 -16 -48.5t-54 -19.5h-228q-38 0 -54 19.5t-16 48.5v195q0 29 16 48.5t54 19.5h228q38 0 54 -19.5t16 -48.5v-5h23v5q0 42 -23 66t-68 24h-232q-45 0 -68 -25.5t-23 -64.5v-195q0 -42 23 -66t68 -24h232q45 0 68 24t23 66v10z
M410 484l-98 77l-97 -79l-68 77l142 120q9 8 23 7.5t23 -7.5q7 -3 25 -17q16 -12 45.5 -36t81.5 -68zM320 639q-7 6 -16 0l-102 -83l16 -18l93 76l98 -77l20 19z" />
    <glyph glyph-name="Cdotaccent" unicode="&#x10a;" horiz-adv-x="556" 
d="M530 127q0 -26 -9 -49.5t-27 -40.5t-44 -27t-59 -10h-227q-33 0 -58.5 10t-43.5 27t-27.5 40.5t-9.5 49.5v395q0 26 10 49t28 40.5t43.5 27.5t57.5 10h227q65 0 102 -33t37 -94v-61h-112v56q0 10 -8.5 19t-23.5 9h-216q-15 0 -23.5 -9t-8.5 -19v-384q0 -10 8.5 -19
t23.5 -9h216q15 0 23.5 9t8.5 19v59h112v-65zM485 153h-23v-20q0 -29 -16 -48.5t-54 -19.5h-228q-38 0 -54 19.5t-16 48.5v383q0 29 16 48.5t54 19.5h228q38 0 54 -19.5t16 -48.5v-16h23v15q0 43 -23 67t-68 24h-232q-45 0 -68 -25.5t-23 -65.5v-382q0 -42 23 -66t68 -24
h232q45 0 68 24t23 66v20zM231 727v107h112v-107h-112zM298 794h-23v-28h23v28z" />
    <glyph glyph-name="cdotaccent" unicode="&#x10b;" horiz-adv-x="607" 
d="M563 127q0 -26 -9 -49.5t-27 -40.5t-44 -27t-59 -10h-227q-33 0 -58.5 10t-43.5 27t-27.5 40.5t-9.5 49.5v208q0 26 10 49t28 40t43.5 27t57.5 10h227q65 0 102 -33t37 -93v-51h-112v46q0 10 -9 19t-23 9h-216q-14 0 -23 -9t-9 -19v-197q0 -10 9 -19t23 -9h216q14 0 23 9
t9 19v49h112v-55zM518 143h-23v-10q0 -29 -16 -48.5t-54 -19.5h-228q-38 0 -54 19.5t-16 48.5v195q0 29 16 48.5t54 19.5h228q38 0 54 -19.5t16 -48.5v-5h23v5q0 42 -23 66t-68 24h-232q-45 0 -68 -25.5t-23 -64.5v-195q0 -42 23 -66t68 -24h232q45 0 68 24t23 66v10z
M255 542v107h112v-107h-112zM322 609h-23v-28h23v28z" />
    <glyph glyph-name="Ccaron" unicode="&#x10c;" horiz-adv-x="556" 
d="M530 127q0 -26 -9 -49.5t-27 -40.5t-44 -27t-59 -10h-227q-33 0 -58.5 10t-43.5 27t-27.5 40.5t-9.5 49.5v395q0 26 10 49t28 40.5t43.5 27.5t57.5 10h227q65 0 102 -33t37 -94v-61h-112v56q0 10 -8.5 19t-23.5 9h-216q-15 0 -23.5 -9t-8.5 -19v-384q0 -10 8.5 -19
t23.5 -9h216q15 0 23.5 9t8.5 19v59h112v-65zM485 153h-23v-20q0 -29 -16 -48.5t-54 -19.5h-228q-38 0 -54 19.5t-16 48.5v383q0 29 16 48.5t54 19.5h228q38 0 54 -19.5t16 -48.5v-16h23v15q0 43 -23 67t-68 24h-232q-45 0 -68 -25.5t-23 -65.5v-382q0 -42 23 -66t68 -24
h232q45 0 68 24t23 66v20zM472 814q-54 -40 -87.5 -63.5t-52.5 -36.5q-22 -15 -32 -21q-9 -7 -23 -7.5t-23 7.5l-162 120l68 74l118 -86l117 82zM414 816l-20 19l-117 -77l-114 76l-16 -18l120 -85q12 -8 22 0z" />
    <glyph glyph-name="ccaron" unicode="&#x10d;" horiz-adv-x="607" 
d="M563 127q0 -26 -9 -49.5t-27 -40.5t-44 -27t-59 -10h-227q-33 0 -58.5 10t-43.5 27t-27.5 40.5t-9.5 49.5v208q0 26 10 49t28 40t43.5 27t57.5 10h227q65 0 102 -33t37 -93v-51h-112v46q0 10 -9 19t-23 9h-216q-14 0 -23 -9t-9 -19v-197q0 -10 9 -19t23 -9h216q14 0 23 9
t9 19v49h112v-55zM518 143h-23v-10q0 -29 -16 -48.5t-54 -19.5h-228q-38 0 -54 19.5t-16 48.5v195q0 29 16 48.5t54 19.5h228q38 0 54 -19.5t16 -48.5v-5h23v5q0 42 -23 66t-68 24h-232q-45 0 -68 -25.5t-23 -64.5v-195q0 -42 23 -66t68 -24h232q45 0 68 24t23 66v10z
M481 619q-52 -44 -81.5 -68t-45.5 -36q-18 -14 -25 -17q-9 -7 -23 -7.5t-23 7.5l-142 120l68 77l97 -79l98 77zM423 621l-20 19l-98 -77l-93 76l-16 -18l102 -83q9 -6 16 0z" />
    <glyph glyph-name="Dcaron" unicode="&#x10e;" horiz-adv-x="583" 
d="M550 130q0 -32 -11 -56t-29.5 -40.5t-43.5 -25t-53 -8.5h-368v648h368q28 0 53 -7t43.5 -22.5t29.5 -40t11 -60.5v-388zM505 518q0 48 -25.5 68t-66.5 20h-322v-563h322q45 0 68.5 24.5t23.5 62.5v388zM482 134q0 -41 -22.5 -54.5t-52.5 -13.5h-294v518h294
q30 0 52.5 -14.5t22.5 -57.5v-378zM440 516q0 12 -9.5 20t-23.5 8l-251 1v-440h251q14 0 23.5 8.5t9.5 20.5v382zM472 814q-54 -40 -87.5 -63.5t-52.5 -36.5q-22 -15 -32 -21q-9 -7 -23 -7.5t-23 7.5l-162 120l68 74l118 -86l117 82zM414 816l-20 19l-117 -77l-114 76
l-16 -18l120 -85q12 -8 22 0z" />
    <glyph glyph-name="dcaron" unicode="&#x10f;" horiz-adv-x="677" 
d="M53 0v334q0 55 34.5 91t97.5 36h251v187h117v-648h-500zM506 604h-24v-186h-291q-50 0 -71.5 -27.5t-21.5 -65.5v-282h408v561zM121 66l-1 262q0 29 16.5 48.5t58.5 19.5l287 1v-331h-361zM439 358l-246 1q-11 0 -19.5 -8.5t-8.5 -19.5v-226h274v253zM690 537h-94l30 160
h112zM659 657l-16 -80h18l24 80h-26z" />
    <glyph glyph-name="Dcroat" unicode="&#x110;" horiz-adv-x="583" 
d="M0 363h45v285h368q28 0 53 -7t43.5 -22.5t29.5 -40t11 -60.5v-388q0 -32 -11 -56t-29.5 -40.5t-43.5 -25t-53 -8.5h-368v262h-45v101zM440 516q0 12 -9.5 20t-23.5 8l-251 1v-182h153v-101h-153v-157h251q14 0 23.5 8.5t9.5 20.5v382zM113 301h157v23h-157v260h294
q30 0 52.5 -14.5t22.5 -57.5v-378q0 -41 -22.5 -54.5t-52.5 -13.5h-294v235zM91 43h322q45 0 68.5 24.5t23.5 62.5v388q0 48 -25.5 68t-66.5 20h-322v-282h-52v-23h52v-258z" />
    <glyph glyph-name="dcroat" unicode="&#x111;" horiz-adv-x="608" 
d="M53 0v334q0 55 34.5 91t97.5 36h251v20h-92v101h92v66h117v-66h54v-101h-54v-481h-500zM121 66l-1 262q0 29 16.5 48.5t58.5 19.5l287 1v-331h-361zM439 358l-246 1q-11 0 -19.5 -8.5t-8.5 -19.5v-226h274v253zM506 604h-24v-61h-99v-23h99v-102h-291q-50 0 -71.5 -27.5
t-21.5 -65.5v-282h408v477h62v23h-62v61z" />
    <glyph glyph-name="Emacron" unicode="&#x112;" horiz-adv-x="548" 
d="M170 0q-32 0 -57.5 10t-43.5 28t-27.5 41.5t-9.5 50.5v388q0 27 9 50.5t26.5 41.5t43.5 28t59 10h352v-104h-347q-13 0 -21.5 -8.5t-8.5 -19.5v-70h323v-104h-323v-208q0 -11 8.5 -20t23.5 -9h345v-105h-352zM482 66h-305q-44 0 -60 20t-16 48v248h328v21h-328v109
q0 14 3.5 27t12 23t23 16t35.5 6h307v21h-312q-43 0 -67.5 -24.5t-24.5 -62.5v-388q0 -38 22 -62.5t70 -24.5h312v23zM134 729v102h322v-102h-322zM416 791h-242v-22h242v22z" />
    <glyph glyph-name="emacron" unicode="&#x113;" 
d="M170 202v-68q0 -12 10 -20t24 -8h352v-106h-363q-30 0 -55 10t-43 27t-28 39.5t-10 48.5v210q0 26 10.5 49t29 40t43 27t52.5 10h231q60 0 98.5 -31.5t38.5 -95.5v-132h-390zM516 65h-315q-43 0 -59 20t-16 49v105h388v89q0 44 -24 67.5t-67 23.5h-230q-41 0 -65.5 -25
t-24.5 -61v-208q0 -35 24.5 -58.5t64.5 -23.5h324v22zM126 262v65q0 29 16.5 49t58.5 20h213q31 0 54.5 -14.5t23.5 -54.5v-65h-366zM151 537v102h322v-102h-322zM448 327q0 13 -10 21.5t-24 8.5h-210q-14 0 -24 -8.5t-10 -21.5v-27h278v27zM433 599h-242v-22h242v22z" />
    <glyph glyph-name="Ebreve" unicode="&#x114;" horiz-adv-x="548" 
d="M170 0q-32 0 -57.5 10t-43.5 28t-27.5 41.5t-9.5 50.5v388q0 27 9 50.5t26.5 41.5t43.5 28t59 10h352v-104h-347q-13 0 -21.5 -8.5t-8.5 -19.5v-70h323v-104h-323v-208q0 -11 8.5 -20t23.5 -9h345v-105h-352zM436 879v-49q0 -33 -10 -57.5t-27.5 -41t-40.5 -25t-49 -8.5
h-58q-26 0 -49 8.5t-40 25.5t-27 41.5t-10 56.5v49h103v-43q0 -14 9 -25.5t19 -11.5h47q10 0 19 11.5t9 25.5v43h105zM482 66h-305q-44 0 -60 20t-16 48v248h328v21h-328v109q0 14 3.5 27t12 23t23 16t35.5 6h307v21h-312q-43 0 -67.5 -24.5t-24.5 -62.5v-388
q0 -38 22 -62.5t70 -24.5h312v23zM371 838v-8q0 -38 -19.5 -54t-48.5 -16h-45q-29 0 -48.5 16t-19.5 54v11h-22v-13q0 -45 25.5 -68t64.5 -23h45q42 0 66 23t24 68v10h-22z" />
    <glyph glyph-name="ebreve" unicode="&#x115;" 
d="M170 202v-68q0 -12 10 -20t24 -8h352v-106h-363q-30 0 -55 10t-43 27t-28 39.5t-10 48.5v210q0 26 10.5 49t29 40t43 27t52.5 10h231q60 0 98.5 -31.5t38.5 -95.5v-132h-390zM516 65h-315q-43 0 -59 20t-16 49v105h388v89q0 44 -24 67.5t-67 23.5h-230q-41 0 -65.5 -25
t-24.5 -61v-208q0 -35 24.5 -58.5t64.5 -23.5h324v22zM126 262v65q0 29 16.5 49t58.5 20h213q31 0 54.5 -14.5t23.5 -54.5v-65h-366zM453 679v-49q0 -33 -10 -57.5t-27.5 -41t-40.5 -25t-49 -8.5h-58q-26 0 -49 8.5t-40 25.5t-27 41.5t-10 56.5v49h103v-43q0 -14 9 -25.5
t19 -11.5h47q10 0 19 11.5t9 25.5v43h105zM448 327q0 13 -10 21.5t-24 8.5h-210q-14 0 -24 -8.5t-10 -21.5v-27h278v27zM388 638v-8q0 -38 -19.5 -54t-48.5 -16h-45q-29 0 -48.5 16t-19.5 54v11h-22v-13q0 -45 25.5 -68t64.5 -23h45q42 0 66 23t24 68v10h-22z" />
    <glyph glyph-name="Edotaccent" unicode="&#x116;" horiz-adv-x="548" 
d="M170 0q-32 0 -57.5 10t-43.5 28t-27.5 41.5t-9.5 50.5v388q0 27 9 50.5t26.5 41.5t43.5 28t59 10h352v-104h-347q-13 0 -21.5 -8.5t-8.5 -19.5v-70h323v-104h-323v-208q0 -11 8.5 -20t23.5 -9h345v-105h-352zM482 66h-305q-44 0 -60 20t-16 48v248h328v21h-328v109
q0 14 3.5 27t12 23t23 16t35.5 6h307v21h-312q-43 0 -67.5 -24.5t-24.5 -62.5v-388q0 -38 22 -62.5t70 -24.5h312v23zM251 734v107h112v-107h-112zM318 801h-23v-28h23v28z" />
    <glyph glyph-name="edotaccent" unicode="&#x117;" 
d="M170 202v-68q0 -12 10 -20t24 -8h352v-106h-363q-30 0 -55 10t-43 27t-28 39.5t-10 48.5v210q0 26 10.5 49t29 40t43 27t52.5 10h231q60 0 98.5 -31.5t38.5 -95.5v-132h-390zM516 65h-315q-43 0 -59 20t-16 49v105h388v89q0 44 -24 67.5t-67 23.5h-230q-41 0 -65.5 -25
t-24.5 -61v-208q0 -35 24.5 -58.5t64.5 -23.5h324v22zM126 262v65q0 29 16.5 49t58.5 20h213q31 0 54.5 -14.5t23.5 -54.5v-65h-366zM448 327q0 13 -10 21.5t-24 8.5h-210q-14 0 -24 -8.5t-10 -21.5v-27h278v27zM259 542v107h112v-107h-112zM326 609h-23v-28h23v28z" />
    <glyph glyph-name="Eogonek" unicode="&#x118;" horiz-adv-x="548" 
d="M170 0q-32 0 -57.5 10t-43.5 28t-27.5 41.5t-9.5 50.5v388q0 27 9 50.5t26.5 41.5t43.5 28t59 10h352v-104h-347q-13 0 -21.5 -8.5t-8.5 -19.5v-50h323v-104h-323v-228q0 -11 8.5 -20t23.5 -9h345v-105h-32q-36 -33 -36 -65q0 -16 8.5 -22.5t32.5 -6.5q7 0 14.5 0.5
t16.5 2.5l-1 -96q-24 -6 -46 -6q-66 1 -99.5 35t-33.5 81q0 37 32 77h-208zM421 0q-17 -18 -24.5 -38t-7.5 -39q0 -32 21.5 -53.5t61.5 -21.5h9t9 1v21q-38 0 -57.5 15.5t-19.5 40.5q0 37 32 74l37 43v23h-305q-44 0 -60 20t-16 48v268h328v21h-328v89q0 14 3.5 27t12 23
t23 16t35.5 6h307v21h-312q-43 0 -67.5 -24.5t-24.5 -62.5v-388q0 -38 22 -62.5t70 -24.5h287z" />
    <glyph glyph-name="eogonek" unicode="&#x119;" 
d="M560 202h-390v-68q0 -12 10 -20t24 -8h352v-106h-140q-36 -33 -36 -65q0 -16 8.5 -22.5t32.5 -6.5q7 0 14.5 0.5t16.5 2.5l-1 -96q-24 -6 -46 -6q-66 1 -99.5 35t-33.5 81q0 37 32 77h-111q-30 0 -55 10t-43 27t-28 39.5t-10 48.5v210q0 26 10.5 49t29 40t43 27t52.5 10
h231q60 0 98.5 -31.5t38.5 -95.5v-132zM126 262v65q0 29 16.5 49t58.5 20h213q31 0 54.5 -14.5t23.5 -54.5v-65h-366zM448 300v27q0 13 -10 21.5t-24 8.5h-210q-14 0 -24 -8.5t-10 -21.5v-27h278zM409 43h107v22h-315q-43 0 -59 20t-16 49v105h388v89q0 44 -24 67.5
t-67 23.5h-230q-41 0 -65.5 -25t-24.5 -61v-208q0 -35 24.5 -58.5t64.5 -23.5h192l-37 -43q-17 -18 -24.5 -38t-7.5 -39q0 -32 21.5 -53.5t61.5 -21.5h9t9 1v21q-38 0 -57.5 15.5t-19.5 40.5q0 37 32 74z" />
    <glyph glyph-name="Ecaron" unicode="&#x11a;" horiz-adv-x="548" 
d="M170 0q-32 0 -57.5 10t-43.5 28t-27.5 41.5t-9.5 50.5v388q0 27 9 50.5t26.5 41.5t43.5 28t59 10h352v-104h-347q-13 0 -21.5 -8.5t-8.5 -19.5v-70h323v-104h-323v-208q0 -11 8.5 -20t23.5 -9h345v-105h-352zM486 814q-54 -40 -87.5 -63.5t-52.5 -36.5q-22 -15 -32 -21
q-9 -7 -23 -7.5t-23 7.5l-162 120l68 74l118 -86l117 82zM482 66h-305q-44 0 -60 20t-16 48v248h328v21h-328v109q0 14 3.5 27t12 23t23 16t35.5 6h307v21h-312q-43 0 -67.5 -24.5t-24.5 -62.5v-388q0 -38 22 -62.5t70 -24.5h312v23zM428 816l-20 19l-117 -77l-114 76
l-16 -18l120 -85q12 -8 22 0z" />
    <glyph glyph-name="ecaron" unicode="&#x11b;" 
d="M170 202v-68q0 -12 10 -20t24 -8h352v-106h-363q-30 0 -55 10t-43 27t-28 39.5t-10 48.5v210q0 26 10.5 49t29 40t43 27t52.5 10h231q60 0 98.5 -31.5t38.5 -95.5v-132h-390zM516 65h-315q-43 0 -59 20t-16 49v105h388v89q0 44 -24 67.5t-67 23.5h-230q-41 0 -65.5 -25
t-24.5 -61v-208q0 -35 24.5 -58.5t64.5 -23.5h324v22zM126 262v65q0 29 16.5 49t58.5 20h213q31 0 54.5 -14.5t23.5 -54.5v-65h-366zM476 621q-52 -44 -81.5 -68t-45.5 -36q-18 -14 -25 -17q-9 -7 -23 -7.5t-23 7.5l-142 120l68 77l97 -79l98 77zM448 327q0 13 -10 21.5
t-24 8.5h-210q-14 0 -24 -8.5t-10 -21.5v-27h278v27zM418 623l-20 19l-98 -77l-93 76l-16 -18l102 -83q9 -6 16 0z" />
    <glyph glyph-name="Gcircumflex" unicode="&#x11c;" horiz-adv-x="580" 
d="M545 130q0 -31 -11 -55t-29.5 -40.5t-44 -25.5t-53.5 -9h-229q-33 0 -58.5 10t-43 28t-27 41.5t-9.5 50.5v389q0 27 9 50.5t26.5 41t43.5 28t59 10.5h229q37 0 63.5 -10.5t43 -28t24 -41t7.5 -50.5v-57h-111v51q0 12 -9 22t-23 10h-218q-14 0 -23.5 -10t-9.5 -22l1 -379
q0 -12 9 -20.5t22 -8.5h219q13 0 22.5 8.5t9.5 20.5v62h-150v105h261v-171zM500 261h-176v-26h153v-101q0 -20 -6 -33.5t-16.5 -21t-24 -10.5t-28.5 -3h-219q-43 0 -58.5 19.5t-15.5 48.5v379q0 29 16 50t59 21h218q43 0 59 -21t16 -50v-12h23v18q0 38 -22.5 62t-70.5 24
h-229q-41 0 -67 -24t-26 -62v-389q0 -38 22.5 -62.5t70.5 -24.5h229q48 0 70.5 24.5t22.5 62.5v131zM408 687l-117 82l-118 -86l-66 75l160 119q9 8 23 7.5t23 -7.5q8 -5 28 -19q17 -12 50 -35.5t87 -62.5zM302 841q-10 8 -22 0l-118 -88l16 -19l112 80l118 -80l18 20z" />
    <glyph glyph-name="gcircumflex" unicode="&#x11d;" horiz-adv-x="608" 
d="M552 -59q0 -27 -9 -50.5t-26.5 -41t-43 -28t-59.5 -10.5h-227v105h221q13 0 22 9t9 21v54h-255q-33 0 -58.5 10t-43.5 27t-27.5 40.5t-9.5 49.5v208q0 26 10 49t28 40t43.5 27t57.5 10h368v-520zM507 419q-54 0 -87.5 -0.5t-55.5 -0.5h-37.5h-33.5h-43.5h-67.5
q-45 0 -68 -25.5t-23 -64.5v-195q0 -42 23 -66t68 -24h302v-94q0 -38 -17.5 -55t-52.5 -17h-188v-22h188q48 0 70.5 24t22.5 62v478zM184 65q-38 0 -54 19.5t-16 48.5v195q0 29 16 48.5t54 19.5h66.5h43h31.5h33.5t48.5 0.5t77 0.5v-332h-300zM440 357q-35 0 -55.5 0.5
t-35 0.5h-26.5h-28h-40.5h-64.5q-14 0 -23 -9t-9 -19v-197q0 -10 9 -19t23 -9h250v252zM409 484l-98 77l-97 -79l-68 77l142 120q9 8 23 7.5t23 -7.5q7 -3 25 -17q16 -12 45.5 -36t81.5 -68zM319 639q-7 6 -16 0l-102 -83l16 -18l93 76l98 -77l20 19z" />
    <glyph glyph-name="Gbreve" unicode="&#x11e;" horiz-adv-x="580" 
d="M545 130q0 -31 -11 -55t-29.5 -40.5t-44 -25.5t-53.5 -9h-229q-33 0 -58.5 10t-43 28t-27 41.5t-9.5 50.5v389q0 27 9 50.5t26.5 41t43.5 28t59 10.5h229q37 0 63.5 -10.5t43 -28t24 -41t7.5 -50.5v-57h-111v51q0 12 -9 22t-23 10h-218q-14 0 -23.5 -10t-9.5 -22l1 -379
q0 -12 9 -20.5t22 -8.5h219q13 0 22.5 8.5t9.5 20.5v62h-150v105h261v-171zM468 879v-49q0 -33 -10 -57.5t-27.5 -41t-40.5 -25t-49 -8.5h-58q-26 0 -49 8.5t-40 25.5t-27 41.5t-10 56.5v49h103v-43q0 -14 9 -25.5t19 -11.5h47q10 0 19 11.5t9 25.5v43h105zM500 261h-176
v-26h153v-101q0 -20 -6 -33.5t-16.5 -21t-24 -10.5t-28.5 -3h-219q-43 0 -58.5 19.5t-15.5 48.5v379q0 29 16 50t59 21h218q43 0 59 -21t16 -50v-12h23v18q0 38 -22.5 62t-70.5 24h-229q-41 0 -67 -24t-26 -62v-389q0 -38 22.5 -62.5t70.5 -24.5h229q48 0 70.5 24.5
t22.5 62.5v131zM403 838v-8q0 -38 -19.5 -54t-48.5 -16h-45q-29 0 -48.5 16t-19.5 54v11h-22v-13q0 -45 25.5 -68t64.5 -23h45q42 0 66 23t24 68v10h-22z" />
    <glyph glyph-name="gbreve" unicode="&#x11f;" horiz-adv-x="608" 
d="M552 -59q0 -27 -9 -50.5t-26.5 -41t-43 -28t-59.5 -10.5h-227v105h221q13 0 22 9t9 21v54h-255q-33 0 -58.5 10t-43.5 27t-27.5 40.5t-9.5 49.5v208q0 26 10 49t28 40t43.5 27t57.5 10h368v-520zM507 419q-54 0 -87.5 -0.5t-55.5 -0.5h-37.5h-33.5h-43.5h-67.5
q-45 0 -68 -25.5t-23 -64.5v-195q0 -42 23 -66t68 -24h302v-94q0 -38 -17.5 -55t-52.5 -17h-188v-22h188q48 0 70.5 24t22.5 62v478zM184 65q-38 0 -54 19.5t-16 48.5v195q0 29 16 48.5t54 19.5h66.5h43h31.5h33.5t48.5 0.5t77 0.5v-332h-300zM440 357q-35 0 -55.5 0.5
t-35 0.5h-26.5h-28h-40.5h-64.5q-14 0 -23 -9t-9 -19v-197q0 -10 9 -19t23 -9h250v252zM463 679v-49q0 -33 -10 -57.5t-27.5 -41t-40.5 -25t-49 -8.5h-58q-26 0 -49 8.5t-40 25.5t-27 41.5t-10 56.5v49h103v-43q0 -14 9 -25.5t19 -11.5h47q10 0 19 11.5t9 25.5v43h105z
M398 638v-8q0 -38 -19.5 -54t-48.5 -16h-45q-29 0 -48.5 16t-19.5 54v11h-22v-13q0 -45 25.5 -68t64.5 -23h45q42 0 66 23t24 68v10h-22z" />
    <glyph glyph-name="Gdotaccent" unicode="&#x120;" horiz-adv-x="580" 
d="M545 130q0 -31 -11 -55t-29.5 -40.5t-44 -25.5t-53.5 -9h-229q-33 0 -58.5 10t-43 28t-27 41.5t-9.5 50.5v389q0 27 9 50.5t26.5 41t43.5 28t59 10.5h229q37 0 63.5 -10.5t43 -28t24 -41t7.5 -50.5v-57h-111v51q0 12 -9 22t-23 10h-218q-14 0 -23.5 -10t-9.5 -22l1 -379
q0 -12 9 -20.5t22 -8.5h219q13 0 22.5 8.5t9.5 20.5v62h-150v105h261v-171zM500 261h-176v-26h153v-101q0 -20 -6 -33.5t-16.5 -21t-24 -10.5t-28.5 -3h-219q-43 0 -58.5 19.5t-15.5 48.5v379q0 29 16 50t59 21h218q43 0 59 -21t16 -50v-12h23v18q0 38 -22.5 62t-70.5 24
h-229q-41 0 -67 -24t-26 -62v-389q0 -38 22.5 -62.5t70.5 -24.5h229q48 0 70.5 24.5t22.5 62.5v131zM243 728v107h112v-107h-112zM310 795h-23v-28h23v28z" />
    <glyph glyph-name="gdotaccent" unicode="&#x121;" horiz-adv-x="608" 
d="M552 -59q0 -27 -9 -50.5t-26.5 -41t-43 -28t-59.5 -10.5h-227v105h221q13 0 22 9t9 21v54h-255q-33 0 -58.5 10t-43.5 27t-27.5 40.5t-9.5 49.5v208q0 26 10 49t28 40t43.5 27t57.5 10h368v-520zM507 419q-54 0 -87.5 -0.5t-55.5 -0.5h-37.5h-33.5h-43.5h-67.5
q-45 0 -68 -25.5t-23 -64.5v-195q0 -42 23 -66t68 -24h302v-94q0 -38 -17.5 -55t-52.5 -17h-188v-22h188q48 0 70.5 24t22.5 62v478zM184 65q-38 0 -54 19.5t-16 48.5v195q0 29 16 48.5t54 19.5h66.5h43h31.5h33.5t48.5 0.5t77 0.5v-332h-300zM440 357q-35 0 -55.5 0.5
t-35 0.5h-26.5h-28h-40.5h-64.5q-14 0 -23 -9t-9 -19v-197q0 -10 9 -19t23 -9h250v252zM263 542v107h112v-107h-112zM330 609h-23v-28h23v28z" />
    <glyph glyph-name="Gcommaaccent" unicode="&#x122;" horiz-adv-x="580" 
d="M545 130q0 -31 -11 -55t-29.5 -40.5t-44 -25.5t-53.5 -9h-229q-33 0 -58.5 10t-43 28t-27 41.5t-9.5 50.5v389q0 27 9 50.5t26.5 41t43.5 28t59 10.5h229q37 0 63.5 -10.5t43 -28t24 -41t7.5 -50.5v-57h-111v51q0 12 -9 22t-23 10h-218q-14 0 -23.5 -10t-9.5 -22l1 -379
q0 -12 9 -20.5t22 -8.5h219q13 0 22.5 8.5t9.5 20.5v62h-150v105h261v-171zM500 261h-176v-26h153v-101q0 -20 -6 -33.5t-16.5 -21t-24 -10.5t-28.5 -3h-219q-43 0 -58.5 19.5t-15.5 48.5v379q0 29 16 50t59 21h218q43 0 59 -21t16 -50v-12h23v18q0 38 -22.5 62t-70.5 24
h-229q-41 0 -67 -24t-26 -62v-389q0 -38 22.5 -62.5t70.5 -24.5h229q48 0 70.5 24.5t22.5 62.5v131zM314 -217h-94l30 160h112zM283 -97l-16 -80h18l24 80h-26z" />
    <glyph glyph-name="gcommaaccent" unicode="&#x123;" horiz-adv-x="608" 
d="M552 -59q0 -27 -9 -50.5t-26.5 -41t-43 -28t-59.5 -10.5h-227v105h221q13 0 22 9t9 21v54h-255q-33 0 -58.5 10t-43.5 27t-27.5 40.5t-9.5 49.5v208q0 26 10 49t28 40t43.5 27t57.5 10h368v-520zM507 419q-54 0 -87.5 -0.5t-55.5 -0.5h-37.5h-33.5h-43.5h-67.5
q-45 0 -68 -25.5t-23 -64.5v-195q0 -42 23 -66t68 -24h302v-94q0 -38 -17.5 -55t-52.5 -17h-188v-22h188q48 0 70.5 24t22.5 62v478zM184 65q-38 0 -54 19.5t-16 48.5v195q0 29 16 48.5t54 19.5h66.5h43h31.5h33.5t48.5 0.5t77 0.5v-332h-300zM440 357q-35 0 -55.5 0.5
t-35 0.5h-26.5h-28h-40.5h-64.5q-14 0 -23 -9t-9 -19v-197q0 -10 9 -19t23 -9h250v252zM317 667h94l-30 -160h-112zM348 547q4 18 7.5 37t8.5 43h-18l-24 -80h26z" />
    <glyph glyph-name="Hcircumflex" unicode="&#x124;" 
d="M446 0v116t0.5 86t0.5 60.5v39.5v37h-276v-339h-113v648h113v-202h276v35q0 21 -0.5 61t-0.5 106h113v-648h-113zM423 687l-117 82l-118 -86l-66 75l160 119q9 8 23 7.5t23 -7.5q8 -5 28 -19q17 -12 50 -35.5t87 -62.5zM514 609h-22v-202h-366v202h-22v-570h22v340h366
v-340h22v570zM317 841q-10 8 -22 0l-118 -88l16 -19l112 80l118 -80l18 20z" />
    <glyph glyph-name="hcircumflex" unicode="&#x125;" horiz-adv-x="604" 
d="M442 0v331q0 11 -8 19t-20 8h-246v-358h-113v648h116v-187h252q63 0 97.5 -36t34.5 -91v-334h-113zM510 325q0 38 -21 65.5t-71 27.5h-292v186h-24v-561h24v354h286q42 0 58.5 -20t16.5 -49v-285h23v282zM227 687l-117 82l-118 -86l-66 75l160 119q9 8 23 7.5t23 -7.5
q8 -5 28 -19q17 -12 50 -35.5t87 -62.5zM121 841q-10 8 -22 0l-118 -88l16 -19l112 80l118 -80l18 20z" />
    <glyph glyph-name="Hbar" unicode="&#x126;" 
d="M559 600h57v-101h-57v-499h-113v117t0.5 88.5t0.5 63.5v43v47h-276v-359h-113v499h-58v101h58v48h113v-48h275v48h113v-48zM126 609h-22v-48h-65v-23h65v-499h22v360h366v-360h22v499h64v23h-64v48h-22v-48h-366v48zM492 538v-111h-366v111h366zM447 499h-276v-33h276v33
z" />
    <glyph glyph-name="hbar" unicode="&#x127;" horiz-adv-x="604" 
d="M171 499v-38h252q63 0 97.5 -36t34.5 -91v-334h-113v331q0 11 -8 19t-20 8h-246v-358h-113v648h116v-48h272v-101h-272zM404 538v23h-278v43h-24v-561h24v354h286q42 0 58.5 -20t16.5 -49v-285h23v282q0 38 -21 65.5t-71 27.5h-292v120h278z" />
    <glyph glyph-name="Itilde" unicode="&#x128;" horiz-adv-x="276" 
d="M80 0v648h112v-648h-112zM27 810q45 42 97 9l63 -41l64 54l72 -50l-85 -75q-18 -15 -41.5 -20t-47.5 13l-66 46l-70 -59l-61 57zM148 609h-22v-570h22v570zM-5 741l17 -14l65 57l89 -60q17 -11 29 -6t22 14l61 51l-21 13l-70 -57l-80 53q-17 11 -26.5 12.5t-26.5 -12.5z
" />
    <glyph glyph-name="itilde" unicode="&#x129;" horiz-adv-x="256" 
d="M74 0v461h112v-461h-112zM21 649q45 42 97 9l63 -41l64 54l72 -50l-85 -75q-18 -15 -41.5 -20t-47.5 13l-66 46l-70 -59l-61 57zM142 422h-23v-383h23v383zM-11 580l17 -14l65 57l89 -60q17 -11 29 -6t22 14l61 51l-21 13l-70 -57l-80 53q-17 11 -26.5 12.5t-26.5 -12.5z
" />
    <glyph glyph-name="Imacron" unicode="&#x12a;" horiz-adv-x="276" 
d="M80 0v648h112v-648h-112zM-26 729v102h322v-102h-322zM148 609h-22v-570h22v570zM256 791h-242v-22h242v22z" />
    <glyph glyph-name="imacron" unicode="&#x12b;" horiz-adv-x="256" 
d="M74 0v461h112v-461h-112zM-32 537v102h322v-102h-322zM142 422h-23v-383h23v383zM250 599h-242v-22h242v22z" />
    <glyph glyph-name="Ibreve" unicode="&#x12c;" horiz-adv-x="276" 
d="M80 0v648h112v-648h-112zM291 879v-49q0 -33 -10 -57.5t-27.5 -41t-40.5 -25t-49 -8.5h-58q-26 0 -49 8.5t-40 25.5t-27 41.5t-10 56.5v49h103v-43q0 -14 9 -25.5t19 -11.5h47q10 0 19 11.5t9 25.5v43h105zM148 609h-22v-570h22v570zM226 838v-8q0 -38 -19.5 -54
t-48.5 -16h-45q-29 0 -48.5 16t-19.5 54v11h-22v-13q0 -45 25.5 -68t64.5 -23h45q42 0 66 23t24 68v10h-22z" />
    <glyph glyph-name="ibreve" unicode="&#x12d;" horiz-adv-x="256" 
d="M74 0v461h112v-461h-112zM287 679v-49q0 -33 -10 -57.5t-27.5 -41t-40.5 -25t-49 -8.5h-58q-26 0 -49 8.5t-40 25.5t-27 41.5t-10 56.5v49h103v-43q0 -14 9 -25.5t19 -11.5h47q10 0 19 11.5t9 25.5v43h105zM142 422h-23v-383h23v383zM222 638v-8q0 -38 -19.5 -54
t-48.5 -16h-45q-29 0 -48.5 16t-19.5 54v11h-22v-13q0 -45 25.5 -68t64.5 -23h45q42 0 66 23t24 68v10h-22z" />
    <glyph glyph-name="Iogonek" unicode="&#x12e;" horiz-adv-x="276" 
d="M80 648h112v-648h-1q-36 -33 -36 -65q0 -16 8.5 -22.5t32.5 -6.5q7 0 14.5 0.5t16.5 2.5l-1 -96q-24 -6 -46 -6q-66 1 -99.5 35t-33.5 81q0 39 33 77v648zM148 39v570h-22v-604q-17 -18 -26.5 -40.5t-9.5 -41.5q0 -32 21.5 -53.5t61.5 -21.5h9t9 1v21q-38 0 -57.5 15.5
t-19.5 40.5q0 17 8.5 38t24.5 39z" />
    <glyph glyph-name="iogonek" unicode="&#x12f;" horiz-adv-x="256" 
d="M74 461h112v-461h-1q-36 -33 -36 -65q0 -16 8.5 -22.5t32.5 -6.5q7 0 14.5 0.5t16.5 2.5l-1 -96q-24 -6 -46 -6q-66 1 -99.5 35t-33.5 81q0 39 33 77v461zM142 39v383h-22v-417q-17 -18 -26.5 -40.5t-9.5 -41.5q0 -32 21.5 -53.5t61.5 -21.5h9t9 1v21q-38 0 -57.5 15.5
t-19.5 40.5q0 17 8.5 38t24.5 39zM75 542v107h112v-107h-112zM142 609h-23v-28h23v28z" />
    <glyph glyph-name="Idotaccent" unicode="&#x130;" horiz-adv-x="276" 
d="M80 0v648h112v-648h-112zM148 609h-22v-570h22v570zM80 701v107h112v-107h-112zM147 768h-23v-28h23v28z" />
    <glyph glyph-name="dotlessi" unicode="&#x131;" horiz-adv-x="256" 
d="M74 0v461h112v-461h-112zM142 422h-23v-383h23v383z" />
    <glyph glyph-name="IJ" unicode="&#x132;" horiz-adv-x="629" 
d="M580 129q0 -31 -11 -55t-29.5 -40.5t-44 -25t-54.5 -8.5h-171v105h165q14 0 23 8t9 21v515h113v-520zM81 0v648h112v-648h-112zM535 609h-24v-475q0 -20 -6.5 -33.5t-17 -21.5t-24 -11.5t-28.5 -3.5h-126v-21h132q42 0 68 21t26 65v480zM149 609h-22v-570h22v570z" />
    <glyph glyph-name="ij" unicode="&#x133;" horiz-adv-x="481" 
d="M409 -57q0 -27 -9 -51t-26.5 -42t-43.5 -28.5t-59 -10.5h-68v107h62q14 0 23 7.5t9 21.5v515h112v-519zM74 0v461h112v-461h-112zM365 422h-22v-474q0 -29 -16 -50.5t-62 -21.5h-23v-22h29q49 0 71.5 25.5t22.5 63.5v479zM75 542v107h112v-107h-112zM295 542v107h112
v-107h-112zM142 422h-23v-383h23v383zM362 609h-23v-28h23v28zM142 609h-23v-28h23v28z" />
    <glyph glyph-name="Jcircumflex" unicode="&#x134;" horiz-adv-x="386" 
d="M321 130q0 -31 -11 -55t-29.5 -40.5t-44 -25t-54.5 -8.5h-171v105h165q14 0 23 8t9 21v515h113v-520zM380 687l-117 82l-118 -86l-66 75l160 119q9 8 23 7.5t23 -7.5q8 -5 28 -19q17 -12 50 -35.5t87 -62.5zM276 610h-24v-475q0 -20 -6.5 -33.5t-17 -21.5t-24 -11.5
t-28.5 -3.5h-126v-21h132q42 0 68 21t26 65v480zM274 841q-10 8 -22 0l-118 -88l16 -19l112 80l118 -80l18 20z" />
    <glyph glyph-name="jcircumflex" unicode="&#x135;" horiz-adv-x="267" 
d="M195 -57q0 -27 -9 -51t-26.5 -42t-43.5 -28.5t-59 -10.5h-68v107h62q14 0 23 7.5t9 21.5v515h112v-519zM231 484l-98 77l-97 -79l-68 77l142 120q9 8 23 7.5t23 -7.5q7 -3 25 -17q16 -12 45.5 -36t81.5 -68zM151 422h-22v-474q0 -29 -16 -50.5t-62 -21.5h-23v-22h29
q49 0 71.5 25.5t22.5 63.5v479zM141 639q-7 6 -16 0l-102 -83l16 -18l93 76l98 -77l20 19z" />
    <glyph glyph-name="Kcommaaccent" unicode="&#x136;" horiz-adv-x="604" 
d="M587 648q-57 -98 -89 -150.5t-47 -78.5l-21 -35q28 -10 51.5 -27.5t40 -40t25.5 -49t9 -55.5v-212h-111v212q0 16 -7 31t-19 25.5t-27.5 17t-32.5 6.5h-191v-292h-113v649h113v-252h137q3 5 20 33q14 24 44.5 74.5t86.5 143.5h131zM487 609l-145 -252h-218v251h-23v-56.5
v-102.5v-125v-125t-0.5 -103t-0.5 -57h24v295h243q25 0 47.5 -10t39 -26.5t26 -39t9.5 -46.5v-173h22v173q0 31 -11.5 57t-31 45t-45 30t-53.5 13l141 252h-24zM317 -171h-94l30 160h112zM286 -51l-16 -80h18l24 80h-26z" />
    <glyph glyph-name="kcommaaccent" unicode="&#x137;" horiz-adv-x="618" 
d="M444 284q30 -10 52 -27.5t36 -40t21 -48.5t7 -53v-115h-112v115q0 32 -24.5 55t-59.5 23h-191v-193h-113v648h113v-351h145l138 164h140zM515 118q0 60 -40 98.5t-106 38.5l143 167h-33l-141 -167l-209 -1v355h-22v-570h22v194h235q59 0 93.5 -34.5t34.5 -83.5v-76h23v79
zM318 -191h-94l30 160h112zM287 -71l-16 -80h18l24 80h-26z" />
    <glyph glyph-name="kgreenlandic" unicode="&#x138;" horiz-adv-x="623" 
d="M444 284q30 -10 52 -27.5t36 -40t21 -48.5t7 -53v-115h-112v115q0 32 -24.5 55t-59.5 23h-191v-193h-113v460h113v-163h145l138 164h140zM515 118q0 60 -40 98.5t-106 38.5l143 167h-33l-141 -167l-209 -1v167h-22v-382h22v194h235q59 0 93.5 -34.5t34.5 -83.5v-76h23v79
z" />
    <glyph glyph-name="Lacute" unicode="&#x139;" horiz-adv-x="486" 
d="M56 0v648h112v-544h303v-104h-415zM147 695l-77 65l129 131l100 -80zM432 64h-309v545h-22v-565l331 -1v21zM204 846l-82 -83l27 -22l93 75z" />
    <glyph glyph-name="lacute" unicode="&#x13a;" horiz-adv-x="296" 
d="M202 0q-32 0 -57.5 10t-43.5 28t-27.5 41.5t-9.5 50.5l1 518h112v-515q0 -13 8.5 -20.5t22.5 -7.5h62v-105h-68zM136 695l-77 65l129 131l100 -80zM231 64h-23q-38 0 -56.5 20t-18.5 49v476h-23v-479q0 -38 23.5 -63t68.5 -25h29v22zM193 846l-82 -83l27 -22l93 75z" />
    <glyph glyph-name="Lcommaaccent" unicode="&#x13b;" horiz-adv-x="486" 
d="M56 0v648h112v-544h303v-104h-415zM432 64h-309v545h-22v-565l331 -1v21zM285 -191h-94l30 160h112zM254 -71l-16 -80h18l24 80h-26z" />
    <glyph glyph-name="lcommaaccent" unicode="&#x13c;" horiz-adv-x="296" 
d="M202 0q-32 0 -57.5 10t-43.5 28t-27.5 41.5t-9.5 50.5l1 518h112v-515q0 -13 8.5 -20.5t22.5 -7.5h62v-105h-68zM165 -191h-94l30 160h112zM231 64h-23q-38 0 -56.5 20t-18.5 49v476h-23v-479q0 -38 23.5 -63t68.5 -25h29v22zM134 -71l-16 -80h18l24 80h-26z" />
    <glyph glyph-name="Lcaron" unicode="&#x13d;" horiz-adv-x="486" 
d="M56 0v648h112v-544h303v-104h-415zM432 64h-309v545h-22v-565l331 -1v21zM393 504h-94l30 160h112zM362 624l-16 -80h18l24 80h-26z" />
    <glyph glyph-name="lcaron" unicode="&#x13e;" horiz-adv-x="359" 
d="M202 0q-32 0 -57.5 10t-43.5 28t-27.5 41.5t-9.5 50.5l1 518h112v-515q0 -13 8.5 -20.5t22.5 -7.5h62v-105h-68zM313 509h-94l30 160h112zM231 64h-23q-38 0 -56.5 20t-18.5 49v476h-23v-479q0 -38 23.5 -63t68.5 -25h29v22zM282 629l-16 -80h18l24 80h-26z" />
    <glyph glyph-name="Ldot" unicode="&#x13f;" horiz-adv-x="486" 
d="M56 0v648h112v-544h303v-104h-415zM432 64h-309v545h-22v-565l331 -1v21zM269 278v107h112v-107h-112zM336 345h-23v-28h23v28z" />
    <glyph glyph-name="ldot" unicode="&#x140;" horiz-adv-x="359" 
d="M202 0q-32 0 -57.5 10t-43.5 28t-27.5 41.5t-9.5 50.5l1 518h112v-515q0 -13 8.5 -20.5t22.5 -7.5h62v-105h-68zM231 64h-23q-38 0 -56.5 20t-18.5 49v476h-23v-479q0 -38 23.5 -63t68.5 -25h29v22zM235 277v107h112v-107h-112zM302 344h-23v-28h23v28z" />
    <glyph glyph-name="Lslash" unicode="&#x141;" horiz-adv-x="553" 
d="M235 271v-167h303v-104h-415v207l-75 -43l-51 88l126 72v324h113l-1 -259l97 56l51 -89zM328 371q-4 6 -6 9.5t-5 9.5l-126 -73l-1 292h-23v-305q-29 -17 -49.5 -28.5t-33.5 -19.5t-20.5 -12t-11.5 -6l5 -10t6 -10l104 60v-173q0 -35 1 -61l331 -1v21h-308v228z" />
    <glyph glyph-name="lslash" unicode="&#x142;" horiz-adv-x="375" 
d="M237 290v-157q0 -13 8.5 -20.5t22.5 -7.5h62v-105h-68q-32 0 -57.5 10t-43.5 28t-27.5 41.5t-9.5 50.5v96l-73 -42l-51 88l124 71l1 305h112v-240l83 48l51 -89zM316 382q-4 6 -6 9.5t-5 9.5l-112 -64v272h-23v-285q-30 -17 -50 -29t-33.5 -19.5t-21 -11.5t-10.5 -6
l5 -10t6 -10q6 3 21.5 12.5t36.5 21.5l46 26v-168q0 -38 23.5 -63t68.5 -25h29v22h-23q-38 0 -56.5 20t-18.5 49v178z" />
    <glyph glyph-name="Nacute" unicode="&#x143;" horiz-adv-x="624" 
d="M562 0h-111l-278 439v-439h-113l1 648h112l277 -440v440h112v-648zM517 609h-23v-551l-353 551h-35v-570h22v550l353 -550h36v570zM313 695l-77 65l129 131l100 -80zM370 846l-82 -83l27 -22l93 75z" />
    <glyph glyph-name="nacute" unicode="&#x144;" 
d="M455 0v329q0 12 -9 20t-23 8h-245v-357h-113v461h364q36 0 62 -10t43 -27.5t25.5 -40.5t8.5 -49v-334h-113zM522 334q0 36 -24 60t-69 24h-319v-379h23v358h290q41 0 58.5 -19.5t17.5 -48.5v-290h23v295zM309 497l-84 56l114 144l108 -69zM284 561l18 -14l79 75l-32 22z
" />
    <glyph glyph-name="Ncommaaccent" unicode="&#x145;" horiz-adv-x="624" 
d="M562 0h-111l-278 439v-439h-113l1 648h112l277 -440v440h112v-648zM517 609h-23v-551l-353 551h-35v-570h22v550l353 -550h36v570zM328 -191h-94l30 160h112zM297 -71l-16 -80h18l24 80h-26z" />
    <glyph glyph-name="ncommaaccent" unicode="&#x146;" 
d="M455 0v329q0 12 -9 20t-23 8h-245v-357h-113v461h364q36 0 62 -10t43 -27.5t25.5 -40.5t8.5 -49v-334h-113zM522 334q0 36 -24 60t-69 24h-319v-379h23v358h290q41 0 58.5 -19.5t17.5 -48.5v-290h23v295zM318 -191h-94l30 160h112zM287 -71l-16 -80h18l24 80h-26z" />
    <glyph glyph-name="Ncaron" unicode="&#x147;" horiz-adv-x="624" 
d="M562 0h-111l-278 439v-439h-113l1 648h112l277 -440v440h112v-648zM517 609h-23v-551l-353 551h-35v-570h22v550l353 -550h36v570zM502 814q-54 -40 -87.5 -63.5t-52.5 -36.5q-22 -15 -32 -21q-9 -7 -23 -7.5t-23 7.5l-162 120l68 74l118 -86l117 82zM444 816l-20 19
l-117 -77l-114 76l-16 -18l120 -85q12 -8 22 0z" />
    <glyph glyph-name="ncaron" unicode="&#x148;" 
d="M455 0v329q0 12 -9 20t-23 8h-245v-357h-113v461h364q36 0 62 -10t43 -27.5t25.5 -40.5t8.5 -49v-334h-113zM472 619q-52 -44 -81.5 -68t-45.5 -36q-18 -14 -25 -17q-9 -7 -23 -7.5t-23 7.5l-142 120l68 77l97 -79l98 77zM522 334q0 36 -24 60t-69 24h-319v-379h23v358
h290q41 0 58.5 -19.5t17.5 -48.5v-290h23v295zM414 621l-20 19l-98 -77l-93 76l-16 -18l102 -83q9 -6 16 0z" />
    <glyph glyph-name="napostrophe" unicode="&#x149;" horiz-adv-x="663" 
d="M502 0v329q0 12 -9 20t-23 8h-245v-357h-113v461h364q36 0 62 -10t43 -27.5t25.5 -40.5t8.5 -49v-334h-113zM569 334q0 36 -24 60t-69 24h-319v-379h23v358h290q41 0 58.5 -19.5t17.5 -48.5v-290h23v295zM56 469h-94l30 160h112zM25 589l-16 -80h18l24 80h-26z" />
    <glyph glyph-name="Eng" unicode="&#x14a;" horiz-adv-x="624" 
d="M562 -67q0 -31 -11 -55t-29.5 -40.5t-44 -25t-54.5 -8.5h-141v105h135q14 0 23 8t9 21v65l-276 436v-439h-113l1 648h112l277 -440v440h112v-715zM493 21v-83q0 -20 -6.5 -33.5t-17 -21.5t-24 -11.5t-28.5 -3.5h-96v-21h102q42 0 68 21t26 65v676h-23v-551l-353 551h-35
v-570h22v550z" />
    <glyph glyph-name="eng" unicode="&#x14b;" 
d="M455 329q0 12 -9 20t-23 8h-245v-357h-113v461h364q36 0 62 -10t43 -27.5t25.5 -40.5t8.5 -49v-401q0 -31 -11 -55t-29.5 -40.5t-44 -25t-54.5 -8.5h-141v105h135q14 0 23 8t9 21v391zM522 334q0 36 -24 60t-69 24h-319v-379h23v358h290q41 0 58.5 -19.5t17.5 -48.5v-391
q0 -20 -6.5 -33.5t-17 -21.5t-24 -11.5t-28.5 -3.5h-96v-21h102q42 0 67.5 21t25.5 65v401z" />
    <glyph glyph-name="Omacron" unicode="&#x14c;" 
d="M563 127q0 -26 -9 -49.5t-27 -40.5t-44 -27t-59 -10h-228q-33 0 -58.5 10t-43.5 27t-27.5 40.5t-9.5 49.5v395q0 26 10 49t28 40t43.5 27t57.5 10h228q65 0 102 -33t37 -93v-395zM518 515q0 42 -23 66.5t-68 24.5h-233q-45 0 -68 -26t-23 -65v-382q0 -42 23 -66t68 -24
h233q45 0 68 24t23 66v382zM495 133q0 -29 -16 -48.5t-54 -19.5h-229q-38 0 -54 19.5t-16 48.5v383q0 29 16 48.5t54 19.5h229q38 0 54 -19.5t16 -48.5v-383zM451 517q0 10 -9 19t-23 9h-217q-14 0 -23 -9t-9 -19v-384q0 -10 9 -19t23 -9h217q14 0 23 9t9 19v384zM149 729
v102h322v-102h-322zM431 791h-242v-22h242v22z" />
    <glyph glyph-name="omacron" unicode="&#x14d;" horiz-adv-x="624" 
d="M569 127q0 -26 -9 -49.5t-27 -40.5t-44 -27t-59 -10h-228q-33 0 -58.5 10t-43.5 27t-27.5 40.5t-9.5 49.5v208q0 26 10 49t28 40t43.5 27t57.5 10h228q65 0 102 -33t37 -93v-208zM524 328q0 42 -23 66t-68 24h-233q-45 0 -68 -25.5t-23 -64.5v-195q0 -42 23 -66t68 -24
h233q45 0 68 24t23 66v195zM501 133q0 -29 -16 -48.5t-54 -19.5h-229q-38 0 -54 19.5t-16 48.5v195q0 29 16 48.5t54 19.5h229q38 0 54 -19.5t16 -48.5v-195zM457 330q0 10 -9 19t-23 9h-217q-14 0 -23 -9t-9 -19v-197q0 -10 9 -19t23 -9h217q14 0 23 9t9 19v197zM160 537
v102h322v-102h-322zM442 599h-242v-22h242v22z" />
    <glyph glyph-name="Obreve" unicode="&#x14e;" 
d="M563 127q0 -26 -9 -49.5t-27 -40.5t-44 -27t-59 -10h-228q-33 0 -58.5 10t-43.5 27t-27.5 40.5t-9.5 49.5v395q0 26 10 49t28 40t43.5 27t57.5 10h228q65 0 102 -33t37 -93v-395zM518 515q0 42 -23 66.5t-68 24.5h-233q-45 0 -68 -26t-23 -65v-382q0 -42 23 -66t68 -24
h233q45 0 68 24t23 66v382zM495 133q0 -29 -16 -48.5t-54 -19.5h-229q-38 0 -54 19.5t-16 48.5v383q0 29 16 48.5t54 19.5h229q38 0 54 -19.5t16 -48.5v-383zM451 517q0 10 -9 19t-23 9h-217q-14 0 -23 -9t-9 -19v-384q0 -10 9 -19t23 -9h217q14 0 23 9t9 19v384zM476 879
v-49q0 -33 -10 -57.5t-27.5 -41t-40.5 -25t-49 -8.5h-58q-26 0 -49 8.5t-40 25.5t-27 41.5t-10 56.5v49h103v-43q0 -14 9 -25.5t19 -11.5h47q10 0 19 11.5t9 25.5v43h105zM411 838v-8q0 -38 -19.5 -54t-48.5 -16h-45q-29 0 -48.5 16t-19.5 54v11h-22v-13q0 -45 25.5 -68
t64.5 -23h45q42 0 66 23t24 68v10h-22z" />
    <glyph glyph-name="obreve" unicode="&#x14f;" horiz-adv-x="624" 
d="M569 127q0 -26 -9 -49.5t-27 -40.5t-44 -27t-59 -10h-228q-33 0 -58.5 10t-43.5 27t-27.5 40.5t-9.5 49.5v208q0 26 10 49t28 40t43.5 27t57.5 10h228q65 0 102 -33t37 -93v-208zM524 328q0 42 -23 66t-68 24h-233q-45 0 -68 -25.5t-23 -64.5v-195q0 -42 23 -66t68 -24
h233q45 0 68 24t23 66v195zM501 133q0 -29 -16 -48.5t-54 -19.5h-229q-38 0 -54 19.5t-16 48.5v195q0 29 16 48.5t54 19.5h229q38 0 54 -19.5t16 -48.5v-195zM457 330q0 10 -9 19t-23 9h-217q-14 0 -23 -9t-9 -19v-197q0 -10 9 -19t23 -9h217q14 0 23 9t9 19v197zM463 679
v-49q0 -33 -10 -57.5t-27.5 -41t-40.5 -25t-49 -8.5h-58q-26 0 -49 8.5t-40 25.5t-27 41.5t-10 56.5v49h103v-43q0 -14 9 -25.5t19 -11.5h47q10 0 19 11.5t9 25.5v43h105zM398 638v-8q0 -38 -19.5 -54t-48.5 -16h-45q-29 0 -48.5 16t-19.5 54v11h-22v-13q0 -45 25.5 -68
t64.5 -23h45q42 0 66 23t24 68v10h-22z" />
    <glyph glyph-name="Ohungarumlaut" unicode="&#x150;" 
d="M563 127q0 -26 -9 -49.5t-27 -40.5t-44 -27t-59 -10h-228q-33 0 -58.5 10t-43.5 27t-27.5 40.5t-9.5 49.5v395q0 26 10 49t28 40t43.5 27t57.5 10h228q65 0 102 -33t37 -93v-395zM518 515q0 42 -23 66.5t-68 24.5h-233q-45 0 -68 -26t-23 -65v-382q0 -42 23 -66t68 -24
h233q45 0 68 24t23 66v382zM495 133q0 -29 -16 -48.5t-54 -19.5h-229q-38 0 -54 19.5t-16 48.5v383q0 29 16 48.5t54 19.5h229q38 0 54 -19.5t16 -48.5v-383zM451 517q0 10 -9 19t-23 9h-217q-14 0 -23 -9t-9 -19v-384q0 -10 9 -19t23 -9h217q14 0 23 9t9 19v384zM201 695
l-77 65l129 131l100 -80zM397 695l-77 65l129 131l100 -80zM454 846l-82 -83l27 -22l93 75zM258 846l-82 -83l27 -22l93 75z" />
    <glyph glyph-name="ohungarumlaut" unicode="&#x151;" horiz-adv-x="624" 
d="M569 127q0 -26 -9 -49.5t-27 -40.5t-44 -27t-59 -10h-228q-33 0 -58.5 10t-43.5 27t-27.5 40.5t-9.5 49.5v208q0 26 10 49t28 40t43.5 27t57.5 10h228q65 0 102 -33t37 -93v-208zM524 328q0 42 -23 66t-68 24h-233q-45 0 -68 -25.5t-23 -64.5v-195q0 -42 23 -66t68 -24
h233q45 0 68 24t23 66v195zM501 133q0 -29 -16 -48.5t-54 -19.5h-229q-38 0 -54 19.5t-16 48.5v195q0 29 16 48.5t54 19.5h229q38 0 54 -19.5t16 -48.5v-195zM457 330q0 10 -9 19t-23 9h-217q-14 0 -23 -9t-9 -19v-197q0 -10 9 -19t23 -9h217q14 0 23 9t9 19v197zM226 497
l-84 56l114 144l108 -69zM201 561l18 -14l79 75l-32 22zM419 497l-84 56l114 144l108 -69zM394 561l18 -14l79 75l-32 22z" />
    <glyph glyph-name="OE" unicode="&#x152;" horiz-adv-x="983" 
d="M571 0q-21 0 -38 4.5t-32 12.5q-31 -17 -77 -17h-228q-33 0 -58.5 10t-43.5 27t-27.5 40.5t-9.5 49.5v395q0 26 10 49t28 40t43.5 27t57.5 10h228q45 0 76 -16q30 16 71 16h352v-104h-347q-13 0 -21.5 -8.5t-8.5 -19.5v-70h323v-104h-323v-208q0 -11 8.5 -20t23.5 -9h345
v-105h-352zM419 105q9 0 15 3q-1 5 -1 10.5v11.5v388q0 6 0.5 12t1.5 11q-7 4 -16 4h-217q-14 0 -23 -9t-9 -19v-384q0 -10 9 -19t23 -9h217zM427 43q26 0 42 6.5t32 15.5q24 -22 70 -22h312v23h-305q-44 0 -60 20t-16 48v248h328v21h-328v109q0 14 3.5 27t12 23t23 16
t35.5 6h307v21h-312q-46 0 -72 -29q-12 17 -31.5 23.5t-40.5 6.5h-233q-45 0 -68 -26t-23 -65v-382q0 -42 23 -66t68 -24h233zM490 83q-11 -7 -27 -12.5t-38 -5.5h-229q-38 0 -54 19.5t-16 48.5v383q0 29 16 48.5t54 19.5h199q36 0 58 -6t33 -24q-3 -8 -5 -15t-2 -21v-388
q0 -27 11 -47z" />
    <glyph glyph-name="oe" unicode="&#x153;" horiz-adv-x="930" 
d="M518 202v-68q0 -12 10.5 -20t24.5 -8h301v-106h-313q-45 0 -78 22q-17 -11 -37 -16.5t-46 -5.5h-178q-33 0 -58.5 10t-43.5 27t-27.5 40.5t-9.5 49.5v208q0 26 10 49t28 40t43.5 27t57.5 10h178q53 0 86 -21q16 10 35 15.5t40 5.5h181q60 0 98 -31.5t38 -95.5v-132h-340z
M815 65h-265q-43 0 -59 20t-16 49v105h338v89q0 44 -24 67.5t-67 23.5h-181q-26 0 -46 -11.5t-31 -30.5q-24 41 -81 41h-183q-45 0 -68 -25.5t-23 -64.5v-195q0 -42 23 -66t68 -24h183q58 0 80 40q11 -18 31.5 -29t46.5 -11h274v22zM475 262v65q0 29 16.5 49t58.5 20h163
q31 0 54.5 -14.5t23.5 -54.5v-65h-316zM452 129q0 -28 -17.5 -46t-53.5 -18h-179q-38 0 -54 19.5t-16 48.5v195q0 29 16 48.5t54 19.5h179q36 0 53.5 -18t17.5 -45v-204zM747 327q0 13 -10 21.5t-24 8.5h-160q-14 0 -24.5 -8.5t-10.5 -21.5v-27h229v27zM406 334
q-2 9 -10.5 16.5t-21.5 7.5h-166q-14 0 -23 -9t-9 -19v-197q0 -10 9 -19t23 -9h166q13 0 21.5 7t10.5 16v206z" />
    <glyph glyph-name="Racute" unicode="&#x154;" horiz-adv-x="600" 
d="M435 -1q-60 72 -93 110.5t-48 55.5l-21 23h-113v-188h-113v649h364q36 0 62.5 -10.5t43.5 -28t25 -41t8 -50.5v-331h-134q5 -4 23 -25q16 -18 48.5 -56.5t91.5 -107.5h-144zM504 519q0 38 -21 62.5t-72 24.5h-318v-567h23v191h183l161 -191h26q-15 17 -38 44
q-20 23 -51 59t-74 88h181v289zM116 252v332h289q43 0 59.5 -21t16.5 -50v-261h-365zM437 513q0 12 -9.5 22t-22.5 10h-245v-252h277v220zM278 695l-77 65l129 131l100 -80zM335 846l-82 -83l27 -22l93 75z" />
    <glyph glyph-name="racute" unicode="&#x155;" horiz-adv-x="348" 
d="M215 357q-13 0 -22 -8.5t-9 -19.5v-329h-113v335q0 26 10.5 49t29 40t43.5 27t55 10h138v-104h-132zM251 497l-84 56l114 144l108 -69zM308 418h-99q-41 0 -66.5 -24t-25.5 -65v-290h23v290q0 28 16 47.5t56 19.5h96v22zM226 561l18 -14l79 75l-32 22z" />
    <glyph glyph-name="Rcommaaccent" unicode="&#x156;" horiz-adv-x="600" 
d="M435 -1q-60 72 -93 110.5t-48 55.5l-21 23h-113v-188h-113v649h364q36 0 62.5 -10.5t43.5 -28t25 -41t8 -50.5v-331h-134q5 -4 23 -25q16 -18 48.5 -56.5t91.5 -107.5h-144zM504 519q0 38 -21 62.5t-72 24.5h-318v-567h23v191h183l161 -191h26q-15 17 -38 44
q-20 23 -51 59t-74 88h181v289zM116 252v332h289q43 0 59.5 -21t16.5 -50v-261h-365zM437 513q0 12 -9.5 22t-22.5 10h-245v-252h277v220zM296 -191h-94l30 160h112zM265 -71l-16 -80h18l24 80h-26z" />
    <glyph glyph-name="rcommaaccent" unicode="&#x157;" horiz-adv-x="348" 
d="M215 357q-13 0 -22 -8.5t-9 -19.5v-329h-113v335q0 26 10.5 49t29 40t43.5 27t55 10h138v-104h-132zM127 -191h-94l30 160h112zM308 418h-99q-41 0 -66.5 -24t-25.5 -65v-290h23v290q0 28 16 47.5t56 19.5h96v22zM96 -71l-16 -80h18l24 80h-26z" />
    <glyph glyph-name="Rcaron" unicode="&#x158;" horiz-adv-x="600" 
d="M435 -1q-60 72 -93 110.5t-48 55.5l-21 23h-113v-188h-113v649h364q36 0 62.5 -10.5t43.5 -28t25 -41t8 -50.5v-331h-134q5 -4 23 -25q16 -18 48.5 -56.5t91.5 -107.5h-144zM504 519q0 38 -21 62.5t-72 24.5h-318v-567h23v191h183l161 -191h26q-15 17 -38 44
q-20 23 -51 59t-74 88h181v289zM116 252v332h289q43 0 59.5 -21t16.5 -50v-261h-365zM437 513q0 12 -9.5 22t-22.5 10h-245v-252h277v220zM468 814q-54 -40 -87.5 -63.5t-52.5 -36.5q-22 -15 -32 -21q-9 -7 -23 -7.5t-23 7.5l-162 120l68 74l118 -86l117 82zM410 816l-20 19
l-117 -77l-114 76l-16 -18l120 -85q12 -8 22 0z" />
    <glyph glyph-name="rcaron" unicode="&#x159;" horiz-adv-x="348" 
d="M215 357q-13 0 -22 -8.5t-9 -19.5v-329h-113v335q0 26 10.5 49t29 40t43.5 27t55 10h138v-104h-132zM355 619q-52 -44 -81.5 -68t-45.5 -36q-18 -14 -25 -17q-9 -7 -23 -7.5t-23 7.5l-142 120l68 77l97 -79l98 77zM308 418h-99q-41 0 -66.5 -24t-25.5 -65v-290h23v290
q0 28 16 47.5t56 19.5h96v22zM297 621l-20 19l-98 -77l-93 76l-16 -18l102 -83q9 -6 16 0z" />
    <glyph glyph-name="Sacute" unicode="&#x15a;" horiz-adv-x="572" 
d="M541 127q0 -26 -9 -49.5t-26.5 -40.5t-43 -27t-59.5 -10h-349v105h344q11 0 21 7t10 18v120q0 11 -7.5 17t-18.5 6h-237q-32 0 -57.5 10t-43.5 27t-28 40.5t-10 49.5v121q0 26 10 49t28 40.5t43.5 27.5t57.5 10h353v-104h-349q-10 0 -20 -8t-10 -19v-112q0 -10 9.5 -18.5
t20.5 -8.5h233q34 0 60 -10t43.5 -27t26 -40t8.5 -49v-125zM496 252q0 36 -24 61t-69 25h-239q-33 0 -50.5 18.5t-17.5 44.5v120q0 26 19 44t49 18h316v21h-314q-45 0 -69 -24.5t-24 -58.5v-121q0 -37 24 -60.5t69 -23.5h239q33 0 50.5 -19t17.5 -45v-127q0 -26 -19 -43.5
t-49 -17.5h-312v-21h310q46 0 69.5 23.5t23.5 60.5v125zM284 695l-77 65l129 131l100 -80zM341 846l-82 -83l27 -22l93 75z" />
    <glyph glyph-name="sacute" unicode="&#x15b;" horiz-adv-x="622" 
d="M577 127q0 -26 -9 -49.5t-26.5 -40.5t-43 -27t-59.5 -10h-349v105h344q11 0 21 7t10 18v24q0 11 -7.5 17t-18.5 6h-237q-32 0 -57.5 10t-43.5 27t-28 40.5t-10 49.5v30q0 26 10 49t28 40.5t43.5 27.5t57.5 10h351v-104h-347q-10 0 -20 -7.5t-10 -19.5v-21
q0 -10 9.5 -18.5t20.5 -8.5h233q34 0 60 -10t43.5 -27t26 -40t8.5 -49v-29zM532 156q0 36 -24 61.5t-69 25.5h-239q-33 0 -50.5 18t-17.5 44v29q0 26 19 44.5t49 18.5h314v21h-312q-45 0 -69 -24.5t-24 -59.5v-30q0 -36 24 -59.5t69 -23.5h239q33 0 50.5 -19.5t17.5 -45.5
v-31q0 -26 -19 -43.5t-49 -17.5h-312v-21h310q46 0 69.5 23.5t23.5 60.5v29zM316 496l-84 56l114 144l108 -69zM291 560l18 -14l79 75l-32 22z" />
    <glyph glyph-name="Scircumflex" unicode="&#x15c;" horiz-adv-x="572" 
d="M541 127q0 -26 -9 -49.5t-26.5 -40.5t-43 -27t-59.5 -10h-349v105h344q11 0 21 7t10 18v120q0 11 -7.5 17t-18.5 6h-237q-32 0 -57.5 10t-43.5 27t-28 40.5t-10 49.5v121q0 26 10 49t28 40.5t43.5 27.5t57.5 10h353v-104h-349q-10 0 -20 -8t-10 -19v-112q0 -10 9.5 -18.5
t20.5 -8.5h233q34 0 60 -10t43.5 -27t26 -40t8.5 -49v-125zM403 687l-117 82l-118 -86l-66 75l160 119q9 8 23 7.5t23 -7.5q8 -5 28 -19q17 -12 50 -35.5t87 -62.5zM496 252q0 36 -24 61t-69 25h-239q-33 0 -50.5 18.5t-17.5 44.5v120q0 26 19 44t49 18h316v21h-314
q-45 0 -69 -24.5t-24 -58.5v-121q0 -37 24 -60.5t69 -23.5h239q33 0 50.5 -19t17.5 -45v-127q0 -26 -19 -43.5t-49 -17.5h-312v-21h310q46 0 69.5 23.5t23.5 60.5v125zM297 841q-10 8 -22 0l-118 -88l16 -19l112 80l118 -80l18 20z" />
    <glyph glyph-name="scircumflex" unicode="&#x15d;" horiz-adv-x="622" 
d="M577 127q0 -26 -9 -49.5t-26.5 -40.5t-43 -27t-59.5 -10h-349v105h344q11 0 21 7t10 18v24q0 11 -7.5 17t-18.5 6h-237q-32 0 -57.5 10t-43.5 27t-28 40.5t-10 49.5v30q0 26 10 49t28 40.5t43.5 27.5t57.5 10h351v-104h-347q-10 0 -20 -7.5t-10 -19.5v-21
q0 -10 9.5 -18.5t20.5 -8.5h233q34 0 60 -10t43.5 -27t26 -40t8.5 -49v-29zM413 484l-98 77l-97 -79l-68 77l142 120q9 8 23 7.5t23 -7.5q7 -3 25 -17q16 -12 45.5 -36t81.5 -68zM532 156q0 36 -24 61.5t-69 25.5h-239q-33 0 -50.5 18t-17.5 44v29q0 26 19 44.5t49 18.5h314
v21h-312q-45 0 -69 -24.5t-24 -59.5v-30q0 -36 24 -59.5t69 -23.5h239q33 0 50.5 -19.5t17.5 -45.5v-31q0 -26 -19 -43.5t-49 -17.5h-312v-21h310q46 0 69.5 23.5t23.5 60.5v29zM323 639q-7 6 -16 0l-102 -83l16 -18l93 76l98 -77l20 19z" />
    <glyph glyph-name="Scedilla" unicode="&#x15e;" horiz-adv-x="572" 
d="M220 0h-166v105h344q11 0 21 7t10 18v120q0 11 -7.5 17t-18.5 6h-237q-32 0 -57.5 10t-43.5 27t-28 40.5t-10 49.5v121q0 26 10 49t28 40.5t43.5 27.5t57.5 10h353v-104h-349q-10 0 -20 -8t-10 -19v-112q0 -10 9.5 -18.5t20.5 -8.5h233q34 0 60 -10t43.5 -27t26 -40
t8.5 -49v-125q0 -26 -9 -49.5t-26.5 -40.5t-43 -27t-59.5 -10h-85v-24q17 -11 27 -26t10 -43q0 -27 -12.5 -46t-35 -29.5t-54 -13t-68.5 3.5v73q32 -3 52.5 -2t20.5 15q0 11 -10 14t-28 3v75zM277 43h126q46 0 69.5 23.5t23.5 60.5v125q0 36 -24 61t-69 25h-239
q-33 0 -50.5 18.5t-17.5 44.5v120q0 26 19 44t49 18h316v21h-314q-45 0 -69 -24.5t-24 -58.5v-121q0 -37 24 -60.5t69 -23.5h239q33 0 50.5 -19t17.5 -45v-127q0 -26 -19 -43.5t-49 -17.5h-312v-21h161v-93q26 -2 35 -16t9 -27q0 -15 -7.5 -23.5t-19.5 -12.5t-27 -5t-30 0
v-20q60 -2 84.5 15t24.5 47q0 24 -14.5 38.5t-31.5 19.5v77z" />
    <glyph glyph-name="scedilla" unicode="&#x15f;" horiz-adv-x="622" 
d="M237 0h-147v105h344q11 0 21 7t10 18v24q0 11 -7.5 17t-18.5 6h-237q-32 0 -57.5 10t-43.5 27t-28 40.5t-10 49.5v30q0 26 10 49t28 40.5t43.5 27.5t57.5 10h351v-104h-347q-10 0 -20 -7.5t-10 -19.5v-21q0 -10 9.5 -18.5t20.5 -8.5h233q34 0 60 -10t43.5 -27t26 -40
t8.5 -49v-29q0 -26 -9 -49.5t-26.5 -40.5t-43 -27t-59.5 -10h-104v-24q17 -11 27 -26t10 -43q0 -27 -12.5 -46t-35 -29.5t-54 -13t-68.5 3.5v73q32 -3 52.5 -2t20.5 15q0 11 -10 14t-28 3v75zM294 43h145q46 0 69.5 23.5t23.5 60.5v29q0 36 -24 61.5t-69 25.5h-239
q-33 0 -50.5 18t-17.5 44v29q0 26 19 44.5t49 18.5h314v21h-312q-45 0 -69 -24.5t-24 -59.5v-30q0 -36 24 -59.5t69 -23.5h239q33 0 50.5 -19.5t17.5 -45.5v-31q0 -26 -19 -43.5t-49 -17.5h-312v-21h142v-93q26 -2 35 -16t9 -27q0 -15 -7.5 -23.5t-19.5 -12.5t-27 -5t-30 0
v-20q60 -2 84.5 15t24.5 47q0 24 -14.5 38.5t-31.5 19.5v77z" />
    <glyph glyph-name="Scaron" unicode="&#x160;" horiz-adv-x="572" 
d="M541 127q0 -26 -9 -49.5t-26.5 -40.5t-43 -27t-59.5 -10h-349v105h344q11 0 21 7t10 18v120q0 11 -7.5 17t-18.5 6h-237q-32 0 -57.5 10t-43.5 27t-28 40.5t-10 49.5v121q0 26 10 49t28 40.5t43.5 27.5t57.5 10h353v-104h-349q-10 0 -20 -8t-10 -19v-112q0 -10 9.5 -18.5
t20.5 -8.5h233q34 0 60 -10t43.5 -27t26 -40t8.5 -49v-125zM485 814q-54 -40 -87.5 -63.5t-52.5 -36.5q-22 -15 -32 -21q-9 -7 -23 -7.5t-23 7.5l-162 120l68 74l118 -86l117 82zM496 252q0 36 -24 61t-69 25h-239q-33 0 -50.5 18.5t-17.5 44.5v120q0 26 19 44t49 18h316v21
h-314q-45 0 -69 -24.5t-24 -58.5v-121q0 -37 24 -60.5t69 -23.5h239q33 0 50.5 -19t17.5 -45v-127q0 -26 -19 -43.5t-49 -17.5h-312v-21h310q46 0 69.5 23.5t23.5 60.5v125zM427 816l-20 19l-117 -77l-114 76l-16 -18l120 -85q12 -8 22 0z" />
    <glyph glyph-name="scaron" unicode="&#x161;" horiz-adv-x="622" 
d="M577 127q0 -26 -9 -49.5t-26.5 -40.5t-43 -27t-59.5 -10h-349v105h344q11 0 21 7t10 18v24q0 11 -7.5 17t-18.5 6h-237q-32 0 -57.5 10t-43.5 27t-28 40.5t-10 49.5v30q0 26 10 49t28 40.5t43.5 27.5t57.5 10h351v-104h-347q-10 0 -20 -7.5t-10 -19.5v-21
q0 -10 9.5 -18.5t20.5 -8.5h233q34 0 60 -10t43.5 -27t26 -40t8.5 -49v-29zM500 619q-52 -44 -81.5 -68t-45.5 -36q-18 -14 -25 -17q-9 -7 -23 -7.5t-23 7.5l-142 120l68 77l97 -79l98 77zM532 156q0 36 -24 61.5t-69 25.5h-239q-33 0 -50.5 18t-17.5 44v29q0 26 19 44.5
t49 18.5h314v21h-312q-45 0 -69 -24.5t-24 -59.5v-30q0 -36 24 -59.5t69 -23.5h239q33 0 50.5 -19.5t17.5 -45.5v-31q0 -26 -19 -43.5t-49 -17.5h-312v-21h310q46 0 69.5 23.5t23.5 60.5v29zM442 621l-20 19l-98 -77l-93 76l-16 -18l102 -83q9 -6 16 0z" />
    <glyph glyph-name="Tcommaaccent" unicode="&#x162;" horiz-adv-x="524" 
d="M317 540v-540h-113v540h-190v108h496v-108h-193zM470 605h-417v-20h197v-546h22v546h198v20zM269 -191h-94l30 160h112zM238 -71l-16 -80h18l24 80h-26z" />
    <glyph glyph-name="tcommaaccent" unicode="&#x163;" horiz-adv-x="288" 
d="M180 358v-358h-112v648h112v-186h95v-104h-95zM133 -191h-94l30 160h112zM236 418h-100v191h-22v-570h22v357h100v22zM102 -71l-16 -80h18l24 80h-26z" />
    <glyph glyph-name="Tcaron" unicode="&#x164;" horiz-adv-x="524" 
d="M317 540v-540h-113v540h-190v108h496v-108h-193zM450 814q-54 -40 -87.5 -63.5t-52.5 -36.5q-22 -15 -32 -21q-9 -7 -23 -7.5t-23 7.5l-162 120l68 74l118 -86l117 82zM470 605h-417v-20h197v-546h22v546h198v20zM392 816l-20 19l-117 -77l-114 76l-16 -18l120 -85
q12 -8 22 0z" />
    <glyph glyph-name="tcaron" unicode="&#x165;" horiz-adv-x="337" 
d="M180 358v-358h-112v648h112v-186h95v-104h-95zM309 585h-94l30 160h112zM236 418h-100v191h-22v-570h22v357h100v22zM278 705l-16 -80h18l24 80h-26z" />
    <glyph glyph-name="Tbar" unicode="&#x166;" horiz-adv-x="524" 
d="M317 358v-358h-113v358h-190v101h190v81h-190v108h496v-108h-193v-81h193v-101h-193zM272 397h199v23h-199v165h198v20h-417v-20h197v-165h-197v-23h197v-358h22v358z" />
    <glyph glyph-name="tbar" unicode="&#x167;" horiz-adv-x="288" 
d="M180 0h-112v648h112v-186h95v-104h-95v-35h95v-101h-95v-222zM236 261v23h-100v112h100v22h-100v191h-22v-570h22v222h100z" />
    <glyph glyph-name="Utilde" unicode="&#x168;" horiz-adv-x="576" 
d="M176 0q-33 0 -58.5 10t-43.5 27t-27.5 40t-9.5 49v523h113v-518q0 -11 9 -19t22 -8q90 -1 140 -1h74h33v546h112v-649h-364zM495 609h-23v-544h-291q-44 0 -60 19t-16 47v479h-23v-484q0 -36 23.5 -59.5t70.5 -23.5h319v566zM185 832q45 42 97 9l63 -41l64 54l72 -50
l-85 -75q-18 -15 -41.5 -20t-47.5 13l-66 46l-70 -59l-61 57zM153 763l17 -14l65 57l89 -60q17 -11 29 -6t22 14l61 51l-21 13l-70 -57l-80 53q-17 11 -26.5 12.5t-26.5 -12.5z" />
    <glyph glyph-name="utilde" unicode="&#x169;" 
d="M193 0q-33 0 -58.5 10t-43.5 27t-27.5 40t-9.5 49v335h113v-330q0 -11 9 -19t22 -8q90 -1 140 -1h74h33v357h112v-460h-364zM194 649q45 42 97 9l63 -41l64 54l72 -50l-85 -75q-18 -15 -41.5 -20t-47.5 13l-66 46l-70 -59l-61 57zM512 421h-23v-356h-291q-44 0 -60 19
t-16 47v290h-23v-295q0 -36 23.5 -59.5t70.5 -23.5h319v378zM162 580l17 -14l65 57l89 -60q17 -11 29 -6t22 14l61 51l-21 13l-70 -57l-80 53q-17 11 -26.5 12.5t-26.5 -12.5z" />
    <glyph glyph-name="Umacron" unicode="&#x16a;" horiz-adv-x="576" 
d="M176 0q-33 0 -58.5 10t-43.5 27t-27.5 40t-9.5 49v523h113v-518q0 -11 9 -19t22 -8q90 -1 140 -1h74h33v546h112v-649h-364zM495 609h-23v-544h-291q-44 0 -60 19t-16 47v479h-23v-484q0 -36 23.5 -59.5t70.5 -23.5h319v566zM127 729v102h322v-102h-322zM409 791h-242
v-22h242v22z" />
    <glyph glyph-name="umacron" unicode="&#x16b;" 
d="M193 0q-33 0 -58.5 10t-43.5 27t-27.5 40t-9.5 49v335h113v-330q0 -11 9 -19t22 -8q90 -1 140 -1h74h33v357h112v-460h-364zM151 537v102h322v-102h-322zM512 421h-23v-356h-291q-44 0 -60 19t-16 47v290h-23v-295q0 -36 23.5 -59.5t70.5 -23.5h319v378zM433 599h-242
v-22h242v22z" />
    <glyph glyph-name="Ubreve" unicode="&#x16c;" horiz-adv-x="576" 
d="M176 0q-33 0 -58.5 10t-43.5 27t-27.5 40t-9.5 49v523h113v-518q0 -11 9 -19t22 -8q90 -1 140 -1h74h33v546h112v-649h-364zM449 879v-49q0 -33 -10 -57.5t-27.5 -41t-40.5 -25t-49 -8.5h-58q-26 0 -49 8.5t-40 25.5t-27 41.5t-10 56.5v49h103v-43q0 -14 9 -25.5
t19 -11.5h47q10 0 19 11.5t9 25.5v43h105zM495 609h-23v-544h-291q-44 0 -60 19t-16 47v479h-23v-484q0 -36 23.5 -59.5t70.5 -23.5h319v566zM384 838v-8q0 -38 -19.5 -54t-48.5 -16h-45q-29 0 -48.5 16t-19.5 54v11h-22v-13q0 -45 25.5 -68t64.5 -23h45q42 0 66 23t24 68
v10h-22z" />
    <glyph glyph-name="ubreve" unicode="&#x16d;" 
d="M193 0q-33 0 -58.5 10t-43.5 27t-27.5 40t-9.5 49v335h113v-330q0 -11 9 -19t22 -8q90 -1 140 -1h74h33v357h112v-460h-364zM456 679v-49q0 -33 -10 -57.5t-27.5 -41t-40.5 -25t-49 -8.5h-58q-26 0 -49 8.5t-40 25.5t-27 41.5t-10 56.5v49h103v-43q0 -14 9 -25.5
t19 -11.5h47q10 0 19 11.5t9 25.5v43h105zM512 421h-23v-356h-291q-44 0 -60 19t-16 47v290h-23v-295q0 -36 23.5 -59.5t70.5 -23.5h319v378zM391 638v-8q0 -38 -19.5 -54t-48.5 -16h-45q-29 0 -48.5 16t-19.5 54v11h-22v-13q0 -45 25.5 -68t64.5 -23h45q42 0 66 23t24 68
v10h-22z" />
    <glyph glyph-name="Uring" unicode="&#x16e;" horiz-adv-x="576" 
d="M176 0q-33 0 -58.5 10t-43.5 27t-27.5 40t-9.5 49v523h113v-518q0 -11 9 -19t22 -8q90 -1 140 -1h74h33v546h112v-649h-364zM420 773q0 -25 -10 -46.5t-27.5 -37.5t-40.5 -25.5t-50 -9.5q-26 0 -49.5 9.5t-40.5 25.5t-27 37.5t-10 46.5t10 46.5t27.5 37.5t40.5 25.5
t50 9.5q26 0 49 -9.5t40.5 -25.5t27.5 -37.5t10 -46.5zM495 609h-23v-544h-291q-44 0 -60 19t-16 47v479h-23v-484q0 -36 23.5 -59.5t70.5 -23.5h319v566zM381 773q0 16 -7 30.5t-19 25.5t-28 17.5t-34 6.5q-37 0 -63 -23.5t-26 -56.5t26 -56.5t62 -23.5q37 0 63 23.5
t26 56.5zM357 773q0 -25 -19 -42.5t-46 -17.5t-46 17.5t-19 42.5t19.5 43t46.5 18q26 0 45 -18t19 -43zM318 773q0 8 -7 15t-18 7q-12 0 -19.5 -7t-7.5 -15t7.5 -14.5t18.5 -6.5t18.5 6.5t7.5 14.5z" />
    <glyph glyph-name="uring" unicode="&#x16f;" 
d="M193 0q-33 0 -58.5 10t-43.5 27t-27.5 40t-9.5 49v335h113v-330q0 -11 9 -19t22 -8q90 -1 140 -1h74h33v357h112v-460h-364zM429 593q0 -25 -10 -46.5t-27.5 -37.5t-40.5 -25.5t-50 -9.5q-26 0 -49.5 9.5t-40.5 25.5t-27 37.5t-10 46.5t10 46.5t27.5 37.5t40.5 25.5
t50 9.5q26 0 49 -9.5t40.5 -25.5t27.5 -37.5t10 -46.5zM512 421h-23v-356h-291q-44 0 -60 19t-16 47v290h-23v-295q0 -36 23.5 -59.5t70.5 -23.5h319v378zM390 593q0 16 -7 30.5t-19 25.5t-28 17.5t-34 6.5q-37 0 -63 -23.5t-26 -56.5t26 -56.5t62 -23.5q37 0 63 23.5
t26 56.5zM366 593q0 -25 -19 -42.5t-46 -17.5t-46 17.5t-19 42.5t19.5 43t46.5 18q26 0 45 -18t19 -43zM327 593q0 8 -7 15t-18 7q-12 0 -19.5 -7t-7.5 -15t7.5 -14.5t18.5 -6.5t18.5 6.5t7.5 14.5z" />
    <glyph glyph-name="Uhungarumlaut" unicode="&#x170;" horiz-adv-x="576" 
d="M176 0q-33 0 -58.5 10t-43.5 27t-27.5 40t-9.5 49v523h113v-518q0 -11 9 -19t22 -8q90 -1 140 -1h74h33v546h112v-649h-364zM495 609h-23v-544h-291q-44 0 -60 19t-16 47v479h-23v-484q0 -36 23.5 -59.5t70.5 -23.5h319v566zM392 695l-77 65l129 131l100 -80zM196 695
l-77 65l129 131l100 -80zM253 846l-82 -83l27 -22l93 75zM449 846l-82 -83l27 -22l93 75z" />
    <glyph glyph-name="uhungarumlaut" unicode="&#x171;" 
d="M193 0q-33 0 -58.5 10t-43.5 27t-27.5 40t-9.5 49v335h113v-330q0 -11 9 -19t22 -8q90 -1 140 -1h74h33v357h112v-460h-364zM512 421h-23v-356h-291q-44 0 -60 19t-16 47v290h-23v-295q0 -36 23.5 -59.5t70.5 -23.5h319v378zM411 497l-84 56l114 144l108 -69zM218 497
l-84 56l114 144l108 -69zM193 561l18 -14l79 75l-32 22zM386 561l18 -14l79 75l-32 22z" />
    <glyph glyph-name="Uogonek" unicode="&#x172;" horiz-adv-x="576" 
d="M540 0h-162q-36 -33 -36 -65q0 -16 8.5 -22.5t32.5 -6.5q7 0 14.5 0.5t16.5 2.5l-1 -96q-24 -6 -46 -6q-66 1 -99.5 35t-33.5 81q0 37 32 77h-90q-33 0 -58.5 10t-43.5 27t-27.5 40t-9.5 49v523h113v-518q0 -11 9 -19t22 -8q90 -1 140 -1h74h33v546h112v-649zM495 43v566
h-23v-544h-291q-44 0 -60 19t-16 47v479h-23v-484q0 -36 23.5 -59.5t70.5 -23.5h169q-11 -11 -18 -20.5t-18 -22.5q-32 -38 -32 -77q0 -32 21.5 -53.5t61.5 -21.5h9t9 1v21q-38 0 -57.5 15.5t-19.5 40.5q0 17 8.5 36t23.5 38q11 14 20.5 23.5t21.5 19.5h120z" />
    <glyph glyph-name="uogonek" unicode="&#x173;" 
d="M557 0h-166q-36 -33 -36 -65q0 -16 8.5 -22.5t32.5 -6.5q7 0 14.5 0.5t16.5 2.5l-1 -96q-24 -6 -46 -6q-66 1 -99.5 35t-33.5 81q0 19 6.5 38t22.5 39h-83q-33 0 -58.5 10t-43.5 27t-27.5 40t-9.5 49v335h113v-330q0 -11 9 -19t22 -8q90 -1 140 -1h74h33v357h112v-460z
M512 43v378h-23v-356h-291q-44 0 -60 19t-16 47v290h-23v-295q0 -36 23.5 -59.5t70.5 -23.5h165q-26 -25 -47 -55.5t-21 -64.5q0 -32 21.5 -53.5t61.5 -21.5h9t9 1v21q-38 0 -56.5 15.5t-18.5 40.5q0 16 6.5 33t17 32.5t24.5 29t28 22.5h120z" />
    <glyph glyph-name="Wcircumflex" unicode="&#x174;" horiz-adv-x="753" 
d="M174 0q-35 0 -61 10t-43.5 27t-26 40t-8.5 49v522h113v-516q0 -11 9 -19.5t23 -8.5h130v545h112v-545h162v544h112v-648h-522zM650 609h-22v-545h-251v545h-23v-545l-174 1q-15 0 -28.5 3t-24 11t-17 20.5t-6.5 32.5v477h-23v-483q0 -36 24.5 -60t68.5 -24h476v567z
M480 687l-117 82l-118 -86l-66 75l160 119q9 8 23 7.5t23 -7.5q8 -5 28 -19q17 -12 50 -35.5t87 -62.5zM374 841q-10 8 -22 0l-118 -88l16 -19l112 80l118 -80l18 20z" />
    <glyph glyph-name="wcircumflex" unicode="&#x175;" horiz-adv-x="759" 
d="M190 0q-35 0 -61 10t-43.5 27t-26 40t-8.5 49v335h113v-329q0 -11 9 -19.5t23 -8.5h130v357h112v-357h162v357h112v-461h-522zM666 422h-22v-358h-251v358h-23v-358l-174 1q-15 0 -28.5 3t-24 11t-17 20.5t-6.5 32.5v290h-23v-296q0 -36 24.5 -60t68.5 -24h476v380z
M475 484l-98 77l-97 -79l-68 77l142 120q9 8 23 7.5t23 -7.5q7 -3 25 -17q16 -12 45.5 -36t81.5 -68zM385 639q-7 6 -16 0l-102 -83l16 -18l93 76l98 -77l20 19z" />
    <glyph glyph-name="Ycircumflex" unicode="&#x176;" horiz-adv-x="582" 
d="M360 176v-176h-112v176h-70q-32 0 -58 10t-44 27.5t-27.5 41t-9.5 50.5v343h114v-338q0 -11 7.5 -20.5t20.5 -9.5h248v368h113v-472h-182zM420 687l-117 82l-118 -86l-66 75l160 119q9 8 23 7.5t23 -7.5q8 -5 28 -19q17 -12 50 -35.5t87 -62.5zM497 609h-23v-367h-290
q-23 0 -38 5.5t-23.5 14.5t-12 21.5t-3.5 26.5v299h-23v-304q0 -37 23 -61.5t71 -24.5h114v-180h23v180h182v390zM314 841q-10 8 -22 0l-118 -88l16 -19l112 80l118 -80l18 20z" />
    <glyph glyph-name="ycircumflex" unicode="&#x177;" horiz-adv-x="615" 
d="M558 -59q0 -27 -9 -50.5t-26.5 -41t-43 -28t-59.5 -10.5h-227v105h221q13 0 22 9t9 21v54h-255q-33 0 -58.5 10t-43.5 27t-27.5 40.5t-9.5 49.5v334h113v-328q0 -10 9 -19t23 -9h250v356h112v-520zM393 484l-98 77l-97 -79l-68 77l142 120q9 8 23 7.5t23 -7.5
q7 -3 25 -17q16 -12 45.5 -36t81.5 -68zM513 421h-23v-356h-300q-38 0 -54 19.5t-16 48.5v288h-23v-288q0 -42 23 -66t68 -24h302v-94q0 -38 -17.5 -55t-52.5 -17h-188v-22h188q48 0 70.5 24t22.5 62v480zM303 639q-7 6 -16 0l-102 -83l16 -18l93 76l98 -77l20 19z" />
    <glyph glyph-name="Ydieresis" unicode="&#x178;" horiz-adv-x="582" 
d="M360 176v-176h-112v176h-70q-32 0 -58 10t-44 27.5t-27.5 41t-9.5 50.5v343h114v-338q0 -11 7.5 -20.5t20.5 -9.5h248v368h113v-472h-182zM497 609h-23v-367h-290q-23 0 -38 5.5t-23.5 14.5t-12 21.5t-3.5 26.5v299h-23v-304q0 -37 23 -61.5t71 -24.5h114v-180h23v180
h182v390zM129 729v107h112v-107h-112zM373 729v107h111v-107h-111zM196 796h-23v-28h23v28zM440 796h-23v-28h23v28z" />
    <glyph glyph-name="Zacute" unicode="&#x179;" horiz-adv-x="548" 
d="M26 0v97l346 443h-318v108h475v-103l-338 -440h338v-105h-503zM491 606h-397v-21h368l-396 -520v-24h424v22h-396l397 520v23zM299 695l-77 65l129 131l100 -80zM356 846l-82 -83l27 -22l93 75z" />
    <glyph glyph-name="zacute" unicode="&#x17a;" horiz-adv-x="542" 
d="M26 0v100q101 86 160 136.5t90 77t40.5 34.5t10.5 9h-300v104h473v-90l-299 -267h299v-104h-474zM461 42q1 6 1 10v7.5t-1 5.5h-374l374 330v23h-394v-21h366l-368 -322v-33h396zM275 497l-84 56l114 144l108 -69zM250 561l18 -14l79 75l-32 22z" />
    <glyph glyph-name="Zdotaccent" unicode="&#x17b;" horiz-adv-x="548" 
d="M26 0v97l346 443h-318v108h475v-103l-338 -440h338v-105h-503zM491 606h-397v-21h368l-396 -520v-24h424v22h-396l397 520v23zM260 734v107h112v-107h-112zM327 801h-23v-28h23v28z" />
    <glyph glyph-name="zdotaccent" unicode="&#x17c;" horiz-adv-x="542" 
d="M26 0v100q101 86 160 136.5t90 77t40.5 34.5t10.5 9h-300v104h473v-90l-299 -267h299v-104h-474zM461 42q1 6 1 10v7.5t-1 5.5h-374l374 330v23h-394v-21h366l-368 -322v-33h396zM242 542v107h112v-107h-112zM309 609h-23v-28h23v28z" />
    <glyph glyph-name="Zcaron" unicode="&#x17d;" horiz-adv-x="548" 
d="M26 0v97l346 443h-318v108h475v-103l-338 -440h338v-105h-503zM487 814q-54 -40 -87.5 -63.5t-52.5 -36.5q-22 -15 -32 -21q-9 -7 -23 -7.5t-23 7.5l-162 120l68 74l118 -86l117 82zM491 606h-397v-21h368l-396 -520v-24h424v22h-396l397 520v23zM429 816l-20 19
l-117 -77l-114 76l-16 -18l120 -85q12 -8 22 0z" />
    <glyph glyph-name="zcaron" unicode="&#x17e;" horiz-adv-x="542" 
d="M26 0v100q101 86 160 136.5t90 77t40.5 34.5t10.5 9h-300v104h473v-90l-299 -267h299v-104h-474zM451 619q-52 -44 -81.5 -68t-45.5 -36q-18 -14 -25 -17q-9 -7 -23 -7.5t-23 7.5l-142 120l68 77l97 -79l98 77zM461 42q1 6 1 10v7.5t-1 5.5h-374l374 330v23h-394v-21h366
l-368 -322v-33h396zM393 621l-20 19l-98 -77l-93 76l-16 -18l102 -83q9 -6 16 0z" />
    <glyph glyph-name="florin" unicode="&#x192;" horiz-adv-x="600" 
d="M319 545q-13 0 -22 -10t-9 -22v-53h145v-103h-145v-416q0 -27 -10 -50.5t-28 -41.5t-43.5 -28t-56.5 -10h-77v104h71q13 0 22 10t9 22v572q0 27 10 50.5t28 41.5t43.5 28t56.5 10h214v-104h-208zM221 -53q0 -29 -17.5 -50.5t-59.5 -21.5h-32v-22h38q41 0 68 25t27 63v456
h149v22h-149v94q0 29 16 50.5t58 21.5h169v22h-175q-41 0 -66.5 -25t-25.5 -63v-572z" />
    <glyph glyph-name="Ohorn" unicode="&#x1a0;" horiz-adv-x="706" 
d="M518 515q0 42 -23 66.5t-68 24.5h-233q-45 0 -68 -26t-23 -65v-382q0 -42 23 -66t68 -24h233q45 0 68 24t23 66v339h61q52 0 71 20.5t19 61.5v99h-23v-105q0 -53 -59 -53h-69v20zM610 683h94v-135q0 -29 -10 -49.5t-26 -34t-37.5 -19.5t-43.5 -6h-24v-312q0 -26 -9 -49.5
t-27 -40.5t-44 -27t-59 -10h-228q-33 0 -58.5 10t-43.5 27t-27.5 40.5t-9.5 49.5v395q0 26 10 49t28 40t43.5 27t57.5 10h228q62 0 98.5 -30t40.5 -85h20q16 0 21.5 4.5t5.5 16.5v129zM495 133q0 -29 -16 -48.5t-54 -19.5h-229q-38 0 -54 19.5t-16 48.5v383q0 29 16 48.5
t54 19.5h229q38 0 54 -19.5t16 -48.5v-383zM451 517q0 10 -9 19t-23 9h-217q-14 0 -23 -9t-9 -19v-384q0 -10 9 -19t23 -9h217q14 0 23 9t9 19v384z" />
    <glyph glyph-name="ohorn" unicode="&#x1a1;" horiz-adv-x="701" 
d="M576 362q16 0 21.5 4.5t5.5 16.5v115h94v-121q0 -29 -10 -49.5t-26 -34t-37.5 -19.5t-43.5 -6h-18v-141q0 -26 -9 -49.5t-27 -40.5t-44 -27t-59 -10h-228q-33 0 -58.5 10t-43.5 27t-27.5 40.5t-9.5 49.5v208q0 26 10 49t28 40t43.5 27t57.5 10h228q57 0 93 -25.5
t44 -73.5h16zM494 133q0 -29 -16 -48.5t-54 -19.5h-229q-38 0 -54 19.5t-16 48.5v195q0 29 16 48.5t54 19.5h229q38 0 54 -19.5t16 -48.5v-195zM450 330q0 10 -9 19t-23 9h-217q-14 0 -23 -9t-9 -19v-197q0 -10 9 -19t23 -9h217q14 0 23 9t9 19v197zM517 327q0 42 -23 66.5
t-68 24.5h-233q-45 0 -68 -25.5t-23 -64.5v-195q0 -42 23 -66t68 -24h233q45 0 68 24t23 66v168h55q52 0 71 20.5t19 61.5v85h-23v-91q0 -53 -59 -53h-63v3z" />
    <glyph glyph-name="Uhorn" unicode="&#x1af;" horiz-adv-x="696" 
d="M564 517q52 0 71 20.5t19 61.5v89h-23v-95q0 -53 -59 -53h-77v69h-23v-544h-291q-44 0 -60 19t-16 47v479h-23v-484q0 -36 23.5 -59.5t70.5 -23.5h319v474h69zM540 0h-364q-33 0 -58.5 10t-43.5 27t-27.5 40t-9.5 49v523h113v-518q0 -11 9 -19t22 -8q90 -1 140 -1h74h33
v546h112v-71h28q16 0 21.5 4.5t5.5 16.5v119h94v-125q0 -29 -10 -49.5t-26 -34t-37.5 -19.5t-43.5 -6h-32v-484z" />
    <glyph glyph-name="uhorn" unicode="&#x1b0;" horiz-adv-x="704" 
d="M572 349q52 0 71 20.5t19 61.5v69h-23v-75q0 -53 -59 -53h-68v49h-23v-356h-291q-44 0 -60 19t-16 47v290h-23v-295q0 -36 23.5 -59.5t70.5 -23.5h319v306h60zM557 0h-364q-33 0 -58.5 10t-43.5 27t-27.5 40t-9.5 49v335h113v-330q0 -11 9 -19t22 -8q90 -1 140 -1h74h33
v357h112v-50h19q16 0 21.5 4.5t5.5 16.5v99h94v-105q0 -29 -10 -49.5t-26 -34t-37.5 -19.5t-43.5 -6h-23v-316z" />
    <glyph glyph-name="AEacute" unicode="&#x1fc;" horiz-adv-x="994" 
d="M582 0q-67 0 -99.5 38.5t-32.5 96.5v208h-282v-343h-112v519q0 27 10 50.5t28 41t43.5 27.5t56.5 10h746v-104h-347q-13 0 -21.5 -8.5t-8.5 -19.5v-70h323v-104h-322v-209q0 -11 8.5 -19.5t22.5 -8.5h345v-105h-358zM492 134q0 -38 24 -64.5t74 -26.5h310v23h-301
q-45 0 -62.5 20t-17.5 48v248h328v21h-328v109q0 14 3.5 27t12 23t23 16t35.5 6h307v21h-706q-41 0 -66.5 -24.5t-25.5 -61.5v-480h23v342h367v-247zM125 403v109q0 14 3.5 27t12 22.5t23 15.5t36.5 6h292v-180h-367zM450 544h-250q-14 0 -23.5 -10t-9.5 -22v-66h283v98z
M489 695l-77 65l129 131l100 -80zM546 846l-82 -83l27 -22l93 75z" />
    <glyph glyph-name="aeacute" unicode="&#x1fd;" horiz-adv-x="975" 
d="M186 0q-33 0 -58.5 10t-43.5 27t-27.5 40.5t-9.5 49.5v208q0 26 10 49t28 40t43.5 27t57.5 10h623q60 0 98.5 -31.5t38.5 -95.5v-132h-390v-68q0 -12 10 -20t24 -8h352v-106h-756zM900 239v89q0 44 -24 67t-67 23h-625q-45 0 -68 -25.5t-23 -64.5v-195q0 -42 23 -66
t68 -24h718v22h-311q-15 0 -30 3.5t-26 11.5t-18.5 21.5t-7.5 33.5v104h391zM489 65h-303q-38 0 -54 19.5t-16 48.5v195q0 29 16 48.5t54 19.5h303v-331zM442 358h-250q-14 0 -23 -9t-9 -19v-197q0 -10 9 -19t23 -9h250v253zM509 263v68q0 24 10.5 37.5t24 19.5t26 7t17.5 1
h213q31 0 54.5 -14.5t23.5 -54.5v-65zM516 497l-84 56l114 144l108 -69zM834 327q0 13 -10 21.5t-24 8.5h-210q-14 0 -24 -8.5t-10 -21.5v-27h278v27zM491 561l18 -14l79 75l-32 22z" />
    <glyph glyph-name="Oslashacute" unicode="&#x1fe;" 
d="M13 0l54 75q-10 23 -10 52v395q0 26 10 49t28 40t43.5 27t57.5 10h228q27 0 50 -6l45 63l83 -60l-49 -69q5 -12 7.5 -25.5t2.5 -28.5v-395q0 -26 -9 -49.5t-27 -40.5t-44 -27t-59 -10h-228q-29 0 -50 7l-49 -68zM133 61q11 -9 27.5 -13.5t33.5 -4.5h233q45 0 68 24t23 66
v382q0 19 -5 34.5t-12 24.5l46 63q-7 5 -9.5 7t-9.5 7l-44 -61q-20 12 -35 14t-20 2h-235q-45 0 -68 -26t-23 -65v-390q0 -8 3 -22.5t11 -25.5l-49 -69q6 -5 9.5 -6.5t8.5 -6.5zM175 118l311 436q5 -9 7 -21t2 -38v-362q0 -29 -16 -48.5t-54 -19.5h-238q-26 0 -41 13z
M126 516q0 29 16 48.5t54 19.5h229q15 0 26.5 -4t19.5 -9q-39 -55 -79.5 -111t-79.5 -110.5t-75 -105t-67 -93.5l-38 -53q-5 11 -5.5 25t-0.5 34v359zM419 105q14 0 23 9t9 19v301l-235 -329h203zM170 218l234 327h-202q-14 0 -23 -9t-9 -19v-299zM296 695l-77 65l129 131
l100 -80zM353 846l-82 -83l27 -22l93 75z" />
    <glyph glyph-name="oslashacute" unicode="&#x1ff;" horiz-adv-x="624" 
d="M18 38l52 46q-7 18 -7 43v208q0 26 10 49t28 40t43.5 27t57.5 10h228q31 0 57 -9l68 60l67 -76l-61 -54q8 -22 8 -47v-208q0 -26 -9 -49.5t-27 -40.5t-44 -27t-59 -10h-228q-17 0 -31.5 2.5t-28.5 7.5l-56 -50zM200 418q-45 0 -68 -25.5t-23 -64.5v-195q0 -16 4 -31.5
t10 -23.5l-34 -30l-16 -14q5 -6 7.5 -8.5t7.5 -8.5q2 2 6.5 5.5t10.5 9.5l33 29q13 -10 29 -14t33 -4h233q45 0 68 24t23 66v195q0 25 -6 38t-12 21l61 53l-15 18l-62 -54q-14 14 -57 14h-233zM489 371q5 -8 8.5 -19.5t3.5 -23.5v-195q0 -29 -16 -48.5t-54 -19.5h-228
q-34 0 -47 12l35 32l263 232zM436 356q-30 -27 -63 -56.5t-67 -59.5t-67 -59.5t-62 -54.5l-36 -32q-9 16 -9 45v189q0 29 16 48.5t54 19.5h221q30 0 48 -9zM334 497l-84 56l114 144l108 -69zM425 105q14 0 23 9t9 19v157l-209 -185h177zM176 178l204 180h-172q-14 0 -23 -9
t-9 -19v-152zM309 561l18 -14l79 75l-32 22z" />
    <glyph glyph-name="Scommaaccent" unicode="&#x218;" horiz-adv-x="572" 
d="M541 127q0 -26 -9 -49.5t-26.5 -40.5t-43 -27t-59.5 -10h-349v105h344q11 0 21 7t10 18v120q0 11 -7.5 17t-18.5 6h-237q-32 0 -57.5 10t-43.5 27t-28 40.5t-10 49.5v121q0 26 10 49t28 40.5t43.5 27.5t57.5 10h353v-104h-349q-10 0 -20 -8t-10 -19v-112q0 -10 9.5 -18.5
t20.5 -8.5h233q34 0 60 -10t43.5 -27t26 -40t8.5 -49v-125zM496 252q0 36 -24 61t-69 25h-239q-33 0 -50.5 18.5t-17.5 44.5v120q0 26 19 44t49 18h316v21h-314q-45 0 -69 -24.5t-24 -58.5v-121q0 -37 24 -60.5t69 -23.5h239q33 0 50.5 -19t17.5 -45v-127q0 -26 -19 -43.5
t-49 -17.5h-312v-21h310q46 0 69.5 23.5t23.5 60.5v125zM300 -191h-94l30 160h112zM269 -71l-16 -80h18l24 80h-26z" />
    <glyph glyph-name="scommaaccent" unicode="&#x219;" horiz-adv-x="622" 
d="M577 127q0 -26 -9 -49.5t-26.5 -40.5t-43 -27t-59.5 -10h-349v105h344q11 0 21 7t10 18v24q0 11 -7.5 17t-18.5 6h-237q-32 0 -57.5 10t-43.5 27t-28 40.5t-10 49.5v30q0 26 10 49t28 40.5t43.5 27.5t57.5 10h351v-104h-347q-10 0 -20 -7.5t-10 -19.5v-21
q0 -10 9.5 -18.5t20.5 -8.5h233q34 0 60 -10t43.5 -27t26 -40t8.5 -49v-29zM532 156q0 36 -24 61.5t-69 25.5h-239q-33 0 -50.5 18t-17.5 44v29q0 26 19 44.5t49 18.5h314v21h-312q-45 0 -69 -24.5t-24 -59.5v-30q0 -36 24 -59.5t69 -23.5h239q33 0 50.5 -19.5t17.5 -45.5
v-31q0 -26 -19 -43.5t-49 -17.5h-312v-21h310q46 0 69.5 23.5t23.5 60.5v29zM339 -191h-94l30 160h112zM308 -71l-16 -80h18l24 80h-26z" />
    <glyph glyph-name="schwa" unicode="&#x259;" horiz-adv-x="609" 
d="M448 259v68q0 12 -10 20t-24 8h-352v106h363q30 0 55 -10t43 -27t28 -39.5t10 -48.5v-210q0 -26 -10.5 -49t-29 -40t-43 -27t-52.5 -10h-231q-60 0 -98.5 31.5t-38.5 95.5v132h390zM102 396h315q43 0 59 -20t16 -49v-105h-388v-89q0 -44 24 -67.5t67 -23.5h230
q41 0 65.5 25t24.5 61v208q0 35 -24.5 58.5t-64.5 23.5h-324v-22zM492 199v-65q0 -29 -16.5 -49t-58.5 -20h-213q-15 0 -29.5 3t-25 11t-17 21.5t-6.5 33.5v65h366zM170 134q0 -13 10 -21.5t24 -8.5h210q14 0 24 8.5t10 21.5v27h-278v-27z" />
    <glyph glyph-name="primemod" unicode="&#x2b9;" horiz-adv-x="315" 
d="M28 247l230 433l97 -54l-254 -416zM296 610l-21 12q-25 -47 -48.5 -90t-47.5 -86t-48.5 -87.5t-50.5 -93.5l10 -5z" />
    <glyph glyph-name="circumflex" unicode="&#x2c6;" horiz-adv-x="624" 
d="M409 484l-98 77l-97 -79l-68 77l142 120q9 8 23 7.5t23 -7.5q7 -3 25 -17q16 -12 45.5 -36t81.5 -68zM319 639q-7 6 -16 0l-102 -83l16 -18l93 76l98 -77l20 19z" />
    <glyph glyph-name="caron" unicode="&#x2c7;" horiz-adv-x="542" 
d="M451 619q-52 -44 -81.5 -68t-45.5 -36q-18 -14 -25 -17q-9 -7 -23 -7.5t-23 7.5l-142 120l68 77l97 -79l98 77zM393 621l-20 19l-98 -77l-93 76l-16 -18l102 -83q9 -6 16 0z" />
    <glyph glyph-name="breve" unicode="&#x2d8;" horiz-adv-x="608" 
d="M473 679v-49q0 -33 -10 -57.5t-27.5 -41t-40.5 -25t-49 -8.5h-58q-26 0 -49 8.5t-40 25.5t-27 41.5t-10 56.5v49h103v-43q0 -14 9 -25.5t19 -11.5h47q10 0 19 11.5t9 25.5v43h105zM408 638v-8q0 -38 -19.5 -54t-48.5 -16h-45q-29 0 -48.5 16t-19.5 54v11h-22v-13
q0 -45 25.5 -68t64.5 -23h45q42 0 66 23t24 68v10h-22z" />
    <glyph glyph-name="dotaccent" unicode="&#x2d9;" horiz-adv-x="381" 
d="M143 542v107h112v-107h-112zM210 609h-23v-28h23v28z" />
    <glyph glyph-name="ring" unicode="&#x2da;" horiz-adv-x="614" 
d="M445 593q0 -25 -10 -46.5t-27.5 -37.5t-40.5 -25.5t-50 -9.5q-26 0 -49.5 9.5t-40.5 25.5t-27 37.5t-10 46.5t10 46.5t27.5 37.5t40.5 25.5t50 9.5q26 0 49 -9.5t40.5 -25.5t27.5 -37.5t10 -46.5zM406 593q0 16 -7 30.5t-19 25.5t-28 17.5t-34 6.5q-37 0 -63 -23.5
t-26 -56.5t26 -56.5t62 -23.5q37 0 63 23.5t26 56.5zM382 593q0 -25 -19 -42.5t-46 -17.5t-46 17.5t-19 42.5t19.5 43t46.5 18q26 0 45 -18t19 -43zM343 593q0 8 -7 15t-18 7q-12 0 -19.5 -7t-7.5 -15t7.5 -14.5t18.5 -6.5t18.5 6.5t7.5 14.5z" />
    <glyph glyph-name="ogonek" unicode="&#x2db;" horiz-adv-x="418" 
d="M290 25l-29 -25q-36 -33 -36 -65q0 -16 8.5 -22.5t32.5 -6.5q7 0 14.5 0.5t16.5 2.5l-1 -96q-24 -6 -46 -6q-66 1 -99.5 35t-33.5 81q0 41 34 79q5 6 10 11.5t13 11.5h116zM192 0q-17 -18 -24.5 -38t-7.5 -39q0 -32 21.5 -53.5t61.5 -21.5h9t9 1v21q-38 0 -57.5 15.5
t-19.5 40.5q0 37 32 74h-24z" />
    <glyph glyph-name="tilde" unicode="&#x2dc;" horiz-adv-x="624" 
d="M219 649q45 42 97 9l63 -41l64 54l72 -50l-85 -75q-18 -15 -41.5 -20t-47.5 13l-66 46l-70 -59l-61 57zM187 580l17 -14l65 57l89 -60q17 -11 29 -6t22 14l61 51l-21 13l-70 -57l-80 53q-17 11 -26.5 12.5t-26.5 -12.5z" />
    <glyph glyph-name="hungarumlaut" unicode="&#x2dd;" horiz-adv-x="649" 
d="M318 497l-84 56l114 144l108 -69zM293 561l18 -14l79 75l-32 22zM511 497l-84 56l114 144l108 -69zM486 561l18 -14l79 75l-32 22z" />
    <glyph glyph-name="tonos" unicode="&#x384;" horiz-adv-x="614" 
d="M318 497l-84 56l114 144l108 -69zM293 561l18 -14l79 75l-32 22z" />
    <glyph glyph-name="dieresistonos" unicode="&#x385;" 
d="M115 542v107h112v-107h-112zM182 609h-23v-28h23v28zM413 542v107h112v-107h-112zM481 609h-23v-28h23v28zM315 538l-79 37l88 162l110 -52zM288 591l19 -8l65 84l-37 17z" />
    <glyph glyph-name="Alphatonos" unicode="&#x386;" horiz-adv-x="582" 
d="M546 0h-111v343h-283v-54q0 -24 0.5 -55t0.5 -63v-171h-112v519q0 27 10 50.5t28 41t43.5 27.5t56.5 10h368zM501 605h-322q-41 0 -66.5 -24.5t-25.5 -61.5v-480h23v342h367v-342h24v566zM110 403v109q0 14 3.5 27t12 22.5t23 15.5t36.5 6h292v-180h-367zM435 544h-250
q-14 0 -23.5 -10t-9.5 -22v-66h283v98zM-97 477l-84 56l114 144l108 -69zM-122 541l18 -14l79 75l-32 22z" />
    <glyph glyph-name="anoteleia" unicode="&#x387;" horiz-adv-x="277" 
d="M100 393h108v-98h-107z" />
    <glyph glyph-name="Epsilontonos" unicode="&#x388;" horiz-adv-x="561" 
d="M170 0q-32 0 -57.5 10t-43.5 28t-27.5 41.5t-9.5 50.5v388q0 27 9 50.5t26.5 41.5t43.5 28t59 10h352v-104h-347q-13 0 -21.5 -8.5t-8.5 -19.5v-70h323v-104h-323v-208q0 -11 8.5 -20t23.5 -9h345v-105h-352zM482 66h-305q-44 0 -60 20t-16 48v248h328v21h-328v109
q0 14 3.5 27t12 23t23 16t35.5 6h307v21h-312q-43 0 -67.5 -24.5t-24.5 -62.5v-388q0 -38 22 -62.5t70 -24.5h312v23zM-106 477l-84 56l114 144l108 -69zM-131 541l18 -14l79 75l-32 22z" />
    <glyph glyph-name="Etatonos" unicode="&#x389;" 
d="M446 0v116t0.5 86t0.5 60.5v39.5v37h-276v-339h-113v648h113v-202h276v35q0 21 -0.5 61t-0.5 106h113v-648h-113zM514 609h-22v-202h-366v202h-22v-570h22v340h366v-340h22v570zM-111 477l-84 56l114 144l108 -69zM-136 541l18 -14l79 75l-32 22z" />
    <glyph glyph-name="Iotatonos" unicode="&#x38a;" horiz-adv-x="276" 
d="M80 0v648h112v-648h-112zM-92 477l-84 56l114 144l108 -69zM148 609h-22v-570h22v570zM-117 541l18 -14l79 75l-32 22z" />
    <glyph glyph-name="Omicrontonos" unicode="&#x38c;" 
d="M563 127q0 -26 -9 -49.5t-27 -40.5t-44 -27t-59 -10h-228q-33 0 -58.5 10t-43.5 27t-27.5 40.5t-9.5 49.5v395q0 26 10 49t28 40t43.5 27t57.5 10h228q65 0 102 -33t37 -93v-395zM518 515q0 42 -23 66.5t-68 24.5h-233q-45 0 -68 -26t-23 -65v-382q0 -42 23 -66t68 -24
h233q45 0 68 24t23 66v382zM495 133q0 -29 -16 -48.5t-54 -19.5h-229q-38 0 -54 19.5t-16 48.5v383q0 29 16 48.5t54 19.5h229q38 0 54 -19.5t16 -48.5v-383zM451 517q0 10 -9 19t-23 9h-217q-14 0 -23 -9t-9 -19v-384q0 -10 9 -19t23 -9h217q14 0 23 9t9 19v384zM-83 487
l-84 56l114 144l108 -69zM-108 551l18 -14l79 75l-32 22z" />
    <glyph glyph-name="Upsilontonos" unicode="&#x38e;" horiz-adv-x="582" 
d="M360 176v-176h-112v176h-70q-32 0 -58 10t-44 27.5t-27.5 41t-9.5 50.5v343h114v-338q0 -11 7.5 -20.5t20.5 -9.5h248v368h113v-472h-182zM497 609h-23v-367h-290q-23 0 -38 5.5t-23.5 14.5t-12 21.5t-3.5 26.5v299h-23v-304q0 -37 23 -61.5t71 -24.5h114v-180h23v180
h182v390zM-135 477l-84 56l114 144l108 -69zM-160 541l18 -14l79 75l-32 22z" />
    <glyph glyph-name="Omegatonos" unicode="&#x38f;" horiz-adv-x="603" 
d="M559 305q0 -31 -11 -55t-29.5 -40.5t-44 -25t-53.5 -8.5h-57v-71h194v-105h-499v105h192v71h-59q-29 0 -54 9t-43.5 25.5t-29.5 40.5t-11 54v214q0 27 9.5 50.5t27.5 41.5t43.5 28t57.5 10h229q36 0 62.5 -10t43 -28t24.5 -41.5t8 -50.5v-214zM519 64h-200v155h102
q41 0 67.5 21.5t26.5 64.5v214q0 38 -23 62t-71 24h-229q-42 0 -66.5 -24t-24.5 -62v-214q0 -45 24.5 -65.5t66.5 -20.5h105v-155h-198v-21h420v21zM492 310q0 -21 -6.5 -34.5t-17 -21.5t-24 -11t-28.5 -3h-218q-15 0 -28.5 3.5t-24 11.5t-16.5 21.5t-6 33.5v202
q0 15 3.5 28t12 23t23 16t36.5 6h218q44 0 60 -22t16 -50v-203zM448 512q0 12 -9.5 22t-22.5 10h-218q-14 0 -23 -9.5t-9 -21.5v-203q0 -12 9 -20.5t23 -8.5h218q13 0 22.5 8.5t9.5 20.5v202zM-104 477l-84 56l114 144l108 -69zM-129 541l18 -14l79 75l-32 22z" />
    <glyph glyph-name="iotadieresistonos" unicode="&#x390;" horiz-adv-x="273" 
d="M74 0v461h112v-461h-112zM127 538l-79 37l88 162l110 -52zM225 542v107h112v-107h-112zM-73 542v107h112v-107h-112zM142 422h-23v-383h23v383zM100 591l19 -8l65 84l-37 17zM293 609h-23v-28h23v28zM-6 609h-23v-28h23v28z" />
    <glyph glyph-name="Alpha" unicode="&#x391;" horiz-adv-x="582" 
d="M546 0h-111v343h-283v-54q0 -24 0.5 -55t0.5 -63v-171h-112v519q0 27 10 50.5t28 41t43.5 27.5t56.5 10h368zM501 605h-322q-41 0 -66.5 -24.5t-25.5 -61.5v-480h23v342h367v-342h24v566zM110 403v109q0 14 3.5 27t12 22.5t23 15.5t36.5 6h292v-180h-367zM435 544h-250
q-14 0 -23.5 -10t-9.5 -22v-66h283v98z" />
    <glyph glyph-name="Beta" unicode="&#x392;" horiz-adv-x="586" 
d="M556 128q0 -57 -37 -92.5t-100 -35.5h-366v648h329q24 0 45 -9.5t37 -25t25 -35t9 -39.5v-71q0 -33 -19 -63q42 -23 59.5 -63t17.5 -84v-130zM512 257q0 54 -25.5 84.5t-72.5 53.5q39 28 39 73v61q0 16 -7 30t-18 24t-25.5 16t-30.5 6h-273v-562h320q40 0 66.5 22.5
t26.5 64.5v127zM488 133q0 -29 -17 -48.5t-47 -19.5h-303v316h234q27 0 51 -9.5t42.5 -26t29 -39.5t10.5 -49v-124zM444 256q0 36 -25.5 59t-63.5 23h-191v-234h248q14 0 23 8.5t9 20.5v123zM430 466q0 -25 -19.5 -44.5t-44.5 -19.5h-244v182h244q25 0 44.5 -18.5
t19.5 -42.5v-57zM386 520q0 15 -8 20t-17 5h-196v-102h201q8 0 14 7t6 16v54z" />
    <glyph glyph-name="Gamma" unicode="&#x393;" horiz-adv-x="486" 
d="M168 544l1 -544h-113v648h415v-104h-303zM432 606h-329v-37.5v-66v-85t-0.5 -95t-0.5 -95v-85v-66v-37.5h22v545h308v22z" />
    <glyph glyph-name="Delta" unicode="&#x394;" horiz-adv-x="564" 
d="M2 0l234 649h92l223 -649h-549zM294 609h-26l-200 -570h421zM102 65l180 511l172 -511h-352zM282 445q-3 -7 -17 -45q-12 -32 -36.5 -101.5t-67.5 -194.5h230z" />
    <glyph glyph-name="Delta" unicode="&#x2206;" horiz-adv-x="564" 
d="M2 0l234 649h92l223 -649h-549zM294 609h-26l-200 -570h421zM102 65l180 511l172 -511h-352zM282 445q-3 -7 -17 -45q-12 -32 -36.5 -101.5t-67.5 -194.5h230z" />
    <glyph glyph-name="Epsilon" unicode="&#x395;" horiz-adv-x="548" 
d="M170 0q-32 0 -57.5 10t-43.5 28t-27.5 41.5t-9.5 50.5v388q0 27 9 50.5t26.5 41.5t43.5 28t59 10h352v-104h-347q-13 0 -21.5 -8.5t-8.5 -19.5v-70h323v-104h-323v-208q0 -11 8.5 -20t23.5 -9h345v-105h-352zM482 66h-305q-44 0 -60 20t-16 48v248h328v21h-328v109
q0 14 3.5 27t12 23t23 16t35.5 6h307v21h-312q-43 0 -67.5 -24.5t-24.5 -62.5v-388q0 -38 22 -62.5t70 -24.5h312v23z" />
    <glyph glyph-name="Zeta" unicode="&#x396;" horiz-adv-x="548" 
d="M26 0v97l346 443h-318v108h475v-103l-338 -440h338v-105h-503zM491 606h-397v-21h368l-396 -520v-24h424v22h-396l397 520v23z" />
    <glyph glyph-name="Eta" unicode="&#x397;" 
d="M446 0v116t0.5 86t0.5 60.5v39.5v37h-276v-339h-113v648h113v-202h276v35q0 21 -0.5 61t-0.5 106h113v-648h-113zM514 609h-22v-202h-366v202h-22v-570h22v340h366v-340h22v570z" />
    <glyph glyph-name="Theta" unicode="&#x398;" horiz-adv-x="592" 
d="M552 130q0 -32 -11 -56.5t-29.5 -41t-44 -24.5t-53.5 -8h-229q-32 0 -57.5 10t-43.5 28t-27.5 41.5t-9.5 50.5v389q0 27 9.5 50.5t27.5 41t43.5 27.5t57.5 10h229q37 0 63.5 -10t43 -27.5t24 -41t7.5 -50.5v-389zM508 519q0 38 -23 62t-71 24h-229q-42 0 -66.5 -24
t-24.5 -62v-389q0 -38 22.5 -62.5t68.5 -24.5h229q41 0 67.5 21.5t26.5 65.5v389zM116 405v107q0 29 16.5 50.5t58.5 21.5h218q22 0 37 -6t24 -16t12.5 -23t3.5 -27v-107h-370zM486 134q0 -20 -6.5 -33t-17.5 -21t-24.5 -11t-28.5 -3h-218q-42 0 -58.5 19.5t-16.5 48.5v249
h370v-249zM441 512q0 16 -9.5 24t-22.5 8h-218q-14 0 -23 -9.5t-9 -22.5v-66h282v66zM441 339h-282v-205q0 -12 9 -20.5t23 -8.5h218q13 0 22.5 8.5t9.5 20.5v205z" />
    <glyph glyph-name="Iota" unicode="&#x399;" horiz-adv-x="276" 
d="M80 0v648h112v-648h-112zM148 609h-22v-570h22v570z" />
    <glyph glyph-name="Kappa" unicode="&#x39a;" horiz-adv-x="604" 
d="M587 648q-57 -98 -89 -150.5t-47 -78.5l-21 -35q28 -10 51.5 -27.5t40 -40t25.5 -49t9 -55.5v-212h-111v212q0 16 -7 31t-19 25.5t-27.5 17t-32.5 6.5h-191v-292h-113v649h113v-252h137q3 5 20 33q14 24 44.5 74.5t86.5 143.5h131zM487 609l-145 -252h-218v251h-23v-56.5
v-102.5v-125v-125t-0.5 -103t-0.5 -57h24v295h243q25 0 47.5 -10t39 -26.5t26 -39t9.5 -46.5v-173h22v173q0 31 -11.5 57t-31 45t-45 30t-53.5 13l141 252h-24z" />
    <glyph glyph-name="Lambda" unicode="&#x39b;" horiz-adv-x="564" 
d="M430 0l-145 444l-155 -444h-125l234 649h94l223 -649h-126zM300 609h-30l-198 -570h25l189 545l181 -545h27z" />
    <glyph glyph-name="Mu" unicode="&#x39c;" horiz-adv-x="768" 
d="M608 0v517q0 10 -9 18.5t-23 8.5h-130v-544h-112v544h-162v-544h-113v649h523q35 0 61 -10t43 -27.5t25.5 -40.5t8.5 -49v-522h-112zM675 522q0 36 -24.5 60t-68.5 24h-476v-567h22v545h251v-545h23v545h174q15 0 28.5 -3.5t24 -11t17 -20.5t6.5 -32v-478h23v483z" />
    <glyph glyph-name="Nu" unicode="&#x39d;" horiz-adv-x="624" 
d="M562 0h-111l-278 439v-439h-113l1 648h112l277 -440v440h112v-648zM517 609h-23v-551l-353 551h-35v-570h22v550l353 -550h36v570z" />
    <glyph glyph-name="Xi" unicode="&#x39e;" horiz-adv-x="576" 
d="M40 0v105h192v237h-129v104h129v95h-192v107h500v-106h-194v-96h131v-104h-131v-237h194v-105h-500zM501 59h-198v323h135v21h-135v181h198v21h-421v-21h199v-181h-137v-21h137v-323h-200v-20h422v20z" />
    <glyph glyph-name="Omicron" unicode="&#x39f;" 
d="M563 127q0 -26 -9 -49.5t-27 -40.5t-44 -27t-59 -10h-228q-33 0 -58.5 10t-43.5 27t-27.5 40.5t-9.5 49.5v395q0 26 10 49t28 40t43.5 27t57.5 10h228q65 0 102 -33t37 -93v-395zM518 515q0 42 -23 66.5t-68 24.5h-233q-45 0 -68 -26t-23 -65v-382q0 -42 23 -66t68 -24
h233q45 0 68 24t23 66v382zM495 133q0 -29 -16 -48.5t-54 -19.5h-229q-38 0 -54 19.5t-16 48.5v383q0 29 16 48.5t54 19.5h229q38 0 54 -19.5t16 -48.5v-383zM451 517q0 10 -9 19t-23 9h-217q-14 0 -23 -9t-9 -19v-384q0 -10 9 -19t23 -9h217q14 0 23 9t9 19v384z" />
    <glyph glyph-name="Pi" unicode="&#x3a0;" horiz-adv-x="604" 
d="M445 0v545h-277v-545h-111v648h499v-648h-111zM512 606h-408v-567h22v544h363v-544h23v567z" />
    <glyph glyph-name="Rho" unicode="&#x3a1;" horiz-adv-x="576" 
d="M154 188v-190h-113v651h364q36 0 62.5 -10t43.5 -28t25 -41.5t8 -50.5v-331h-390zM498 519q0 38 -22 63t-71 25h-318v-569h23v192h388v289zM110 253v331h287q44 0 61 -18.5t17 -49.5v-263h-365zM431 516q0 14 -9.5 21.5t-22.5 7.5h-246v-253h278v224z" />
    <glyph glyph-name="Sigma" unicode="&#x3a3;" horiz-adv-x="576" 
d="M27 0v97l206 266l-175 182v103h475v-108h-307l164 -177l-198 -258h351v-105h-516zM504 63h-409l228 304l-204 218h368v21h-397v-24l203 -216l-226 -301v-24h437v22z" />
    <glyph glyph-name="Tau" unicode="&#x3a4;" horiz-adv-x="524" 
d="M317 540v-540h-113v540h-190v108h496v-108h-193zM470 605h-417v-20h197v-546h22v546h198v20z" />
    <glyph glyph-name="Upsilon" unicode="&#x3a5;" horiz-adv-x="582" 
d="M360 176v-176h-112v176h-70q-32 0 -58 10t-44 27.5t-27.5 41t-9.5 50.5v343h114v-338q0 -11 7.5 -20.5t20.5 -9.5h248v368h113v-472h-182zM497 609h-23v-367h-290q-23 0 -38 5.5t-23.5 14.5t-12 21.5t-3.5 26.5v299h-23v-304q0 -37 23 -61.5t71 -24.5h114v-180h23v180
h182v390z" />
    <glyph glyph-name="Phi" unicode="&#x3a6;" horiz-adv-x="720" 
d="M688 307q0 -31 -11 -55.5t-29.5 -41t-44 -25t-54.5 -8.5h-131v-177h-113v177h-131q-29 0 -54 8.5t-43.5 25t-29.5 40.5t-11 56v212q0 27 9 50.5t26.5 41t43.5 28t59 10.5h375q37 0 63 -10.5t43 -28t25 -41t8 -50.5v-212zM643 519q0 38 -23 62t-71 24h-375q-41 0 -67 -24
t-26 -62v-212q0 -45 26 -66t67 -21h177v-181h22v181h176q42 0 68 22.5t26 64.5v212zM621 312q0 -29 -17.5 -49.5t-59.5 -20.5h-171v342h171q22 0 37 -6t24 -16t12.5 -23t3.5 -27v-200zM180 242q-15 0 -28.5 3t-24 10.5t-17 21t-6.5 35.5v200q0 14 3 27t11.5 23t23.5 16t38 6
h171v-342h-171zM576 512q0 14 -9.5 23.5t-22.5 9.5h-126v-263h126q14 0 23 9t9 21v200zM305 545h-125q-13 0 -22.5 -10.5t-9.5 -22.5v-200q0 -12 9.5 -21t22.5 -9h125v263z" />
    <glyph glyph-name="Chi" unicode="&#x3a7;" horiz-adv-x="560" 
d="M346 321l200 -321h-130l-135 216l-136 -216h-131l201 321l-204 327h132l138 -223l139 223h131zM448 609l-166 -267l-167 267h-28l181 -289l-175 -280h27l161 258l162 -258h27l-175 280l181 289h-28z" />
    <glyph glyph-name="Psi" unicode="&#x3a8;" horiz-adv-x="708" 
d="M679 307q0 -27 -9.5 -50.5t-27 -41.5t-43 -28t-58.5 -10h-132v-177h-112v177h-131q-33 0 -58.5 10t-43.5 28t-27.5 41.5t-9.5 50.5v281h113v-276q0 -13 9 -21.5t23 -8.5h124v366h113v-366h127q14 0 23 8.5t9 21.5v276h111v-281zM634 549h-23v-237q0 -29 -15.5 -49.5
t-59.5 -20.5h-170v367h-23v-367h-171q-42 0 -59.5 20.5t-17.5 49.5v236h-21v-241q0 -38 22 -62.5t70 -24.5h177v-181h23v181h175q48 0 70.5 24.5t22.5 62.5v242z" />
    <glyph glyph-name="Omega" unicode="&#x3a9;" horiz-adv-x="603" 
d="M559 305q0 -31 -11 -55t-29.5 -40.5t-44 -25t-53.5 -8.5h-57v-71h194v-105h-499v105h192v71h-59q-29 0 -54 9t-43.5 25.5t-29.5 40.5t-11 54v214q0 27 9.5 50.5t27.5 41.5t43.5 28t57.5 10h229q36 0 62.5 -10t43 -28t24.5 -41.5t8 -50.5v-214zM519 64h-200v155h102
q41 0 67.5 21.5t26.5 64.5v214q0 38 -23 62t-71 24h-229q-42 0 -66.5 -24t-24.5 -62v-214q0 -45 24.5 -65.5t66.5 -20.5h105v-155h-198v-21h420v21zM492 310q0 -21 -6.5 -34.5t-17 -21.5t-24 -11t-28.5 -3h-218q-15 0 -28.5 3.5t-24 11.5t-16.5 21.5t-6 33.5v202
q0 15 3.5 28t12 23t23 16t36.5 6h218q44 0 60 -22t16 -50v-203zM448 512q0 12 -9.5 22t-22.5 10h-218q-14 0 -23 -9.5t-9 -21.5v-203q0 -12 9 -20.5t23 -8.5h218q13 0 22.5 8.5t9.5 20.5v202z" />
    <glyph glyph-name="Iotadieresis" unicode="&#x3aa;" horiz-adv-x="276" 
d="M80 0v648h112v-648h-112zM148 609h-22v-570h22v570zM-40 729v107h112v-107h-112zM204 729v107h111v-107h-111zM27 796h-23v-28h23v28zM271 796h-23v-28h23v28z" />
    <glyph glyph-name="Upsilondieresis" unicode="&#x3ab;" horiz-adv-x="582" 
d="M360 176v-176h-112v176h-70q-32 0 -58 10t-44 27.5t-27.5 41t-9.5 50.5v343h114v-338q0 -11 7.5 -20.5t20.5 -9.5h248v368h113v-472h-182zM497 609h-23v-367h-290q-23 0 -38 5.5t-23.5 14.5t-12 21.5t-3.5 26.5v299h-23v-304q0 -37 23 -61.5t71 -24.5h114v-180h23v180
h182v390zM125 729v107h112v-107h-112zM369 729v107h111v-107h-111zM192 796h-23v-28h23v28zM436 796h-23v-28h23v28z" />
    <glyph glyph-name="alphatonos" unicode="&#x3ac;" horiz-adv-x="614" 
d="M186 0q-33 0 -58.5 10t-43.5 27t-27.5 40.5t-9.5 49.5v208q0 26 10 49t28 40t43.5 27t57.5 10h368v-461h-368zM509 418h-325q-45 0 -68 -25.5t-23 -64.5v-195q0 -42 23 -66t68 -24h325v375zM186 65q-38 0 -54 19.5t-16 48.5v195q0 29 16 48.5t54 19.5h300v-331h-300z
M442 358h-250q-14 0 -23 -9t-9 -19v-197q0 -10 9 -19t23 -9h250v253zM333 497l-84 56l114 144l108 -69zM308 561l18 -14l79 75l-32 22z" />
    <glyph glyph-name="epsilontonos" unicode="&#x3ad;" horiz-adv-x="572" 
d="M182 0q-32 0 -57.5 10t-43.5 28t-27.5 41.5t-9.5 50.5v202q0 27 9 50.5t26.5 41t43.5 27.5t59 10h351v-103h-346q-13 0 -21.5 -8.5t-8.5 -20.5v-30h284v-104h-284v-61q0 -11 8.5 -20t23.5 -9h354v-105h-361zM503 66h-314q-44 0 -60 20t-16 48v100h289v21h-289v70
q0 29 15.5 50.5t58.5 21.5h306v22h-311q-43 0 -67.5 -24.5t-24.5 -62.5v-202q0 -38 22 -62.5t70 -24.5h321v23zM328 497l-84 56l114 144l108 -69zM303 561l18 -14l79 75l-32 22z" />
    <glyph glyph-name="etatonos" unicode="&#x3ae;" 
d="M455 0v329q0 12 -9 20t-23 8h-245v-357h-113v461h364q36 0 62 -10t43 -27.5t25.5 -40.5t8.5 -49v-334h-113zM522 334q0 36 -24 60t-69 24h-319v-379h23v358h290q41 0 58.5 -19.5t17.5 -48.5v-290h23v295zM326 497l-84 56l114 144l108 -69zM301 561l18 -14l79 75l-32 22z
" />
    <glyph glyph-name="iotatonos" unicode="&#x3af;" horiz-adv-x="256" 
d="M74 0v461h112v-461h-112zM162 497l-84 56l114 144l108 -69zM142 422h-23v-383h23v383zM137 561l18 -14l79 75l-32 22z" />
    <glyph glyph-name="upsilondieresistonos" unicode="&#x3b0;" horiz-adv-x="600" 
d="M562 125q0 -29 -11 -52t-29.5 -39.5t-44 -25t-53.5 -8.5h-229q-31 0 -56.5 10t-44 27t-28.5 39.5t-10 48.5v336h113v-329q0 -11 9 -19.5t23 -8.5h218q14 0 22.5 8.5t8.5 19.5v329h112v-336zM518 421h-24v-289q0 -28 -17 -47.5t-58 -19.5h-218q-40 0 -58 19.5t-18 47.5
v289h-22v-296q0 -35 25 -58.5t67 -23.5h229q41 0 67.5 23.5t26.5 58.5v296zM305 538l-79 37l88 162l110 -52zM403 542v107h112v-107h-112zM105 542v107h112v-107h-112zM278 591l19 -8l65 84l-37 17zM172 609h-23v-28h23v28zM471 609h-23v-28h23v28z" />
    <glyph glyph-name="alpha" unicode="&#x3b1;" horiz-adv-x="614" 
d="M186 0q-33 0 -58.5 10t-43.5 27t-27.5 40.5t-9.5 49.5v208q0 26 10 49t28 40t43.5 27t57.5 10h368v-461h-368zM509 418h-325q-45 0 -68 -25.5t-23 -64.5v-195q0 -42 23 -66t68 -24h325v375zM186 65q-38 0 -54 19.5t-16 48.5v195q0 29 16 48.5t54 19.5h300v-331h-300z
M442 358h-250q-14 0 -23 -9t-9 -19v-197q0 -10 9 -19t23 -9h250v253z" />
    <glyph glyph-name="beta" unicode="&#x3b2;" horiz-adv-x="586" 
d="M556 128q0 -57 -37 -92.5t-100 -35.5h-366v648h329q24 0 45 -9.5t37 -25t25 -35t9 -39.5v-71q0 -33 -19 -63q42 -23 59.5 -63t17.5 -84v-130zM512 257q0 54 -25 86t-73 52q39 28 39 73v61q0 16 -7 30t-18 24t-25.5 16t-30.5 6h-273v-562h320q40 0 66.5 22.5t26.5 64.5
v127zM488 133q0 -29 -17 -48.5t-47 -19.5h-303v316h234q27 0 51 -9.5t42.5 -26t29 -39.5t10.5 -49v-124zM444 256q0 36 -23 59t-66 23h-191v-234h248q14 0 23 8.5t9 20.5v123zM430 466q0 -25 -19.5 -44.5t-44.5 -19.5h-244v182h244q25 0 44.5 -18.5t19.5 -42.5v-57zM386 520
q0 15 -8 20t-17 5h-196v-102h201q8 0 14 7t6 16v54z" />
    <glyph glyph-name="gamma" unicode="&#x3b3;" horiz-adv-x="556" 
d="M221 -193v193l-210 462h125l143 -336l135 336h126l-205 -479v-176h-114zM451 422l-171 -380l-178 380h-24l190 -411v-164h22v164l186 411h-25z" />
    <glyph glyph-name="delta" unicode="&#x3b4;" horiz-adv-x="596" 
d="M550 130q0 -32 -11 -56t-29.5 -40.5t-44 -25t-53.5 -8.5h-225q-33 0 -59 10t-43.5 28t-27 41.5t-9.5 50.5v205q0 36 16 62t39 36q-8 8 -9 17t-1 17v64q0 22 9 43.5t25.5 37.5t40 26t52.5 10h188v-101h-174q-8 0 -18.5 -8.5t-10.5 -22.5v-37q0 -8 6 -13t14 -5h185
q28 0 53.5 -7t44.5 -22.5t30.5 -40t11.5 -59.5v-202zM507 330q0 39 -23 63.5t-64 24.5h-201q-25 0 -41.5 18.5t-16.5 42.5v43q0 24 15.5 43t48.5 19h144v22h-146q-18 0 -33.5 -6.5t-26.5 -17t-17.5 -24.5t-6.5 -28v-60q0 -14 6.5 -28.5t19.5 -22.5q-30 -7 -50 -29t-20 -55
v-205q0 -38 21.5 -62.5t63.5 -24.5h232q48 0 71.5 24.5t23.5 62.5v200zM484 132q0 -39 -24.5 -53t-54.5 -14h-212q-42 0 -59 19t-17 48v195q0 29 17 49t46 20h225q15 0 29 -2.5t25.5 -10t18 -21t6.5 -34.5v-196zM438 328q0 12 -9.5 20.5t-23.5 8.5h-212q-14 0 -23 -9t-9 -21
v-195q0 -12 9 -19.5t23 -7.5h212q14 0 23.5 7.5t9.5 19.5v196z" />
    <glyph glyph-name="epsilon" unicode="&#x3b5;" horiz-adv-x="572" 
d="M182 0q-32 0 -57.5 10t-43.5 28t-27.5 41.5t-9.5 50.5v202q0 27 9 50.5t26.5 41t43.5 27.5t59 10h351v-103h-346q-13 0 -21.5 -8.5t-8.5 -20.5v-30h284v-104h-284v-61q0 -11 8.5 -20t23.5 -9h354v-105h-361zM503 66h-314q-44 0 -60 20t-16 48v100h289v21h-289v70
q0 29 15.5 50.5t58.5 21.5h306v22h-311q-43 0 -67.5 -24.5t-24.5 -62.5v-202q0 -38 22 -62.5t70 -24.5h321v23z" />
    <glyph glyph-name="zeta" unicode="&#x3b6;" horiz-adv-x="542" 
d="M36 0v100q101 86 160 136.5t90 77t40.5 34.5t10.5 9h-300v104h473v-90l-299 -267h299v-104h-474zM471 42q1 6 1 10v7.5t-1 5.5h-374l374 330v23h-394v-21h366l-368 -322v-33h396z" />
    <glyph glyph-name="eta" unicode="&#x3b7;" 
d="M455 0v329q0 12 -9 20t-23 8h-245v-357h-113v461h364q36 0 62 -10t43 -27.5t25.5 -40.5t8.5 -49v-334h-113zM522 334q0 36 -24 60t-69 24h-319v-379h23v358h290q41 0 58.5 -19.5t17.5 -48.5v-290h23v295z" />
    <glyph glyph-name="theta" unicode="&#x3b8;" horiz-adv-x="600" 
d="M556 130q0 -31 -11 -55t-29.5 -40.5t-44 -25.5t-53.5 -9h-229q-29 0 -54 8t-43.5 24.5t-29.5 41t-11 56.5v389q0 27 9.5 50.5t27 41.5t43 28t58.5 10h229q36 0 62 -10t43 -28t25 -41.5t8 -50.5v-389zM511 519q0 38 -22.5 62.5t-70.5 24.5h-229q-42 0 -67.5 -24.5
t-25.5 -62.5v-389q0 -45 25.5 -66t67.5 -21h229q41 0 67 21.5t26 65.5v389zM488 131q0 -36 -23 -52t-52 -16h-218q-29 0 -52.5 16.5t-23.5 51.5v208h369v-208zM119 361v152q0 29 17 50t47 21h244q29 0 45 -21t16 -50v-152h-369zM445 302h-282v-168q0 -12 9 -20.5t23 -8.5
h218q13 0 22.5 8.5t9.5 20.5v168zM445 515q0 12 -9.5 20.5t-22.5 8.5h-218q-14 0 -23 -8t-9 -21v-111h282v111z" />
    <glyph glyph-name="iota" unicode="&#x3b9;" horiz-adv-x="256" 
d="M74 0v461h112v-461h-112zM142 422h-23v-383h23v383z" />
    <glyph glyph-name="kappa" unicode="&#x3ba;" horiz-adv-x="618" 
d="M444 284q30 -10 52 -27.5t36 -40t21 -48.5t7 -53v-115h-112v115q0 32 -24.5 55t-59.5 23h-191v-193h-113v460h113v-163h145l138 164h140zM515 118q0 60 -40 98.5t-106 38.5l143 167h-33l-141 -167l-209 -1v167h-22v-382h22v194h235q59 0 93.5 -34.5t34.5 -83.5v-76h23v79
z" />
    <glyph glyph-name="lambda" unicode="&#x3bb;" horiz-adv-x="610" 
d="M440 0v357h-249q-14 0 -23 -8.5t-9 -20.5v-328h-113v332q0 27 10 50.5t28 41t43.5 27.5t57.5 10h255v57q0 12 -9 19.5t-23 7.5h-220v103h226q39 0 65.5 -10.5t43 -29t23.5 -44t7 -55.5v-509h-113zM508 509q0 44 -21.5 70t-69.5 26h-190v-21h194q29 0 46 -20.5t17 -49.5
v-95h-299q-42 0 -68 -25t-26 -62v-293h24v291q0 29 21 48t50 19h298v-358h24v470z" />
    <glyph glyph-name="nu" unicode="&#x3bd;" horiz-adv-x="552" 
d="M328 0h-95l-217 462h125q25 -56 44 -98.5t33.5 -74.5t24.5 -54.5t17 -37.5q16 -35 19 -43q3 8 19 43q6 15 16 37.5t24 54.5t33 74.5t43 98.5h126zM451 422l-171 -361l-173 361h-24l181 -383h31l181 383h-25z" />
    <glyph glyph-name="xi" unicode="&#x3be;" horiz-adv-x="592" 
d="M462 -190v161q0 12 -9 20.5t-22 8.5h-225q-32 0 -57.5 10t-43.5 28t-27.5 41.5t-9.5 50.5v201q0 27 9.5 50.5t27.5 41.5t43.5 28t57.5 10h362v-155h-112v51h-244q-14 0 -23 -9q-8 -8 -8 -21v-30h243v-107h-243v-50q0 -20 7.5 -27t23.5 -7h238q28 0 51 -10.5t39.5 -28
t25 -41t8.5 -50.5v-166h-112zM529 -27q0 43 -25.5 66.5t-67.5 23.5h-224q-33 0 -54 17.5t-21 59.5v92h248v22h-248v73q0 29 16 49t59 20h288v-50h23v73h-317q-41 0 -66.5 -25t-25.5 -63v-201q0 -38 23.5 -63.5t68.5 -25.5h225q29 0 52 -15.5t23 -54.5v-121h23v123z" />
    <glyph glyph-name="omicron" unicode="&#x3bf;" horiz-adv-x="624" 
d="M569 127q0 -26 -9 -49.5t-27 -40.5t-44 -27t-59 -10h-228q-33 0 -58.5 10t-43.5 27t-27.5 40.5t-9.5 49.5v208q0 26 10 49t28 40t43.5 27t57.5 10h228q65 0 102 -33t37 -93v-208zM524 328q0 42 -23 66t-68 24h-233q-45 0 -68 -25.5t-23 -64.5v-195q0 -42 23 -66t68 -24
h233q45 0 68 24t23 66v195zM501 133q0 -29 -16 -48.5t-54 -19.5h-229q-38 0 -54 19.5t-16 48.5v195q0 29 16 48.5t54 19.5h229q38 0 54 -19.5t16 -48.5v-195zM457 330q0 10 -9 19t-23 9h-217q-14 0 -23 -9t-9 -19v-197q0 -10 9 -19t23 -9h217q14 0 23 9t9 19v197z" />
    <glyph glyph-name="pi" unicode="&#x3c0;" horiz-adv-x="621" 
d="M447 0v358h-276v-358h-113v461h501v-461h-112zM513 419h-409v-380h23v357h364v-357h22v380z" />
    <glyph glyph-name="rho" unicode="&#x3c1;" horiz-adv-x="606" 
d="M557 130q0 -27 -9 -50.5t-26.5 -41.5t-43.5 -28t-59 -10h-229q-8 1 -13 1t-8 1q-4 0 -5 1v-192h-111l-1 519q0 27 10 51t28 42t43.5 28t56.5 10h229q28 0 53.5 -7t44 -23t29.5 -40.5t11 -60.5v-200zM512 330q0 44 -23 66t-65 22h-234q-41 0 -65.5 -25t-24.5 -63v-17.5
v-14.5v-32.5v-71.5t0.5 -131.5t0.5 -211.5h24v214q8 -9 19 -13.5t22 -6.5q12 -3 26 -2h227q50 0 71.5 24.5t21.5 62.5v200zM489 133q0 -29 -16.5 -48.5t-58.5 -19.5h-218q-40 0 -56.5 19.5t-16.5 48.5v195q0 29 16 48.5t57 19.5h218q15 0 28.5 -3t24 -10.5t16.5 -21t6 -33.5
v-195zM446 328q0 12 -9 20.5t-23 8.5h-216q-13 0 -22.5 -8.5t-9.5 -20.5v-195q0 -12 9.5 -20.5t22.5 -8.5h216q14 0 23 8.5t9 20.5v195z" />
    <glyph glyph-name="sigma1" unicode="&#x3c2;" horiz-adv-x="622" 
d="M577 127q0 -26 -9 -49.5t-26.5 -40.5t-43 -27t-59.5 -10h-349v105h344q11 0 21 7t10 18v24q0 11 -7.5 17t-18.5 6h-237q-32 0 -57.5 10t-43.5 27t-28 40.5t-10 49.5v30q0 26 10 49t28 40.5t43.5 27.5t57.5 10h351v-104h-347q-10 0 -20 -7.5t-10 -19.5v-21
q0 -10 9.5 -18.5t20.5 -8.5h233q34 0 60 -10t43.5 -27t26 -40t8.5 -49v-29zM532 156q0 36 -24 61.5t-69 25.5h-239q-33 0 -50.5 18t-17.5 44v29q0 26 19 44.5t49 18.5h314v21h-312q-45 0 -69 -24.5t-24 -59.5v-30q0 -36 24 -59.5t69 -23.5h239q33 0 50.5 -19.5t17.5 -45.5
v-31q0 -26 -19 -43.5t-49 -17.5h-312v-21h310q46 0 69.5 23.5t23.5 60.5v29z" />
    <glyph glyph-name="sigma" unicode="&#x3c3;" horiz-adv-x="624" 
d="M549 357q8 -6 9.5 -17.5t1.5 -19.5v-194q0 -29 -10.5 -52t-29.5 -39.5t-44 -25.5t-53 -9h-229q-32 0 -57.5 10t-43.5 27t-27.5 40t-9.5 49v208q0 26 9.5 49t27 40.5t43 27.5t58.5 10h412v-104h-57zM567 419h-373q-42 0 -67 -24.5t-25 -60.5v-208q0 -36 25 -59.5t67 -23.5
h229q41 0 67 23.5t26 59.5v204q1 16 -3 29q-3 11 -11 22t-23 16h88v22zM493 132q0 -28 -17 -47.5t-46 -19.5h-242q-29 0 -46.5 19.5t-17.5 47.5v196q0 28 17 48.5t59 20.5h231q32 0 47 -22t15 -52v-191zM450 323q0 14 -7.5 23.5t-27.5 9.5h-215q-13 0 -22.5 -8.5t-9.5 -19.5
v-196q0 -10 9 -19t23 -9h218q14 0 23 9t9 19v191z" />
    <glyph glyph-name="tau" unicode="&#x3c4;" horiz-adv-x="456" 
d="M256 357l1 -224q0 -12 9 -20t22 -8h146v-105h-150q-30 0 -55.5 10t-44 27t-29 40t-10.5 49v231h-129v104h419v-104h-179zM396 418h-341v-22h137v-270q0 -36 24 -59.5t68 -23.5h111v22h-107q-37 0 -55.5 18.5t-18.5 47.5v265h182v22z" />
    <glyph glyph-name="upsilon" unicode="&#x3c5;" horiz-adv-x="600" 
d="M562 125q0 -29 -11 -52t-29.5 -39.5t-44 -25t-53.5 -8.5h-229q-31 0 -56.5 10t-44 27t-28.5 39.5t-10 48.5v336h113v-329q0 -11 9 -19.5t23 -8.5h218q14 0 22.5 8.5t8.5 19.5v329h112v-336zM518 421h-24v-289q0 -28 -17 -47.5t-58 -19.5h-218q-40 0 -58 19.5t-18 47.5
v289h-22v-296q0 -35 25 -58.5t67 -23.5h229q41 0 67.5 23.5t26.5 58.5v296z" />
    <glyph glyph-name="phi" unicode="&#x3c6;" horiz-adv-x="740" 
d="M698 129q0 -31 -11 -55.5t-29.5 -41t-44 -25t-54.5 -8.5h-131v-188h-113v188h-131q-29 0 -54 8.5t-43.5 25t-29.5 40.5t-11 56v201q0 27 9 50.5t26.5 41t43.5 28t59 10.5h375q37 0 63 -10.5t43 -28t25 -41t8 -50.5v-201zM653 330q0 38 -23 62t-71 24h-375q-41 0 -67 -24
t-26 -62v-201q0 -45 26 -66t67 -21h177v-192h22v192h176q42 0 68 22.5t26 64.5v201zM631 134q0 -29 -17.5 -49.5t-59.5 -20.5h-171v331h171q22 0 37 -6t24 -16t12.5 -23t3.5 -27v-189zM190 64q-15 0 -28.5 3t-24 10.5t-17 21t-6.5 35.5v189q0 14 3 27t11.5 23t23.5 16t38 6
h171v-331h-171zM586 323q0 14 -9.5 23.5t-22.5 9.5h-126v-252h126q14 0 23 9t9 21v189zM315 356h-125q-13 0 -22.5 -10.5t-9.5 -22.5v-189q0 -12 9.5 -21t22.5 -9h125v252z" />
    <glyph glyph-name="chi" unicode="&#x3c7;" horiz-adv-x="584" 
d="M568 461q-77 -86 -119.5 -133t-61.5 -69q-23 -26 -27 -30q4 -4 27 -30q10 -11 24.5 -27.5t36.5 -40.5t51 -56.5t67 -74.5h-147l-132 147l-3.5 -3.5t-16.5 -18t-40 -44t-74 -81.5h-147q76 84 118 130.5t62 68.5q23 26 28 30q-5 4 -28 30q-20 22 -62 69t-118 133h146
l135 -151l3 4t16.5 19t41 45t75.5 83h145zM473 39q-18 19 -44 47q-22 24 -54 59.5t-75 83.5q44 48 76 84.5t53 60.5l42 48h-25q-8 -10 -28 -32q-17 -19 -48.5 -53.5t-82.5 -91.5q-51 57 -82.5 91.5t-48.5 53.5q-20 22 -29 32h-25l42 -48q21 -24 53 -60.5t76 -84.5
q-44 -48 -75.5 -83.5t-53.5 -59.5q-26 -28 -43 -47h30q8 10 27 32q17 19 47.5 53t81.5 90q50 -56 80 -90t47 -53q19 -22 28 -32h31z" />
    <glyph glyph-name="psi" unicode="&#x3c8;" horiz-adv-x="738" 
d="M691 130q0 -27 -9.5 -50.5t-27 -41.5t-43 -28t-58.5 -10h-132v-189h-113v189h-130q-33 0 -58.5 10t-43.5 28t-27.5 41.5t-9.5 50.5v269h113v-264q0 -13 9 -21.5t23 -8.5h124v354h113v-354h127q14 0 23 8.5t9 21.5v264h111v-269zM646 360h-23v-225q0 -29 -15.5 -49.5
t-59.5 -20.5h-170v355h-23v-355h-171q-42 0 -59.5 20.5t-17.5 49.5v224h-21v-229q0 -38 22 -62.5t70 -24.5h177v-193h23v193h175q48 0 70.5 24.5t22.5 62.5v230z" />
    <glyph glyph-name="omega" unicode="&#x3c9;" horiz-adv-x="740" 
d="M699 130q0 -27 -9 -50.5t-26.5 -41.5t-43.5 -28t-59 -10h-376q-68 0 -103 38t-35 92v204q0 28 10 51.5t28 40t42.5 26t52.5 9.5h78v-103h-56q-24 0 -34 -9.5t-10 -37.5v-177q0 -12 9.5 -20.5t22.5 -8.5h126v251h113v-251h127q13 0 22 8.5t9 20.5v183q0 21 -8.5 31.5
t-37.5 10.5l-51 -1v103h86q28 0 51 -10t39 -27.5t24.5 -40.5t8.5 -50v-203zM654 130q0 66 -0.5 106t-0.5 61v34q0 38 -22.5 63t-70.5 25h-30v-21h16q30 0 47.5 -7.5t26 -19t10.5 -26t2 -28.5v-185q0 -29 -18 -47.5t-50 -18.5h-180v250h-23v-250h-180q-24 0 -45 13.5
t-21 52.5v179q0 14 1.5 29.5t9 28t22.5 21t43 8.5h28v21h-34q-19 0 -37 -6.5t-32 -21.5q-14 -14 -19 -31.5t-5 -36.5v-193q0 -38 22.5 -62.5t64.5 -24.5h382q47 0 70 24.5t23 62.5z" />
    <glyph glyph-name="iotadieresis" unicode="&#x3ca;" horiz-adv-x="273" 
d="M74 0v461h112v-461h-112zM-47 542v107h112v-107h-112zM197 542v107h111v-107h-111zM142 422h-23v-383h23v383zM264 609h-23v-28h23v28zM20 609h-23v-28h23v28z" />
    <glyph glyph-name="upsilondieresis" unicode="&#x3cb;" horiz-adv-x="600" 
d="M562 125q0 -29 -11 -52t-29.5 -39.5t-44 -25t-53.5 -8.5h-229q-31 0 -56.5 10t-44 27t-28.5 39.5t-10 48.5v336h113v-329q0 -11 9 -19.5t23 -8.5h218q14 0 22.5 8.5t8.5 19.5v329h112v-336zM518 421h-24v-289q0 -28 -17 -47.5t-58 -19.5h-218q-40 0 -58 19.5t-18 47.5
v289h-22v-296q0 -35 25 -58.5t67 -23.5h229q41 0 67.5 23.5t26.5 58.5v296zM135 542v107h112v-107h-112zM379 542v107h111v-107h-111zM446 609h-23v-28h23v28zM202 609h-23v-28h23v28z" />
    <glyph glyph-name="omicrontonos" unicode="&#x3cc;" horiz-adv-x="623" 
d="M569 127q0 -26 -9 -49.5t-27 -40.5t-44 -27t-59 -10h-228q-33 0 -58.5 10t-43.5 27t-27.5 40.5t-9.5 49.5v208q0 26 10 49t28 40t43.5 27t57.5 10h228q65 0 102 -33t37 -93v-208zM524 328q0 42 -23 66t-68 24h-233q-45 0 -68 -25.5t-23 -64.5v-195q0 -42 23 -66t68 -24
h233q45 0 68 24t23 66v195zM501 133q0 -29 -16 -48.5t-54 -19.5h-229q-38 0 -54 19.5t-16 48.5v195q0 29 16 48.5t54 19.5h229q38 0 54 -19.5t16 -48.5v-195zM457 330q0 10 -9 19t-23 9h-217q-14 0 -23 -9t-9 -19v-197q0 -10 9 -19t23 -9h217q14 0 23 9t9 19v197zM319 497
l-84 56l114 144l108 -69zM294 561l18 -14l79 75l-32 22z" />
    <glyph glyph-name="upsilontonos" unicode="&#x3cd;" horiz-adv-x="600" 
d="M562 125q0 -29 -11 -52t-29.5 -39.5t-44 -25t-53.5 -8.5h-229q-31 0 -56.5 10t-44 27t-28.5 39.5t-10 48.5v336h113v-329q0 -11 9 -19.5t23 -8.5h218q14 0 22.5 8.5t8.5 19.5v329h112v-336zM518 421h-24v-289q0 -28 -17 -47.5t-58 -19.5h-218q-40 0 -58 19.5t-18 47.5
v289h-22v-296q0 -35 25 -58.5t67 -23.5h229q41 0 67.5 23.5t26.5 58.5v296zM320 497l-84 56l114 144l108 -69zM295 561l18 -14l79 75l-32 22z" />
    <glyph glyph-name="omegatonos" unicode="&#x3ce;" horiz-adv-x="756" 
d="M699 130q0 -27 -9 -50.5t-26.5 -41.5t-43.5 -28t-59 -10h-376q-68 0 -103 38t-35 92v204q0 28 10 51.5t28 40t42.5 26t52.5 9.5h78v-103h-56q-24 0 -34 -9.5t-10 -37.5v-177q0 -12 9.5 -20.5t22.5 -8.5h126v251h113v-251h127q13 0 22 8.5t9 20.5v183q0 21 -8.5 31.5
t-37.5 10.5l-51 -1v103h86q28 0 51 -10t39 -27.5t24.5 -40.5t8.5 -50v-203zM654 130q0 66 -0.5 106t-0.5 61v34q0 38 -22.5 63t-70.5 25h-30v-21h16q30 0 47.5 -7.5t26 -19t10.5 -26t2 -28.5v-185q0 -29 -18 -47.5t-50 -18.5h-180v250h-23v-250h-180q-24 0 -45 13.5
t-21 52.5v179q0 14 1.5 29.5t9 28t22.5 21t43 8.5h28v21h-34q-19 0 -37 -6.5t-32 -21.5q-14 -14 -19 -31.5t-5 -36.5v-193q0 -38 22.5 -62.5t64.5 -24.5h382q47 0 70 24.5t23 62.5zM389 497l-84 56l114 144l108 -69zM364 561l18 -14l79 75l-32 22z" />
    <glyph glyph-name="afii10023" unicode="&#x401;" horiz-adv-x="548" 
d="M170 0q-32 0 -57.5 10t-43.5 28t-27.5 41.5t-9.5 50.5v388q0 27 9 50.5t26.5 41.5t43.5 28t59 10h352v-104h-347q-13 0 -21.5 -8.5t-8.5 -19.5v-70h323v-104h-323v-208q0 -11 8.5 -20t23.5 -9h345v-105h-352zM482 66h-305q-44 0 -60 20t-16 48v248h328v21h-328v109
q0 14 3.5 27t12 23t23 16t35.5 6h307v21h-312q-43 0 -67.5 -24.5t-24.5 -62.5v-388q0 -38 22 -62.5t70 -24.5h312v23zM124 729v107h112v-107h-112zM368 729v107h111v-107h-111zM191 796h-23v-28h23v28zM435 796h-23v-28h23v28z" />
    <glyph glyph-name="afii10051" unicode="&#x402;" horiz-adv-x="735" 
d="M703 24q0 -27 -9 -51t-27 -42t-44 -28.5t-59 -10.5h-68v107h62q14 0 23 7.5t9 21.5v273q0 11 -8 19t-20 8h-245v-328h-113v540h-190v108h576v-108h-273v-109h254q63 0 97.5 -36t34.5 -91v-280zM658 295q0 38 -21 65.5t-71 27.5h-294v197h278v20h-497v-20h197v-546h22v328
h288q42 0 58.5 -20t16.5 -49v-269q0 -29 -15.5 -50.5t-61.5 -21.5h-23v-22h29q49 0 71.5 25.5t22.5 63.5v271z" />
    <glyph glyph-name="afii10052" unicode="&#x403;" horiz-adv-x="486" 
d="M168 544l1 -544h-113v648h415v-104h-303zM241 695l-77 65l129 131l100 -80zM432 606h-329v-37.5v-66v-85t-0.5 -95t-0.5 -95v-85v-66v-37.5h22v545h308v22zM298 846l-82 -83l27 -22l93 75z" />
    <glyph glyph-name="afii10053" unicode="&#x404;" horiz-adv-x="556" 
d="M373 372v21h-279v123q0 29 16 48.5t54 19.5h228q38 0 54 -19.5t16 -48.5v-6h23v5q0 43 -23 67t-68 24h-232q-45 0 -68 -25.5t-23 -65.5v-382q0 -42 23 -66t68 -24h232q45 0 68 24t23 66v6h-23v-6q0 -29 -16 -48.5t-54 -19.5h-228q-38 0 -54 19.5t-16 48.5v239h279z
M138 133q0 -10 8.5 -19t23.5 -9h216q15 0 23.5 9t8.5 19v45h112v-51q0 -26 -9 -49.5t-27 -40.5t-44 -27t-59 -10h-227q-33 0 -58.5 10t-43.5 27t-27.5 40.5t-9.5 49.5v395q0 26 10 49t28 40.5t43.5 27.5t57.5 10h227q65 0 102 -33t37 -94v-51h-112v46q0 10 -8.5 19t-23.5 9
h-216q-15 0 -23.5 -9t-8.5 -19v-81h274v-104h-274v-199z" />
    <glyph glyph-name="afii10054" unicode="&#x405;" horiz-adv-x="572" 
d="M541 127q0 -26 -9 -49.5t-26.5 -40.5t-43 -27t-59.5 -10h-349v105h344q11 0 21 7t10 18v120q0 11 -7.5 17t-18.5 6h-237q-32 0 -57.5 10t-43.5 27t-28 40.5t-10 49.5v121q0 26 10 49t28 40.5t43.5 27.5t57.5 10h353v-104h-349q-10 0 -20 -8t-10 -19v-112q0 -10 9.5 -18.5
t20.5 -8.5h233q34 0 60 -10t43.5 -27t26 -40t8.5 -49v-125zM496 252q0 36 -24 61t-69 25h-239q-33 0 -50.5 18.5t-17.5 44.5v120q0 26 19 44t49 18h316v21h-314q-45 0 -69 -24.5t-24 -58.5v-121q0 -37 24 -60.5t69 -23.5h239q33 0 50.5 -19t17.5 -45v-127q0 -26 -19 -43.5
t-49 -17.5h-312v-21h310q46 0 69.5 23.5t23.5 60.5v125z" />
    <glyph glyph-name="afii10055" unicode="&#x406;" horiz-adv-x="276" 
d="M80 0v648h112v-648h-112zM148 609h-22v-570h22v570z" />
    <glyph glyph-name="afii10056" unicode="&#x407;" horiz-adv-x="276" 
d="M80 0v648h112v-648h-112zM148 609h-22v-570h22v570zM-40 729v107h112v-107h-112zM204 729v107h111v-107h-111zM27 796h-23v-28h23v28zM271 796h-23v-28h23v28z" />
    <glyph glyph-name="afii10057" unicode="&#x408;" horiz-adv-x="386" 
d="M321 129q0 -31 -11 -55t-29.5 -40.5t-44 -25t-54.5 -8.5h-171v105h165q14 0 23 8t9 21v515h113v-520zM276 609h-24v-475q0 -20 -6.5 -33.5t-17 -21.5t-24 -11.5t-28.5 -3.5h-126v-21h132q42 0 68 21t26 65v480z" />
    <glyph glyph-name="afii10058" unicode="&#x409;" horiz-adv-x="997" 
d="M489 583v-540h408v282q0 38 -21 65.5t-71 27.5h-292v188h-233q-41 0 -66 -26.5t-28 -64.5l-29 -392q-1 -18 -8.5 -30.5t-19.5 -21t-27 -12.5t-30 -4h-13v-23h19q45 0 73 25t30 63l27 393q2 28 22.5 49t55.5 21h203zM874 66h-361v330h286q38 0 56.5 -21.5t18.5 -50.5v-258
zM829 331q0 13 -8 20t-20 7h-246v-253h274v226zM288 545q-16 0 -25.5 -10.5t-10.5 -23.5l-29 -393q-2 -28 -13 -51.5t-30 -40.5t-45 -26.5t-57 -9.5h-61v103h46q25 0 36.5 9t12.5 23l29 393q2 27 13 50.5t29.5 41t43 27.5t53.5 10l278 1v-187h252q63 0 97.5 -36t34.5 -91
v-334h-500v545h-154z" />
    <glyph glyph-name="afii10059" unicode="&#x40a;" horiz-adv-x="908" 
d="M353 0v357h-182v-357h-113v648h113v-191h182v191h116v-187h252q63 0 97.5 -36t34.5 -91v-334h-500zM400 397v-354h408v282q0 38 -21 65.5t-71 27.5h-292v186h-24v-186h-274v191h-22v-570h22v358h274zM785 66h-361v331h286q38 0 56.5 -20t18.5 -49v-262zM740 331
q0 11 -8 19t-20 8h-246v-253h274v226z" />
    <glyph glyph-name="afii10060" unicode="&#x40b;" horiz-adv-x="751" 
d="M317 431h254q63 0 97.5 -36t34.5 -91v-304h-113v301q0 11 -8 19t-20 8h-245v-328h-113v540h-190v108h576v-108h-273v-109zM560 367q42 0 58.5 -20t16.5 -49v-255h23v252q0 38 -21 65.5t-71 27.5h-294v197h278v20h-497v-20h197v-546h22v328h288z" />
    <glyph glyph-name="afii10061" unicode="&#x40c;" horiz-adv-x="594" 
d="M587 648q-57 -98 -89 -150.5t-47 -78.5l-21 -35q28 -10 51.5 -27.5t40 -40t25.5 -49t9 -55.5v-212h-111v212q0 16 -7 31t-19 25.5t-27.5 17t-32.5 6.5h-191v-292h-113v649h113v-252h137q3 5 20 33q14 24 44.5 74.5t86.5 143.5h131zM487 609l-145 -252h-218v251h-23v-56.5
v-102.5v-125v-125t-0.5 -103t-0.5 -57h24v295h243q25 0 47.5 -10t39 -26.5t26 -39t9.5 -46.5v-173h22v173q0 31 -11.5 57t-31 45t-45 30t-53.5 13l141 252h-24zM262 695l-77 65l129 131l100 -80zM319 846l-82 -83l27 -22l93 75z" />
    <glyph glyph-name="afii10062" unicode="&#x40e;" horiz-adv-x="602" 
d="M542 131q0 -31 -10.5 -55.5t-29.5 -41t-44 -25.5t-54 -9h-226v105h220q14 0 23 8t9 21v52h-252q-32 0 -58 10t-44 27.5t-27.5 41t-9.5 50.5v333h114v-328q0 -11 7.5 -20.5t20.5 -9.5h248v358h113v-517zM454 879v-49q0 -33 -10 -57.5t-27.5 -41t-40.5 -25t-49 -8.5h-58
q-26 0 -49 8.5t-40 25.5t-27 41.5t-10 56.5v49h103v-43q0 -14 9 -25.5t19 -11.5h47q10 0 19 11.5t9 25.5v43h105zM497 609h-23v-357h-290q-23 0 -38 5.5t-23.5 14.5t-12 21.5t-3.5 26.5v289h-23v-294q0 -37 23 -61.5t71 -24.5h296v-95q0 -39 -23 -54.5t-53 -15.5h-181v-21
h187q42 0 67.5 22t25.5 66v478zM389 838v-8q0 -38 -19.5 -54t-48.5 -16h-45q-29 0 -48.5 16t-19.5 54v11h-22v-13q0 -45 25.5 -68t64.5 -23h45q42 0 66 23t24 68v10h-22z" />
    <glyph glyph-name="afii10145" unicode="&#x40f;" horiz-adv-x="604" 
d="M366 0v-155h-111v155h-198v648h111v-545h277v545h111v-648h-190zM301 42v-157h23v157h188v567h-23v-544h-363v544h-22v-567h197z" />
    <glyph glyph-name="afii10017" unicode="&#x410;" horiz-adv-x="582" 
d="M546 0h-111v343h-283v-54q0 -24 0.5 -55t0.5 -63v-171h-112v519q0 27 10 50.5t28 41t43.5 27.5t56.5 10h368zM501 605h-322q-41 0 -66.5 -24.5t-25.5 -61.5v-480h23v342h367v-342h24v566zM110 403v109q0 14 3.5 27t12 22.5t23 15.5t36.5 6h292v-180h-367zM435 544h-250
q-14 0 -23.5 -10t-9.5 -22v-66h283v98z" />
    <glyph glyph-name="afii10018" unicode="&#x411;" horiz-adv-x="608" 
d="M63 648h418v-104h-302v-103h252q63 0 97.5 -36t34.5 -91v-314h-500v648zM442 584v22h-332v-563h408v262q0 38 -21 65.5t-71 27.5h-292v186h308zM495 66h-361v311h286q42 0 58.5 -20t16.5 -49v-242zM450 311q0 11 -8 19t-20 8h-246v-233h274v206z" />
    </font>
</defs>
</svg>
